<svg xmlns="http://www.w3.org/2000/svg" width="520" height="761"><defs><style>.cls-1,.cls-5{fill-rule:evenodd}.cls-5{fill:none;stroke:#000;stroke-width:2.51px}</style></defs><path class="cls-1" d="M520 761 391.064 634.275v-37.848L283.892 490.7V279.829L0 0h520v761Z"/><path d="M77 51s27.25 497.25 75 497 92.25-223.75 89-388" style="stroke-width:3.15px;fill:none;stroke:#000;fill-rule:evenodd"/><path d="M105 91s45.487 146.5 201 209" style="stroke-width:8.92px;opacity:.91;fill:none;stroke:#000;fill-rule:evenodd"/><path d="M338 493S184.337 269.172 236 176" style="stroke-width:8.28px;opacity:.49;fill:none;stroke:#000;fill-rule:evenodd"/><path class="cls-5" d="M270 232c-9.318 12.847-8.895 163.31 33 192"/><path d="M363 349s-195.342-36.159-166-193" style="stroke-width:5.07px;fill:none;stroke:#000;fill-rule:evenodd"/><path class="cls-5" d="M400 630s-105.109-81.755-103-146"/><path d="M477 716s-3.228 57.549-22 23c-16.726-30.784-21.147-65.5-39-106" style="stroke-width:3.79px;fill:none;stroke:#000;fill-rule:evenodd"/><path d="M488 694s-9.655 69.781-32 37c-15.427-22.632-13.908-121.6-12-139" style="stroke-width:9.56px;opacity:.5;fill:none;stroke:#000;fill-rule:evenodd"/><path d="M477 691s-134.537 31.968-147-210" style="stroke-width:6.35px;opacity:.59;fill:none;stroke:#000;fill-rule:evenodd"/><path d="M144 91s60.63 509.763 123 102" style="stroke-width:6.99px;opacity:.32;fill:none;stroke:#000;fill-rule:evenodd"/><path class="cls-1" d="M150.849 493.192a1.2 1.2 0 0 1 .769-.19c.071.644-.618.923-.961 1.358a11.71 11.71 0 0 0-2.523 5.387 9.542 9.542 0 0 0-.167 2.94 5.866 5.866 0 0 0 2.97 3.994 7.231 7.231 0 0 0 5.059.9 6.164 6.164 0 0 0 3.21-1.7 6.292 6.292 0 0 0 1.651-2.854 6.767 6.767 0 0 0-.984-4.854 4.836 4.836 0 0 0-2.386-2.406 4.1 4.1 0 0 0-3.479.444 1.546 1.546 0 0 1-1.291.419.825.825 0 0 1 .535-1.013 9.008 9.008 0 0 1 2.392-.953 7.68 7.68 0 0 1 2.168.032 6.171 6.171 0 0 1 3.587 3.656 6.446 6.446 0 0 1 .461 4.928 7.822 7.822 0 0 1-3.261 4.157 10.1 10.1 0 0 1-1.985.938 7.019 7.019 0 0 0 .312 1.607 10.42 10.42 0 0 0 .394 1.758 3.622 3.622 0 0 1 1.736-.278 2.381 2.381 0 0 1 1.779 1.254 1.057 1.057 0 0 0 .55.687c1.875.351 3.743.749 5.611 1.132.7-.066 1.4-.5 2.116-.176.056.224.113.447.166.672 1.756.225 3.476.669 5.217.977 6.406 1.254 12.815 2.488 19.239 3.645 3.083.515 6.153 1.142 9.266 1.452 0 .1 0 .287-.008.383-1.661-.122-3.3-.432-4.942-.706-5.814-.95-11.595-2.087-17.381-3.184-3.442-.651-6.873-1.354-10.311-2.021a5.724 5.724 0 0 0-1.332-.21 7.351 7.351 0 0 1-1.192.616 15.325 15.325 0 0 1-1.814.219c-1.54.283-3.055-.3-4.593-.313a1.487 1.487 0 0 1-1.31-1.083 5.263 5.263 0 0 0-.7-1.415 8.771 8.771 0 0 0-2-.386 14.527 14.527 0 0 0 .152 2.115 39.6 39.6 0 0 1 .083 4.219c-.079.829-.007 1.668-.163 2.491a41.191 41.191 0 0 1-.375 4.285 20.082 20.082 0 0 0-.229 2.566q.036 4.334-.031 8.667a2.022 2.022 0 0 0 .314 1.424c1.178 1.443 3.059 1.941 4.738 2.551a10.4 10.4 0 0 0 2.375.17.884.884 0 0 1 .733.716 1.164 1.164 0 0 1-1.272.648 6 6 0 0 1-2.32-.662c-1.943-.626-4.053-1.193-5.514-2.708-.667-.679-.517-1.686-.511-2.547-.029-1.5.244-3 .08-4.5a6.891 6.891 0 0 0-.773 1.321 12.052 12.052 0 0 1-3.2 3.4 18.234 18.234 0 0 0-3.241 3.806 20.229 20.229 0 0 0-1.595 2.34 1.172 1.172 0 0 0 .015.8 1.8 1.8 0 0 1-2.743.417c-.234-.247.072-.554.293-.675a3.359 3.359 0 0 0 1.07-.682c1.164-1.51 2.2-3.114 3.407-4.591a32.432 32.432 0 0 1 3.031-2.935 15.2 15.2 0 0 0 3.375-5.941 61.7 61.7 0 0 0 1.111-8.737 52.575 52.575 0 0 0-.282-8.229 29.8 29.8 0 0 0-3.474.778 18.217 18.217 0 0 1-4.452.886 14.069 14.069 0 0 1-5.434-1.109 24.72 24.72 0 0 1-3.735-1.7 11.589 11.589 0 0 0-1.817-1.051c-.743-.322-.762-1.239-.767-1.931-9.108-1.932-18.228-3.816-27.31-5.866a12.278 12.278 0 0 1-1.95-.5 1.161 1.161 0 0 1 1.026-.1c2.457.608 4.943 1.083 7.41 1.645 6.821 1.458 13.639 2.935 20.467 4.355.5.144.788-.49 1.259-.494a4.623 4.623 0 0 1 .915.886 8.013 8.013 0 0 0 1.732.43c4.575.945 9.148 1.9 13.726 2.826a15.388 15.388 0 0 0 2.24.407 27.559 27.559 0 0 0-.69-3.608 8.835 8.835 0 0 1-5.529-1.484 6.475 6.475 0 0 1-2.65-3.895 12.729 12.729 0 0 1 1.337-6.783 8.584 8.584 0 0 1 2.606-3.241m-12.737 16a1.6 1.6 0 0 0 .334.606 8.495 8.495 0 0 0 2.226 1.552 27.59 27.59 0 0 0 5.17 2.007 6.879 6.879 0 0 0 2.442.373 16.99 16.99 0 0 0 4.985-.95 4.654 4.654 0 0 0 1.118-.419c-4.879-1.011-9.766-1.994-14.64-3.028a3.45 3.45 0 0 0-1.635-.141m19.184 3.083a1.6 1.6 0 0 0 1.638.457 1.489 1.489 0 0 0-1.638-.457m4.182 1.605a1.525 1.525 0 0 0 1.048 1.415 10.984 10.984 0 0 0 1.346.05 13.868 13.868 0 0 0 2.3.244 1.259 1.259 0 0 0 .409-.716c-1.687-.389-3.406-.666-5.109-.983Zm-9.471-18.973a4.269 4.269 0 0 1 2.361-1.347l.23.325c-.391.325-.834.579-1.233.9a22.3 22.3 0 0 0-2.732 3.089 1.218 1.218 0 0 1-1.406.614 1.413 1.413 0 0 1 .329-.735 34.567 34.567 0 0 1 2.451-2.846Zm2.547 5.765a.684.684 0 0 1 .722.309 1.012 1.012 0 0 1-.025 1.374.941.941 0 0 1-1.263-1.109.815.815 0 0 1 .566-.574Zm-3.941 1.045a.87.87 0 0 1 1.1.96.816.816 0 0 1-.856.737.98.98 0 0 1-.244-1.697Zm3.394 2.054a.753.753 0 0 1 .78.271 2.115 2.115 0 0 1 .581 1.747 1.151 1.151 0 0 1-.987.893 1.539 1.539 0 0 1-.88-1.283 1.586 1.586 0 0 1 .506-1.628Z"/><path d="M178 159S84.432 156.123 51 43" style="stroke-width:1.87px;fill:none;stroke:#000;fill-rule:evenodd"/></svg>