<svg xmlns="http://www.w3.org/2000/svg" width="520" height="761" viewBox="0 0 520 761">
  <defs>
    <style>
      .cls-1, .cls-10, .cls-11, .cls-2, .cls-3, .cls-4, .cls-5, .cls-6, .cls-7, .cls-8, .cls-9 {
        fill-rule: evenodd;
      }

      .cls-10, .cls-11, .cls-2, .cls-3, .cls-4, .cls-5, .cls-6, .cls-7, .cls-8, .cls-9 {
        fill: none;
        stroke: #000;
      }

      .cls-2 {
        stroke-width: 3.15px;
      }

      .cls-3 {
        stroke-width: 8.92px;
        opacity: 0.91;
      }

      .cls-4 {
        stroke-width: 8.28px;
        opacity: 0.49;
      }

      .cls-5 {
        stroke-width: 2.51px;
      }

      .cls-6 {
        stroke-width: 5.07px;
      }

      .cls-7 {
        stroke-width: 3.79px;
      }

      .cls-8 {
        stroke-width: 9.56px;
        opacity: 0.5;
      }

      .cls-9 {
        stroke-width: 6.35px;
        opacity: 0.59;
      }

      .cls-10 {
        stroke-width: 6.99px;
        opacity: 0.32;
      }

      .cls-11 {
        stroke-width: 1.87px;
      }
    </style>
  </defs>
  <path class="cls-1" d="M520,761L391.064,634.275V596.427L283.892,490.7V279.829L0,0H520V761Z"/>
  <path class="cls-2" d="M77,51s27.25,497.25,75,497,92.25-223.75,89-388"/>
  <path class="cls-3" d="M105,91s45.487,146.5,201,209"/>
  <path class="cls-4" d="M338,493S184.337,269.172,236,176"/>
  <path class="cls-5" d="M270,232c-9.318,12.847-8.895,163.31,33,192"/>
  <path class="cls-6" d="M363,349S167.658,312.841,197,156"/>
  <path class="cls-5" d="M400,630S294.891,548.245,297,484"/>
  <path class="cls-7" d="M477,716s-3.228,57.549-22,23c-16.726-30.784-21.147-65.5-39-106"/>
  <path class="cls-8" d="M488,694s-9.655,69.781-32,37c-15.427-22.632-13.908-121.6-12-139"/>
  <path class="cls-9" d="M477,691S342.463,722.968,330,481"/>
  <path class="cls-10" d="M144,91s60.63,509.763,123,102"/>
  <path class="cls-1" d="M150.849,493.192a1.2,1.2,0,0,1,.769-0.19c0.071,0.644-.618.923-0.961,1.358a11.71,11.71,0,0,0-2.523,5.387,9.542,9.542,0,0,0-.167,2.94,5.866,5.866,0,0,0,2.97,3.994,7.231,7.231,0,0,0,5.059.9,6.164,6.164,0,0,0,3.21-1.7,6.292,6.292,0,0,0,1.651-2.854,6.767,6.767,0,0,0-.984-4.854,4.836,4.836,0,0,0-2.386-2.406,4.1,4.1,0,0,0-3.479.444,1.546,1.546,0,0,1-1.291.419,0.825,0.825,0,0,1,.535-1.013,9.008,9.008,0,0,1,2.392-.953,7.68,7.68,0,0,1,2.168.032,6.171,6.171,0,0,1,3.587,3.656,6.446,6.446,0,0,1,.461,4.928,7.822,7.822,0,0,1-3.261,4.157,10.1,10.1,0,0,1-1.985.938,7.019,7.019,0,0,0,.312,1.607,10.42,10.42,0,0,0,.394,1.758,3.622,3.622,0,0,1,1.736-.278,2.381,2.381,0,0,1,1.779,1.254,1.057,1.057,0,0,0,.55.687c1.875,0.351,3.743.749,5.611,1.132,0.7-.066,1.4-0.5,2.116-0.176,0.056,0.224.113,0.447,0.166,0.672,1.756,0.225,3.476.669,5.217,0.977,6.406,1.254,12.815,2.488,19.239,3.645,3.083,0.515,6.153,1.142,9.266,1.452,0,0.1,0,.287-0.008.383-1.661-.122-3.3-0.432-4.942-0.706-5.814-.95-11.595-2.087-17.381-3.184-3.442-.651-6.873-1.354-10.311-2.021a5.724,5.724,0,0,0-1.332-.21,7.351,7.351,0,0,1-1.192.616,15.325,15.325,0,0,1-1.814.219c-1.54.283-3.055-.3-4.593-0.313a1.487,1.487,0,0,1-1.31-1.083,5.263,5.263,0,0,0-.7-1.415,8.771,8.771,0,0,0-2-.386,14.527,14.527,0,0,0,.152,2.115,39.6,39.6,0,0,1,.083,4.219c-0.079.829-.007,1.668-0.163,2.491a41.191,41.191,0,0,1-.375,4.285,20.082,20.082,0,0,0-.229,2.566q0.036,4.334-.031,8.667a2.022,2.022,0,0,0,.314,1.424c1.178,1.443,3.059,1.941,4.738,2.551a10.4,10.4,0,0,0,2.375.17,0.884,0.884,0,0,1,.733.716,1.164,1.164,0,0,1-1.272.648,6,6,0,0,1-2.32-.662c-1.943-.626-4.053-1.193-5.514-2.708-0.667-.679-0.517-1.686-0.511-2.547-0.029-1.5.244-3,.08-4.5a6.891,6.891,0,0,0-.773,1.321,12.052,12.052,0,0,1-3.2,3.4,18.234,18.234,0,0,0-3.241,3.806,20.229,20.229,0,0,0-1.595,2.34,1.172,1.172,0,0,0,.015.8,1.8,1.8,0,0,1-2.743.417c-0.234-.247.072-0.554,0.293-0.675a3.359,3.359,0,0,0,1.07-.682c1.164-1.51,2.2-3.114,3.407-4.591a32.432,32.432,0,0,1,3.031-2.935,15.2,15.2,0,0,0,3.375-5.941,61.7,61.7,0,0,0,1.111-8.737,52.575,52.575,0,0,0-.282-8.229,29.8,29.8,0,0,0-3.474.778,18.217,18.217,0,0,1-4.452.886,14.069,14.069,0,0,1-5.434-1.109,24.72,24.72,0,0,1-3.735-1.7,11.589,11.589,0,0,0-1.817-1.051c-0.743-.322-0.762-1.239-0.767-1.931-9.108-1.932-18.228-3.816-27.31-5.866a12.278,12.278,0,0,1-1.95-.5,1.161,1.161,0,0,1,1.026-.1c2.457,0.608,4.943,1.083,7.41,1.645,6.821,1.458,13.639,2.935,20.467,4.355,0.5,0.144.788-.49,1.259-0.494a4.623,4.623,0,0,1,.915.886,8.013,8.013,0,0,0,1.732.43c4.575,0.945,9.148,1.9,13.726,2.826a15.388,15.388,0,0,0,2.24.407,27.559,27.559,0,0,0-.69-3.608,8.835,8.835,0,0,1-5.529-1.484,6.475,6.475,0,0,1-2.65-3.895,12.729,12.729,0,0,1,1.337-6.783,8.584,8.584,0,0,1,2.606-3.241m-12.737,16a1.6,1.6,0,0,0,.334.606,8.495,8.495,0,0,0,2.226,1.552,27.59,27.59,0,0,0,5.17,2.007,6.879,6.879,0,0,0,2.442.373,16.99,16.99,0,0,0,4.985-.95,4.654,4.654,0,0,0,1.118-.419c-4.879-1.011-9.766-1.994-14.64-3.028a3.45,3.45,0,0,0-1.635-.141m19.184,3.083a1.6,1.6,0,0,0,1.638.457,1.489,1.489,0,0,0-1.638-.457m4.182,1.605a1.525,1.525,0,0,0,1.048,1.415,10.984,10.984,0,0,0,1.346.05,13.868,13.868,0,0,0,2.3.244,1.259,1.259,0,0,0,.409-0.716C164.9,514.477,163.181,514.2,161.478,513.883ZM152.013,494.9a4.269,4.269,0,0,1,2.361-1.347l0.23,0.325c-0.391.325-.834,0.579-1.233,0.9a22.3,22.3,0,0,0-2.732,3.089,1.218,1.218,0,0,1-1.406.614,1.413,1.413,0,0,1,.329-0.735A34.567,34.567,0,0,1,152.013,494.9Zm2.547,5.765a0.684,0.684,0,0,1,.722.309,1.012,1.012,0,0,1-.025,1.374,0.941,0.941,0,0,1-1.263-1.109A0.815,0.815,0,0,1,154.56,500.665Zm-3.941,1.045a0.87,0.87,0,0,1,1.1.96,0.816,0.816,0,0,1-.856.737A0.98,0.98,0,0,1,150.619,501.71Zm3.394,2.054a0.753,0.753,0,0,1,.78.271,2.115,2.115,0,0,1,.581,1.747,1.151,1.151,0,0,1-.987.893,1.539,1.539,0,0,1-.88-1.283A1.586,1.586,0,0,1,154.013,503.764Z"/>
  <path class="cls-11" d="M178,159S84.432,156.123,51,43"/>
</svg>
