<svg xmlns="http://www.w3.org/2000/svg" width="1500" height="2195"><defs><style>.cls-5{fill-rule:evenodd;fill:none;stroke:#000;stroke-width:7.41px}</style></defs><path d="m0 0 372 366v109l309 305v608l819 807H0V0Z" style="fill-rule:evenodd"/><path d="M543 1040s481-4 394 627-372-508-372-508 223-133 223 223 235 517 385 628-894-55-894-55L26 467l150-101s487 54 484 380-231 367-231 367L122 638l43-150 169-13s184-27 255 163-60 293-60 293L306 787 200 611s420-130 547 0-108 367-299 383" style="stroke-width:21.06px;opacity:.6;fill:none;stroke:#000;fill-rule:evenodd"/><path d="M612 1258s194 11 300 142 42 155 118 332 197 232 246 276-62 132-62 132l-548-103-475-369s-73-331-66-346 236-246 236-246 172 49 251-15 103-189 103-253-73-197-184-187-340 91-340 91l-51-238 66-160s211 61 268 135 7 164-32 226-113 263-113 263Z" style="stroke-width:12.87px;opacity:.9;fill:none;stroke:#000;fill-rule:evenodd"/><path d="M84 137s561 42 497 629c-48 439-190 214-190 214s-40-249-59-546S274 100 56 91" style="stroke-width:15.6px;fill:none;stroke:#000;fill-rule:evenodd"/><path class="cls-5" d="M751 1671s580 39 555 377"/><path id="Shape_4_copy" data-name="Shape 4 copy" class="cls-5" d="M-107 263s580 39 555 377"/></svg>