<svg xmlns="http://www.w3.org/2000/svg" width="1500" height="2195" viewBox="0 0 1500 2195">
  <defs>
    <style>
      .cls-1, .cls-2, .cls-3, .cls-4, .cls-5 {
        fill-rule: evenodd;
      }

      .cls-2, .cls-3, .cls-4, .cls-5 {
        fill: none;
        stroke: #000;
      }

      .cls-2 {
        stroke-width: 21.06px;
        opacity: 0.6;
      }

      .cls-3 {
        stroke-width: 12.87px;
        opacity: 0.9;
      }

      .cls-4 {
        stroke-width: 15.6px;
      }

      .cls-5 {
        stroke-width: 7.41px;
      }
    </style>
  </defs>
  <path class="cls-1" d="M0,0L371.94,365.521V474.7L681.094,779.677V1387.9L1500,2195H0V0Z"/>
  <path class="cls-2" d="M543,1040s481.14-3.55,394,627-372-508-372-508,223-132.93,223,223,235.31,517.03,385,628-894-55-894-55L26,467,176,366s487.071,53.628,484,380-231,367-231,367L122,638l43-150,169-13s184.353-26.879,255,163-60,293-60,293L306,787,200,611s419.679-129.948,547,0S638.527,978.11,448,994"/>
  <path class="cls-3" d="M612,1258s194.379,11.34,300,142,41.855,154.81,118,332,197,232.25,246,276-62,132-62,132L666,2037,191,1668s-73.375-330.98-66-346,236-246,236-246,172.428,48.73,251-15S714.838,871.907,715,808,641.92,610.975,531,621s-340,91-340,91L140,474l66-160s211.264,61.127,268,135,7.133,164.281-32,226S329,938,329,938Z"/>
  <path class="cls-4" d="M84,137s560.905,41.529,497,629c-47.751,438.97-190,214-190,214s-39.821-249.417-59-546S273.527,100.152,56,91"/>
  <path class="cls-5" d="M750.5,1670.95s580.59,39.36,555.02,377.31"/>
  <path id="Shape_4_copy" data-name="Shape 4 copy" class="cls-5" d="M-107.5,262.946s580.59,39.367,555.021,377.318"/>
</svg>
