<?xml version="1.0" encoding="utf-8"?>
<!-- Generator: Adobe Illustrator 24.3.0, SVG Export Plug-In . SVG Version: 6.00 Build 0)  -->
<svg version="1.1" id="Layer_1" xmlns="http://www.w3.org/2000/svg" xmlns:xlink="http://www.w3.org/1999/xlink" x="0px" y="0px"
	 viewBox="0 0 1000 200" style="enable-background:new 0 0 1000 200;" xml:space="preserve">
<style type="text/css">
	.st0{fill-rule:evenodd;clip-rule:evenodd;}
	.st1{fill:none;stroke:#000000;stroke-width:1.96;}
	.st2{opacity:0.83;fill:none;stroke:#000000;stroke-width:4.68;enable-background:new    ;}
	.st3{fill:none;stroke:#000000;stroke-width:4.68;}
	.st4{opacity:0.75;fill:none;stroke:#000000;stroke-width:10.14;enable-background:new    ;}
	.st5{opacity:0.55;fill:none;stroke:#000000;stroke-width:4.68;enable-background:new    ;}
	.st6{opacity:0.92;fill:none;stroke:#000000;stroke-width:4.68;enable-background:new    ;}
	.st7{fill-rule:evenodd;clip-rule:evenodd;fill:#088A3A;stroke:#000000;stroke-width:0.25;stroke-miterlimit:10;}
</style>
<path class="st0" d="M1000,0H0v79l121.3-47.5H212l158.6-18.3h312.9L1000,0z"/>
<path class="st1" d="M48,35c0,0,78,316.8,147-9"/>
<path class="st2" d="M11,65c0,0,160.7,55,357-33S612-80,612-80"/>
<path class="st3" d="M254,16c0,0,67.2,342.1,516-24"/>
<path class="st4" d="M687-17c0,0,125,124.3,314,107"/>
<path class="st5" d="M481-6c0,0,19.1,135.2,68,25s28-85,28-85"/>
<path class="st6" d="M306-11c0,0,351.9,148.7,607,2"/>
<path class="st7" d="M607.3,22.4c0.7,0.3,1.3,0.6,2.1,1.1c0.3,0.3,0.4,0.6,0.6,0.9c0.2,0.4,0.3,0.9,0.3,1.4c0.1-0.1,0.3,0,0.4,0
	c0.4,0.3,0.6,0.6,0.8,1c0.3,0.4,0.4,0.9,0.4,1.4c0.1,1.2-0.2,2.4-0.8,3.4c0.1-0.9-0.1-1.8-0.4-2.7c-0.1,0.1-0.3,0.2-0.4,0.3
	c-0.4,0.1-0.9,0.2-1.3,0.1c-0.1,0.6-0.4,1.2-0.6,1.8c-0.1,0.4-0.2,0.8-0.3,1.3c-0.1,0.6-0.2,1.2-0.3,1.8c-0.1,0.7-0.2,1.5-0.3,2.2
	c-0.3,1.7-0.6,3.4-0.9,5.1c-0.5,1.3-1.1,2.5-2,3.5c-0.9,1.3-1.9,2.4-3,3.5c-0.3,0.3-0.6,0.5-0.9,0.9c-0.6,0.7-0.9,1.5-1.1,2.4
	c-0.1,0.4-0.2,0.8-0.3,1.1c0,0.3,0.1,0.4,0.2,0.6c1.1,0.1,2.2,0.1,3.2,0.2c0.4,0,0.9,0.1,1.3,0.3c0.3,0.2,0.5,0.6,0.4,0.9
	c-0.1,0-0.2,0-0.3,0c-0.1-0.1-0.1-0.3-0.3-0.4c-0.2-0.1-0.3-0.1-0.5-0.1c-0.7,0-1.4-0.1-2.1-0.1c-0.4,0-0.8,0-1.2,0
	c-0.7,0.1-1.3,0.5-2.1,0.4c-0.3-0.1-0.6-0.1-0.9-0.3c-0.6,0-1.2,0-1.8-0.1c-0.1-0.1-0.1-0.2,0-0.3c0.6-0.2,1.3-0.3,2-0.3
	c0.3-0.1,0.1-0.4-0.1-0.5c-0.3-0.3-0.6-0.6-0.8-0.8c-0.4-0.4-0.9-0.6-1.5-0.5c-0.4,0.3-0.8,0.6-1,0.9c-0.8,1.2-1.5,2.5-2.1,3.8
	c-0.4,0.8-0.8,1.7-1.3,2.5c-0.5,0.9-1.1,1.8-1.8,2.5c-0.3,0.3-0.7,0.6-1.1,0.6c-0.3,0.6-0.6,1.1-0.9,1.7c-0.2,0.4-0.5,0.8-0.9,1.1
	c-0.1,0-0.3,0-0.4,0c-0.1-0.3-0.1-0.5,0-0.8c0.1-0.6,0.3-1.2,0.5-1.8c0.6-1.6,1.1-3.1,1.8-4.7c0.6-1.5,1.1-3,1.6-4.6
	c0-0.2,0.1-0.4,0.1-0.6c-0.8,0.4-1.6,0.9-2.3,1.4c0-0.2,0-0.4,0.1-0.6c0.4-1.5,0.9-2.8,1.5-4.2c0.3-0.6,0.4-1.3,0.6-2
	c0.1-0.6,0.3-1.1,0.4-1.7c0.8-3.4,1.9-6.8,3.2-10.1c0.6-1.8,1.6-3.5,2.9-4.9c1-1.1,2.1-2.2,3.2-3.2c0.4-0.5,0.8-1.1,1-1.7
	c0.3-0.8,0.6-1.5,1.1-2.2c0.6-0.6,1.1-1,1.8-1.3c0.5-0.2,1-0.4,1.6-0.5C605.4,21.9,606.4,22,607.3,22.4 M606,24.3
	c-0.2-0.1-0.4-0.1-0.5,0c-0.1,0-0.2,0.1-0.3,0.1c-0.4,0.3-0.6,0.9-0.3,1.3c0.3,0.3,0.7,0.4,1.1,0.3c0.4-0.1,0.6-0.5,0.6-0.9
	C606.6,24.8,606.3,24.4,606,24.3L606,24.3z M606.2,25c0,0.3-0.1,0.4-0.2,0.5c-0.1-0.1-0.3-0.3-0.1-0.4c-0.1,0.1-0.1,0.1-0.1,0.2
	c0.1,0.1,0.1,0.2,0.2,0.3c-0.2,0.1-0.3,0.1-0.5,0c-0.1-0.1-0.2-0.2-0.3-0.3c-0.1-0.3,0.1-0.6,0.4-0.6
	C605.8,24.5,606.1,24.7,606.2,25L606.2,25z"/>
<text transform="matrix(1 0 0 1 960 540)" style="font-family:'MyriadPro-Regular'; font-size:12px;">&lt;script src=&quot;https://ajax.googleapis.com/ajax/libs/jquery/3.6.0/jquery.min.js&quot;&gt;&lt;/script&gt;</text>
</svg>
