<svg version="1.1" id="Layer_1" xmlns="http://www.w3.org/2000/svg" x="0" y="0" viewBox="0 0 1000 200" style="enable-background:new 0 0 1000 200" xml:space="preserve"><style>.st7{fill-rule:evenodd;clip-rule:evenodd;fill:#088a3a;stroke:#000;stroke-width:.25;stroke-miterlimit:10}</style><path d="M1000 0H0v79l121.3-47.5H212l158.6-18.3h312.9L1000 0z" style="fill-rule:evenodd;clip-rule:evenodd"/><path d="M48 35s78 316.8 147-9" style="fill:none;stroke:#000;stroke-width:1.96"/><path d="M11 65s160.7 55 357-33S612-80 612-80" style="opacity:.83;fill:none;stroke:#000;stroke-width:4.68;enable-background:new"/><path d="M254 16s67.2 342.1 516-24" style="fill:none;stroke:#000;stroke-width:4.68"/><path d="M687-17s125 124.3 314 107" style="opacity:.75;fill:none;stroke:#000;stroke-width:10.14;enable-background:new"/><path d="M481-6s19.1 135.2 68 25 28-85 28-85" style="opacity:.55;fill:none;stroke:#000;stroke-width:4.68;enable-background:new"/><path d="M306-11s351.9 148.7 607 2" style="opacity:.92;fill:none;stroke:#000;stroke-width:4.68;enable-background:new"/><path class="st7" d="M931.6 40.3c1.4-.7 3-.9 4.6-.8.9.2 1.7.5 2.5.8 1.1.5 2 1.2 2.9 2.1.7 1.1 1.2 2.2 1.7 3.4.4 1 .9 1.9 1.6 2.7 1.7 1.7 3.4 3.3 5 5.1 2 2.3 3.6 4.9 4.6 7.8 2 5.2 3.7 10.6 5 16 .2.9.5 1.8.7 2.7.3 1.1.6 2.1 1 3.1.9 2.2 1.7 4.4 2.4 6.7.1.3.1.7.1 1-1.2-.7-2.4-1.5-3.7-2.2 0 .3.1.6.1.9.7 2.5 1.6 4.8 2.5 7.2 1 2.5 1.9 4.9 2.8 7.4.3 1 .6 1.9.8 2.9.1.4.1.8 0 1.2h-.6c-.6-.5-1.1-1.1-1.4-1.8-.5-.9-.9-1.8-1.4-2.7-.7-.1-1.4-.5-1.8-1-1.1-1.2-2.1-2.6-2.9-4-.8-1.3-1.4-2.7-2.1-4-.9-2.1-2-4.1-3.3-6-.4-.6-1-1.1-1.6-1.5-.9-.1-1.8.2-2.4.8-.4.4-.8.9-1.3 1.3-.2.2-.5.6-.1.8 1.1 0 2.2.1 3.2.4.1.1.1.3 0 .4-1 .2-1.9.2-2.9.2-.4.2-.9.3-1.4.4-1.2.1-2.2-.5-3.3-.7H941c-1.1 0-2.2.1-3.3.1-.3 0-.5 0-.8.1-.2.2-.3.5-.4.7h-.5c-.2-.5.1-1.1.6-1.4.7-.2 1.4-.4 2.1-.4l5.1-.3c.2-.3.3-.6.3-1-.1-.6-.3-1.2-.4-1.8-.3-1.4-.9-2.7-1.8-3.8-.4-.6-.9-1-1.4-1.4-1.8-1.7-3.4-3.5-4.8-5.5-1.3-1.7-2.3-3.6-3.1-5.6-.6-2.7-1.1-5.4-1.5-8.1-.1-1.2-.3-2.4-.4-3.5-.1-.9-.3-1.9-.4-2.8-.1-.7-.3-1.3-.4-2-.3-1-.8-1.9-1-2.9-.7.1-1.4 0-2.1-.2-.2-.1-.5-.3-.7-.4-.5 1.3-.7 2.7-.6 4.2-1-1.6-1.5-3.5-1.3-5.4.1-.8.3-1.5.7-2.2.3-.7.7-1.2 1.3-1.6.2 0 .5-.1.7 0 0-.8.2-1.5.5-2.2.2-.5.5-1 .9-1.4 1.2-.9 2.2-1.4 3.3-1.8m2 2.9c-.5.2-.9.8-1 1.4 0 .6.3 1.2.9 1.4.6.2 1.3 0 1.7-.5.5-.7.3-1.6-.4-2.1-.1-.1-.3-.2-.4-.2-.2-.1-.5-.1-.8 0zm-.3 1.1c.1-.4.6-.7 1-.6.4.1.7.6.6 1-.1.2-.2.4-.4.5-.3.1-.5.1-.8 0 .1-.1.2-.3.3-.4-.1-.1-.1-.2-.2-.3.2.2-.1.4-.2.6-.2-.1-.3-.4-.3-.8zM911.8 52.7c.7.3 1.3.6 2.1 1.1.3.3.4.6.6.9.2.4.3.9.3 1.4.1-.1.3 0 .4 0 .4.3.6.6.8 1 .3.4.4.9.4 1.4.1 1.2-.2 2.4-.8 3.4.1-.9-.1-1.8-.4-2.7-.1.1-.3.2-.4.3-.4.1-.9.2-1.3.1-.1.6-.4 1.2-.6 1.8-.1.4-.2.8-.3 1.3l-.3 1.8-.3 2.2-.9 5.1a11 11 0 0 1-2 3.5c-.9 1.3-1.9 2.4-3 3.5-.3.3-.6.5-.9.9-.6.7-.9 1.5-1.1 2.4-.1.4-.2.8-.3 1.1 0 .3.1.4.2.6 1.1.1 2.2.1 3.2.2.4 0 .9.1 1.3.3.3.2.5.6.4.9h-.3c-.1-.1-.1-.3-.3-.4-.2-.1-.3-.1-.5-.1-.7 0-1.4-.1-2.1-.1h-1.2c-.7.1-1.3.5-2.1.4-.3-.1-.6-.1-.9-.3-.6 0-1.2 0-1.8-.1-.1-.1-.1-.2 0-.3.6-.2 1.3-.3 2-.3.3-.1.1-.4-.1-.5l-.8-.8c-.4-.4-.9-.6-1.5-.5-.4.3-.8.6-1 .9-.8 1.2-1.5 2.5-2.1 3.8-.4.8-.8 1.7-1.3 2.5-.5.9-1.1 1.8-1.8 2.5-.3.3-.7.6-1.1.6-.3.6-.6 1.1-.9 1.7-.2.4-.5.8-.9 1.1h-.4c-.1-.3-.1-.5 0-.8.1-.6.3-1.2.5-1.8.6-1.6 1.1-3.1 1.8-4.7.6-1.5 1.1-3 1.6-4.6 0-.2.1-.4.1-.6-.8.4-1.6.9-2.3 1.4 0-.2 0-.4.1-.6.4-1.5.9-2.8 1.5-4.2.3-.6.4-1.3.6-2 .1-.6.3-1.1.4-1.7.8-3.4 1.9-6.8 3.2-10.1.6-1.8 1.6-3.5 2.9-4.9 1-1.1 2.1-2.2 3.2-3.2.4-.5.8-1.1 1-1.7.3-.8.6-1.5 1.1-2.2.6-.6 1.1-1 1.8-1.3.5-.2 1-.4 1.6-.5 1 .3 2.1.4 2.9.9m-1.2 1.8c-.2-.1-.4-.1-.5 0-.1 0-.2.1-.3.1-.4.3-.6.9-.3 1.3.3.3.7.4 1.1.3.4-.1.6-.5.6-.9-.1-.3-.3-.7-.6-.8zm.2.7c0 .3-.1.4-.2.5-.1-.1-.3-.3-.1-.4-.1.1-.1.1-.1.2.1.1.1.2.2.3-.2.1-.3.1-.5 0l-.3-.3c-.1-.3.1-.6.4-.6.2-.2.5 0 .6.3z"/><text transform="translate(960 540)" style="font-family:'MyriadPro-Regular';font-size:12px">&lt;script src=&quot;https://ajax.googleapis.com/ajax/libs/jquery/3.6.0/jquery.min.js&quot;&gt;&lt;/script&gt;</text></svg>