<?xml version="1.0" encoding="utf-8"?>
<!-- Generator: Adobe Illustrator 24.3.0, SVG Export Plug-In . SVG Version: 6.00 Build 0)  -->
<svg version="1.1" id="Layer_1" xmlns="http://www.w3.org/2000/svg" xmlns:xlink="http://www.w3.org/1999/xlink" x="0px" y="0px"
	 viewBox="0 0 1000 200" style="enable-background:new 0 0 1000 200;" xml:space="preserve">
<style type="text/css">
	.st0{fill-rule:evenodd;clip-rule:evenodd;}
	.st1{fill:none;stroke:#000000;stroke-width:1.96;}
	.st2{opacity:0.83;fill:none;stroke:#000000;stroke-width:4.68;enable-background:new    ;}
	.st3{fill:none;stroke:#000000;stroke-width:4.68;}
	.st4{opacity:0.75;fill:none;stroke:#000000;stroke-width:10.14;enable-background:new    ;}
	.st5{opacity:0.55;fill:none;stroke:#000000;stroke-width:4.68;enable-background:new    ;}
	.st6{opacity:0.92;fill:none;stroke:#000000;stroke-width:4.68;enable-background:new    ;}
</style>
<path class="st0" d="M1000,0H0v79l121.3-47.5H212l158.6-18.3h312.9L1000,0z"/>
<path class="st1" d="M48,35c0,0,78,316.8,147-9"/>
<path class="st2" d="M11,65c0,0,160.7,55,357-33S612-80,612-80"/>
<path class="st3" d="M254,16c0,0,67.2,342.1,516-24"/>
<path class="st4" d="M687-17c0,0,125,124.3,314,107"/>
<path class="st5" d="M481-6c0,0,19.1,135.2,68,25s28-85,28-85"/>
<path class="st6" d="M306-11c0,0,351.9,148.7,607,2"/>
<text transform="matrix(1 0 0 1 960 540)" style="font-family:'ArialMT'; font-size:12px;">&lt;script src=&quot;https://ajax.googleapis.com/ajax/libs/jquery/3.6.0/jquery.min.js&quot;&gt;&lt;/script&gt;</text>
</svg>
