<?xml version="1.0" encoding="utf-8"?>
<!-- Generator: Adobe Illustrator 24.3.0, SVG Export Plug-In . SVG Version: 6.00 Build 0)  -->
<svg version="1.1" id="Layer_1" xmlns="http://www.w3.org/2000/svg" xmlns:xlink="http://www.w3.org/1999/xlink" x="0px" y="0px"
	 viewBox="0 0 1000 200" style="enable-background:new 0 0 1000 200;" xml:space="preserve">
<style type="text/css">
	.st0{fill-rule:evenodd;clip-rule:evenodd;}
	.st1{fill:none;stroke:#000000;stroke-width:1.96;}
	.st2{opacity:0.83;fill:none;stroke:#000000;stroke-width:4.68;enable-background:new    ;}
	.st3{fill:none;stroke:#000000;stroke-width:4.68;}
	.st4{opacity:0.75;fill:none;stroke:#000000;stroke-width:10.14;enable-background:new    ;}
	.st5{opacity:0.55;fill:none;stroke:#000000;stroke-width:4.68;enable-background:new    ;}
	.st6{opacity:0.92;fill:none;stroke:#000000;stroke-width:4.68;enable-background:new    ;}
	.st7{fill-rule:evenodd;clip-rule:evenodd;fill:#088A3A;stroke:#000000;stroke-width:0.25;stroke-miterlimit:10;}
</style>
<path class="st0" d="M1000,0H0v79l121.3-47.5H212l158.6-18.3h312.9L1000,0z"/>
<path class="st1" d="M48,35c0,0,78,316.8,147-9"/>
<path class="st2" d="M11,65c0,0,160.7,55,357-33S612-80,612-80"/>
<path class="st3" d="M254,16c0,0,67.2,342.1,516-24"/>
<path class="st4" d="M687-17c0,0,125,124.3,314,107"/>
<path class="st5" d="M481-6c0,0,19.1,135.2,68,25s28-85,28-85"/>
<path class="st6" d="M306-11c0,0,351.9,148.7,607,2"/>
<path class="st7" d="M429.1,108.8c1.4-0.7,3-0.9,4.6-0.8c0.9,0.2,1.7,0.5,2.5,0.8c1.1,0.5,2,1.2,2.9,2.1c0.7,1.1,1.2,2.2,1.7,3.4
	c0.4,1,0.9,1.9,1.6,2.7c1.7,1.7,3.4,3.3,5,5.1c2,2.3,3.6,4.9,4.6,7.8c2,5.2,3.7,10.6,5,16c0.2,0.9,0.5,1.8,0.7,2.7
	c0.3,1.1,0.6,2.1,1,3.1c0.9,2.2,1.7,4.4,2.4,6.7c0.1,0.3,0.1,0.7,0.1,1c-1.2-0.7-2.4-1.5-3.7-2.2c0,0.3,0.1,0.6,0.1,0.9
	c0.7,2.5,1.6,4.8,2.5,7.2c1,2.5,1.9,4.9,2.8,7.4c0.3,1,0.6,1.9,0.8,2.9c0.1,0.4,0.1,0.8,0,1.2c-0.2,0-0.4,0-0.6,0
	c-0.6-0.5-1.1-1.1-1.4-1.8c-0.5-0.9-0.9-1.8-1.4-2.7c-0.7-0.1-1.4-0.5-1.8-1c-1.1-1.2-2.1-2.6-2.9-4c-0.8-1.3-1.4-2.7-2.1-4
	c-0.9-2.1-2-4.1-3.3-6c-0.4-0.6-1-1.1-1.6-1.5c-0.9-0.1-1.8,0.2-2.4,0.8c-0.4,0.4-0.8,0.9-1.3,1.3c-0.2,0.2-0.5,0.6-0.1,0.8
	c1.1,0,2.2,0.1,3.2,0.4c0.1,0.1,0.1,0.3,0,0.4c-1,0.2-1.9,0.2-2.9,0.2c-0.4,0.2-0.9,0.3-1.4,0.4c-1.2,0.1-2.2-0.5-3.3-0.7
	c-0.6,0-1.2,0-1.9,0c-1.1,0-2.2,0.1-3.3,0.1c-0.3,0-0.5,0-0.8,0.1c-0.2,0.2-0.3,0.5-0.4,0.7c-0.2,0-0.3,0-0.5,0
	c-0.2-0.5,0.1-1.1,0.6-1.4c0.7-0.2,1.4-0.4,2.1-0.4c1.7-0.1,3.4-0.2,5.1-0.3c0.2-0.3,0.3-0.6,0.3-1c-0.1-0.6-0.3-1.2-0.4-1.8
	c-0.3-1.4-0.9-2.7-1.8-3.8c-0.4-0.6-0.9-1-1.4-1.4c-1.8-1.7-3.4-3.5-4.8-5.5c-1.3-1.7-2.3-3.6-3.1-5.6c-0.6-2.7-1.1-5.4-1.5-8.1
	c-0.1-1.2-0.3-2.4-0.4-3.5c-0.1-0.9-0.3-1.9-0.4-2.8c-0.1-0.7-0.3-1.3-0.4-2c-0.3-1-0.8-1.9-1-2.9c-0.7,0.1-1.4,0-2.1-0.2
	c-0.2-0.1-0.5-0.3-0.7-0.4c-0.5,1.3-0.7,2.7-0.6,4.2c-1-1.6-1.5-3.5-1.3-5.4c0.1-0.8,0.3-1.5,0.7-2.2c0.3-0.7,0.7-1.2,1.3-1.6
	c0.2,0,0.5-0.1,0.7,0c0-0.8,0.2-1.5,0.5-2.2c0.2-0.5,0.5-1,0.9-1.4C427,109.7,428,109.2,429.1,108.8 M431.1,111.7
	c-0.5,0.2-0.9,0.8-1,1.4c0,0.6,0.3,1.2,0.9,1.4c0.6,0.2,1.3,0,1.7-0.5c0.5-0.7,0.3-1.6-0.4-2.1c-0.1-0.1-0.3-0.2-0.4-0.2
	C431.7,111.6,431.4,111.6,431.1,111.7L431.1,111.7z M430.8,112.8c0.1-0.4,0.6-0.7,1-0.6s0.7,0.6,0.6,1c-0.1,0.2-0.2,0.4-0.4,0.5
	c-0.3,0.1-0.5,0.1-0.8,0c0.1-0.1,0.2-0.3,0.3-0.4c-0.1-0.1-0.1-0.2-0.2-0.3c0.2,0.2-0.1,0.4-0.2,0.6
	C430.9,113.5,430.8,113.2,430.8,112.8L430.8,112.8z"/>
</svg>
