<svg xmlns="http://www.w3.org/2000/svg" width="1000" height="200" viewBox="0 0 1000 200">
  <defs>
    <style>
      .cls-1, .cls-2, .cls-3, .cls-4, .cls-5, .cls-6, .cls-7 {
        fill-rule: evenodd;
      }

      .cls-2, .cls-3, .cls-4, .cls-5, .cls-6, .cls-7 {
        fill: none;
        stroke: #000;
      }

      .cls-2 {
        stroke-width: 1.96px;
      }

      .cls-3, .cls-4, .cls-6, .cls-7 {
        stroke-width: 4.68px;
      }

      .cls-3 {
        opacity: 0.83;
      }

      .cls-5 {
        stroke-width: 10.14px;
        opacity: 0.75;
      }

      .cls-6 {
        opacity: 0.55;
      }

      .cls-7 {
        opacity: 0.92;
      }
    </style>
  </defs>
  <path class="cls-1" d="M1000,0H0V79L121.345,31.454h90.643L370.614,13.167H683.48Z"/>
  <path class="cls-2" d="M48,35s78.015,316.785,147-9"/>
  <path class="cls-3" d="M11,65s160.671,55.009,357-33S612-80,612-80"/>
  <path class="cls-4" d="M254,16S321.246,358.056,770-8"/>
  <path class="cls-5" d="M687-17S812.026,107.253,1001,90"/>
  <path class="cls-6" d="M481-6s19.108,135.2,68,25,28-85,28-85"/>
  <path class="cls-7" d="M306-11S657.858,137.693,913-9"/>
  <path class="cls-1" d="M429.082,108.824a8.825,8.825,0,0,1,4.621-.751,11.919,11.919,0,0,1,2.529.84,9.35,9.35,0,0,1,2.863,2.081,22.19,22.19,0,0,1,1.716,3.356,9.227,9.227,0,0,0,1.583,2.714c1.666,1.7,3.4,3.338,5.033,5.073a24.98,24.98,0,0,1,4.6,7.811,140.165,140.165,0,0,1,5.035,15.993c0.163,0.924.525,1.795,0.742,2.707,0.263,1.061.628,2.091,0.958,3.133a57.447,57.447,0,0,1,2.4,6.661,3.924,3.924,0,0,1,.136,1.017c-1.227-.72-2.435-1.473-3.67-2.18a3.457,3.457,0,0,0,.14.89c0.676,2.466,1.619,4.848,2.534,7.234,0.95,2.464,1.922,4.92,2.8,7.412a28.174,28.174,0,0,1,.844,2.945,3.813,3.813,0,0,1,.011,1.234,3.047,3.047,0,0,1-.581-0.016,4.833,4.833,0,0,1-1.408-1.759c-0.514-.885-0.871-1.847-1.364-2.743a3.064,3.064,0,0,1-1.829-1,18.76,18.76,0,0,1-2.892-4.025c-0.75-1.321-1.429-2.679-2.1-4.043a34.573,34.573,0,0,0-3.323-6.048,4.644,4.644,0,0,0-1.647-1.5,2.969,2.969,0,0,0-2.426.838c-0.444.421-.847,0.883-1.3,1.3-0.224.191-.45,0.607-0.125,0.814a11.914,11.914,0,0,1,3.25.423,0.273,0.273,0,0,1,.012.383,15.453,15.453,0,0,1-2.879.183,3.757,3.757,0,0,1-1.351.378c-1.172.1-2.21-.549-3.341-0.715a13.807,13.807,0,0,0-1.864.043c-1.115.031-2.232,0.064-3.347,0.077a2.084,2.084,0,0,0-.769.112,4.378,4.378,0,0,0-.414.735,4.153,4.153,0,0,1-.459-0.036,1.2,1.2,0,0,1,.583-1.4,7.847,7.847,0,0,1,2.113-.381c1.684-.144,3.373-0.2,5.059-0.319a1.313,1.313,0,0,0,.272-0.985c-0.147-.582-0.306-1.161-0.4-1.752a10.322,10.322,0,0,0-1.754-3.826,5.273,5.273,0,0,0-1.436-1.416,34.657,34.657,0,0,1-4.822-5.527,22.847,22.847,0,0,1-3.083-5.646,71.089,71.089,0,0,1-1.469-8.091c-0.147-1.175-.294-2.351-0.406-3.529-0.092-.941-0.324-1.863-0.4-2.805a18.392,18.392,0,0,0-.445-2c-0.251-.977-0.8-1.857-0.956-2.861a4.986,4.986,0,0,1-2.07-.2,4.543,4.543,0,0,1-.677-0.445,9.488,9.488,0,0,0-.557,4.15,9.085,9.085,0,0,1-1.336-5.427,7.354,7.354,0,0,1,.685-2.2,4.12,4.12,0,0,1,1.3-1.647,2.562,2.562,0,0,1,.706-0.034,4.589,4.589,0,0,1,.508-2.236,4.8,4.8,0,0,1,.934-1.393,8.594,8.594,0,0,1,2.921-1.6m2.061,2.831a1.6,1.6,0,0,0-.95,1.363,1.455,1.455,0,0,0,.9,1.389,1.573,1.573,0,0,0,1.683-.481,1.51,1.51,0,0,0-.786-2.313A2.461,2.461,0,0,0,431.143,111.655Zm-0.319,1.182a0.818,0.818,0,1,1,1.187.939,1.478,1.478,0,0,1-.77.012c0.11-.129.218-0.259,0.318-0.4-0.072-.082-0.142-0.166-0.209-0.252,0.2,0.229-.087.44-0.2,0.626A1.217,1.217,0,0,1,430.824,112.837Z"/>
</svg>
