<svg xmlns="http://www.w3.org/2000/svg" width="1503" height="776"><path d="m-33 215 95-95h334l54-54h654L997 173h540V-46H-16Z" style="stroke-width:14.69px;stroke:#000;fill-rule:evenodd"/><path d="M178 86s409 656 570 75 71-361 71-361" style="stroke-width:4.68px;fill:none;stroke:#000;fill-rule:evenodd"/><path d="M1177 154s-391 743-720 52-115-361-115-361" style="stroke-width:7.68px;fill:none;stroke:#000;fill-rule:evenodd"/><path d="M1679 517s-672 174-859-388-46-313-46-313" style="stroke-width:1.96px;fill:none;stroke:#000;fill-rule:evenodd"/><path d="M1423 149s-54 93 64 197 213 159 213 159" style="opacity:.77;stroke-width:12.87px;fill:none;stroke:#000;fill-rule:evenodd"/><path d="M1277 166s-5 297 42 294 14-393 14-393" style="stroke-width:10.14px;opacity:.89;fill:none;stroke:#000;fill-rule:evenodd"/><path d="M687 53S307 484 76 235-71 19-71 19" style="opacity:.76;stroke-width:12.87px;fill:none;stroke:#000;fill-rule:evenodd"/><path d="M535 60s265 97 514 83" style="opacity:.79;stroke-width:12.87px;fill:none;stroke:#000;fill-rule:evenodd"/></svg>