<svg xmlns="http://www.w3.org/2000/svg" width="1503" height="776"><path d="M-22 182h258L344 74h167l32-32h103l-88 88h227l51-51h-71l37-37h308l-59 59h132l-61 61h452v-344H-49Z" style="stroke-width:14.69px;stroke:#000;fill-rule:evenodd"/><path d="M272 137s154 720 332 244 65-305 65-305" style="stroke-width:16.14px;opacity:.83;fill:none;stroke:#000;fill-rule:evenodd"/><path d="M748 124s99 361 204-12 59-257 59-257" style="stroke-width:5.14px;opacity:.67;fill:none;stroke:#000;fill-rule:evenodd"/><path d="M299 115s235 403 902 73 197-102 197-102" style="stroke-width:13.14px;fill:none;stroke:#000;fill-rule:evenodd"/><path d="M1562 364s-222 12-306-254" style="stroke-width:18.14px;opacity:.74;fill:none;stroke:#000;fill-rule:evenodd"/><path d="M1128 162s-155 468-314-53" style="opacity:.95;stroke-width:6.14px;fill:none;stroke:#000;fill-rule:evenodd"/><path d="M146 157S115 354-17 427" style="stroke-width:20.14px;opacity:.57;fill:none;stroke:#000;fill-rule:evenodd"/><path d="M46 173s151 531 369-31 72-267 72-267" style="stroke-width:4.68px;fill:none;stroke:#000;fill-rule:evenodd"/><path d="M500 58s0 29 107 38" style="stroke-width:6.14px;fill:none;stroke:#000;fill-rule:evenodd"/><path d="M815 90s76 34 159-72" style="stroke-width:4.41px;opacity:.78;fill:none;stroke:#000;fill-rule:evenodd"/></svg>