<svg xmlns="http://www.w3.org/2000/svg" width="1503" height="776" viewBox="0 0 1503 776">
  <defs>
    <style>
      .cls-1, .cls-10, .cls-2, .cls-3, .cls-4, .cls-5, .cls-6, .cls-7, .cls-8, .cls-9 {
        stroke: #000;
        fill-rule: evenodd;
      }

      .cls-1 {
        stroke-width: 14.69px;
      }

      .cls-10, .cls-2, .cls-3, .cls-4, .cls-5, .cls-6, .cls-7, .cls-8, .cls-9 {
        fill: none;
      }

      .cls-2 {
        stroke-width: 16.14px;
        opacity: 0.83;
      }

      .cls-3 {
        stroke-width: 5.14px;
        opacity: 0.67;
      }

      .cls-4 {
        stroke-width: 13.14px;
      }

      .cls-5 {
        stroke-width: 18.14px;
        opacity: 0.74;
      }

      .cls-6, .cls-9 {
        stroke-width: 6.14px;
      }

      .cls-6 {
        opacity: 0.95;
      }

      .cls-7 {
        stroke-width: 20.14px;
        opacity: 0.57;
      }

      .cls-8 {
        stroke-width: 4.68px;
      }

      .cls-10 {
        stroke-width: 4.41px;
        opacity: 0.78;
      }
    </style>
  </defs>
  <path class="cls-1" d="M-22,182H236L344,74H511l32-32H646l-88,88H785l51-51H765l37-37h308l-59,59h132l-61,61h452V-182H-49Z"/>
  <path class="cls-2" d="M272,137S425.66,857.4,604,381,669,76,669,76"/>
  <path class="cls-3" d="M748,124s98.583,361.386,204-12,59-257,59-257"/>
  <path class="cls-4" d="M299,115s234.53,403.219,902,73S1398,86,1398,86"/>
  <path class="cls-5" d="M1562,364s-222.27,12.406-306-254"/>
  <path class="cls-6" d="M1128,162S973.273,629.506,814,109"/>
  <path class="cls-7" d="M146,157S115.237,353.572-17,427"/>
  <path class="cls-8" d="M46,173s150.542,531.274,369-31,72-267,72-267"/>
  <path class="cls-9" d="M500,58s-0.279,29.375,107,38"/>
  <path class="cls-10" d="M815,90s75.583,34.311,159-72"/>
</svg>
