<svg xmlns="http://www.w3.org/2000/svg" width="500" height="258"><defs><style>.cls-3{fill-rule:evenodd;fill:none;stroke:#000;stroke-width:1.87px}</style></defs><path d="M-37 72H83l61-61h122l-42 42h100l26-26h64l67 67h19V-22H-39Z" style="fill-rule:evenodd"/><path d="M468 56s-55 191-86 23-16-115-16-115" style="stroke-width:3.15px;opacity:.89;fill:none;stroke:#000;fill-rule:evenodd"/><path class="cls-3" d="M439 32s1 257-13 69-22-147-22-147"/><path d="M453 50s9 147 71 173-1-93-1-93" style="stroke-width:4.43px;fill:none;stroke:#000;fill-rule:evenodd"/><path d="M284 47S97 135 6 61" style="opacity:.92;stroke-width:4.43px;fill:none;stroke:#000;fill-rule:evenodd"/><path class="cls-3" d="M102 27s26 236 48 74 17-144 17-144M246 44s-50 1-61-49"/><path d="M242-1s-50 45-141 35" style="stroke-width:5.07px;fill:none;stroke:#000;fill-rule:evenodd"/><path d="M321 38s98 107 191 87" style="opacity:.73;stroke-width:5.07px;fill:none;stroke:#000;fill-rule:evenodd"/></svg>