<svg xmlns="http://www.w3.org/2000/svg" width="500" height="258"><defs><style>.cls-4{stroke:#000;fill-rule:evenodd;fill:none;stroke-width:1.87px}</style></defs><path d="M-5 211h85l9 9h35l26 26h60l28-28h52l18 18h35l8 8h21l26-26h21l10-10h83v79H-4Z" style="stroke-width:1px;stroke:#000;fill-rule:evenodd"/><path d="M-13 91S6 234 104 231" style="opacity:.89;stroke-width:3.15px;fill:none;stroke:#000;fill-rule:evenodd"/><path d="M64 218s52-59 138 31" style="opacity:.91;stroke-width:3.15px;fill:none;stroke:#000;fill-rule:evenodd"/><path class="cls-4" d="M93 227s106-18 183 5 143 49 143 49"/><path d="M409 223s-199 3-240 47" style="stroke-width:4.43px;fill:none;stroke:#000;fill-rule:evenodd"/><path d="M457 217s30-37 61-30" style="opacity:.83;stroke-width:4.43px;fill:none;stroke:#000;fill-rule:evenodd"/><path class="cls-4" d="M524 206s-54-36-115 31"/><path id="Shape_6_copy" data-name="Shape 6 copy" class="cls-4" d="M427 241s-54-36-115 31"/><path class="cls-4" d="M-1 163s54 2 63 63"/><path d="M113 231s90-7 93 43" style="stroke-width:5.71px;opacity:.86;fill:none;stroke:#000;fill-rule:evenodd"/></svg>