<svg xmlns="http://www.w3.org/2000/svg" width="500" height="258" viewBox="0 0 500 258">
  <defs>
    <style>
      .cls-1 {
        stroke: #000;
        stroke-width: 1px;
        opacity: 0.22;
      }

      .cls-1, .cls-2 {
        fill-rule: evenodd;
      }
    </style>
  </defs>
  <path class="cls-1" d="M0.039,103.53L89.37,191.265,191.458,91,303.127,200.669H500V349H0Z"/>
  <path id="Shape_1_copy" data-name="Shape 1 copy" class="cls-1" d="M75.039,136.53l89.331,87.735L266.458,124,378.127,233.669H575V382H75Z"/>
  <path class="cls-1" d="M0,198.926l161.063-88.4L274.639,220.149l120.6-116.4,45.776,44.181L500,91V323L0.078,323Z"/>
  <path id="Shape_2_copy_3" data-name="Shape 2 copy 3" class="cls-1" d="M-193,236.926l161.063-88.4L81.639,258.149l120.6-116.4,45.776,44.181L307,129V361l-499.922,0Z"/>
  <path id="Shape_2_copy" data-name="Shape 2 copy" class="cls-1" d="M80,236.926l161.063-88.4L354.639,258.149l120.6-116.4,45.776,44.181L580,129V361L80.078,361Z"/>
  <path id="Shape_2_copy_2" data-name="Shape 2 copy 2" class="cls-1" d="M26,249.926l161.063-88.4L300.639,271.149l120.6-116.4,45.776,44.181L526,142V374L26.078,374Z"/>
  <path class="cls-2" d="M302.389,52l0.116,0.017c-0.116,2.19-.03,4.386-0.013,6.576,0.549,5.362.156,10.77,0.392,16.149a67.87,67.87,0,0,1,.293,7.681c0.632,5.3-.037,10.674.539,15.979,0.133,3.212-.044,6.433.176,9.639,0.579,3.573-.193,7.243.572,10.793,0.905-1.971,1.633-4.277,3.615-5.448,1.064-.747,2.408-0.538,3.631-0.594-0.026-7.346,0-14.7-.02-22.041-0.153-1.8,1.091-3.255,1.583-4.907,0.413-1.437,1.653-2.362,2.621-3.424a1.359,1.359,0,0,1,2.058.023,10.425,10.425,0,0,1,2.405,3.315c0.519,1.579,1.845,2.913,1.726,4.668q-0.015,17.6-.007,35.211a1.075,1.075,0,0,0,.459,1.128,11.983,11.983,0,0,0,5.78-.687c0.09,2.658-.037,5.315.1,7.97,3.122-2.23,5.65-5.163,8.6-7.6,0.705-.684,1.7-1.384,1.663-2.476,0.013-1.692.073-3.394-.07-5.083-0.978-.093-1.959-0.053-2.937-0.089,0.163-.966.489-1.895,0.665-2.857-0.232-.985-0.641-2.011-0.166-3,0.456-.893-0.243-1.749-0.4-2.618,0.339-1.961,2.112-3.206,2.87-4.964,0.123-1.715.013-3.438,0.05-5.156,1.546,0.02,3.1-.106,4.642.05a10.854,10.854,0,0,1,1,.962c0.6,0.119,1.2.255,1.809,0.381a17.816,17.816,0,0,1-.4,2.837,5.326,5.326,0,0,1,.093,3.229c-0.429,1,.689,1.924.306,2.926-0.316,1.44-1.443,2.435-2.244,3.6a27.93,27.93,0,0,0-.1,5.119c1.912-1.3,3.172-3.291,4.626-5.043a49.655,49.655,0,0,0,6.791-11.43c1.7-.256,3.558-0.548,5.2.122-0.951,2.7-2.378,5.19-3.525,7.8-2.3,4.788-4.5,9.626-6.834,14.394-1.606,3.129-2.893,6.407-4.36,9.6-0.818,1.97-1.952,3.911-1.949,6.105q0.01,14.109,0,28.219a13.979,13.979,0,0,0,.789,4.688c0.751,2.154,1.439,4.334,2.274,6.461a43.3,43.3,0,0,1,6.814.248c0.559,2.7.283,5.455,0.5,8.179,0.4,2.754.02,5.551,0.356,8.308,0.342,1.862.076,3.763,0.356,5.628,0.282,2.014.083,4.061,0.346,6.078,0.508-3.046.482-6.138,0.951-9.191,0.3-1.6.126-3.251,0.375-4.864,0.586-5.073.835-10.169,1.44-15.239-0.116-2.582.785-5.067,0.676-7.642q-0.015-6.3,0-12.614a2.141,2.141,0,0,1,.7-1.517c-0.153-.013-0.3-0.03-0.446-0.043,1.214-.239,2.365-0.763,3.6-0.9,2.132-.1,4.267.106,6.4-0.023a2.409,2.409,0,0,0,.406-1.171c0.086-6.653-.1-13.312.1-19.961a11.343,11.343,0,0,0,2.478-.186c0.1-.849.1-1.709,0.206-2.558a4.2,4.2,0,0,1,.788.046c0.356,0.926.186,2.117,0.941,2.844,1.261,0.113,2.531.046,3.8,0.046a17.666,17.666,0,0,0,.513,3.438c0.814-1.749.439-3.707,0.532-5.565-0.117-2.03.336-4.024,0.369-6.048,1.583,0.962,2.793,2.452,4.483,3.248,0.149-4.735.006-9.476,0.079-14.211a17.225,17.225,0,0,1,6.622-1.841c0.2-1.052-.12-2.217.435-3.182a18.754,18.754,0,0,1,2.029-.083c0.293,1.174.166,2.4,0.366,3.586a34.068,34.068,0,0,0,3.854,1.557c0.007,0.952,0,1.9.01,2.856a25.758,25.758,0,0,0-4.223.143c1.167,1.065,2.953.3,4.383,0.64-0.729,1.487-2.534.757-3.841,0.863,0.013,0.339.03,0.68,0.053,1.022a7.939,7.939,0,0,1,3.714.514c-1.243,1.075-3.106-.1-4.339.986,1.25,0.232,2.537.262,3.771,0.59,0.632,0.352.439,1.115,0.5,1.712-0.024,4.387,0,8.773-.024,13.16,6.309,0,12.614.029,18.923-.014,0.123-2.239-.057-4.486.093-6.719,0.336-.978,1.227-1.675,1.579-2.661,1.241-3.371,1.331-6.994,1.829-10.511,0.323-1.732.143-3.507,0.443-5.242a47.941,47.941,0,0,0,.442-5.249c-0.04-1.742.289-3.461,0.389-5.2a29.959,29.959,0,0,1,.735-4.513c0.2-.05.585-0.153,0.782-0.206,1.27,2.8.964,5.933,1.5,8.889,0.353,1.762.2,3.574,0.493,5.346,0.093,2.893.731,5.733,0.838,8.63,0.645,3.387.658,7.074,2.62,10.05a3.418,3.418,0,0,1,.329,1.861,20.3,20.3,0,0,0,.34,5.548c7.835-.076,15.676.123,23.5-0.1,0.216-4.977-.143-9.99.169-14.954,2.2-2.233,3.439-5.183,5.447-7.575,2.245,2.2,3.625,5.077,5.724,7.4a1.829,1.829,0,0,1,.362,1.39q-0.035,25.727-.006,51.455c0.036,18.286-.08,36.578.056,54.86a23.7,23.7,0,0,0,4.52-.023c0.133-14.45-.01-28.91.076-43.366a16.018,16.018,0,0,0,1.616-.176,7.026,7.026,0,0,0,.8-1.838c0.479-.037.971-0.07,1.466-0.106,0.562-.392,1.168-1.742,1.883-1,0.143,0.342.279,0.691,0.412,1.046a6.925,6.925,0,0,1,3.206-.126c0.006,0.6.02,1.214,0.026,1.824,5.235,0.083,10.472.034,15.71,0.037,1.041,0.04,2.208-.2,3.11.484,0.136,1.321.046,2.655,0.066,3.982,0,9.224-.02,18.448,0,27.672,1.051,0.2,2.837-.425,3.565.544,0.15,2.313.013,4.635,0.06,6.955-0.017,10.176.03,20.349-.023,30.525H0V213.4c5.557-.036,11.45-0.013,17.007-0.016,1.061-3.8,1.892-7.668,2.72-11.524,0.166-3.566.017-7.143,0.07-10.713,1.723-.047,3.445-0.014,5.165-0.034a4.2,4.2,0,0,0,3.239-1.184c1.566-1.705,3.123-3.424,4.825-5A13.59,13.59,0,0,1,33.369,187c0.056,8.845-.1,17.694.066,26.537,0.539-.332,1.516-0.452,1.284-1.3q-0.01-26.726-.007-53.456c0-1.038.023-2.077,0.1-3.115a10.9,10.9,0,0,0,2.448,2.621,7.162,7.162,0,0,0,2.607-.053,25.094,25.094,0,0,0,2.77-3.129c0.107,5.08-.06,10.163.087,15.243a3.608,3.608,0,0,0,1.952-.481,3,3,0,0,1,1.191-.651c0.918,0.365,1.683,1.168,2.737,1.1,0.605-.939.4-2.081,0.442-3.136a22.474,22.474,0,0,1,2.178-1.334,10.529,10.529,0,0,1,2.138,1.318,5.391,5.391,0,0,0,.835,3.351c0.3-.637.549-1.294,0.791-1.951,1.789-.047,3.582-0.013,5.374-0.037,0.017,0.561.027,1.125,0.037,1.692,0.971-.126,2.787.634,2.923-0.8,0.073-7.416.07-14.835,0.106-22.25,0.549-4.045.15-8.129,0.219-12.19l0.1-.007c0.017,2.12-.04,4.247.183,6.357,0.183-7.562.023-15.13,0.176-22.692a64.441,64.441,0,0,0,.233-6.894,3.033,3.033,0,0,1,.555-1.43A31.581,31.581,0,0,1,65,114q0.02,26.045.007,52.093c0.02,1.363-.073,2.73.063,4.091a32.191,32.191,0,0,0,5.51-.01c0.123-11.537.01-23.083,0.063-34.623a5.172,5.172,0,0,1,1.377-3.435c1.8-.219,3.622.083,5.417-0.146a7.641,7.641,0,0,0,1.294-.869,15.761,15.761,0,0,1,2.907.037,5.308,5.308,0,0,1,2.331,4.409c0.063,11.66-.076,23.326.073,34.985q4.275,0,8.55,0c0.223-.206.446-0.415,0.672-0.617-0.01-6.364.01-12.728-.013-19.092,0.04-.633-0.136-1.393.456-1.831,1.566-.189,3.3.325,4.742-0.468,1.26-1.092,1.782-2.761,2.89-3.992-0.709.236-1.414,0.462-2.129,0.664a18.23,18.23,0,0,1,.316-3.945c0.981-4.665,1.48-9.417,2.631-14.048a19.957,19.957,0,0,1,1.267-6.275c1.024,3.657,1.257,7.469,2.211,11.142a16,16,0,0,1,.333,3.723c-0.462-.013-0.921-0.023-1.377-0.033q0,0.642-.01,1.284c0.665-.014,1.33-0.027,2-0.033,0.023,0.474.033,0.952,0.036,1.433a4.245,4.245,0,0,0-1.749.166,7.051,7.051,0,0,0,.306,1.2c0.562-.242,1.074-0.571,1.609-0.866a37.943,37.943,0,0,1,1.221,7.2c-0.466-.318-0.921-0.643-1.38-0.965,0.672,1.4,1.32,3.029,2.8,3.759,1.277,0.113,2.557,0,3.837,0,0.027,10.591.007,21.178,0.007,31.766a1.645,1.645,0,0,0,.479,1.427,22.093,22.093,0,0,0,3.951,0c0.824-.146.828-1.108,0.844-1.761-0.06-2.784.719-5.5,0.679-8.282-0.027-2.343.691-4.622,0.665-6.965a32.405,32.405,0,0,1,.316-4.021c0.492-3.852.5-7.744,0.987-11.593,0.087-1.261,0-2.528.143-3.786,0.363-2.312.054-4.672,0.493-6.978,0.169-5.706.109-11.417,0.066-17.124-0.406-5.73-.888-11.54-2.764-17.018-0.591-1.805-1.659-3.42-2.164-5.258a28.868,28.868,0,0,0,3.119-.846,5.173,5.173,0,0,0,4.14.431,41.64,41.64,0,0,1,.206-5.826c0.223-2.037,0-4.1.273-6.135,0.353,2.359.03,4.761,0.326,7.127a37.245,37.245,0,0,1,.16,4.864,21.347,21.347,0,0,0,4.509.282c-0.316,2.186-1.809,3.931-2.451,6.008-0.918,2.207-.8,4.632-0.665,6.968,0.885,4.881,1.576,9.8,2.212,14.722a63.519,63.519,0,0,0,.7,6.4c0.026,2.857.5,5.68,0.688,8.527,0.113,2.21-.17,4.459.392,6.626A7.675,7.675,0,0,1,134,146.728c1.373-.2,2.554-1.161,3.984-1.058,2.989,0.056,5.989-.09,8.975.073a9.768,9.768,0,0,0,3.818,1.058c0.745,0.773,1.487,1.546,2.268,2.286,0.11,4.669.013,9.344,0.126,14.015,0.473,3.63.21,7.3,0.3,10.953,0.08,1.158-.239,2.445.422,3.487,1.184,0.08,2.375.027,3.565,0.03,0.09,1.865-.505,3.69-0.319,5.554,1.324,0.117,2.654.05,3.984,0.047,0.05-9.486,0-18.972.027-28.455,1.526-.093,3.059-0.05,4.589-0.126,0.017-3.7,0-7.4.007-11.1-0.05-1.167,1.929-1.191,2.361-.338,0.073,2.442-.007,4.891.016,7.339,0.044,1.344-.2,2.784.443,4.032a14.929,14.929,0,0,0,1.855.162,8.654,8.654,0,0,0,1.836-2.949c1.337,0.321,1.37,1.722,1.57,2.84,0.312,0.066.625,0.139,0.938,0.209,0.023,3.769-.014,7.538.01,11.308a0.919,0.919,0,0,0,.791,1.148c1.154-.024,2.428.255,3.5-0.276,0.159-2.724-.13-5.465.269-8.175,0.11-9.218-.026-18.445.133-27.659,1.922-.139,3.855-0.033,5.78-0.033,1.743-.027,3.03,1.436,3.811,2.837,1.969,3.683,1.932,7.95,2.567,11.971a77.573,77.573,0,0,0,1.936,14.543c0.565,1.725.908,3.729,2.467,4.88,0.124-3.948.014-7.9,0.05-11.851a37.313,37.313,0,0,1,.226-6.119c1.544-.056,3.093.067,4.63-0.089a21.252,21.252,0,0,0,.382-5.737q0-7.968,0-15.933c-0.14-1.135.8-1.951,1.62-2.565,0.818-.693,2.065-0.849,2.643-1.8,0.356-2.614.965-5.192,1.164-7.827,0.183-.733.1-1.828,1.028-2.04,0.286,1.281.293,2.608,0.585,3.888,0.486,2.346.486,4.831,1.447,7.058,4.277,0.2,8.57,0,12.856.089,0.153-1.639-.172-3.334.313-4.927a7.525,7.525,0,0,1,2.587-.265,36.541,36.541,0,0,0,.157,4.516c0.675,0.318,1.413.5,2.081,0.849a41.41,41.41,0,0,1,.08,4.36c0.027,26.066-.046,52.132.037,78.2,1.546-.02,3.093.016,4.639-0.08a52.027,52.027,0,0,1,3.991-3.709c0.063-12.642,0-25.283.033-37.928a2.4,2.4,0,0,1,.9-1.692c0.127-6.507.02-13.017,0.054-19.527-0.037-7.488.073-14.98-.054-22.466a2.688,2.688,0,0,1-.861-1.732c-0.06-2.342.067-4.685-.08-7.02a12.559,12.559,0,0,1-5.021-1.208c0.006-.508.036-1.009,0.086-1.51,1.666-1.357,3.958-1.493,6.006-1.768,4.124-.03,8.434-0.478,12.361,1.078,0.642,0.315,1.763.869,1.231,1.732-1.327,1.606-3.672,1.35-5.461,2.084-0.452,2.79.436,5.746-.595,8.447a12.342,12.342,0,0,0-.206,3.451q0,19.3-.007,38.605c2.231,0.534,4.533.295,6.8,0.351a14.312,14.312,0,0,0,3.509-.3q-0.01-9.883,0-19.775a6.908,6.908,0,0,1,1.29-3.52c1.68-2.751,3.4-5.478,5.1-8.222a28.37,28.37,0,0,0,4-.186c0.585-.11.5-0.863,0.555-1.3,0.03-1.938,0-3.879.017-5.817,1.489-.046,2.986.05,4.472-0.076a8.212,8.212,0,0,0,2.518-4.164c0.11-6.49.013-12.99,0.046-19.487a37.76,37.76,0,0,1,.253-6.434c0.861-.083,1.842.09,2.574-0.484,0.166-.869.063-1.765,0.21-2.638a3.008,3.008,0,0,1,2.461-1.984c0.924,0.7.219,1.961,0.405,2.943a15.669,15.669,0,0,0,3.2,2.06c2.507,0.156,5.028-.043,7.542.073,0.981-.1.964,1.145,1.367,1.758A11.107,11.107,0,0,1,293.17,93a17.5,17.5,0,0,1,2.86-.083,15.688,15.688,0,0,0,.306,2.074,4.815,4.815,0,0,1,1.128,2.721c0.013,8.428-.024,16.855.01,25.283a19.052,19.052,0,0,0,4.107.023,1.032,1.032,0,0,0,.5-1.144c0.023-22.277-.053-44.558.073-66.838a17.881,17.881,0,0,1,.23-3.039M277.181,97.022c-0.01,3.352-.073,6.706.047,10.054a13.019,13.019,0,0,0,1.283-1.032c0.147-2.568-.059-5.146.1-7.714,1.9-.186,3.808.013,5.707-0.106a7.1,7.1,0,0,0,1.28-1.231,5.316,5.316,0,0,0-1.942-.388c-2,.026-3.99-0.046-5.982.037-0.127.1-.373,0.289-0.5,0.382m-71.692,28.1a4.278,4.278,0,0,0-1.284,1.56,36.369,36.369,0,0,0,5.4.02c-1.187-.86-2.564-1.849-4.12-1.58m-1.294,4.665c1.307,0,2.8-.388,3.871.584,0.469,0.033.941,0.06,1.417,0.09-0.126-.461,0-1.1-0.542-1.314a6.119,6.119,0,0,0-3.435-1.059,6.834,6.834,0,0,0-1.311,1.7m-102.141-.647c0.38,0.379.762,0.757,1.134,1.148-0.309.11-.618,0.216-0.927,0.325,0.016,0.312.033,0.624,0.053,0.939a16.889,16.889,0,0,0,.016,2.134c-0.315.332-.628,0.67-0.931,1.015,0.616,0.027,1.237.043,1.856,0.057a7.108,7.108,0,0,1,.466-5.648c-0.559.01-1.115,0.017-1.667,0.03M204.278,133.2a3.749,3.749,0,0,1,2.461-.451,11.088,11.088,0,0,0,2.544.773c0.09-.485.323-1.225-0.349-1.371-1.074-.454-2.165-1.227-3.385-1.022a2.906,2.906,0,0,0-1.271,2.071m-102.466,2.293a0.927,0.927,0,0,0-.19,1.569c0.7,0.02,1.616.222,2.065-.481-0.372-.637-1.031-1.5-1.875-1.088m-1.217,3.367c0.512,0.405,1,.84,1.529,1.218a10.308,10.308,0,0,0,1.63-1.178c-0.552-.405-1.071-0.856-1.656-1.211-0.526.355-1,.776-1.5,1.171m3.308,1.374c-0.019.285-.053,0.856-0.069,1.141,0.469-.02.941-0.043,1.41-0.066a13.963,13.963,0,0,1-.007,1.795c-0.678-.11-1.433-0.713-2.022-0.083-1.19.9,1.131,2.853,1.972,1.646a5.418,5.418,0,0,0,.785-1.573,1.622,1.622,0,0,0,.645-1.679c-0.881-.448-1.849-0.7-2.714-1.181m-3.425,1.337c0.07,0.753.868,1.1,1.32,1.623,0.7-.624,1.6-1.477,1.038-2.486-0.868-.142-2-0.116-2.358.863M397.247,142.1c-0.186.753,0.618,1.088,1.077,1.519,1.969,1.467,3.788,3.119,5.737,4.606a2.439,2.439,0,0,1,.854,1.635c0.044,2.422-.043,4.848.024,7.273,0.339,0.754,1.277.846,1.945,1.2,0.014,6.015-.066,12.037.04,18.05a12.162,12.162,0,0,0,3.652,1.479,37.046,37.046,0,0,0,4.888,1.444,1.6,1.6,0,0,0,.379-1.264c-0.016-8.408,0-16.819-.006-25.227-0.05-3.587.113-7.177-.087-10.76-6.169.02-12.338-.08-18.5,0.04m30.621-.014c0,5.93-.056,11.865.03,17.795,1.979,0.219,3.978.043,5.966,0.1,0.183,0.206.373,0.412,0.566,0.617,0.03,1.878-.073,3.76.06,5.634,4.748,0.136,9.507-.036,14.256.087,0.176,3.457.024,6.927,0.073,10.391,0.067,1.726-.2,3.488.24,5.183,0.9-.01,1.809-0.023,2.713-0.083-0.049-13.232.077-26.471-.059-39.7-7.945-.127-15.9-0.054-23.845-0.024m-50.2.269c0.053,4.765,0,9.533,0,14.3,0.293-.01.589-0.017,0.888-0.024-0.023-4.758-.033-9.519.033-14.28-0.312,0-.618,0-0.917,0m-277.408,5.953c-0.006.1-.02,0.288-0.026,0.381,2.348,0,4.7.073,7.043-.063-0.532-.819-1.5-0.647-2.341-0.64q0-.707.007-1.414c-1.789-.172-3.063,1.261-4.683,1.736M42.4,174.987c0,5.167-.023,10.339.027,15.5,3.266,0.027,6.535.107,9.8-.036-1.5-3.484-3.036-6.955-4.536-10.439-0.589-1.187-.848-2.525-1.52-3.669a9.3,9.3,0,0,0-3.342-1.905C42.727,174.579,42.511,174.851,42.4,174.987Zm430.6,6.305c0.167-.71,1.008-0.5,1.537-0.475a8.291,8.291,0,0,1,2.145,1.125c0.09,0.348.193,0.7,0.306,1.052,0.6,0.826.881,2.5-.5,2.664a3.914,3.914,0,0,1-2.62-.985A4.308,4.308,0,0,1,473.009,181.292Z"/>
</svg>
