<svg xmlns="http://www.w3.org/2000/svg" width="500" height="258"><defs><style>.cls-1,.cls-2{stroke:#000;fill-rule:evenodd}.cls-1{stroke-width:1px}.cls-2{fill:none;stroke-width:3.15px}</style></defs><path class="cls-1" d="M-28 209H79l32 30h264l23-23h141v79H-38Z"/><path class="cls-2" d="M107 223s20-3 75 11 118 26 118 26M398 228s-68 15-77 21"/><path class="cls-2" d="M398 220s-58 12-82 31"/><path d="M104 244s82-43 131-15 91 49 91 49" style="stroke-width:5.71px;opacity:.86;fill:none;stroke:#000;fill-rule:evenodd"/><path d="M454 219s33-70 68-68" style="opacity:.82;stroke-width:3.15px;fill:none;stroke:#000;fill-rule:evenodd"/><path d="M508 99s-35 117-20 154" style="stroke-width:6.35px;fill:none;stroke:#000;fill-rule:evenodd"/><path d="M-13 139s64 64 67 104" style="stroke-width:6.99px;opacity:.82;fill:none;stroke:#000;fill-rule:evenodd"/><path d="M-3 185s49-2 74 40" style="stroke-width:4.43px;opacity:.68;fill:none;stroke:#000;fill-rule:evenodd"/><path d="M13 222s74-68 168 9 126 69 126 69" style="stroke-width:1.87px;fill:none;stroke:#000;fill-rule:evenodd"/><path id="Shape_2_copy" data-name="Shape 2 copy" class="cls-1" d="M529 209H422l-32 30H126l-23-23H-38v79h577Z"/></svg>