<svg xmlns="http://www.w3.org/2000/svg" width="1000" height="750"><defs><style>.cls-1{fill:#fff;fill-rule:evenodd}</style></defs><path id="_Oh" data-name="!Oh" class="cls-1" d="M480.3 440.7q-14.7-16.5-36.4-16.5t-36.4 16.5q-14.2 16-14.2 38 0 22.1 14 38Q422 533 444 533q21.8 0 36.5-16.4 14.1-16 14.1-38t-14.2-37.9ZM467.6 504q-9.5 11.5-23.9 11.5-14.1 0-23.6-11.5a40.5 40.5 0 0 1 0-50.7q9.5-11.6 23.6-11.6 14.4 0 23.9 11.4a38 38 0 0 1 9 25.3 38.8 38.8 0 0 1-9 25.6Zm103.6 10L571 500l.1-7.1.1-7.1q0-13.2-3.7-19.3-5.3-8.3-19.3-8.3a28.6 28.6 0 0 0-15.3 4.5q-6 4.5-9.8 7.7-.6 0-.6-1.7 0-7 .5-21t.6-21c0-1-.3-1.4-1-1.4a29 29 0 0 0-4.5.6 29.3 29.3 0 0 1-4.7.5q-7.1 0-8.4.5a1.4 1.4 0 0 0-.9 1.5 9 9 0 0 0 .2 1.2q1.1 17.3 1.3 26.1 1 28.5 1 37.3v35.8q0 2 1.6 2l7 .1h6.8q1.6 0 1.6-2v-44.1q0-3.7 7-8 6.6-4.1 10.7-4.1 12.6 0 12.6 13.3l.3 10.5.3 10.3-.3 10.8-.3 10.8q0 2.4 1.9 2.4l7 .1 7 .1q1.5 0 1.5-2.7l-.1-14.1Zm34.4-76.6v-8.1q0-2.7-1-2.8a34.7 34.7 0 0 0-4.2.3 34.6 34.6 0 0 1-4.1.4 33.7 33.7 0 0 1-4.2-.4 33.8 33.8 0 0 0-4-.3q-1 0-1 2.9v40q0 6.1 4.6 28.4a2.6 2.6 0 0 0 1.5 2.2 9.6 9.6 0 0 0 3 .3q3.5 0 3.8-2.9 1.8-11.7 3-17.6a198.7 198.7 0 0 0 2.7-34.3l-.1-8Zm-2.3 77.3a9 9 0 0 0-7-3 8.8 8.8 0 0 0-7 3 10.8 10.8 0 0 0-2.6 7.4 11 11 0 0 0 2.5 7.4 8.7 8.7 0 0 0 7 3.3 8.8 8.8 0 0 0 7.1-3.2 11.2 11.2 0 0 0 2.7-7.5 10.5 10.5 0 0 0-2.7-7.4Z"/><path id="You_have_reached_the_last_image" data-name="You have reached the last image" class="cls-1" d="M166.8 578.5v12.3h-2.3v-12.3L151.3 560h2.8l11.6 16.6 11.6-16.6h2.7Zm34.6 5.5a11.8 11.8 0 0 1-2.5 3.8 11.6 11.6 0 0 1-3.6 2.5 11.2 11.2 0 0 1-4.7 1 11 11 0 0 1-4.6-1 11.8 11.8 0 0 1-3.6-2.5 11.4 11.4 0 0 1-2.4-3.7 11.8 11.8 0 0 1-.9-4.5 11.8 11.8 0 0 1 3.3-8.3 11.7 11.7 0 0 1 3.7-2.6 11.2 11.2 0 0 1 4.6-1 11 11 0 0 1 4.6 1 11.8 11.8 0 0 1 3.7 2.5 11.4 11.4 0 0 1 2.4 3.7 11.8 11.8 0 0 1 .8 4.5v.1a11.8 11.8 0 0 1-.8 4.5Zm-1.5-4.5a10.2 10.2 0 0 0-.7-3.8 9.5 9.5 0 0 0-2-3 9.1 9.1 0 0 0-3-2.2 9 9 0 0 0-3.6-.7 9 9 0 0 0-3.7.8 9 9 0 0 0-3 2 9.4 9.4 0 0 0-1.8 3 10.2 10.2 0 0 0-.7 3.8v.1a10.2 10.2 0 0 0 .7 3.8 9.5 9.5 0 0 0 2 3.1 9.2 9.2 0 0 0 3 2 9 9 0 0 0 3.6.8 9 9 0 0 0 3.7-.8 9.1 9.1 0 0 0 3-2 9.4 9.4 0 0 0 1.8-3 10.2 10.2 0 0 0 .7-3.8Zm25.6 11.3v-4.2a10.5 10.5 0 0 1-3 3.3 8.6 8.6 0 0 1-5.1 1.4 10 10 0 0 1-3.8-.7 8 8 0 0 1-4.6-4.8 11.2 11.2 0 0 1-.6-3.8v-13.7h2.2v13.3a8.1 8.1 0 0 0 1.8 5.6 6.7 6.7 0 0 0 5.3 2.1 8 8 0 0 0 3-.6 7.6 7.6 0 0 0 2.6-1.6 7.5 7.5 0 0 0 1.6-2.6 8.6 8.6 0 0 0 .6-3.2v-13h2.2v22.5h-2.2Zm40.6 0v-13.4a8.1 8.1 0 0 0-1.8-5.6 6.7 6.7 0 0 0-5.3-2 7.9 7.9 0 0 0-3.1.5 7.7 7.7 0 0 0-2.5 1.7 7.5 7.5 0 0 0-1.6 2.5 8.6 8.6 0 0 0-.6 3.3v13H249v-32.2h2.2v13.9a10.5 10.5 0 0 1 3-3.4 8.5 8.5 0 0 1 5.1-1.4 10 10 0 0 1 3.8.7 8 8 0 0 1 4.6 4.9 11.2 11.2 0 0 1 .6 3.7v13.8h-2.2Zm25.4 0V587a11.2 11.2 0 0 1-1.4 1.6 9.5 9.5 0 0 1-2 1.3 10.8 10.8 0 0 1-2.3 1 10.9 10.9 0 0 1-3 .4 11.4 11.4 0 0 1-3-.4 9 9 0 0 1-2.9-1.4 7 7 0 0 1-2-2.2 6 6 0 0 1-.7-3v-.2a6.6 6.6 0 0 1 .7-3 6.7 6.7 0 0 1 2-2.4 9.3 9.3 0 0 1 3-1.4 15.5 15.5 0 0 1 4.1-.5 27.3 27.3 0 0 1 4.1.3 31 31 0 0 1 3.4.7v-1a6.4 6.4 0 0 0-2-5.1 8 8 0 0 0-5.5-1.7 13.4 13.4 0 0 0-3.7.5 18.7 18.7 0 0 0-3.3 1.3l-.8-2a22.9 22.9 0 0 1 3.7-1.3 15.4 15.4 0 0 1 4.3-.6 10 10 0 0 1 6.9 2.2q2.5 2.2 2.5 6.6v14h-2.1Zm0-11q-1.4-.4-3.3-.7a25.5 25.5 0 0 0-4.3-.3 9 9 0 0 0-5.5 1.4 4.5 4.5 0 0 0-2 3.8 4.4 4.4 0 0 0 .6 2.3 5 5 0 0 0 1.4 1.6 6.8 6.8 0 0 0 2.1 1 8.7 8.7 0 0 0 2.5.3 10.4 10.4 0 0 0 3.3-.5 9 9 0 0 0 2.7-1.4 6.8 6.8 0 0 0 1.8-2.2 5.8 5.8 0 0 0 .7-2.8v-2.5Zm18.6 11.1h-1.9l-10-22.6h2.4l8.5 20 8.6-20h2.5Zm16.3-6.8a9.7 9.7 0 0 0 2 2.8 8.2 8.2 0 0 0 2.7 1.7 8.8 8.8 0 0 0 3.2.6 9.2 9.2 0 0 0 4.5-1 13.2 13.2 0 0 0 3.3-2.5l1.5 1.3a15.7 15.7 0 0 1-4 3 11 11 0 0 1-5.4 1.3 10.9 10.9 0 0 1-4.2-.8 10.7 10.7 0 0 1-3.5-2.4 11.3 11.3 0 0 1-2.4-3.7 12.6 12.6 0 0 1-1-4.8v-.1a12.7 12.7 0 0 1 .9-4.6 11.7 11.7 0 0 1 2.2-3.7 10.7 10.7 0 0 1 3.4-2.5 9.7 9.7 0 0 1 4.2-1 9.8 9.8 0 0 1 4.3 1 9.6 9.6 0 0 1 3.3 2.4 11.3 11.3 0 0 1 2 3.8 14.3 14.3 0 0 1 .8 4.6v.5a2.7 2.7 0 0 1 0 .4h-18.7a9.8 9.8 0 0 0 .9 3.7Zm15.5-5.6a12.8 12.8 0 0 0-.7-3.3 9.2 9.2 0 0 0-1.6-2.8 7.4 7.4 0 0 0-2.4-2 8 8 0 0 0-6.6 0 7.9 7.9 0 0 0-2.5 1.8 10 10 0 0 0-1.8 2.8 10.4 10.4 0 0 0-.8 3.5h16.4Zm33.6-8.2a9.6 9.6 0 0 0-3.7.7 8.9 8.9 0 0 0-3 2.2 10.5 10.5 0 0 0-2.2 3.5 13.6 13.6 0 0 0-.8 4.8v9.3h-2.2v-22.5h2.2v6.4a12.7 12.7 0 0 1 1.7-2.8 11 11 0 0 1 2.3-2.2 9.7 9.7 0 0 1 2.8-1.4 10 10 0 0 1 3.2-.4v2.4h-.3Zm6.3 13.8a9.7 9.7 0 0 0 2 2.8 8.2 8.2 0 0 0 2.7 1.7 8.8 8.8 0 0 0 3.2.6 9.2 9.2 0 0 0 4.5-1 13.2 13.2 0 0 0 3.3-2.5l1.5 1.3a15.7 15.7 0 0 1-4 3 11 11 0 0 1-5.4 1.3 10.9 10.9 0 0 1-4.2-.8 10.7 10.7 0 0 1-3.5-2.4 11.3 11.3 0 0 1-2.4-3.7 12.6 12.6 0 0 1-1-4.8v-.1a12.7 12.7 0 0 1 .9-4.6 11.7 11.7 0 0 1 2.2-3.7 10.7 10.7 0 0 1 3.4-2.5 9.7 9.7 0 0 1 4.2-1 9.8 9.8 0 0 1 4.3 1 9.6 9.6 0 0 1 3.3 2.4 11.3 11.3 0 0 1 2 3.8 14.3 14.3 0 0 1 .8 4.6v.5a2.7 2.7 0 0 1 0 .4h-18.7a9.8 9.8 0 0 0 .9 3.7Zm15.5-5.6a12.8 12.8 0 0 0-.7-3.3 9.2 9.2 0 0 0-1.6-2.8 7.4 7.4 0 0 0-2.4-2 8 8 0 0 0-6.6 0 7.9 7.9 0 0 0-2.5 1.8 10 10 0 0 0-1.8 2.8 10.4 10.4 0 0 0-.8 3.5h16.4Zm24 12.3V587a11.2 11.2 0 0 1-1.4 1.6 9.5 9.5 0 0 1-1.9 1.3 10.8 10.8 0 0 1-2.4 1 10.9 10.9 0 0 1-3 .4 11.3 11.3 0 0 1-3-.4 9 9 0 0 1-2.8-1.4 7 7 0 0 1-2-2.2 6 6 0 0 1-.8-3v-.2a6.6 6.6 0 0 1 .7-3 6.7 6.7 0 0 1 2-2.4 9.3 9.3 0 0 1 3.1-1.4 15.5 15.5 0 0 1 4-.5 27.3 27.3 0 0 1 4.1.3 31 31 0 0 1 3.4.7v-1a6.4 6.4 0 0 0-2-5.1 8 8 0 0 0-5.4-1.7 13.4 13.4 0 0 0-3.8.5 18.7 18.7 0 0 0-3.3 1.3l-.8-2a22.9 22.9 0 0 1 3.8-1.3 15.4 15.4 0 0 1 4.2-.6 10 10 0 0 1 6.9 2.2q2.5 2.2 2.5 6.6v14h-2.1Zm0-11q-1.4-.4-3.3-.7a25.5 25.5 0 0 0-4.3-.3 9 9 0 0 0-5.5 1.4 4.5 4.5 0 0 0-2 3.8 4.4 4.4 0 0 0 .6 2.3 5 5 0 0 0 1.4 1.6 6.8 6.8 0 0 0 2.1 1 8.7 8.7 0 0 0 2.5.3 10.4 10.4 0 0 0 3.3-.5 9 9 0 0 0 2.7-1.4 6.8 6.8 0 0 0 1.8-2.2 5.8 5.8 0 0 0 .7-2.8v-2.5Zm25 10.2a10.3 10.3 0 0 1-5.3 1.3 10.8 10.8 0 0 1-4.5-1 11.7 11.7 0 0 1-3.7-2.5 11.5 11.5 0 0 1-2.4-3.7 11.8 11.8 0 0 1-.8-4.5 11.8 11.8 0 0 1 .8-4.6 12 12 0 0 1 2.4-3.7 11.4 11.4 0 0 1 3.7-2.6 10.8 10.8 0 0 1 4.5-1 11.5 11.5 0 0 1 2.9.4 11 11 0 0 1 2.4.9 11.8 11.8 0 0 1 2 1.3 19.7 19.7 0 0 1 1.7 1.6l-1.6 1.6a17.1 17.1 0 0 0-3.2-2.6 8 8 0 0 0-4.3-1 8.6 8.6 0 0 0-3.5.7 8.9 8.9 0 0 0-3 2 9.7 9.7 0 0 0-1.8 3 10 10 0 0 0-.7 3.8v.1a10 10 0 0 0 .7 3.8 9.8 9.8 0 0 0 2 3.1 9.2 9.2 0 0 0 3 2 8.8 8.8 0 0 0 3.5.8 8.4 8.4 0 0 0 4.3-1 13.1 13.1 0 0 0 3.3-2.7l1.5 1.3a16 16 0 0 1-4 3.2Zm27 .8v-13.4a8.1 8.1 0 0 0-1.8-5.6 6.7 6.7 0 0 0-5.3-2 7.9 7.9 0 0 0-3 .5 7.7 7.7 0 0 0-2.5 1.7 7.5 7.5 0 0 0-1.7 2.5 8.6 8.6 0 0 0-.6 3.3v13h-2.1v-32.2h2.1v13.9a10.5 10.5 0 0 1 3.1-3.4 8.5 8.5 0 0 1 5-1.4 10 10 0 0 1 3.8.7 8 8 0 0 1 4.6 4.9 11.2 11.2 0 0 1 .6 3.7v13.8h-2.1ZM485 584a9.7 9.7 0 0 0 2 2.8 8.2 8.2 0 0 0 2.7 1.7 8.8 8.8 0 0 0 3.2.6 9.2 9.2 0 0 0 4.5-1 13.2 13.2 0 0 0 3.3-2.5l1.5 1.3a15.7 15.7 0 0 1-4 3 11 11 0 0 1-5.3 1.3 10.9 10.9 0 0 1-4.3-.8 10.7 10.7 0 0 1-3.5-2.4 11.3 11.3 0 0 1-2.4-3.7 12.6 12.6 0 0 1-.9-4.8v-.1a12.7 12.7 0 0 1 .8-4.6 11.7 11.7 0 0 1 2.3-3.7 10.7 10.7 0 0 1 3.3-2.5 9.7 9.7 0 0 1 4.3-1 9.8 9.8 0 0 1 4.3 1 9.6 9.6 0 0 1 3.2 2.4 11.3 11.3 0 0 1 2 3.8 14.4 14.4 0 0 1 .8 4.6v.5a2.7 2.7 0 0 1 0 .4H484a9.8 9.8 0 0 0 1 3.7Zm15.5-5.6a12.8 12.8 0 0 0-.7-3.3 9.2 9.2 0 0 0-1.5-2.8 7.4 7.4 0 0 0-2.5-2 8 8 0 0 0-6.5 0 7.9 7.9 0 0 0-2.6 1.8 10 10 0 0 0-1.8 2.8 10.4 10.4 0 0 0-.8 3.5h16.4Zm27.3 12.3v-5a20.8 20.8 0 0 1-1.6 2 10.3 10.3 0 0 1-4.6 3 9.6 9.6 0 0 1-3 .5 10.5 10.5 0 0 1-4-.8 10.8 10.8 0 0 1-3.5-2.3 11.4 11.4 0 0 1-2.5-3.7 12.2 12.2 0 0 1-1-4.9 12.2 12.2 0 0 1 1-5 11.6 11.6 0 0 1 2.5-3.7 11 11 0 0 1 3.5-2.3 10.5 10.5 0 0 1 7-.4 9.9 9.9 0 0 1 2.6 1.2 11.5 11.5 0 0 1 2 1.7 16 16 0 0 1 1.6 2v-14.5h2.2v32.2h-2.2Zm.1-11.3a9.8 9.8 0 0 0-.7-4 9.3 9.3 0 0 0-5-5 8.7 8.7 0 0 0-3.5-.7 9 9 0 0 0-3.4.7 8.2 8.2 0 0 0-2.8 1.9 8.8 8.8 0 0 0-2 3 11.2 11.2 0 0 0-.6 4v.1a11 11 0 0 0 .7 4 9.1 9.1 0 0 0 2 3.1 8.6 8.6 0 0 0 6.1 2.6 8.7 8.7 0 0 0 3.5-.7 9.2 9.2 0 0 0 3-2 9.8 9.8 0 0 0 2-3 9.7 9.7 0 0 0 .7-4Zm32.8 11.5a8.5 8.5 0 0 1-1.9.2 8.4 8.4 0 0 1-2.4-.4 5.2 5.2 0 0 1-3.4-3 7.2 7.2 0 0 1-.5-2.8v-14.8h-3.2v-2h3.2v-7.1h2.2v7.2h7.9v2h-8v14.4a4 4 0 0 0 1.3 3.4 5.2 5.2 0 0 0 3.3 1 7.3 7.3 0 0 0 1.6-.2 9.9 9.9 0 0 0 1.7-.6v2a9.4 9.4 0 0 1-1.8.7Zm25.3-.2v-13.4a8.1 8.1 0 0 0-1.8-5.6 6.7 6.7 0 0 0-5.3-2 7.9 7.9 0 0 0-3 .5 7.7 7.7 0 0 0-2.6 1.7 7.5 7.5 0 0 0-1.6 2.5 8.6 8.6 0 0 0-.6 3.3v13h-2.2v-32.2h2.2v13.9a10.5 10.5 0 0 1 3-3.4 8.5 8.5 0 0 1 5.1-1.4 10 10 0 0 1 3.8.7 8 8 0 0 1 4.6 4.9 11.2 11.2 0 0 1 .6 3.7v13.8h-2.2Zm11.6-6.7a9.7 9.7 0 0 0 2 2.8 8.2 8.2 0 0 0 2.7 1.7 8.8 8.8 0 0 0 3.2.6 9.2 9.2 0 0 0 4.5-1 13.2 13.2 0 0 0 3.3-2.5l1.5 1.3a15.6 15.6 0 0 1-4 3 11 11 0 0 1-5.4 1.3 10.9 10.9 0 0 1-4.2-.8 10.7 10.7 0 0 1-3.5-2.4 11.3 11.3 0 0 1-2.4-3.7 12.6 12.6 0 0 1-1-4.8v-.1a12.7 12.7 0 0 1 .9-4.6 11.7 11.7 0 0 1 2.2-3.7 10.7 10.7 0 0 1 3.4-2.5 9.7 9.7 0 0 1 4.2-1 9.8 9.8 0 0 1 4.3 1 9.6 9.6 0 0 1 3.3 2.4 11.4 11.4 0 0 1 2 3.8 14.4 14.4 0 0 1 .8 4.6v.5a2.9 2.9 0 0 1 0 .4h-18.7a9.8 9.8 0 0 0 .9 3.7Zm15.5-5.6a12.8 12.8 0 0 0-.7-3.3 9.2 9.2 0 0 0-1.5-2.8 7.4 7.4 0 0 0-2.5-2 8 8 0 0 0-6.5 0 7.9 7.9 0 0 0-2.6 1.8 10 10 0 0 0-1.8 2.8 10.4 10.4 0 0 0-.8 3.5H613Zm22 12.3v-32.2h2.2v32.2H635Zm26.1 0V587a11.2 11.2 0 0 1-1.4 1.6 9.4 9.4 0 0 1-1.9 1.3 10.7 10.7 0 0 1-2.4 1 10.9 10.9 0 0 1-2.9.4 11.3 11.3 0 0 1-3.1-.5 9 9 0 0 1-2.8-1.3 7 7 0 0 1-2-2.2 6 6 0 0 1-.8-3v-.2a6.6 6.6 0 0 1 .8-3 6.7 6.7 0 0 1 2-2.4 9.3 9.3 0 0 1 3-1.4 15.5 15.5 0 0 1 4-.5 27.3 27.3 0 0 1 4.2.3 31 31 0 0 1 3.3.7v-1a6.4 6.4 0 0 0-2-5.1 8 8 0 0 0-5.4-1.7 13.4 13.4 0 0 0-3.8.5 18.7 18.7 0 0 0-3.3 1.3l-.7-2a22.9 22.9 0 0 1 3.7-1.3 15.4 15.4 0 0 1 4.2-.6 10 10 0 0 1 7 2.2q2.4 2.2 2.4 6.6v14h-2.1Zm0-11q-1.4-.4-3.3-.7a25.5 25.5 0 0 0-4.3-.3 9 9 0 0 0-5.5 1.4 4.5 4.5 0 0 0-1.9 3.8 4.4 4.4 0 0 0 .5 2.3 5 5 0 0 0 1.5 1.6 6.8 6.8 0 0 0 2 1 8.7 8.7 0 0 0 2.5.3 10.4 10.4 0 0 0 3.3-.5 9 9 0 0 0 2.7-1.4 6.8 6.8 0 0 0 1.9-2.2 5.8 5.8 0 0 0 .7-2.8v-2.5Zm24.3 7.6a6.1 6.1 0 0 1-1.7 2 7.7 7.7 0 0 1-2.4 1.3 9.7 9.7 0 0 1-3 .5 14 14 0 0 1-5-1 15.2 15.2 0 0 1-4.3-2.3l1.3-1.7a15.4 15.4 0 0 0 3.9 2.2 11.7 11.7 0 0 0 4.2.7 6.4 6.4 0 0 0 3.8-1.1 3.7 3.7 0 0 0 1.6-3.1v-.1a2.9 2.9 0 0 0-.5-1.7 4.5 4.5 0 0 0-1.3-1.2 8.6 8.6 0 0 0-2-1l-2.2-.6-2.7-.9a11 11 0 0 1-2.5-1 5.8 5.8 0 0 1-1.8-1.8 4.4 4.4 0 0 1-.7-2.5 5.6 5.6 0 0 1 .6-2.6 6.1 6.1 0 0 1 1.5-2 7 7 0 0 1 2.3-1.2 9.3 9.3 0 0 1 3-.5 13.8 13.8 0 0 1 4.2.7 14.1 14.1 0 0 1 3.8 1.8l-1.2 1.8a15 15 0 0 0-3.3-1.6 11 11 0 0 0-3.6-.6 5.8 5.8 0 0 0-3.7 1.1 3.5 3.5 0 0 0-1.4 2.8v.1a2.5 2.5 0 0 0 .5 1.6 4.6 4.6 0 0 0 1.4 1.2 11.2 11.2 0 0 0 2 .8l2.4.8 2.7.8a10 10 0 0 1 2.3 1.2 6 6 0 0 1 1.7 1.7 4.6 4.6 0 0 1 .7 2.6 6 6 0 0 1-.6 2.8Zm16.4 3.6a8.5 8.5 0 0 1-2 .2 8.4 8.4 0 0 1-2.4-.4 5.2 5.2 0 0 1-3.3-3 7.2 7.2 0 0 1-.5-2.8v-14.8h-3.3v-2h3.3v-7.1h2.1v7.2h8v2h-8v14.4a4 4 0 0 0 1.3 3.4 5.2 5.2 0 0 0 3.2 1 7.3 7.3 0 0 0 1.6-.2 9.9 9.9 0 0 0 1.7-.6v2a9.4 9.4 0 0 1-1.7.7Zm21.4-28.6v-3h2.7v3h-2.7Zm.3 28.4v-22.5h2.1v22.5h-2.1Zm42.5 0v-13.4a8.3 8.3 0 0 0-1.8-5.7 6.2 6.2 0 0 0-5-2 7.1 7.1 0 0 0-2.6.6 6.5 6.5 0 0 0-2.3 1.5 7.4 7.4 0 0 0-1.5 2.5 9.3 9.3 0 0 0-.6 3.4v13H750v-13.4a8.1 8.1 0 0 0-1.7-5.6 6 6 0 0 0-4.8-2 6.6 6.6 0 0 0-2.9.6 7 7 0 0 0-2.3 1.8 8.2 8.2 0 0 0-1.5 2.5 8.9 8.9 0 0 0-.5 3.2v13H734v-22.5h2.2v4a13.4 13.4 0 0 1 1.2-1.7 8.7 8.7 0 0 1 1.5-1.5 7.2 7.2 0 0 1 2-1 8.8 8.8 0 0 1 2.8-.4 8.5 8.5 0 0 1 2.6.4 7.9 7.9 0 0 1 2.2 1 7.6 7.6 0 0 1 1.6 1.6 11.2 11.2 0 0 1 1.1 1.9 12 12 0 0 1 1.3-1.8 8.9 8.9 0 0 1 1.8-1.6 8.4 8.4 0 0 1 2.2-1 9.4 9.4 0 0 1 2.9-.5 9.1 9.1 0 0 1 3.6.7 7.9 7.9 0 0 1 2.7 2 8.2 8.2 0 0 1 1.7 2.9 11.9 11.9 0 0 1 .6 3.8v13.7H766Zm25.5 0V587a11.2 11.2 0 0 1-1.4 1.6 9.5 9.5 0 0 1-2 1.3 10.8 10.8 0 0 1-2.3 1 10.9 10.9 0 0 1-3 .4 11.4 11.4 0 0 1-3-.4 9 9 0 0 1-2.9-1.4 7 7 0 0 1-2-2.2 6 6 0 0 1-.7-3v-.2a6.6 6.6 0 0 1 .7-3 6.7 6.7 0 0 1 2-2.4 9.3 9.3 0 0 1 3-1.4 15.5 15.5 0 0 1 4.1-.5 27.3 27.3 0 0 1 4.1.3 31 31 0 0 1 3.4.7v-1a6.4 6.4 0 0 0-2-5.1 8 8 0 0 0-5.5-1.7 13.4 13.4 0 0 0-3.7.5 18.7 18.7 0 0 0-3.3 1.3l-.8-2a22.9 22.9 0 0 1 3.7-1.3 15.4 15.4 0 0 1 4.3-.6 10 10 0 0 1 6.9 2.2q2.5 2.2 2.5 6.6v14h-2.1Zm0-11q-1.4-.4-3.3-.7a25.5 25.5 0 0 0-4.3-.3 9 9 0 0 0-5.5 1.4 4.5 4.5 0 0 0-2 3.8 4.4 4.4 0 0 0 .6 2.3 5 5 0 0 0 1.4 1.6 6.8 6.8 0 0 0 2.1 1 8.7 8.7 0 0 0 2.5.3 10.4 10.4 0 0 0 3.3-.5 9 9 0 0 0 2.7-1.4 6.8 6.8 0 0 0 1.8-2.2 5.8 5.8 0 0 0 .7-2.8v-2.5Zm29.9 12a9.1 9.1 0 0 1-2.3 3.4 10 10 0 0 1-3.5 2 13.4 13.4 0 0 1-4.5.7 16.8 16.8 0 0 1-10.3-3.5l1.3-1.7a14.6 14.6 0 0 0 9 3.1 11 11 0 0 0 3.7-.5 7.4 7.4 0 0 0 4.6-4.4 10 10 0 0 0 .6-3.8V584a15.5 15.5 0 0 1-1.6 2 12 12 0 0 1-2.1 1.6 10.2 10.2 0 0 1-2.6 1.2 11.1 11.1 0 0 1-10.5-2.5 10.7 10.7 0 0 1-2.4-3.3 10 10 0 0 1-1-4.4 10.3 10.3 0 0 1 1-4.5 10.6 10.6 0 0 1 2.4-3.4 11.1 11.1 0 0 1 7.4-2.9 11 11 0 0 1 5.7 1.6 10.5 10.5 0 0 1 2.1 1.6 16 16 0 0 1 1.6 1.9v-4.5h2.2v19a11.9 11.9 0 0 1-.8 4.5Zm-1.2-13.4a7.8 7.8 0 0 0-.8-3.6 8.7 8.7 0 0 0-2.1-2.7 9.3 9.3 0 0 0-3-1.7 10.3 10.3 0 0 0-3.5-.6 9.5 9.5 0 0 0-3.3.6 8.4 8.4 0 0 0-2.8 1.7 7.9 7.9 0 0 0-1.9 2.7 8.8 8.8 0 0 0-.7 3.5v.1a8.5 8.5 0 0 0 .7 3.5 8.3 8.3 0 0 0 2 2.7 9 9 0 0 0 6 2.4 10 10 0 0 0 3.5-.6 9.6 9.6 0 0 0 3-1.7 8.8 8.8 0 0 0 2-2.7 7.6 7.6 0 0 0 .9-3.5v-.1ZM832 584a9.7 9.7 0 0 0 2 2.8 8.2 8.2 0 0 0 2.7 1.7 8.8 8.8 0 0 0 3.3.6 9.2 9.2 0 0 0 4.4-1 13.2 13.2 0 0 0 3.3-2.5l1.5 1.3a15.7 15.7 0 0 1-4 3 11 11 0 0 1-5.3 1.3 10.9 10.9 0 0 1-4.3-.8 10.7 10.7 0 0 1-3.5-2.4 11.3 11.3 0 0 1-2.4-3.7 12.6 12.6 0 0 1-.9-4.8v-.1a12.7 12.7 0 0 1 .8-4.6 11.7 11.7 0 0 1 2.3-3.7 10.7 10.7 0 0 1 3.4-2.5 9.7 9.7 0 0 1 4.2-1 9.8 9.8 0 0 1 4.3 1 9.6 9.6 0 0 1 3.2 2.4 11.3 11.3 0 0 1 2 3.8 14.3 14.3 0 0 1 .8 4.6v.5a2.7 2.7 0 0 1 0 .4H831a9.8 9.8 0 0 0 1 3.7Zm15.5-5.6a12.8 12.8 0 0 0-.7-3.3 9.2 9.2 0 0 0-1.5-2.8 7.4 7.4 0 0 0-2.5-2 8 8 0 0 0-6.5 0 7.9 7.9 0 0 0-2.6 1.8 10 10 0 0 0-1.8 2.8 10.4 10.4 0 0 0-.8 3.5h16.4Z"/><path d="M482.1 153.7a123.5 123.5 0 0 1 72.6 11.4L390.6 329.7a125.7 125.7 0 0 1-12.6-60.2c1.1-32 15.8-63 39.3-84.6a121.7 121.7 0 0 1 64.8-31.2Zm-85.5 186.8 169-169.3a128.7 128.7 0 0 1 38.2 38.3l-169 169.3a130.5 130.5 0 0 1-38.2-38.3Zm209.8-117.2c1.2-1 2.4-2.1 3.5-3.3 12.5 26 16.1 56.2 9.2 84.3a119.6 119.6 0 0 1-30.4 55.4 121.7 121.7 0 0 1-143.1 24.9q80.3-80.7 160.8-161.3Z" style="stroke:#000;stroke-width:1px;fill-rule:evenodd;fill:#fff"/><path id="Shape_1_copy" data-name="Shape 1 copy" d="m396.6 340.5 169-169.3a128.7 128.7 0 0 1 38.2 38.3l-169 169.3a130.5 130.5 0 0 1-38.2-38.3Z" style="fill:red;opacity:.39;stroke:#000;stroke-width:1px;fill-rule:evenodd"/></svg>