<svg xmlns="http://www.w3.org/2000/svg" width="1000" height="750" viewBox="0 0 1000 750">
  <defs>
    <style>
      .cls-1, .cls-2 {
        fill: #fff;
      }

      .cls-1, .cls-2, .cls-3 {
        fill-rule: evenodd;
      }

      .cls-2, .cls-3 {
        stroke: #000;
        stroke-width: 1px;
      }

      .cls-3 {
        fill: red;
        opacity: 0.39;
      }
    </style>
  </defs>
  <path id="_Oh" data-name="!Oh" class="cls-1" d="M480.324,440.723q-14.7-16.55-36.441-16.551-21.672,0-36.367,16.551-14.25,15.957-14.25,37.925,0,22.192,14.1,38,14.62,16.4,36.516,16.4,21.821,0,36.515-16.477,14.1-15.882,14.1-37.926t-14.176-37.925h0Zm-12.691,63.234q-9.5,11.578-23.9,11.578-14.176,0-23.6-11.578a40.518,40.518,0,0,1,0-50.691q9.425-11.579,23.6-11.578,14.324,0,23.825,11.429a38.088,38.088,0,0,1,9.054,25.309,38.773,38.773,0,0,1-8.98,25.531h0Zm103.535,10.094q-0.15-9.425-.148-14.176,0-2.3.111-7.088t0.111-7.088q0-13.209-3.785-19.3-5.271-8.311-19.223-8.312a28.62,28.62,0,0,0-15.363,4.527q-6.012,4.529-9.8,7.719-0.594-.074-0.594-1.781,0-6.977.557-20.967t0.557-20.967c0-.939-0.323-1.41-0.965-1.41a29.028,29.028,0,0,0-4.527.557,29.258,29.258,0,0,1-4.676.556q-7.125,0-8.387.446a1.431,1.431,0,0,0-.891,1.558,8.962,8.962,0,0,0,.149,1.188q1.113,17.293,1.262,26.125,0.963,28.5.964,37.257v35.848q0,2,1.707,2,2.3,0,6.9.074t6.9,0.074q1.558,0,1.559-2.152V484.66q0-3.636,7.051-8.015,6.6-4.082,10.687-4.083,12.617,0,12.617,13.36,0,3.489.26,10.428t0.26,10.353q0,3.638-.26,10.836t-0.26,10.762q0,2.449,1.856,2.449,2.3,0,6.976.074t6.977,0.074q1.558,0,1.558-2.746Q571.316,523.477,571.168,514.051Zm34.437-76.631q-0.073-5.38-.074-8.164t-0.965-2.783a34.671,34.671,0,0,0-4.119.371,34.564,34.564,0,0,1-4.193.371,33.663,33.663,0,0,1-4.156-.371,33.783,33.783,0,0,0-4.082-.371q-0.891,0-.891,2.894v40q0,6.162,4.527,28.426a2.578,2.578,0,0,0,1.559,2.226,9.558,9.558,0,0,0,2.894.3q3.636,0,3.934-2.894,1.782-11.727,2.895-17.59a198.7,198.7,0,0,0,2.746-34.363Q605.68,442.8,605.605,437.42Zm-2.337,77.3a9.062,9.062,0,0,0-7.014-2.969,8.8,8.8,0,0,0-6.977,2.969,10.758,10.758,0,0,0-2.6,7.347,11.055,11.055,0,0,0,2.523,7.422,8.661,8.661,0,0,0,7.051,3.266,8.833,8.833,0,0,0,7.051-3.117,11.239,11.239,0,0,0,2.672-7.571A10.5,10.5,0,0,0,603.268,514.719Z"/>
  <path id="You_have_reached_the_last_image" data-name="You have reached the last image" class="cls-1" d="M166.8,578.5v12.263H164.5V578.542L151.27,559.883h2.867l11.557,16.586,11.6-16.586h2.735Zm34.561,5.514a11.772,11.772,0,0,1-2.426,3.749,11.641,11.641,0,0,1-3.684,2.581,11.2,11.2,0,0,1-4.631.948,11.056,11.056,0,0,1-4.61-.948,11.8,11.8,0,0,1-3.639-2.537,11.4,11.4,0,0,1-2.4-3.7,11.844,11.844,0,0,1-.86-4.5v-0.088a11.807,11.807,0,0,1,3.286-8.249,11.669,11.669,0,0,1,3.683-2.581,11.208,11.208,0,0,1,4.632-.948,11.056,11.056,0,0,1,4.61.948,11.843,11.843,0,0,1,3.639,2.537,11.438,11.438,0,0,1,2.4,3.7,11.847,11.847,0,0,1,.86,4.5v0.089A11.847,11.847,0,0,1,201.358,584.012Zm-1.434-4.5a10.158,10.158,0,0,0-.709-3.8,9.5,9.5,0,0,0-1.973-3.1,9.147,9.147,0,0,0-2.969-2.064,9.016,9.016,0,0,0-3.656-.747,8.91,8.91,0,0,0-3.7.769,9.09,9.09,0,0,0-2.926,2.064,9.392,9.392,0,0,0-1.906,3.052,10.153,10.153,0,0,0-.686,3.732v0.088a10.153,10.153,0,0,0,.709,3.8,9.52,9.52,0,0,0,1.972,3.1,9.156,9.156,0,0,0,2.97,2.064,9.029,9.029,0,0,0,3.656.746,8.913,8.913,0,0,0,3.7-.768,9.1,9.1,0,0,0,2.925-2.064,9.392,9.392,0,0,0,1.906-3.052,10.155,10.155,0,0,0,.687-3.733v-0.087Zm25.584,11.248V586.57a10.487,10.487,0,0,1-3.087,3.353,8.55,8.55,0,0,1-5.029,1.367,9.968,9.968,0,0,1-3.794-.684,7.918,7.918,0,0,1-4.609-4.852,11.188,11.188,0,0,1-.6-3.727V568.264h2.162V581.63a8.115,8.115,0,0,0,1.852,5.58A6.694,6.694,0,0,0,217.7,589.3a7.912,7.912,0,0,0,3.065-.595,7.629,7.629,0,0,0,2.493-1.654,7.515,7.515,0,0,0,1.654-2.537,8.592,8.592,0,0,0,.595-3.242V568.264h2.162v22.5h-2.162Zm40.626,0V577.4a8.119,8.119,0,0,0-1.852-5.58,6.7,6.7,0,0,0-5.294-2.1,7.855,7.855,0,0,0-3.087.6,7.667,7.667,0,0,0-2.471,1.654,7.511,7.511,0,0,0-1.654,2.536,8.6,8.6,0,0,0-.595,3.242v13.013h-2.162v-32.2h2.162v13.9a10.464,10.464,0,0,1,3.088-3.352,8.533,8.533,0,0,1,5.028-1.368,9.968,9.968,0,0,1,3.794.684,7.925,7.925,0,0,1,4.609,4.852,11.2,11.2,0,0,1,.6,3.727v13.763h-2.162Zm25.32,0v-3.75a11.166,11.166,0,0,1-1.39,1.566,9.465,9.465,0,0,1-1.874,1.368,10.778,10.778,0,0,1-2.4.97,10.9,10.9,0,0,1-2.934.375,11.353,11.353,0,0,1-3.132-.441,8.985,8.985,0,0,1-2.779-1.323,7.045,7.045,0,0,1-2.007-2.206,6.02,6.02,0,0,1-.772-3.087v-0.089a6.569,6.569,0,0,1,.728-3.132,6.677,6.677,0,0,1,2.007-2.293,9.339,9.339,0,0,1,3.088-1.412,15.5,15.5,0,0,1,4.014-.485,27.327,27.327,0,0,1,4.1.265,30.923,30.923,0,0,1,3.353.705v-0.965a6.448,6.448,0,0,0-1.963-5.132,8.023,8.023,0,0,0-5.448-1.71,13.382,13.382,0,0,0-3.793.507,18.652,18.652,0,0,0-3.264,1.3l-0.794-1.9a22.853,22.853,0,0,1,3.749-1.441,15.409,15.409,0,0,1,4.235-.541,10.076,10.076,0,0,1,6.881,2.2q2.514,2.207,2.514,6.617v14.027h-2.117Zm0.044-10.988q-1.413-.351-3.308-0.681a25.526,25.526,0,0,0-4.323-.329,9.076,9.076,0,0,0-5.492,1.428,4.5,4.5,0,0,0-1.919,3.8v0.087a4.369,4.369,0,0,0,.53,2.175,4.96,4.96,0,0,0,1.433,1.6,6.785,6.785,0,0,0,2.1,1.011,8.692,8.692,0,0,0,2.471.351,10.43,10.43,0,0,0,3.264-.5,8.979,8.979,0,0,0,2.713-1.406,6.763,6.763,0,0,0,1.852-2.174,5.845,5.845,0,0,0,.684-2.811v-2.548Zm18.571,11.164h-1.853l-10.1-22.673h2.514l8.513,20.071,8.6-20.071h2.426Zm16.323-6.811a9.679,9.679,0,0,0,1.99,2.765,8.2,8.2,0,0,0,2.72,1.734,8.783,8.783,0,0,0,3.207.592A9.161,9.161,0,0,0,338.8,588.2a13.246,13.246,0,0,0,3.251-2.514l1.5,1.323a15.664,15.664,0,0,1-3.91,3.066,11.044,11.044,0,0,1-5.416,1.213,10.89,10.89,0,0,1-4.223-.838,10.7,10.7,0,0,1-3.537-2.382,11.264,11.264,0,0,1-2.409-3.705,12.58,12.58,0,0,1-.885-4.808v-0.088a12.688,12.688,0,0,1,.817-4.566,11.715,11.715,0,0,1,2.249-3.727,10.711,10.711,0,0,1,3.375-2.515,9.706,9.706,0,0,1,4.234-.926,9.835,9.835,0,0,1,4.279.9,9.637,9.637,0,0,1,3.242,2.493,11.345,11.345,0,0,1,2.073,3.727,14.344,14.344,0,0,1,.728,4.654V580a2.717,2.717,0,0,1-.044.4H325.463A9.8,9.8,0,0,0,326.392,584.126Zm15.48-5.672a12.78,12.78,0,0,0-.685-3.286,9.155,9.155,0,0,0-1.548-2.779,7.406,7.406,0,0,0-2.455-1.941,8.057,8.057,0,0,0-6.546-.066,7.866,7.866,0,0,0-2.543,1.83,9.921,9.921,0,0,0-1.792,2.779,10.394,10.394,0,0,0-.84,3.463h16.409Zm33.657-8.16a9.619,9.619,0,0,0-3.7.727,8.855,8.855,0,0,0-3.11,2.162,10.54,10.54,0,0,0-2.14,3.529,13.587,13.587,0,0,0-.794,4.83v9.219h-2.161v-22.5h2.161v6.4a12.739,12.739,0,0,1,1.677-2.778,11.084,11.084,0,0,1,2.293-2.184,9.734,9.734,0,0,1,2.8-1.367,10.017,10.017,0,0,1,3.2-.419v2.382h-0.22Zm6.266,13.832a9.679,9.679,0,0,0,1.99,2.765,8.189,8.189,0,0,0,2.721,1.734,8.774,8.774,0,0,0,3.206.592A9.161,9.161,0,0,0,394.2,588.2a13.246,13.246,0,0,0,3.251-2.514l1.5,1.323a15.664,15.664,0,0,1-3.91,3.066,11.044,11.044,0,0,1-5.416,1.213,10.89,10.89,0,0,1-4.223-.838,10.7,10.7,0,0,1-3.537-2.382,11.264,11.264,0,0,1-2.409-3.705,12.58,12.58,0,0,1-.884-4.808v-0.088a12.687,12.687,0,0,1,.816-4.566,11.715,11.715,0,0,1,2.249-3.727,10.722,10.722,0,0,1,3.375-2.515,9.706,9.706,0,0,1,4.234-.926,9.835,9.835,0,0,1,4.279.9,9.637,9.637,0,0,1,3.242,2.493,11.345,11.345,0,0,1,2.073,3.727,14.344,14.344,0,0,1,.728,4.654V580a2.717,2.717,0,0,1-.044.4H380.866A9.819,9.819,0,0,0,381.8,584.126Zm15.48-5.672a12.78,12.78,0,0,0-.685-3.286,9.155,9.155,0,0,0-1.548-2.779,7.406,7.406,0,0,0-2.455-1.941,8.057,8.057,0,0,0-6.546-.066,7.866,7.866,0,0,0-2.543,1.83,9.921,9.921,0,0,0-1.792,2.779,10.419,10.419,0,0,0-.84,3.463h16.409Zm24,12.307v-3.75a11.166,11.166,0,0,1-1.39,1.566,9.465,9.465,0,0,1-1.874,1.368,10.767,10.767,0,0,1-2.4.97,10.892,10.892,0,0,1-2.933.375,11.347,11.347,0,0,1-3.132-.441,8.985,8.985,0,0,1-2.779-1.323,7.033,7.033,0,0,1-2.007-2.206,6.011,6.011,0,0,1-.772-3.087v-0.089a6.569,6.569,0,0,1,.728-3.132,6.666,6.666,0,0,1,2.007-2.293,9.339,9.339,0,0,1,3.088-1.412,15.5,15.5,0,0,1,4.014-.485,27.337,27.337,0,0,1,4.1.265,30.974,30.974,0,0,1,3.353.705v-0.965a6.448,6.448,0,0,0-1.963-5.132,8.023,8.023,0,0,0-5.448-1.71,13.377,13.377,0,0,0-3.793.507,18.662,18.662,0,0,0-3.265,1.3l-0.794-1.9a22.863,22.863,0,0,1,3.75-1.441,15.4,15.4,0,0,1,4.234-.541,10.077,10.077,0,0,1,6.882,2.2q2.514,2.207,2.514,6.617v14.027h-2.117Zm0.044-10.988q-1.413-.351-3.308-0.681a25.526,25.526,0,0,0-4.323-.329,9.076,9.076,0,0,0-5.492,1.428,4.5,4.5,0,0,0-1.919,3.8v0.087a4.368,4.368,0,0,0,.529,2.175,4.974,4.974,0,0,0,1.434,1.6,6.774,6.774,0,0,0,2.095,1.011,8.69,8.69,0,0,0,2.47.351,10.432,10.432,0,0,0,3.265-.5,8.962,8.962,0,0,0,2.712-1.406,6.754,6.754,0,0,0,1.853-2.174,5.845,5.845,0,0,0,.684-2.811v-2.548Zm24.944,10.238a10.252,10.252,0,0,1-5.271,1.279,10.836,10.836,0,0,1-4.521-.948,11.744,11.744,0,0,1-3.634-2.537,11.543,11.543,0,0,1-2.4-3.7,11.771,11.771,0,0,1-.865-4.5v-0.088a11.78,11.78,0,0,1,.865-4.5,12.092,12.092,0,0,1,2.4-3.749,11.415,11.415,0,0,1,3.634-2.581,10.836,10.836,0,0,1,4.521-.948,11.452,11.452,0,0,1,2.889.339,10.992,10.992,0,0,1,2.4.923,11.794,11.794,0,0,1,2.008,1.339,19.72,19.72,0,0,1,1.7,1.59l-1.544,1.588a17.124,17.124,0,0,0-3.22-2.6,7.92,7.92,0,0,0-4.279-1.1,8.633,8.633,0,0,0-3.595.747,8.873,8.873,0,0,0-2.867,2.042,9.7,9.7,0,0,0-1.919,3.052,10.021,10.021,0,0,0-.706,3.776v0.088a9.933,9.933,0,0,0,.728,3.8,9.825,9.825,0,0,0,1.985,3.1,9.185,9.185,0,0,0,2.933,2.064,8.8,8.8,0,0,0,3.618.746,8.36,8.36,0,0,0,4.256-1.081,13.148,13.148,0,0,0,3.286-2.668l1.5,1.323A16,16,0,0,1,446.26,590.011Zm27.106,0.75V577.4a8.119,8.119,0,0,0-1.852-5.58,6.7,6.7,0,0,0-5.293-2.1,7.863,7.863,0,0,0-3.088.6,7.652,7.652,0,0,0-2.47,1.654,7.5,7.5,0,0,0-1.655,2.536,8.6,8.6,0,0,0-.595,3.242v13.013h-2.161v-32.2h2.161v13.9A10.464,10.464,0,0,1,461.5,569.1a8.535,8.535,0,0,1,5.028-1.368,9.968,9.968,0,0,1,3.794.684,7.925,7.925,0,0,1,4.609,4.852,11.2,11.2,0,0,1,.6,3.727v13.763h-2.162Zm11.56-6.635a9.679,9.679,0,0,0,1.99,2.765,8.2,8.2,0,0,0,2.72,1.734,8.783,8.783,0,0,0,3.207.592,9.161,9.161,0,0,0,4.489-1.015,13.246,13.246,0,0,0,3.251-2.514l1.5,1.323a15.664,15.664,0,0,1-3.91,3.066,11.047,11.047,0,0,1-5.416,1.213,10.89,10.89,0,0,1-4.223-.838A10.7,10.7,0,0,1,485,588.07a11.264,11.264,0,0,1-2.409-3.705,12.58,12.58,0,0,1-.885-4.808v-0.088a12.709,12.709,0,0,1,.816-4.566,11.735,11.735,0,0,1,2.25-3.727,10.711,10.711,0,0,1,3.375-2.515,9.706,9.706,0,0,1,4.234-.926,9.835,9.835,0,0,1,4.279.9,9.637,9.637,0,0,1,3.242,2.493,11.345,11.345,0,0,1,2.073,3.727,14.371,14.371,0,0,1,.728,4.654V580a2.717,2.717,0,0,1-.044.4H484A9.8,9.8,0,0,0,484.926,584.126Zm15.48-5.672a12.822,12.822,0,0,0-.685-3.286,9.155,9.155,0,0,0-1.548-2.779,7.406,7.406,0,0,0-2.455-1.941,8.057,8.057,0,0,0-6.546-.066,7.866,7.866,0,0,0-2.543,1.83,9.921,9.921,0,0,0-1.792,2.779,10.394,10.394,0,0,0-.84,3.463h16.409Zm27.305,12.307v-5.029a20.788,20.788,0,0,1-1.654,2.118,10.323,10.323,0,0,1-4.544,2.977,9.639,9.639,0,0,1-3.065.463,10.545,10.545,0,0,1-3.992-.794,10.779,10.779,0,0,1-3.507-2.294,11.356,11.356,0,0,1-2.492-3.683,12.208,12.208,0,0,1-.949-4.918v-0.088a12.22,12.22,0,0,1,.949-4.919,11.643,11.643,0,0,1,2.492-3.705,10.94,10.94,0,0,1,3.507-2.338,10.524,10.524,0,0,1,7.079-.375,9.861,9.861,0,0,1,2.537,1.191,11.469,11.469,0,0,1,2.029,1.721,16.079,16.079,0,0,1,1.61,2.029V558.56h2.161v32.2h-2.161Zm0.132-11.292a9.828,9.828,0,0,0-.774-3.948,9.344,9.344,0,0,0-5-5.007,8.672,8.672,0,0,0-3.427-.706,9.067,9.067,0,0,0-3.471.662,8.163,8.163,0,0,0-2.807,1.9,8.82,8.82,0,0,0-1.88,3.021,11.2,11.2,0,0,0-.685,4.036v0.089a10.949,10.949,0,0,0,.707,4.014,9.111,9.111,0,0,0,1.924,3.065,8.626,8.626,0,0,0,6.212,2.625,8.655,8.655,0,0,0,3.427-.706,9.235,9.235,0,0,0,2.941-1.985,9.792,9.792,0,0,0,2.056-3.043,9.67,9.67,0,0,0,.774-3.926v-0.088Zm32.8,11.49a8.52,8.52,0,0,1-1.919.2,8.371,8.371,0,0,1-2.471-.353,5.18,5.18,0,0,1-3.352-3.066,7.15,7.15,0,0,1-.485-2.757V570.249h-3.264v-1.985h3.264v-7.19h2.161v7.19h7.9v1.985h-7.9v14.479a4.033,4.033,0,0,0,1.257,3.389,5.169,5.169,0,0,0,3.243.968,7.261,7.261,0,0,0,1.588-.167,9.893,9.893,0,0,0,1.72-.583v2.029A9.376,9.376,0,0,1,560.64,590.959Zm25.3-.2V577.4a8.119,8.119,0,0,0-1.853-5.58,6.694,6.694,0,0,0-5.293-2.1,7.863,7.863,0,0,0-3.088.6,7.674,7.674,0,0,0-2.47,1.654,7.5,7.5,0,0,0-1.654,2.536,8.6,8.6,0,0,0-.6,3.242v13.013h-2.161v-32.2h2.161v13.9a10.486,10.486,0,0,1,3.088-3.352,8.539,8.539,0,0,1,5.029-1.368,9.966,9.966,0,0,1,3.793.684,7.93,7.93,0,0,1,4.61,4.852A11.2,11.2,0,0,1,588.1,577v13.763h-2.161Zm11.56-6.635a9.66,9.66,0,0,0,1.99,2.765,8.2,8.2,0,0,0,2.72,1.734,8.778,8.778,0,0,0,3.206.592A9.158,9.158,0,0,0,609.9,588.2a13.227,13.227,0,0,0,3.251-2.514l1.5,1.323a15.646,15.646,0,0,1-3.91,3.066,11.041,11.041,0,0,1-5.416,1.213,10.885,10.885,0,0,1-4.222-.838,10.685,10.685,0,0,1-3.537-2.382,11.267,11.267,0,0,1-2.41-3.705,12.58,12.58,0,0,1-.884-4.808v-0.088a12.687,12.687,0,0,1,.816-4.566,11.735,11.735,0,0,1,2.25-3.727,10.718,10.718,0,0,1,3.374-2.515,9.71,9.71,0,0,1,4.235-.926,9.828,9.828,0,0,1,4.278.9,9.64,9.64,0,0,1,3.243,2.493,11.363,11.363,0,0,1,2.073,3.727,14.371,14.371,0,0,1,.728,4.654V580a2.867,2.867,0,0,1-.044.4H596.568A9.782,9.782,0,0,0,597.5,584.126Zm15.48-5.672a12.823,12.823,0,0,0-.686-3.286,9.155,9.155,0,0,0-1.548-2.779,7.406,7.406,0,0,0-2.455-1.941,8.057,8.057,0,0,0-6.546-.066,7.866,7.866,0,0,0-2.543,1.83,9.918,9.918,0,0,0-1.791,2.779,10.37,10.37,0,0,0-.84,3.463h16.409Zm22.055,12.307v-32.2h2.162v32.2h-2.162Zm26.07,0v-3.75a11.166,11.166,0,0,1-1.39,1.566,9.443,9.443,0,0,1-1.875,1.368,10.739,10.739,0,0,1-2.4.97,10.892,10.892,0,0,1-2.933.375,11.347,11.347,0,0,1-3.132-.441,8.974,8.974,0,0,1-2.779-1.323,7.033,7.033,0,0,1-2.007-2.206,6.011,6.011,0,0,1-.772-3.087v-0.089a6.569,6.569,0,0,1,.728-3.132,6.666,6.666,0,0,1,2.007-2.293,9.339,9.339,0,0,1,3.088-1.412,15.5,15.5,0,0,1,4.014-.485,27.337,27.337,0,0,1,4.1.265,30.974,30.974,0,0,1,3.353.705v-0.965a6.448,6.448,0,0,0-1.963-5.132,8.023,8.023,0,0,0-5.448-1.71,13.372,13.372,0,0,0-3.793.507,18.662,18.662,0,0,0-3.265,1.3l-0.794-1.9a22.863,22.863,0,0,1,3.75-1.441,15.4,15.4,0,0,1,4.234-.541,10.079,10.079,0,0,1,6.882,2.2q2.514,2.207,2.514,6.617v14.027H661.1Zm0.044-10.988q-1.413-.351-3.309-0.681a25.505,25.505,0,0,0-4.322-.329,9.076,9.076,0,0,0-5.492,1.428,4.5,4.5,0,0,0-1.919,3.8v0.087a4.368,4.368,0,0,0,.529,2.175,4.974,4.974,0,0,0,1.434,1.6,6.774,6.774,0,0,0,2.1,1.011,8.69,8.69,0,0,0,2.47.351,10.432,10.432,0,0,0,3.265-.5,8.962,8.962,0,0,0,2.712-1.406,6.754,6.754,0,0,0,1.853-2.174,5.845,5.845,0,0,0,.684-2.811v-2.548Zm24.239,7.578a6.1,6.1,0,0,1-1.655,2.069,7.659,7.659,0,0,1-2.47,1.32,9.73,9.73,0,0,1-3.043.462,14.015,14.015,0,0,1-4.941-.924A15.249,15.249,0,0,1,669,587.894l1.28-1.721a15.419,15.419,0,0,0,3.881,2.184,11.685,11.685,0,0,0,4.191.772,6.367,6.367,0,0,0,3.86-1.144,3.668,3.668,0,0,0,1.566-3.126v-0.088a2.875,2.875,0,0,0-.486-1.673,4.484,4.484,0,0,0-1.323-1.232,8.608,8.608,0,0,0-1.9-.88q-1.059-.353-2.249-0.705-1.368-.4-2.757-0.837a11.031,11.031,0,0,1-2.493-1.122,5.809,5.809,0,0,1-1.786-1.694,4.384,4.384,0,0,1-.684-2.51V574.03a5.56,5.56,0,0,1,.552-2.487,6.135,6.135,0,0,1,1.521-1.959,6.941,6.941,0,0,1,2.338-1.3,9.321,9.321,0,0,1,3-.463,13.818,13.818,0,0,1,4.168.676,14.126,14.126,0,0,1,3.816,1.839l-1.147,1.808a14.945,14.945,0,0,0-3.33-1.632,10.96,10.96,0,0,0-3.6-.617,5.762,5.762,0,0,0-3.728,1.122,3.458,3.458,0,0,0-1.389,2.795V573.9a2.546,2.546,0,0,0,.529,1.607,4.555,4.555,0,0,0,1.39,1.167,11.207,11.207,0,0,0,2.007.858q1.146,0.374,2.338.726,1.366,0.4,2.69.859a10.045,10.045,0,0,1,2.382,1.188,6,6,0,0,1,1.7,1.739,4.622,4.622,0,0,1,.639,2.509v0.088A6.056,6.056,0,0,1,685.385,587.351Zm16.409,3.608a8.513,8.513,0,0,1-1.919.2,8.365,8.365,0,0,1-2.47-.353,5.184,5.184,0,0,1-3.353-3.066,7.15,7.15,0,0,1-.485-2.757V570.249H690.3v-1.985h3.264v-7.19h2.162v7.19h7.895v1.985h-7.895v14.479a4.033,4.033,0,0,0,1.257,3.389,5.166,5.166,0,0,0,3.242.968,7.261,7.261,0,0,0,1.588-.167,9.865,9.865,0,0,0,1.72-.583v2.029A9.352,9.352,0,0,1,701.794,590.959ZM723.21,562.4v-2.956h2.69V562.4h-2.69Zm0.264,28.363v-22.5h2.162v22.5h-2.162Zm42.479,0V577.4a8.313,8.313,0,0,0-1.765-5.668,6.177,6.177,0,0,0-4.9-2.007,7.148,7.148,0,0,0-2.713.529,6.5,6.5,0,0,0-2.271,1.544,7.447,7.447,0,0,0-1.544,2.493,9.261,9.261,0,0,0-.574,3.374v13.1h-2.161v-13.5a8.1,8.1,0,0,0-1.765-5.536,6.073,6.073,0,0,0-4.808-2.007,6.592,6.592,0,0,0-2.823.618,6.922,6.922,0,0,0-2.293,1.72,8.232,8.232,0,0,0-1.522,2.558,8.889,8.889,0,0,0-.552,3.176v12.969h-2.161v-22.5h2.161v4.014a13.431,13.431,0,0,1,1.213-1.7,8.672,8.672,0,0,1,1.566-1.455,7.239,7.239,0,0,1,2.051-1.015,8.761,8.761,0,0,1,2.669-.375,8.532,8.532,0,0,1,2.669.4,7.87,7.87,0,0,1,2.139,1.059,7.641,7.641,0,0,1,1.61,1.544,11.239,11.239,0,0,1,1.169,1.852,11.975,11.975,0,0,1,1.279-1.808,8.9,8.9,0,0,1,1.743-1.566,8.384,8.384,0,0,1,2.249-1.081,9.433,9.433,0,0,1,2.846-.4,9.11,9.11,0,0,1,3.595.684,7.863,7.863,0,0,1,2.734,1.9,8.168,8.168,0,0,1,1.721,2.955,11.878,11.878,0,0,1,.6,3.86v13.63h-2.161Zm25.5,0v-3.75a11.166,11.166,0,0,1-1.39,1.566,9.465,9.465,0,0,1-1.874,1.368,10.778,10.778,0,0,1-2.4.97,10.9,10.9,0,0,1-2.934.375,11.353,11.353,0,0,1-3.132-.441,8.985,8.985,0,0,1-2.779-1.323,7.045,7.045,0,0,1-2.007-2.206,6.02,6.02,0,0,1-.772-3.087v-0.089a6.569,6.569,0,0,1,.728-3.132,6.666,6.666,0,0,1,2.007-2.293,9.339,9.339,0,0,1,3.088-1.412,15.5,15.5,0,0,1,4.014-.485,27.327,27.327,0,0,1,4.1.265,30.923,30.923,0,0,1,3.353.705v-0.965a6.448,6.448,0,0,0-1.963-5.132,8.023,8.023,0,0,0-5.448-1.71,13.382,13.382,0,0,0-3.793.507,18.694,18.694,0,0,0-3.265,1.3l-0.794-1.9a22.9,22.9,0,0,1,3.75-1.441,15.409,15.409,0,0,1,4.235-.541,10.076,10.076,0,0,1,6.881,2.2q2.514,2.207,2.514,6.617v14.027h-2.117Zm0.044-10.988q-1.413-.351-3.308-0.681a25.526,25.526,0,0,0-4.323-.329,9.076,9.076,0,0,0-5.492,1.428,4.5,4.5,0,0,0-1.919,3.8v0.087a4.379,4.379,0,0,0,.529,2.175,4.974,4.974,0,0,0,1.434,1.6,6.785,6.785,0,0,0,2.1,1.011,8.692,8.692,0,0,0,2.471.351,10.43,10.43,0,0,0,3.264-.5,8.979,8.979,0,0,0,2.713-1.406,6.763,6.763,0,0,0,1.852-2.174,5.845,5.845,0,0,0,.684-2.811v-2.548Zm29.883,12.047a9.121,9.121,0,0,1-2.3,3.33,10.067,10.067,0,0,1-3.515,2.051,13.41,13.41,0,0,1-4.42.706,16.808,16.808,0,0,1-10.342-3.485l1.279-1.764a14.555,14.555,0,0,0,9.109,3.176,11.027,11.027,0,0,0,3.56-.548,7.4,7.4,0,0,0,4.621-4.36,9.945,9.945,0,0,0,.664-3.782V583.88a15.5,15.5,0,0,1-1.677,1.985,12.028,12.028,0,0,1-2.073,1.654,10.156,10.156,0,0,1-2.558,1.147A11.136,11.136,0,0,1,803.2,586.2a10.7,10.7,0,0,1-2.448-3.33,10.019,10.019,0,0,1-.926-4.367V578.41a10.312,10.312,0,0,1,.926-4.411,10.567,10.567,0,0,1,2.448-3.375,11.124,11.124,0,0,1,7.433-2.889,11.038,11.038,0,0,1,5.69,1.522,10.54,10.54,0,0,1,2.073,1.61,16.041,16.041,0,0,1,1.633,1.9v-4.5h2.161v19.012A11.853,11.853,0,0,1,821.376,591.82Zm-1.211-13.454a7.76,7.76,0,0,0-.8-3.529,8.669,8.669,0,0,0-2.1-2.713,9.261,9.261,0,0,0-2.984-1.72,10.261,10.261,0,0,0-3.449-.6,9.514,9.514,0,0,0-3.361.6,8.4,8.4,0,0,0-2.786,1.7,7.888,7.888,0,0,0-1.879,2.669,8.77,8.77,0,0,0-.685,3.551v0.088a8.461,8.461,0,0,0,.707,3.485,8.326,8.326,0,0,0,1.9,2.712,8.968,8.968,0,0,0,6.1,2.4,9.924,9.924,0,0,0,3.449-.617,9.619,9.619,0,0,0,2.984-1.742,8.754,8.754,0,0,0,2.1-2.691,7.624,7.624,0,0,0,.8-3.507v-0.088Zm11.868,5.76a9.679,9.679,0,0,0,1.99,2.765,8.189,8.189,0,0,0,2.721,1.734,8.774,8.774,0,0,0,3.206.592,9.161,9.161,0,0,0,4.489-1.015,13.246,13.246,0,0,0,3.251-2.514l1.5,1.323a15.664,15.664,0,0,1-3.91,3.066,11.041,11.041,0,0,1-5.416,1.213,10.881,10.881,0,0,1-4.222-.838,10.689,10.689,0,0,1-3.538-2.382,11.264,11.264,0,0,1-2.409-3.705,12.58,12.58,0,0,1-.884-4.808v-0.088a12.687,12.687,0,0,1,.816-4.566,11.715,11.715,0,0,1,2.249-3.727,10.711,10.711,0,0,1,3.375-2.515,9.706,9.706,0,0,1,4.234-.926,9.835,9.835,0,0,1,4.279.9,9.637,9.637,0,0,1,3.242,2.493,11.345,11.345,0,0,1,2.073,3.727,14.344,14.344,0,0,1,.728,4.654V580a2.717,2.717,0,0,1-.044.4H831.1A9.819,9.819,0,0,0,832.033,584.126Zm15.48-5.672a12.78,12.78,0,0,0-.685-3.286,9.155,9.155,0,0,0-1.548-2.779,7.406,7.406,0,0,0-2.455-1.941,8.057,8.057,0,0,0-6.546-.066,7.866,7.866,0,0,0-2.543,1.83,9.918,9.918,0,0,0-1.791,2.779,10.4,10.4,0,0,0-.841,3.463h16.409Z"/>
  <path class="cls-2" d="M482.129,153.7a123.452,123.452,0,0,1,72.615,11.446Q472.7,247.444,390.585,329.667a125.68,125.68,0,0,1-12.58-60.195c1.138-31.959,15.8-63.038,39.288-84.6A121.658,121.658,0,0,1,482.129,153.7Zm-85.5,186.831q84.48-84.7,168.99-169.351A128.735,128.735,0,0,1,603.8,209.456Q519.34,294.15,434.835,378.807A130.452,130.452,0,0,1,396.626,340.534ZM606.4,223.3c1.178-1.091,2.4-2.131,3.515-3.292,12.46,25.976,16.084,56.2,9.215,84.26A119.616,119.616,0,0,1,588.749,359.7c-24.491,25.8-60.553,40.3-96.077,37.573-16.413-.711-32.388-5.534-47.114-12.688Q525.9,303.862,606.4,223.3Z"/>
  <path id="Shape_1_copy" data-name="Shape 1 copy" class="cls-3" d="M396.626,340.534q84.48-84.7,168.99-169.351A128.735,128.735,0,0,1,603.8,209.456Q519.34,294.15,434.835,378.807A130.452,130.452,0,0,1,396.626,340.534Z"/>
</svg>
