<?xml version="1.0" encoding="UTF-8" ?>
<!DOCTYPE svg PUBLIC "-//W3C//DTD SVG 1.1//EN" "http://www.w3.org/Graphics/SVG/1.1/DTD/svg11.dtd">
<svg width="470pt" height="470pt" viewBox="0 0 470 470" version="1.1" xmlns="http://www.w3.org/2000/svg">
<g id="#ffffffff">
</g>
<g id="#000000ff">
<path fill="#000000" opacity="1.00" d=" M 367.26 39.27 C 369.19 37.81 372.19 34.94 374.47 37.32 C 374.98 39.99 374.67 42.85 373.02 45.08 C 363.90 59.13 347.94 66.57 337.85 79.77 C 330.29 92.23 326.38 106.42 320.65 119.73 C 319.37 122.99 316.34 125.51 312.79 125.78 C 312.15 123.22 311.24 119.44 307.95 119.44 C 296.30 119.16 284.64 119.36 272.99 119.26 C 260.36 118.23 247.65 118.83 234.98 118.52 C 223.08 117.67 210.69 124.66 206.10 135.84 C 204.15 140.32 204.86 145.28 204.76 150.01 C 204.70 211.91 204.95 273.82 204.41 335.73 C 215.75 344.42 229.89 349.01 243.97 350.62 C 263.19 353.01 282.89 350.54 301.07 343.92 C 310.47 340.30 319.67 335.88 327.56 329.54 C 335.22 324.24 338.97 314.90 340.31 305.99 C 340.36 279.99 340.31 253.98 340.34 227.98 C 340.48 225.86 339.35 223.73 337.64 222.53 C 335.92 222.49 334.20 222.74 332.49 222.82 C 333.29 221.28 334.19 219.74 335.55 218.62 C 341.50 213.36 347.79 208.49 354.22 203.83 C 352.16 203.61 350.09 203.51 348.03 203.53 C 325.72 203.62 303.41 203.48 281.10 203.60 C 273.38 204.84 267.77 211.40 263.93 217.77 C 260.35 225.26 259.42 233.80 259.62 242.02 C 260.49 254.04 263.78 266.15 270.68 276.17 C 274.87 282.83 283.28 286.22 290.95 285.47 C 297.10 283.19 300.82 277.56 304.62 272.58 C 305.41 271.13 307.16 271.40 308.55 271.21 C 309.89 274.10 310.29 277.69 308.45 280.48 C 304.64 286.62 297.00 289.70 289.96 289.33 C 276.24 288.23 263.11 283.85 250.01 279.91 C 242.51 277.76 234.95 282.90 227.56 280.38 C 226.54 273.67 229.97 267.52 232.40 261.52 C 239.74 244.27 251.55 229.54 262.56 214.56 C 270.82 205.09 273.43 192.45 278.36 181.20 C 281.95 170.20 292.99 163.21 304.00 161.52 C 319.99 161.25 335.98 161.64 351.98 161.68 C 361.83 162.50 371.93 163.33 381.69 161.20 C 385.44 160.26 389.37 159.01 392.04 156.05 C 397.19 151.15 403.47 146.21 410.91 146.16 C 414.52 145.84 416.15 150.00 415.56 153.01 C 416.05 154.84 414.26 156.69 412.52 155.59 C 406.43 152.47 399.40 155.57 394.55 159.58 C 388.32 164.40 386.64 172.66 385.72 180.04 C 385.61 205.36 385.71 230.68 385.67 255.99 C 386.02 271.47 379.68 286.35 370.89 298.82 C 364.44 307.59 356.85 315.61 347.91 321.89 C 336.12 330.24 323.92 338.31 310.36 343.53 C 277.18 359.10 237.45 357.52 204.52 342.07 C 204.40 346.21 204.38 350.35 204.50 354.50 C 210.68 359.27 216.17 364.85 221.76 370.28 C 227.59 376.35 234.01 382.34 237.11 390.35 C 237.82 391.91 237.58 393.66 237.58 395.33 C 236.18 395.36 234.77 395.41 233.37 395.46 C 223.77 406.76 212.96 417.15 204.69 429.52 C 203.00 436.00 204.43 442.85 203.60 449.47 C 203.09 449.52 202.06 449.62 201.55 449.67 C 200.96 440.69 202.34 431.57 200.05 422.77 C 194.71 414.71 188.42 407.24 180.99 401.02 C 176.61 397.56 172.10 393.05 166.08 393.31 C 165.89 388.95 169.72 386.26 172.55 383.57 C 182.62 375.79 192.67 367.81 201.23 358.37 C 202.18 352.54 201.39 346.43 201.62 340.50 C 178.38 330.70 158.03 315.34 139.44 298.52 C 136.35 295.67 133.65 292.12 129.58 290.62 C 126.50 289.16 122.66 289.56 120.13 286.99 C 122.91 284.01 129.24 283.92 129.37 278.92 C 129.15 238.26 129.36 197.59 129.37 156.93 C 129.58 154.52 128.41 152.40 127.21 150.43 C 116.80 150.86 104.93 158.54 104.82 169.95 C 104.74 198.97 104.85 227.99 104.77 257.01 C 104.85 261.83 103.91 266.87 105.57 271.52 C 106.64 274.38 109.88 274.85 112.54 274.80 C 113.63 278.96 108.53 281.46 105.01 280.54 C 101.93 278.47 101.33 273.99 97.77 272.44 C 86.73 267.89 77.06 260.72 66.47 255.29 C 64.46 254.14 62.07 254.44 59.85 254.23 C 59.50 253.69 58.81 252.61 58.46 252.08 C 60.01 250.63 62.61 249.41 62.43 246.94 C 62.52 233.61 62.44 220.28 62.46 206.96 C 62.31 200.81 67.18 196.22 71.06 192.05 C 84.56 178.87 98.32 165.96 111.52 152.49 C 114.41 149.63 117.90 147.49 121.53 145.70 C 126.95 142.56 131.79 138.53 136.63 134.59 C 148.87 124.56 160.78 114.13 172.46 103.46 C 173.46 102.27 175.07 102.42 176.45 102.17 C 176.55 156.11 176.20 210.06 176.54 264.00 C 176.62 269.01 176.32 274.07 177.18 279.04 C 177.50 284.67 177.17 290.33 177.58 295.96 C 180.11 309.80 188.17 322.24 198.70 331.39 C 199.58 332.40 200.92 332.58 202.16 332.83 C 202.34 278.89 202.36 224.95 202.33 171.00 C 202.30 164.96 202.78 158.70 200.59 152.94 C 198.71 148.63 199.04 143.76 199.61 139.20 C 202.52 128.70 200.68 117.71 202.25 107.04 C 203.13 98.52 200.98 89.31 205.31 81.45 C 209.91 72.88 219.53 68.18 228.96 67.53 C 263.94 67.38 298.93 67.62 333.91 67.41 C 341.37 66.36 350.08 65.39 355.21 59.21 C 358.80 52.33 360.93 44.31 367.26 39.27 Z" />
</g>
</svg>
