<svg width="470pt" height="470pt" viewBox="0 0 470 470" xmlns="http://www.w3.org/2000/svg"><path d="M367.3 39.3c1.9-1.5 4.9-4.4 7.2-2 .5 2.7.2 5.6-1.5 7.8-9.1 14-25 21.5-35.1 34.7-7.6 12.4-11.5 26.6-17.3 40a9.4 9.4 0 0 1-7.8 6c-.7-2.6-1.6-6.4-4.9-6.4-11.6-.2-23.3 0-35-.1-12.5-1-25.2-.5-38-.8a29.5 29.5 0 0 0-28.8 17.3c-2 4.5-1.2 9.5-1.3 14.2-.1 62 .1 123.8-.4 185.7a79.9 79.9 0 0 0 39.6 15c19.2 2.3 38.9-.2 57-6.8a98 98 0 0 0 26.6-14.4c7.6-5.3 11.4-14.6 12.7-23.5v-78c.2-2.1-1-4.3-2.7-5.5l-5.1.3a13 13 0 0 1 3-4.2c6-5.2 12.3-10.1 18.7-14.8-2-.2-4.1-.3-6.2-.3l-66.9.1c-7.7 1.2-13.3 7.8-17.2 14.2-3.5 7.5-4.5 16-4.3 24.2.9 12 4.2 24.1 11 34.2 4.3 6.6 12.7 10 20.3 9.3 6.2-2.3 10-8 13.7-13 .8-1.4 2.6-1.1 4-1.3 1.3 2.9 1.7 6.5-.2 9.3a20.6 20.6 0 0 1-18.4 8.8c-13.8-1-26.9-5.4-40-9.4-7.5-2.1-15 3-22.4.5-1-6.7 2.4-12.9 4.8-18.9 7.3-17.2 19.2-32 30.2-47 8.2-9.4 10.8-22 15.8-33.3 3.6-11 14.6-18 25.6-19.7 16-.3 32 .1 48 .2 9.8.8 20 1.6 29.7-.5 3.7-1 7.7-2.2 10.3-5.1 5.2-5 11.5-9.9 19-10 3.5-.3 5.1 3.9 4.6 7 .4 1.7-1.3 3.6-3 2.5-6.2-3.1-13.2 0-18 4-6.3 4.8-8 13-8.9 20.4v76a73 73 0 0 1-14.8 42.8 101 101 0 0 1-23 23c-11.8 8.4-24 16.5-37.5 21.7-33.2 15.6-73 14-105.9-1.4v12.4c6.2 4.8 11.7 10.4 17.3 15.8 5.8 6 12.2 12 15.3 20 .7 1.6.5 3.4.5 5l-4.2.2c-9.6 11.3-20.4 21.6-28.7 34-1.7 6.5-.3 13.4-1.1 20l-2 .2c-.6-9 .7-18.1-1.5-27-5.4-8-11.7-15.5-19.1-21.7-4.4-3.4-8.9-8-15-7.7-.1-4.4 3.7-7 6.6-9.7a217 217 0 0 0 28.6-25.2c1-5.9.2-12 .4-17.9a224.4 224.4 0 0 1-62.2-42c-3-2.8-5.8-6.4-9.8-7.9-3.1-1.4-7-1-9.5-3.6 2.8-3 9.1-3 9.3-8-.3-40.7 0-81.4 0-122 .2-2.5-1-4.6-2.2-6.6-10.4.5-22.3 8.1-22.4 19.5V257c0 4.8-.9 9.9.8 14.5 1 2.9 4.3 3.4 7 3.3 1 4.2-4 6.7-7.6 5.7-3-2-3.7-6.5-7.2-8-11-4.6-20.7-11.8-31.3-17.2-2-1.2-4.4-.9-6.6-1l-1.4-2.2c1.5-1.5 4.1-2.7 4-5.2v-40c-.2-6 4.7-10.7 8.6-14.8 13.5-13.2 27.2-26.1 40.4-39.6 3-2.9 6.4-5 10-6.8 5.5-3.1 10.3-7.2 15.1-11.1 12.3-10 24.2-20.5 35.9-31.1 1-1.2 2.6-1 4-1.3 0 54-.3 107.9 0 161.8.1 5-.2 10 .7 15 .3 5.7 0 11.3.4 17a62.9 62.9 0 0 0 21.1 35.4c.9 1 2.2 1.2 3.5 1.4.1-54 .2-107.9.1-161.8 0-6 .5-12.3-1.7-18a26.2 26.2 0 0 1-1-13.8c3-10.5 1-21.5 2.7-32.2.8-8.5-1.3-17.7 3-25.5a28.8 28.8 0 0 1 23.7-14h105c7.4-1.1 16-2.1 21.2-8.3 3.6-6.9 5.7-14.9 12-20Z"/></svg>