<svg xmlns="http://www.w3.org/2000/svg" width="1000" height="750"><path data-name="LOADING IMAGE" d="M170.2 365a12.7 12.7 0 0 0-2.3.2l-2.3.4q-9.4.9-28 .9-.9 0-.9-11.2l.1-7.9v-7.9q0-5.4.4-16t.4-16a1 1 0 0 0-1.2-1l-2.8.1-2.8.2-2.8-.2q-1.8-.2-2.8-.1a1 1 0 0 0-1.2 1.1q0 5.8.5 17.4t.5 17.5q0 5.5-.4 16.5t-.3 16.5a1.1 1.1 0 0 0 1.2 1.3l10.5-.2q7-.2 10.5-.1 3.7 0 11.1.4t11.2.4a1.7 1.7 0 0 0 1.7-1.4 45.7 45.7 0 0 0 .8-10 .9.9 0 0 0-1.1-1Zm63.5-49a32.6 32.6 0 0 0-49.2 0 39.1 39.1 0 0 0 0 51.2 33 33 0 0 0 49.3 0 39.2 39.2 0 0 0 0-51.3Zm-8.5 42.7a20 20 0 0 1-16.2 7.8q-9.6 0-16-7.8a27.4 27.4 0 0 1 0-34.3q6.4-7.8 16-7.8a20 20 0 0 1 16.1 7.7 25.7 25.7 0 0 1 6.1 17.1 26.2 26.2 0 0 1-6 17.3Zm73.3-21.5L286.6 307q-.8-1.9-1.2-1.9a20.3 20.3 0 0 0-2.7.3 20.2 20.2 0 0 1-2.8.3 22.7 22.7 0 0 1-2.8-.3 23 23 0 0 0-2.8-.2q-.7 0-1.3 1.9-2.4 6.5-3.8 9.7-7.9 19.3-9.4 23.4l-12.3 33.6a8.6 8.6 0 0 0-.7 2.3c0 .4.3.7 1 .7h11.3q1 0 3.1-7.6t3.9-7.7l9.4-.1H293q2.2.2 4.4 7.8t3.6 7.6l2.9-.2q1.9-.2 2.8-.1l2.8.1 2.8.2q1.2 0 1.2-.6 0-.4-15.1-39Zm-15.4 13.3h-10.2q-3.7-.4-3.7-2 0-1.3 10.3-27.8 1.8 3.5 6.2 14.7 4.5 11.6 4.5 13 0 2-7.1 2Zm94.7-24.8a30.6 30.6 0 0 0-9.4-12.7q-8.6-6.6-26-6.6h-21.6a1 1 0 0 0-1.3 1q0 5.9.4 17.5t.4 17.5q0 5.6-.4 16.6t-.4 16.5a1.1 1.1 0 0 0 1.2 1.2l7.1-.1 7.1-.3 7.9.3q5.3.2 7.8.1 13.7 0 22.4-11.1 8-10.3 8-24.4a39.3 39.3 0 0 0-3.1-15.6Zm-15.4 34.2a17.5 17.5 0 0 1-7.5 5.6 28.3 28.3 0 0 1-9.2 1.2h-7.3q-6-.3-6-2.2l-.2-11.4-.2-11.5.2-11.5.2-11.6q0-1.8 5.8-2.1h7.2q10.7 0 17.1 7.1 6.2 6.9 6.2 17.7 0 11-6.3 18.7Zm40.1-1.5q-.4-11.5-.4-17.3 0-5.6.4-16.8t.4-16.9q0-1-1.3-1l-2.7.2q-1.7.2-2.7.1l-3-.1-3-.2a1 1 0 0 0-1 1.3q0 5.5.5 16.7t.5 16.7q0 5.8-.5 17.3t-.6 17.2a1 1 0 0 0 1.3 1.2l2.7-.2q1.8-.2 2.8-.1l2.8.1 2.8.2q1.4 0 1.4-1 0-5.9-.4-17.4Zm73-52-2.9.1-2.8.2-2.8-.2q-1.8-.2-2.7-.1-1 0-1 1.7 0 6.4.5 19.5t.5 19.5a78.1 78.1 0 0 1-.4 9.7l-2-2.3q-23.7-31.3-35.3-47.2-1-1.4-1.5-1.4a15.5 15.5 0 0 0-2.6.3l-2.7.4-5 .2q-1.3 0-1.3.8v.6l.6 12.4q.4 15.8.4 21.9 0 5.5-.5 16.6t-.5 16.7a1 1 0 0 0 1.2 1l2.7-.2q1.7-.2 2.7-.1l2.6.1 2.6.2q1 0 1-1.7l-.3-23.2q-.3-15.5-.2-23.2 0-2 .5-2 .5.4 4 4.9 22 28.9 32.8 43.5 1.3 1.7 2.2 1.7l2.4-.2 2.5-.2 2.2.2 2.3.2q1.2 0 1.2-1.7v-16.4q0-10.9-.2-16.4 0-5.8.4-17.4t.4-17.4a1 1 0 0 0-1-1.1Zm73 67.2q-1-12.3-1-19.6l.2-5.3q.2-3.6.1-5.2 0-1.6-1-1.6h-3q-2 0-2.8.2l-3-.2q-2-.2-2.8-.1a.9.9 0 0 0-1 .9q0 3.6.5 9.4l.9 9.6a30.2 30.2 0 0 1-16.9 5q-9.3 0-15.5-8a28.6 28.6 0 0 1-.1-34q6-8 15.5-8a16.9 16.9 0 0 1 9.6 3.1 32 32 0 0 1 6 5.7q2.7 3 3.1 3 .6 0 4.2-3.9t3.6-4.6a3 3 0 0 0-.7-1.5 29.8 29.8 0 0 0-11.4-10 32.4 32.4 0 0 0-14.9-3.6q-15 0-24.4 11-8.9 10.5-8.9 25.9 0 15 9 25.4a30.7 30.7 0 0 0 24.3 11q12.7 0 21.9-6.3a29.3 29.3 0 0 0 3.7 2 12.5 12.5 0 0 0 3.6 1.5q1.4 0 1.3-1Zm47-15.2q-.4-11.5-.4-17.3 0-5.6.4-16.9t.4-16.8q0-1-1.3-1l-2.7.1-2.7.2-3-.2q-2-.2-2.9-.1a1 1 0 0 0-1.1 1.2q0 5.6.5 16.8t.5 16.7q0 5.8-.5 17.3t-.5 17.2a1 1 0 0 0 1.2 1.2l2.8-.2q1.8-.2 2.8-.1l2.8.1 2.7.2q1.5 0 1.5-1 0-5.9-.5-17.4Zm81.1.6q-.4-11-.4-16.6l.3-17.3.4-17.3a1 1 0 0 0-1.2-1.2l-5.2-.2-5.1-.2q-1 0-1.7 2-12 32-18.9 48.2-1.6 4-2.1 4-.4 0-2.5-5-8.7-20.9-20.9-47.6-.9-2-1.4-2a85.6 85.6 0 0 0-10.2.9 1 1 0 0 0-1.2 1q0 5.9.5 17.4t.6 17.3q0 5.6-.6 16.7t-.5 16.7q0 1 1.3 1l2.6-.2q1.7-.2 2.7-.1l2.6.1 2.6.2q1.3 0 1.3-1.7l-.2-19.4-.2-19.4a1.3 1.3 0 0 1 .3-1.1 1.8 1.8 0 0 1 .7.7q8.6 19.6 12.8 29.6l4.9 11.4q.5.8 5.2.8 3.2 0 3.6-.6 2.9-6.9 4.4-11.4 9.6-23.8 12.1-29.2a.8.8 0 0 1 .7-.6q.4 0 .4 1 0 6.4-.4 19t-.4 19.2q0 1.7 1.3 1.7l2.7-.2q1.8-.2 2.8-.1l2.7.1 2.8.2a1.1 1.1 0 0 0 1.2-1.3q0-5.5-.4-16.5Zm58-21.8L722.7 307q-.8-1.9-1.2-1.9a20.3 20.3 0 0 0-2.7.3 20.2 20.2 0 0 1-2.8.3 22.7 22.7 0 0 1-2.8-.3 23 23 0 0 0-2.8-.2q-.7 0-1.3 1.9-2.4 6.5-3.8 9.7-7.9 19.3-9.4 23.4l-12.3 33.6a8.6 8.6 0 0 0-.7 2.3c0 .4.3.7 1 .7h11.3q1 0 3.1-7.6t3.9-7.7l9.4-.1h17.6q2.2.2 4.4 7.8t3.6 7.6l2.9-.2q1.9-.2 2.8-.1l2.8.1 2.8.2q1.2 0 1.2-.6 0-.4-15.1-39Zm-15.4 13.3H709q-3.7-.4-3.7-2 0-1.3 10.3-27.8 1.9 3.5 6.2 14.7 4.5 11.6 4.5 13 0 2-7.1 2Zm97.5 23.1q-1-12.3-1-19.6l.2-5.3q.2-3.6.1-5.2 0-1.6-1-1.6h-3q-2 0-2.9.2l-2.8-.2q-1.8-.2-2.9-.1a.9.9 0 0 0-1 .9q0 3.6.5 9.4l.9 9.6a30.2 30.2 0 0 1-16.9 5q-9.3 0-15.5-8a28.6 28.6 0 0 1-.1-34q6-8 15.5-8a16.9 16.9 0 0 1 9.5 3.1 32 32 0 0 1 6.2 5.7q2.6 3 3 3 .6 0 4.2-3.9t3.5-4.6a3 3 0 0 0-.6-1.5 29.8 29.8 0 0 0-11.4-10 32.4 32.4 0 0 0-14.9-3.6q-15 0-24.4 11-8.9 10.5-8.9 25.9 0 15 9 25.4a30.7 30.7 0 0 0 24.3 11q12.7 0 21.9-6.3a29.3 29.3 0 0 0 3.7 2 12.5 12.5 0 0 0 3.6 1.5q1.4 0 1.3-1Zm54.5-8.2h-.8q-16.2 1.3-19.7 1.3h-5.5q-5 0-6.3-1-1.6-1.3-1.6-6.5v-11.3a2.3 2.3 0 0 1 2.3-2.1q2.2-.2 10.5-.2 9.8 0 12.6.3l4.5.3q1.5 0 1.5-.9a48.2 48.2 0 0 1 .3-5 48.3 48.3 0 0 0 .4-4.9.8.8 0 0 0-1-.9q-4.2.4-7.3.5-7.8.4-17.6.4H840q-2.2 0-2.6-1.5a21.4 21.4 0 0 1-.2-3.6v-7.5q0-4.3 1.1-5.4t5.2-1.1q4.4 0 13 .5t13 .4a1 1 0 0 0 1-1.1 76.5 76.5 0 0 0-1-8.3q-.2-1.4-2.6-1.4l-10 .2-10.1.2-10.5-.2-10.6-.2a1 1 0 0 0-1.3 1.1v.7l.6 12q.6 15.6.6 21.4 0 5.6-.6 16.8t-.6 17a1.4 1.4 0 0 0 1.6 1.4l11-.2 11.1-.2a145.3 145.3 0 0 1 19.1.9 16.6 16.6 0 0 0 2 .2 1.2 1.2 0 0 0 1.2-1q.6-3.4.7-5.2l.6-2.3a9.8 9.8 0 0 0 .4-2.3q0-1.4-1-1.3Z" style="stroke:#000;stroke-width:1px;fill:#fff;fill-rule:evenodd"/><path data-name="Please wait" d="M362.3 421.3a12.6 12.6 0 0 1-3.6 4.3 16.2 16.2 0 0 1-5.4 2.6 23.5 23.5 0 0 1-6.4.8h-11.7v16.1H332V402h15.7a22.2 22.2 0 0 1 6.5.9 15 15 0 0 1 5 2.6 11.7 11.7 0 0 1 3.3 4.1 12.7 12.7 0 0 1 1.2 5.6v.1a12.7 12.7 0 0 1-1.4 6Zm-1.8-6a10.3 10.3 0 0 0-1-4.5 9 9 0 0 0-2.6-3.2 12.4 12.4 0 0 0-4.2-2 19.4 19.4 0 0 0-5.3-.7h-12.2v21.3h11.9a19 19 0 0 0 5.5-.8 12.5 12.5 0 0 0 4.2-2.1 9.9 9.9 0 0 0 2.7-3.4 9.7 9.7 0 0 0 1-4.4v-.1Zm12.4 29.8v-45h3v45h-3ZM390 436a13.5 13.5 0 0 0 2.8 3.8 11.4 11.4 0 0 0 3.8 2.4 12.3 12.3 0 0 0 4.4.9 12.8 12.8 0 0 0 6.3-1.4 18.5 18.5 0 0 0 4.5-3.6l2.1 1.9a22 22 0 0 1-5.4 4.3 15.4 15.4 0 0 1-7.6 1.7 15.2 15.2 0 0 1-5.9-1.2 15 15 0 0 1-5-3.3 15.7 15.7 0 0 1-3.3-5.2 17.6 17.6 0 0 1-1.2-6.7v-.1a17.7 17.7 0 0 1 1.1-6.4 16.4 16.4 0 0 1 3.2-5.2 15 15 0 0 1 4.7-3.5 13.5 13.5 0 0 1 5.9-1.3 13.7 13.7 0 0 1 6 1.2 13.5 13.5 0 0 1 4.5 3.5 15.9 15.9 0 0 1 2.9 5.2 20 20 0 0 1 1 6.5v.7a3.8 3.8 0 0 1 0 .6h-26.1a13.7 13.7 0 0 0 1.3 5.2Zm21.6-8a18 18 0 0 0-1-4.5 12.8 12.8 0 0 0-2.1-4 10.3 10.3 0 0 0-3.4-2.6 11.3 11.3 0 0 0-9.2-.1 11 11 0 0 0-3.5 2.5 13.9 13.9 0 0 0-2.5 3.9 14.5 14.5 0 0 0-1.2 4.8h22.9Zm33.5 17.2V440a15.6 15.6 0 0 1-2 2.2 13.2 13.2 0 0 1-2.5 1.9 15 15 0 0 1-3.4 1.3 15.3 15.3 0 0 1-4.1.6 15.9 15.9 0 0 1-4.4-.6 12.5 12.5 0 0 1-3.9-1.9 9.8 9.8 0 0 1-2.8-3 8.4 8.4 0 0 1-1-4.4v-.1a9.2 9.2 0 0 1 1-4.4 9.3 9.3 0 0 1 2.8-3.2 13 13 0 0 1 4.3-2 21.7 21.7 0 0 1 5.6-.6 38.4 38.4 0 0 1 5.7.3 43.3 43.3 0 0 1 4.7 1v-1.3q0-4.8-2.7-7.2t-7.6-2.4a18.7 18.7 0 0 0-5.3.7 26.2 26.2 0 0 0-4.6 1.8l-1.1-2.6a32 32 0 0 1 5.2-2 21.5 21.5 0 0 1 6-.8q6 0 9.6 3.1t3.5 9.2v19.6h-3Zm0-15.3-4.5-1a35.6 35.6 0 0 0-6-.4q-5 0-7.8 2a6.3 6.3 0 0 0-2.6 5.3v.1a6.1 6.1 0 0 0 .7 3 7 7 0 0 0 2 2.3 9.4 9.4 0 0 0 3 1.4 12.1 12.1 0 0 0 3.4.5 14.6 14.6 0 0 0 4.5-.7 12.5 12.5 0 0 0 3.8-2 9.4 9.4 0 0 0 2.6-3 8.2 8.2 0 0 0 1-4v-3.5Zm34 10.6a8.5 8.5 0 0 1-2.4 2.9 10.7 10.7 0 0 1-3.4 1.8 13.6 13.6 0 0 1-4.3.6 19.6 19.6 0 0 1-6.9-1.2 21.2 21.2 0 0 1-6-3.4l1.8-2.4a21.6 21.6 0 0 0 5.5 3 16.3 16.3 0 0 0 5.8 1.2 8.9 8.9 0 0 0 5.4-1.6 5.1 5.1 0 0 0 2.2-4.4v-.1a4 4 0 0 0-.7-2.4 6.3 6.3 0 0 0-1.8-1.7 12.1 12.1 0 0 0-2.7-1.2l-3.1-1-3.9-1.2a15.5 15.5 0 0 1-3.5-1.5 8.1 8.1 0 0 1-2.5-2.4 6.1 6.1 0 0 1-1-3.5v-.1a7.8 7.8 0 0 1 .8-3.5 8.6 8.6 0 0 1 2.2-2.7 9.7 9.7 0 0 1 3.2-1.9 13 13 0 0 1 4.2-.6 19.3 19.3 0 0 1 5.9 1 19.7 19.7 0 0 1 5.3 2.5l-1.6 2.5a20.8 20.8 0 0 0-4.7-2.2 15.3 15.3 0 0 0-5-1 8 8 0 0 0-5.2 1.7 4.8 4.8 0 0 0-2 3.9 3.6 3.6 0 0 0 .8 2.3 6.4 6.4 0 0 0 2 1.7 15.6 15.6 0 0 0 2.7 1.2l3.3 1q2 .5 3.8 1.2a14 14 0 0 1 3.3 1.6 8.3 8.3 0 0 1 2.4 2.5 6.4 6.4 0 0 1 .9 3.5 8.5 8.5 0 0 1-.9 3.9Zm12.7-4.5a13.5 13.5 0 0 0 2.7 3.8 11.4 11.4 0 0 0 3.8 2.5 12.3 12.3 0 0 0 4.5.8 12.8 12.8 0 0 0 6.3-1.4 18.5 18.5 0 0 0 4.5-3.6l2.1 1.9a22 22 0 0 1-5.4 4.3 15.4 15.4 0 0 1-7.6 1.7 15.2 15.2 0 0 1-5.9-1.2 15 15 0 0 1-5-3.3 15.7 15.7 0 0 1-3.3-5.2 17.6 17.6 0 0 1-1.2-6.7v-.1a17.7 17.7 0 0 1 1-6.4 16.4 16.4 0 0 1 3.2-5.2 15 15 0 0 1 4.8-3.5 13.5 13.5 0 0 1 5.9-1.3 13.7 13.7 0 0 1 6 1.2 13.5 13.5 0 0 1 4.5 3.5 15.9 15.9 0 0 1 2.9 5.2 20 20 0 0 1 1 6.5v.7a3.7 3.7 0 0 1 0 .6h-26.1a13.7 13.7 0 0 0 1.3 5.2Zm21.6-8a18 18 0 0 0-1-4.5 12.8 12.8 0 0 0-2.1-4 10.3 10.3 0 0 0-3.5-2.6 11.3 11.3 0 0 0-9.1-.1 11 11 0 0 0-3.6 2.5 13.8 13.8 0 0 0-2.5 4 14.5 14.5 0 0 0-1.1 4.7h22.9Zm63.1 17.5H574l-9.3-27-9.5 27h-2.5L541 413.7h3.4l9.5 27.6 9.5-27.7h2.4l9.5 27.7 9.5-27.6h3.2Zm40.6-.3V440a15.6 15.6 0 0 1-2 2.2 13.2 13.2 0 0 1-2.6 1.9 15 15 0 0 1-3.3 1.3 15.3 15.3 0 0 1-4.1.6 15.9 15.9 0 0 1-4.4-.6 12.5 12.5 0 0 1-3.9-1.9 9.8 9.8 0 0 1-2.8-3 8.4 8.4 0 0 1-1-4.4v-.1a9.2 9.2 0 0 1 1-4.4 9.3 9.3 0 0 1 2.7-3.2 13 13 0 0 1 4.4-2 21.6 21.6 0 0 1 5.6-.6 38.4 38.4 0 0 1 5.7.3 43.3 43.3 0 0 1 4.7 1v-1.3q0-4.8-2.8-7.2t-7.6-2.4a18.7 18.7 0 0 0-5.3.7 26.1 26.1 0 0 0-4.5 1.8l-1.1-2.6a32 32 0 0 1 5.2-2 21.5 21.5 0 0 1 5.9-.8q6.1 0 9.6 3.1t3.5 9.2v19.6h-3Zm0-15.3-4.6-1a35.6 35.6 0 0 0-6-.4q-5 0-7.7 2a6.3 6.3 0 0 0-2.7 5.3v.1a6.1 6.1 0 0 0 .8 3 7 7 0 0 0 2 2.3 9.4 9.4 0 0 0 2.9 1.4 12.1 12.1 0 0 0 3.4.5 14.6 14.6 0 0 0 4.6-.7 12.5 12.5 0 0 0 3.8-2 9.4 9.4 0 0 0 2.6-3 8.2 8.2 0 0 0 1-4v-3.5Zm13.8-24.3v-4.1h3.7v4.1H631Zm.3 39.6v-31.4h3v31.4h-3Zm28 .3a12 12 0 0 1-2.6.3 11.7 11.7 0 0 1-3.5-.5 7.2 7.2 0 0 1-4.7-4.3 10 10 0 0 1-.7-3.8v-20.6h-4.5v-2.8h4.5v-10h3v10H662v2.8h-11v20.2q0 3.4 1.7 4.7a7.2 7.2 0 0 0 4.6 1.4 10.2 10.2 0 0 0 2.2-.2 13.8 13.8 0 0 0 2.4-.9v2.9a13.1 13.1 0 0 1-2.5.8Z" style="fill:#fff;fill-rule:evenodd"/></svg>