<svg xmlns="http://www.w3.org/2000/svg" xml:space="preserve" viewBox="0 0 911.6 151.3"><path fill-rule="evenodd" stroke="#000" d="M0 151.2 84.3.7s31 53 46.7 79.3C146.5 53.7 177.3.5 177.3.5l57 102 .9 48.7h-11.3l-45.8-88.3-47.2 87.2-46.1-86.8-42.4 87.9H0zM188.5.2c13.8.1 27.7-.6 41.6.5 7.7 13.2 14.4 27.1 23.6 39.4C261.4 27 269.2 14 276.5.7c13.8-1.1 27.7-.4 41.6-.5C303.2 27 286.9 53 271.8 79.7c-1.1 2.7-.5 5.6-.7 8.5l.1 62.9c-12 .2-36 .1-36 .1V85.4s-.5-6.1-2-8.3C218.5 51.4 202.8 26.2 188.5.2zm184.1 35.4-11.4-.2c-5.2 0-11.6-.1-14.9 4.7-4.3 5.5-2 14.3 4.4 17.2 20.1 2.4 41.4-3.1 60.6 5.3a46.4 46.4 0 0 1 28 41.5 46.6 46.6 0 0 1-29.7 44c-11.3 5-138.4 3.2-138.4 3.2l-.1-35.2s108.4.3 120.9.2c6.5.2 12.3-5.8 11.5-12.1-.1-6.2-6.2-10.4-12.1-10.9-14.2-.7-28.4.3-42.6-.5a46.9 46.9 0 0 1-38.7-33.6 46.4 46.4 0 0 1 25.5-54.4c11.9-5.9 24.2-4.1 37-4.2l.1 34.8M372.5.5h292.3v35.1H486.2v115.5h-35.8V35.6l-77.8-.1-.1-35zm292.4 0C688-.4 711.1.3 734.2.1a59.6 59.6 0 0 1 43.1 15.8 57.3 57.3 0 0 1 18.5 47.4 60.7 60.7 0 0 1-26.7 44.1c8.9 14.4 17.2 29.1 25.8 43.7-13.6.1-27.1.4-40.7-.1-8-10.7-13.7-23.1-20.8-34.5-10.9-.5-21.8-.2-32.8-.2v34.8h-35.7V.5m35.6 35.2v45.2c12.4.7 24.8.7 37.2.1a23 23 0 0 0 20.7-14.2c5.8-12.6-3.4-29.1-17.6-30.7-13.4-.9-26.9-.2-40.3-.4zM823.5.8c7.9 13.3 15.5 26.7 23.6 39.9C855 27.5 862.5 14.1 870.4.9c13.7-.9 27.5-.9 41.2 0-15.1 26.3-30.6 52.5-46 78.8-.6 23.8-.2 47.6-.2 71.4-12.3.6-24.6.4-36.9.1-.1-23.8.4-47.7-.3-71.4-15.2-26.3-30.7-52.5-46-78.8 13.7-1.1 27.4-1.1 41.3-.2zm-313.7 57c32 .1 64-.1 96 .1-.3 12 1.1 24.1-1.2 36-19.7 0-39.4-.1-59.2.1v22.2c32.1.5 87.4-.6 119.5.6a1938 1938 0 0 0 0 34.1c-44 .7-111.2.3-155.3.3.2-31.2-.2-62.3.2-93.4z" clip-rule="evenodd"/></svg>