<svg xmlns="http://www.w3.org/2000/svg" xmlns:xlink="http://www.w3.org/1999/xlink" width="178" height="172">
  <defs>
    <path id="reuse-0" fill="none" stroke="#000" stroke-linecap="round" stroke-linejoin="round" stroke-width=".1" d="M140 163c-4.9-2.6-9.7-5.4-14.3-8.1-3.6-2.1-7.2-4.3-10.9-6.3l-2.5-1.4a37 37 0 0 1-4.9-3c8.8-5.2 18.3-10.6 28.2-16.1a1 1 0 0 0 .4-.8V111a1 1 0 0 0-1.3-.8c-3.6 1.8-7.1 3.8-10.5 5.8l-8.7 4.9-12-7c-5.4-3-11-6.2-16.4-9.5a13.4 13.4 0 0 1-.1-3v-53a.9.9 0 0 0-.5-.8c-2-1-3.8-2.1-5.6-3.2a98.4 98.4 0 0 0-8.8-4.8 1 1 0 0 0-1.3.8V123c-6.6-3.5-13.1-7.3-19.5-11L38 104.3v-56a.9.9 0 0 0-.6-.8l-9.1-5.3C22 38.7 15.8 35 9.5 31.6a3.2 3.2 0 0 1 1.4-1.3l5.7-3.2c7.8-4.4 16-9 23.8-13.7a2.7 2.7 0 0 1 1.6-.6c1.2 0 2.5.8 3.8 1.6a304 304 0 0 1 8 4.7c3.9 2.4 8 4.8 12.3 6.9a1 1 0 0 0 .8 0 136.4 136.4 0 0 0 13.9-7.6c3.1-2 6.4-3.9 9.8-5.6a1.8 1.8 0 0 1 .4 0 5.4 5.4 0 0 1 2.5 1h.2c8.6 5.1 17.4 10.1 26 15 .2 10.7.1 21.6.1 32.2v23.9a1 1 0 0 0 .5.8l8.1 4.6 6.2 3.6a1 1 0 0 0 .5.1 1 1 0 0 0 .9-.9V50l.1-39.7c6 3.3 12 6.8 17.8 10.2l14.7 8.4c.2 35 .1 70.6 0 105v12.9c-3.9 2.1-7.8 4.4-11.5 6.7-5.6 3.3-11.3 6.7-17.2 9.6Zm-3-151.2c5.6 3 11.1 6.2 16.5 9.4 4.6 2.7 9.4 5.5 14.2 8.1v116.9a411 411 0 0 0-11.1 6.4c-5.4 3.2-11 6.5-16.7 9.4l-13.8-8a551.4 551.4 0 0 0-13.3-7.6l-3.7-2.1c8.5-5 17.5-10.2 26.9-15.4a1.8 1.8 0 0 0 1-1.6V111a1.8 1.8 0 0 0-2.7-1.6c-3.6 1.8-7.2 3.8-10.6 5.8-2.7 1.6-5.4 3.2-8.2 4.6l-11.5-6.6c-5.3-3-10.8-6.2-16-9.4a15.3 15.3 0 0 1-.1-2.4v-53a1.8 1.8 0 0 0-1-1.6l-5.6-3.2a99.3 99.3 0 0 0-8.8-4.9 1.8 1.8 0 0 0-2.6 1.7v81.2c-6.2-3.3-12.2-6.9-18.1-10.3l-13-7.4V48.2a1.8 1.8 0 0 0-1-1.5l-9-5.3-17.8-10a2.3 2.3 0 0 1 .3-.2 1.8 1.8 0 0 0 .2-.1l5.6-3.2c7.8-4.5 15.9-9 23.8-13.7l.1-.1a1.7 1.7 0 0 1 1-.4 7.3 7.3 0 0 1 3.3 1.5 307 307 0 0 1 8 4.7c4 2.3 8.1 4.8 12.4 6.9a1.8 1.8 0 0 0 1.6 0 137 137 0 0 0 14-7.6c3-2 6.3-3.9 9.6-5.6a1 1 0 0 1 .1 0 5 5 0 0 1 2 .9h.2c8.5 5.1 17.2 10 25.6 14.8L119 61v24a1.8 1.8 0 0 0 1 1.5l8 4.6 6.3 3.6a1.8 1.8 0 0 0 2.7-1.6V50l.1-38.1m-1.8-3c-.2 28 .1 56.2-.1 84.3L120.7 85c0-18.9.2-37.8 0-56.6-9-5-17.8-10-26.6-15.3a6.5 6.5 0 0 0-3-1.2 2.7 2.7 0 0 0-.9.1c-8 4.2-15.5 9.5-23.7 13.2-6.4-3-12.4-7-18.6-10.4-1.8-1-3.8-2.8-5.9-2.8a3.5 3.5 0 0 0-2 .7c-9.8 5.8-19.6 11.3-29.4 16.9a4.1 4.1 0 0 0-2.3 2.4C18 37.2 27.4 43 37 48.2v56.6c11.7 6.5 22.9 13.5 34.7 19.7V40.3c5 2.3 9.5 5.4 14.4 8v51.2c0 1.8-.3 3.6.2 5.3 9.6 6 19.5 11.2 29.1 17 6.7-3.4 13-7.6 19.7-10.9v16.4c-9.7 5.4-19.5 11-29.2 16.8 2.5 2.2 5.6 3.6 8.5 5.3 8.6 4.8 16.9 10 25.5 14.6 10.2-5 19.7-11.3 29.6-16.8.1-39.6.2-79.3 0-119C158 22 146.8 15 135.2 8.8h0Z"/>
  </defs>
  <use xlink:href="#reuse-0" stroke-linecap="round" stroke-linejoin="round" stroke-width=".1"/>
  <use xlink:href="#reuse-0" stroke-linecap="round" stroke-linejoin="round" stroke-width="4.4" data-name="Shape 1 copy 2" opacity=".3"/>
  <path fill-rule="evenodd" d="M140 163c-4.9-2.6-9.7-5.4-14.3-8.1-3.6-2.1-7.2-4.3-10.9-6.3l-2.5-1.4a37 37 0 0 1-4.9-3c8.8-5.2 18.3-10.6 28.2-16.1a1 1 0 0 0 .4-.8V111a1 1 0 0 0-1.3-.8c-3.6 1.8-7.1 3.8-10.5 5.8l-8.7 4.9-12-7c-5.4-3-11-6.2-16.4-9.5a13.4 13.4 0 0 1-.1-3v-53a.9.9 0 0 0-.5-.8c-2-1-3.8-2.1-5.6-3.2a98.4 98.4 0 0 0-8.8-4.8 1 1 0 0 0-1.3.8V123c-6.6-3.5-13.1-7.3-19.5-11L38 104.3v-56a.9.9 0 0 0-.6-.8l-9.1-5.3C22 38.7 15.8 35 9.5 31.6a3.2 3.2 0 0 1 1.4-1.3l5.7-3.2c7.8-4.4 16-9 23.8-13.7a2.7 2.7 0 0 1 1.6-.6c1.2 0 2.5.8 3.8 1.6a304 304 0 0 1 8 4.7c3.9 2.4 8 4.8 12.3 6.9a1 1 0 0 0 .8 0 136.4 136.4 0 0 0 13.9-7.6c3.1-2 6.4-3.9 9.8-5.6a1.8 1.8 0 0 1 .4 0 5.4 5.4 0 0 1 2.5 1h.2c8.6 5.1 17.4 10.1 26 15 .2 10.7.1 21.6.1 32.2v23.9a1 1 0 0 0 .5.8l8.1 4.6 6.2 3.6a1 1 0 0 0 .5.1 1 1 0 0 0 .9-.9V50l.1-39.7c6 3.3 12 6.8 17.8 10.2l14.7 8.4c.2 35 .1 70.6 0 105v12.9c-3.9 2.1-7.8 4.4-11.5 6.7-5.6 3.3-11.3 6.7-17.2 9.6Zm-3-151.2c5.6 3 11.1 6.2 16.5 9.4 4.6 2.7 9.4 5.5 14.2 8.1v116.9a411 411 0 0 0-11.1 6.4c-5.4 3.2-11 6.5-16.7 9.4l-13.8-8a551.4 551.4 0 0 0-13.3-7.6l-3.7-2.1c8.5-5 17.5-10.2 26.9-15.4a1.8 1.8 0 0 0 1-1.6V111a1.8 1.8 0 0 0-2.7-1.6c-3.6 1.8-7.2 3.8-10.6 5.8-2.7 1.6-5.4 3.2-8.2 4.6l-11.5-6.6c-5.3-3-10.8-6.2-16-9.4a15.3 15.3 0 0 1-.1-2.4v-53a1.8 1.8 0 0 0-1-1.6l-5.6-3.2a99.3 99.3 0 0 0-8.8-4.9 1.8 1.8 0 0 0-2.6 1.7v81.2c-6.2-3.3-12.2-6.9-18.1-10.3l-13-7.4V48.2a1.8 1.8 0 0 0-1-1.5l-9-5.3-17.8-10a2.3 2.3 0 0 1 .3-.2 1.8 1.8 0 0 0 .2-.1l5.6-3.2c7.8-4.5 15.9-9 23.8-13.7l.1-.1a1.7 1.7 0 0 1 1-.4 7.3 7.3 0 0 1 3.3 1.5 307 307 0 0 1 8 4.7c4 2.3 8.1 4.8 12.4 6.9a1.8 1.8 0 0 0 1.6 0 137 137 0 0 0 14-7.6c3-2 6.3-3.9 9.6-5.6a1 1 0 0 1 .1 0 5 5 0 0 1 2 .9h.2c8.5 5.1 17.2 10 25.6 14.8L119 61v24a1.8 1.8 0 0 0 1 1.5l8 4.6 6.3 3.6a1.8 1.8 0 0 0 2.7-1.6V50l.1-38.1m-1.8-3c-.2 28 .1 56.2-.1 84.3L120.7 85c0-18.9.2-37.8 0-56.6-9-5-17.8-10-26.6-15.3a6.5 6.5 0 0 0-3-1.2 2.7 2.7 0 0 0-.9.1c-8 4.2-15.5 9.5-23.7 13.2-6.4-3-12.4-7-18.6-10.4-1.8-1-3.8-2.8-5.9-2.8a3.5 3.5 0 0 0-2 .7c-9.8 5.8-19.6 11.3-29.4 16.9a4.1 4.1 0 0 0-2.3 2.4C18 37.2 27.4 43 37 48.2v56.6c11.7 6.5 22.9 13.5 34.7 19.7V40.3c5 2.3 9.5 5.4 14.4 8v51.2c0 1.8-.3 3.6.2 5.3 9.6 6 19.5 11.2 29.1 17 6.7-3.4 13-7.6 19.7-10.9v16.4c-9.7 5.4-19.5 11-29.2 16.8 2.5 2.2 5.6 3.6 8.5 5.3 8.6 4.8 16.9 10 25.5 14.6 10.2-5 19.7-11.3 29.6-16.8.1-39.6.2-79.3 0-119C158 22 146.8 15 135.2 8.8Z" data-name="Shape 1 copy" opacity=".5"/>
</svg>
