<?xml version="1.0" encoding="UTF-8" ?>
<!DOCTYPE svg PUBLIC "-//W3C//DTD SVG 1.1//EN" "http://www.w3.org/Graphics/SVG/1.1/DTD/svg11.dtd">
<svg width="286pt" height="286pt" viewBox="0 0 286 286" version="1.1" xmlns="http://www.w3.org/2000/svg">
<g id="#f4f4f6ff">
</g>
<g id="#000000ff">
<path fill="#000000" opacity="1.00" d=" M 128.77 74.99 C 142.62 75.00 156.48 75.02 170.33 74.98 C 170.38 81.28 170.47 87.59 170.28 93.90 C 179.11 94.24 187.97 93.71 196.80 94.15 C 201.65 97.58 205.52 102.08 209.34 106.58 C 223.57 106.40 237.80 106.57 252.02 106.48 C 256.31 106.14 260.52 108.59 262.76 112.19 C 267.22 118.87 268.18 127.18 268.08 135.03 C 267.99 142.56 264.36 149.40 260.69 155.76 C 250.27 171.93 236.08 185.26 221.37 197.48 C 220.23 198.55 220.26 200.30 219.75 201.69 C 217.29 212.95 211.32 223.18 203.61 231.65 C 200.82 232.39 197.85 231.86 194.99 232.00 C 161.41 231.93 127.83 232.13 94.24 231.90 C 70.38 196.39 46.72 160.72 22.85 125.21 C 21.97 123.64 20.43 122.69 18.92 121.81 C 18.80 114.73 18.93 107.65 18.85 100.57 C 23.88 100.57 29.19 99.81 33.89 102.12 C 47.84 108.38 60.90 116.40 74.35 123.63 C 75.76 124.38 77.32 124.82 78.86 125.24 C 83.08 113.00 90.47 101.72 100.78 93.76 C 110.07 92.96 119.53 94.00 128.86 93.26 C 128.62 87.18 128.79 81.08 128.77 74.99 M 215.29 119.54 C 216.05 122.88 217.44 126.02 218.59 129.23 C 223.22 144.42 225.92 160.46 224.00 176.34 C 225.87 175.14 227.57 173.70 229.05 172.05 C 238.09 162.27 247.08 152.18 253.50 140.42 C 257.96 132.86 253.28 122.05 244.97 119.63 C 235.09 119.34 225.18 119.55 215.29 119.54 Z" />
</g>
</svg>
