<?xml version="1.0" encoding="UTF-8" ?>
<!DOCTYPE svg PUBLIC "-//W3C//DTD SVG 1.1//EN" "http://www.w3.org/Graphics/SVG/1.1/DTD/svg11.dtd">
<svg width="368pt" height="368pt" viewBox="0 0 368 368" version="1.1" xmlns="http://www.w3.org/2000/svg">
<g id="#f4f4f6ff">
</g>
<g id="#000000ff">
<path fill="#000000" opacity="1.00" d=" M 101.41 40.58 C 108.85 38.99 116.94 40.47 123.22 44.80 C 131.91 50.54 136.92 61.40 135.53 71.74 C 134.32 82.67 126.11 92.38 115.56 95.44 C 106.09 98.34 95.16 95.86 88.00 88.98 C 81.07 82.56 77.62 72.51 79.50 63.21 C 81.37 52.17 90.43 42.79 101.41 40.58 M 103.34 55.23 C 96.86 57.12 92.51 64.23 93.99 70.85 C 95.11 78.05 102.81 83.27 109.92 81.72 C 117.59 80.52 122.88 71.90 120.50 64.50 C 118.63 57.35 110.35 52.86 103.34 55.23 Z" />
<path fill="#000000" opacity="1.00" d=" M 257.31 40.28 C 270.60 37.93 284.53 46.60 288.56 59.42 C 292.15 69.88 288.81 82.20 280.48 89.45 C 271.30 97.93 256.36 99.00 246.03 91.97 C 236.54 85.88 231.38 73.76 233.84 62.72 C 235.97 51.31 245.78 41.83 257.31 40.28 M 256.50 55.63 C 250.01 58.10 246.30 65.95 248.64 72.51 C 250.67 79.42 258.72 83.65 265.56 81.37 C 272.63 79.43 277.04 71.20 274.65 64.25 C 272.62 56.81 263.55 52.51 256.50 55.63 Z" />
<path fill="#000000" opacity="1.00" d=" M 46.40 109.60 C 49.86 108.65 53.48 109.07 57.01 109.00 C 144.04 109.01 231.07 109.00 318.10 109.00 C 326.65 108.67 334.25 116.39 334.00 124.90 C 334.01 150.29 333.99 175.68 334.01 201.08 C 334.25 207.21 330.54 213.25 324.96 215.79 C 321.87 217.30 318.36 217.48 314.98 217.51 C 227.66 217.48 140.34 217.51 53.01 217.50 C 49.73 217.43 46.33 217.10 43.40 215.49 C 38.17 212.77 34.75 206.98 34.99 201.07 C 35.01 175.68 34.99 150.29 35.00 124.90 C 34.80 117.99 39.75 111.41 46.40 109.60 M 52.26 126.26 C 52.23 150.83 52.26 175.41 52.25 199.98 C 140.41 200.01 228.59 200.01 316.76 199.98 C 316.74 175.41 316.77 150.83 316.74 126.26 C 228.58 126.24 140.42 126.24 52.26 126.26 Z" />
<path fill="#000000" opacity="1.00" d=" M 66.67 135.68 C 67.56 134.12 69.27 133.23 71.05 133.28 C 76.38 133.18 81.71 133.27 87.04 133.24 C 89.05 133.18 91.51 133.59 92.43 135.64 C 93.47 137.26 92.34 139.10 91.55 140.55 C 81.80 156.79 72.09 173.06 62.38 189.33 C 61.70 190.39 60.80 191.27 59.95 192.19 C 59.65 190.49 59.46 188.77 59.48 187.05 C 59.52 174.68 59.50 162.31 59.48 149.94 C 59.40 148.44 59.66 146.93 60.58 145.70 C 62.62 142.37 64.53 138.95 66.67 135.68 Z" />
<path fill="#000000" opacity="1.00" d=" M 117.43 133.55 C 122.26 132.86 127.17 133.44 132.04 133.23 C 134.74 133.40 138.15 132.56 140.12 134.96 C 141.61 136.33 141.09 138.56 140.06 140.03 C 130.06 156.69 120.08 173.37 110.14 190.08 C 109.21 191.55 107.92 193.24 105.99 193.20 C 99.98 193.31 93.96 193.28 87.96 193.22 C 85.67 193.36 83.26 191.52 83.32 189.14 C 83.85 187.25 84.94 185.60 85.90 183.92 C 95.47 168.12 104.84 152.19 114.39 136.38 C 115.17 135.25 115.95 133.82 117.43 133.55 Z" />
<path fill="#000000" opacity="1.00" d=" M 165.46 133.61 C 171.58 132.79 177.86 133.43 184.05 133.27 C 187.29 132.76 190.88 136.39 188.51 139.43 C 178.38 156.61 168.11 173.73 157.81 190.81 C 156.56 193.39 153.50 193.36 151.06 193.27 C 146.04 193.20 141.02 193.34 136.01 193.22 C 133.15 193.48 130.22 190.01 132.09 187.43 C 142.02 170.59 152.17 153.87 162.14 137.05 C 163.02 135.73 163.83 134.12 165.46 133.61 Z" />
<path fill="#000000" opacity="1.00" d=" M 213.48 133.61 C 219.90 132.82 226.46 133.39 232.93 133.30 C 236.02 133.10 238.90 136.86 236.68 139.52 C 226.88 156.09 216.91 172.55 207.10 189.11 C 205.97 190.99 204.63 193.44 202.06 193.21 C 196.04 193.29 190.02 193.29 184.01 193.22 C 181.27 193.30 178.50 189.95 180.29 187.45 C 190.04 170.84 200.07 154.38 209.87 137.80 C 210.86 136.26 211.74 134.44 213.48 133.61 Z" />
<path fill="#000000" opacity="1.00" d=" M 262.36 133.46 C 268.52 132.99 274.74 133.32 280.93 133.28 C 283.43 133.14 286.13 135.26 285.56 137.92 C 284.72 140.16 283.33 142.12 282.12 144.17 C 272.91 159.60 263.70 175.03 254.46 190.44 C 252.27 194.71 246.82 192.88 242.99 193.25 C 238.79 193.03 234.47 193.75 230.34 192.84 C 228.03 191.82 227.18 188.86 228.77 186.84 C 238.75 170.11 248.78 153.40 258.76 136.67 C 259.62 135.31 260.60 133.70 262.36 133.46 Z" />
<path fill="#000000" opacity="1.00" d=" M 306.10 138.09 C 306.89 136.68 307.96 135.46 309.14 134.36 C 309.97 148.23 309.25 162.16 309.52 176.06 C 309.94 180.24 306.58 183.33 304.85 186.83 C 303.16 189.38 301.78 193.47 298.05 193.23 C 292.35 193.28 286.66 193.28 280.96 193.23 C 278.54 193.46 275.94 191.59 276.13 188.99 C 276.77 186.63 278.34 184.67 279.52 182.56 C 288.36 167.73 297.27 152.93 306.10 138.09 Z" />
<path fill="#000000" opacity="1.00" d=" M 83.24 227.93 C 93.83 227.51 104.45 227.87 115.04 227.75 C 116.67 227.55 118.89 228.14 118.72 230.18 C 118.79 265.43 118.75 300.68 118.74 335.93 C 118.99 337.58 117.78 339.32 115.98 338.97 C 105.66 339.04 95.33 339.01 85.01 338.98 C 83.20 339.34 81.66 337.79 82.02 335.99 C 82.05 300.39 81.86 264.78 82.12 229.19 C 82.40 228.88 82.96 228.24 83.24 227.93 Z" />
<path fill="#000000" opacity="1.00" d=" M 251.33 228.06 C 261.52 227.32 271.82 227.99 282.05 227.73 C 283.89 227.71 287.04 227.40 286.96 230.07 C 287.06 265.06 286.96 300.06 287.01 335.06 C 287.11 336.58 286.93 338.98 284.87 338.92 C 274.26 339.09 263.63 339.00 253.02 338.97 C 250.69 339.39 249.98 336.84 250.23 335.03 C 250.33 299.80 250.09 264.56 250.35 229.34 C 250.60 229.02 251.09 228.38 251.33 228.06 Z" />
</g>
</svg>
