<?xml version="1.0" standalone="no"?>
<!DOCTYPE svg PUBLIC "-//W3C//DTD SVG 20010904//EN"
 "http://www.w3.org/TR/2001/REC-SVG-20010904/DTD/svg10.dtd">
<svg version="1.0" xmlns="http://www.w3.org/2000/svg"
 width="1000.000000pt" height="1000.000000pt" viewBox="0 0 1000.000000 1000.000000"
 preserveAspectRatio="xMidYMid meet">

<g transform="translate(0.000000,1000.000000) scale(0.100000,-0.100000)"
fill="#000000" stroke="none">
<path d="M0 9970 c0 -20 5 -30 15 -30 20 0 20 -39 0 -46 -22 -9 -22 -239 0
-248 19 -7 19 -40 0 -56 -13 -11 -15 -245 -15 -1967 0 -1556 3 -1954 13 -1952
28 4 37 -2 37 -26 0 -20 -5 -25 -25 -25 l-25 0 0 -1021 c0 -663 4 -1027 10
-1039 7 -13 7 -21 0 -25 -16 -10 -12 -106 5 -126 14 -15 14 -18 0 -32 -11 -12
-15 -37 -15 -102 0 -77 2 -89 22 -104 22 -18 18 -41 -7 -41 -13 0 -15 -220
-15 -1565 l0 -1565 4054 0 c4046 0 4055 0 4061 20 9 27 51 27 60 0 6 -20 15
-20 916 -20 l909 0 0 1391 c0 1314 -1 1393 -17 1405 -17 13 -17 15 -1 27 16
13 18 39 17 280 l0 265 -24 16 c-28 18 -24 46 6 46 16 0 19 7 19 41 0 47 -25
76 -48 57 -17 -15 -47 14 -39 36 7 17 42 22 52 6 3 -5 12 -7 20 -4 13 5 15
287 15 2240 0 1978 -2 2234 -15 2234 -8 0 -15 9 -15 20 0 11 7 20 15 20 13 0
15 90 15 748 0 735 0 748 -20 765 -25 21 -25 34 0 49 18 12 20 24 20 128 0 78
-4 120 -12 128 -10 10 -10 17 0 32 6 11 12 31 12 45 l0 25 -405 0 c-353 0
-405 -2 -405 -15 0 -8 -5 -15 -10 -15 -6 0 -13 7 -16 15 -5 13 -70 15 -500 15
-323 0 -494 -3 -494 -10 0 -5 -11 -10 -25 -10 -14 0 -25 5 -25 10 0 7 -1360
10 -4060 10 l-4060 0 0 -30z m5410 1 c7 -15 6 -24 -6 -36 -9 -9 -21 -14 -27
-12 -18 6 -31 33 -24 51 9 22 44 20 57 -3z m268 -54 c4 -20 -25 -34 -40 -19
-15 15 -1 44 19 40 10 -2 19 -11 21 -21z m-2669 -34 c12 -23 -4 -53 -29 -53
-25 0 -41 29 -29 52 12 23 45 23 58 1z m-201 -32 c20 -12 10 -46 -14 -49 -25
-4 -40 24 -23 44 13 16 19 17 37 5z m-1748 -16 c18 -21 5 -47 -22 -43 -26 3
-37 36 -16 49 18 12 24 11 38 -6z m8685 -25 c0 -18 -6 -26 -21 -28 -26 -4 -40
24 -23 45 18 21 44 11 44 -17z m-4148 4 c4 -11 -1 -22 -12 -31 -16 -11 -21
-11 -33 1 -8 8 -12 22 -9 30 8 21 46 21 54 0z m2489 5 c3 -6 1 -16 -5 -22 -9
-9 -14 -8 -21 3 -9 15 -4 30 10 30 5 0 12 -5 16 -11z m-6241 -17 c0 -18 -20
-15 -23 4 -3 10 1 15 10 12 7 -3 13 -10 13 -16z m3144 -58 c-9 -11 -15 -12
-25 -3 -11 9 -12 15 -3 25 9 11 15 12 25 3 11 -9 12 -15 3 -25z m324 24 c7
-21 -4 -38 -23 -38 -23 0 -32 13 -24 34 7 19 40 21 47 4z m4300 -30 c8 -12 7
-21 -2 -32 -19 -22 -48 -20 -61 5 -23 41 38 68 63 27z m-4565 -16 c2 -7 -3
-12 -12 -12 -9 0 -16 7 -16 16 0 17 22 14 28 -4z m2032 -28 c0 -19 -28 -30
-42 -16 -8 8 -8 15 1 26 14 17 41 10 41 -10z m-6522 -7 c2 -12 -3 -17 -17 -17
-12 0 -21 6 -21 13 0 31 32 34 38 4z m7350 -5 c3 -17 -2 -22 -18 -22 -25 0
-38 29 -19 41 20 13 34 6 37 -19z m1816 9 c33 -36 -18 -83 -52 -49 -17 17 -15
45 6 57 24 14 26 14 46 -8z m-1616 -17 c4 -26 -20 -37 -44 -20 -24 18 -11 48
18 44 14 -2 24 -11 26 -24z m-6783 -9 c0 -11 -7 -21 -16 -23 -18 -3 -33 23
-23 39 10 17 39 5 39 -16z m7655 0 c0 -8 -7 -15 -15 -15 -8 0 -15 7 -15 15 0
8 7 15 15 15 8 0 15 -7 15 -15z m-7490 -10 c14 -17 5 -51 -15 -59 -35 -13 -63
21 -45 55 13 23 43 25 60 4z m8029 1 c17 -20 2 -46 -25 -46 -26 0 -40 20 -30
45 7 19 40 20 55 1z m-3180 -15 c14 -26 -8 -54 -39 -49 -25 3 -36 27 -26 54 8
20 53 17 65 -5z m-4359 -25 c0 -20 -27 -39 -45 -32 -25 9 -30 37 -10 52 20 15
55 2 55 -20z m7313 7 c9 -9 -13 -34 -24 -27 -14 8 -11 34 4 34 8 0 17 -3 20
-7z m612 -13 c0 -7 -6 -15 -12 -17 -8 -3 -13 4 -13 17 0 13 5 20 13 18 6 -3
12 -11 12 -18z m-9711 -25 c9 -24 -4 -45 -29 -45 -27 0 -40 26 -24 46 15 18
45 18 53 -1z m8874 -31 c4 -28 -18 -44 -64 -47 -33 -2 -39 1 -42 20 -2 15 5
26 25 36 39 21 77 17 81 -9z m-5175 10 c9 -10 -4 -34 -18 -34 -17 0 -28 17
-20 30 7 11 28 13 38 4z m1017 -29 c26 -32 -13 -81 -47 -59 -35 22 -23 74 17
74 10 0 23 -7 30 -15z m3600 -10 c17 -20 5 -45 -20 -45 -23 0 -35 22 -26 45 7
19 30 19 46 0z m-3707 -9 c8 -19 -15 -37 -32 -26 -17 10 -7 40 13 40 7 0 16
-6 19 -14z m2252 -16 c0 -22 -29 -18 -33 3 -3 14 1 18 15 15 10 -2 18 -10 18
-18z m2471 -2 c9 -28 -20 -52 -47 -37 -19 10 -25 39 -12 52 15 16 52 6 59 -15z
m-579 1 c14 -14 6 -39 -12 -39 -18 0 -28 17 -21 35 6 18 18 19 33 4z m-1555
-31 c-6 -6 -15 -9 -18 -5 -4 3 -4 14 0 23 5 13 9 15 18 6 9 -9 9 -15 0 -24z
m188 8 c0 -20 -19 -31 -32 -18 -6 6 -7 15 -4 21 10 16 36 13 36 -3z m778 -38
c4 -33 -31 -49 -55 -25 -24 24 -8 59 25 55 21 -2 28 -9 30 -30z m-5719 -32
c15 -18 4 -46 -19 -46 -28 0 -45 27 -30 45 16 19 34 19 49 1z m5435 6 c2 -4 1
-14 -4 -22 -7 -11 -12 -12 -21 -3 -6 6 -8 16 -5 22 8 13 23 14 30 3z m-2110
-63 c-8 -14 -34 -11 -34 4 0 8 3 17 7 20 9 9 34 -13 27 -24z m-508 -10 c10
-17 -13 -36 -27 -22 -12 12 -4 33 11 33 5 0 12 -5 16 -11z m2760 -10 c10 -17
-13 -36 -27 -22 -12 12 -4 33 11 33 5 0 12 -5 16 -11z m-2398 -11 c27 -27 -5
-73 -38 -53 -14 9 -12 52 3 58 19 8 22 8 35 -5z m2772 -34 c0 -8 -7 -14 -15
-14 -15 0 -21 21 -9 33 10 9 24 -2 24 -19z m-1097 -38 c8 -20 -20 -43 -35 -28
-14 14 -3 42 16 42 7 0 16 -6 19 -14z m2381 8 c21 -8 21 -43 0 -51 -8 -3 -23
1 -31 10 -13 13 -14 19 -3 31 14 18 13 18 34 10z m-9726 -81 c-4 -22 -22 -20
-26 1 -2 10 3 16 13 16 10 0 15 -7 13 -17z m3612 2 c0 -8 -6 -15 -14 -15 -17
0 -28 14 -19 24 12 12 33 6 33 -9z m5135 -15 c0 -16 -6 -26 -18 -28 -19 -4
-32 20 -23 44 9 25 41 13 41 -16z m-1301 -3 c8 -12 7 -21 -5 -32 -21 -21 -49
-9 -49 20 0 36 34 44 54 12z m2391 3 c9 -27 -1 -40 -31 -40 -29 0 -42 24 -24
45 18 21 48 19 55 -5z m-4305 -41 c0 -26 -28 -36 -46 -17 -14 13 -14 17 1 31
19 20 45 12 45 -14z m4104 5 c10 -27 -13 -46 -48 -38 -39 8 -50 18 -43 38 9
22 83 22 91 0z m-771 -36 c7 -21 -12 -48 -34 -48 -22 0 -34 22 -25 45 7 18 53
20 59 3z m-443 -33 c16 -19 6 -45 -19 -45 -23 0 -35 28 -20 46 15 18 24 18 39
-1z m370 0 c15 -19 4 -52 -21 -60 -38 -12 -65 35 -37 63 16 16 43 15 58 -3z
m460 -10 c10 -12 10 -18 0 -30 -25 -30 -61 -7 -46 30 3 8 12 15 19 15 8 0 20
-7 27 -15z m-1610 -25 c22 -30 21 -60 -1 -60 -17 0 -69 40 -69 54 0 6 5 17 12
24 19 19 35 14 58 -18z m-2770 5 c0 -8 -7 -15 -15 -15 -8 0 -15 7 -15 15 0 8
7 15 15 15 8 0 15 -7 15 -15z m2940 -40 c0 -8 -7 -15 -15 -15 -8 0 -15 7 -15
15 0 8 7 15 15 15 8 0 15 -7 15 -15z m-2619 -10 c-1 -15 -24 -12 -29 3 -3 9 2
13 12 10 10 -1 17 -7 17 -13z m2047 -13 c4 -28 -24 -40 -45 -19 -21 21 -9 49
19 45 15 -2 24 -11 26 -26z m695 21 c9 -9 -13 -34 -24 -27 -14 8 -11 34 4 34
8 0 17 -3 20 -7z m-4625 -54 c4 -34 -61 -83 -90 -68 -24 13 -24 56 1 64 11 3
22 13 25 21 4 10 16 14 33 12 22 -2 29 -9 31 -29z m3831 7 c16 -20 3 -46 -24
-46 -13 0 -26 7 -29 16 -7 19 10 44 29 44 7 0 18 -6 24 -14z m-4481 -22 c13
-23 3 -52 -20 -59 -22 -8 -48 11 -48 34 0 38 51 56 68 25z m2742 3 c0 -8 -3
-17 -7 -20 -9 -9 -34 13 -27 24 8 14 34 11 34 -4z m204 -39 c8 -14 7 -22 -7
-35 -20 -20 -49 -9 -55 22 -7 35 41 45 62 13z m-5174 -9 c0 -5 -7 -9 -15 -9
-15 0 -20 12 -9 23 8 8 24 -1 24 -14z m4338 -17 c4 -28 -24 -40 -45 -19 -14
13 -14 19 -3 32 18 22 44 15 48 -13z m3361 -8 c-9 -11 -15 -12 -25 -3 -11 9
-12 15 -3 25 9 11 15 12 25 3 11 -9 12 -15 3 -25z m991 -40 c0 -8 -7 -14 -15
-14 -15 0 -21 21 -9 33 10 9 24 -2 24 -19z m-2540 -10 c0 -16 -16 -19 -25 -4
-8 13 4 32 16 25 5 -4 9 -13 9 -21z m-1910 1 c19 -23 8 -50 -20 -50 -16 0 -26
6 -28 18 -4 18 14 47 28 47 4 0 13 -7 20 -15z m4028 -12 c2 -8 -5 -13 -17 -13
-12 0 -21 6 -21 16 0 18 31 15 38 -3z m-4323 -13 c0 -18 -33 -26 -47 -12 -6 6
-7 15 -3 22 10 16 50 8 50 -10z m2805 5 c0 -8 -7 -15 -15 -15 -8 0 -15 7 -15
15 0 8 7 15 15 15 8 0 15 -7 15 -15z m344 -20 c3 -9 -1 -18 -10 -22 -19 -7
-28 2 -21 22 8 19 23 19 31 0z m-3674 -10 c0 -8 -7 -15 -15 -15 -8 0 -15 7
-15 15 0 8 7 15 15 15 8 0 15 -7 15 -15z m735 -15 c0 -18 -6 -26 -23 -28 -13
-2 -25 3 -28 12 -10 26 4 48 28 44 17 -2 23 -10 23 -28z m-4454 4 c17 -21 0
-49 -32 -49 -24 0 -36 23 -25 51 7 19 40 18 57 -2z m4088 -8 c17 -20 3 -46
-24 -46 -29 0 -38 13 -30 40 7 23 37 26 54 6z m5388 -13 c12 -18 12 -23 -2
-37 -20 -20 -29 -20 -49 0 -20 20 -20 29 0 49 19 19 33 16 51 -12z m-7598 -2
c13 -24 -8 -55 -34 -50 -28 6 -42 34 -26 53 18 22 48 20 60 -3z m5545 -36 c7
-20 -18 -49 -38 -42 -25 10 -32 38 -12 53 20 14 42 9 50 -11z m-6599 -5 c8
-26 -1 -40 -26 -40 -22 0 -34 22 -25 45 8 22 44 18 51 -5z m8475 5 c17 -20 5
-45 -20 -45 -23 0 -35 22 -26 45 7 19 30 19 46 0z m-9540 -10 c0 -8 -7 -15
-15 -15 -8 0 -15 7 -15 15 0 8 7 15 15 15 8 0 15 -7 15 -15z m8129 -14 c13
-24 -8 -55 -34 -50 -28 6 -42 34 -26 53 18 22 48 20 60 -3z m1277 -11 c1 -14
5 -33 9 -42 10 -25 -1 -48 -23 -48 -22 0 -46 23 -35 33 3 4 1 18 -7 31 -18 35
-6 58 27 54 22 -2 28 -8 29 -28z m-8732 14 c18 -7 22 -49 6 -59 -33 -20 -65
26 -38 53 14 14 12 14 32 6z m7108 -36 c-6 -6 -15 -9 -18 -5 -4 3 -4 14 0 23
5 13 9 15 18 6 9 -9 9 -15 0 -24z m-7172 -12 c0 -20 -27 -39 -45 -32 -25 9
-30 37 -10 52 20 15 55 2 55 -20z m6120 9 c14 -17 5 -51 -16 -59 -22 -8 -54
11 -54 32 0 38 46 56 70 27z m1940 -11 c0 -8 -7 -14 -15 -14 -15 0 -21 21 -9
33 10 9 24 -2 24 -19z m-420 -9 c10 -12 10 -18 0 -30 -26 -32 -68 -8 -54 30 4
8 14 15 24 15 10 0 23 -7 30 -15z m-7521 -32 c-15 -18 -34 -1 -25 22 5 14 9
15 21 5 12 -10 13 -16 4 -27z m1706 2 c0 -25 -4 -31 -26 -33 -29 -3 -44 18
-33 50 4 14 13 18 32 16 23 -2 27 -8 27 -33z m5443 10 c5 -22 -18 -37 -35 -23
-17 13 -17 35 0 41 19 8 32 2 35 -18z m1462 -4 c0 -5 -7 -14 -16 -21 -12 -11
-18 -10 -31 3 -23 22 0 52 28 36 10 -5 19 -13 19 -18z m-2492 -3 c16 -16 15
-23 -4 -42 -12 -12 -20 -13 -35 -6 -19 10 -26 40 -12 53 10 11 38 8 51 -5z
m1889 1 c16 -16 5 -39 -18 -39 -12 0 -19 7 -19 18 0 31 17 41 37 21z m-4457
-14 c0 -8 -4 -15 -9 -15 -13 0 -22 16 -14 24 11 11 23 6 23 -9z m220 -11 c0
-8 -7 -14 -15 -14 -15 0 -21 21 -9 33 10 9 24 -2 24 -19z m5270 -9 c0 -15 -19
-24 -37 -17 -16 5 -17 24 -1 40 13 13 38 -2 38 -23z m-5583 9 c3 -8 -2 -23
-11 -32 -15 -15 -17 -15 -32 0 -21 21 -11 48 16 48 11 0 23 -7 27 -16z m-3629
-6 c-3 -7 -11 -13 -18 -13 -7 0 -15 6 -17 13 -3 7 4 12 17 12 13 0 20 -5 18
-12z m8240 -45 c5 -17 -26 -29 -40 -15 -6 6 -7 15 -3 22 9 14 37 9 43 -7z
m992 1 c11 -12 10 -18 -3 -32 -16 -15 -18 -15 -34 0 -13 14 -14 20 -3 32 7 9
16 16 20 16 4 0 13 -7 20 -16z m-4026 -7 c36 -26 -4 -84 -41 -61 -24 15 -27
38 -8 58 20 19 26 20 49 3z m2401 -12 c0 -13 -8 -21 -22 -23 -17 -3 -23 2 -23
16 0 10 3 22 7 26 13 13 38 1 38 -19z m-307 -18 c4 -20 -25 -34 -40 -19 -15
15 -1 44 19 40 10 -2 19 -11 21 -21z m-5368 -31 c0 -23 -30 -41 -48 -30 -23
15 -25 29 -7 48 12 12 21 13 36 6 10 -6 19 -17 19 -24z m4778 1 c4 -20 -25
-34 -40 -19 -15 15 -1 44 19 40 10 -2 19 -11 21 -21z m-1657 -3 c17 -21 0 -49
-31 -49 -31 0 -48 28 -31 49 8 9 21 16 31 16 10 0 23 -7 31 -16z m-4281 -24
c0 -27 -19 -35 -38 -17 -12 13 -13 19 -3 31 16 19 41 10 41 -14z m6587 14 c4
-11 -1 -22 -12 -31 -16 -11 -21 -11 -33 1 -8 8 -12 22 -9 30 8 21 46 21 54 0z
m-4072 -22 c0 -18 -20 -15 -23 4 -3 10 1 15 10 12 7 -3 13 -10 13 -16z m3184
-21 c8 -14 7 -22 -4 -31 -19 -16 -45 -6 -45 18 0 36 33 45 49 13z m1621 4 c10
-12 10 -18 0 -30 -25 -30 -61 -7 -46 30 3 8 12 15 19 15 8 0 20 -7 27 -15z
m-7473 -11 c8 -21 -13 -42 -28 -27 -13 13 -5 43 11 43 6 0 13 -7 17 -16z
m-287 -13 c7 -15 6 -23 -6 -35 -18 -18 -17 -18 -38 -10 -16 6 -22 45 -9 57 13
14 43 7 53 -12z m3166 -12 c10 -17 -13 -36 -27 -22 -12 12 -4 33 11 33 5 0 12
-5 16 -11z m-2572 -17 c8 -13 -11 -35 -23 -28 -16 10 -14 36 3 36 8 0 17 -4
20 -8z m3816 -17 c10 -12 10 -18 0 -30 -25 -30 -61 -7 -46 30 3 8 12 15 19 15
8 0 20 -7 27 -15z m-1042 -26 c2 -14 -5 -36 -16 -49 -16 -19 -22 -21 -40 -11
-25 13 -27 29 -10 66 16 36 62 32 66 -6z m3670 9 c7 -7 24 -12 38 -13 30 0 50
-24 41 -49 -7 -17 -52 -22 -62 -6 -3 6 -19 10 -35 10 -33 0 -50 31 -30 55 15
18 32 19 48 3z m-5273 -37 c0 -34 -30 -51 -51 -29 -25 24 -10 60 24 56 21 -2
27 -8 27 -27z m4816 13 c17 -21 0 -49 -32 -49 -27 0 -37 28 -19 50 16 19 34
19 51 -1z m1972 2 c8 -21 -16 -48 -36 -40 -17 6 -23 35 -10 47 11 12 41 7 46
-7z m-4073 -9 c0 -8 -3 -17 -7 -20 -9 -9 -34 13 -27 24 8 14 34 11 34 -4z
m4255 -37 c0 -18 -6 -26 -23 -28 -24 -4 -38 18 -28 44 3 9 15 14 28 12 17 -2
23 -10 23 -28z m-6296 -14 c16 -20 3 -46 -24 -46 -13 0 -26 7 -29 16 -7 19 10
44 29 44 7 0 18 -6 24 -14z m3096 -21 c0 -25 -4 -30 -24 -30 -32 0 -49 28 -31
50 7 9 23 15 34 13 16 -2 21 -10 21 -33z m-480 16 c7 -12 -12 -24 -25 -16 -11
7 -4 25 10 25 5 0 11 -4 15 -9z m-2917 -18 c-2 -10 -10 -18 -18 -18 -8 0 -16
8 -18 18 -2 12 3 17 18 17 15 0 20 -5 18 -17z m4505 11 c11 -11 -5 -34 -24
-34 -12 0 -19 7 -19 20 0 19 28 28 43 14z m-4293 -33 c7 -15 6 -24 -6 -36 -19
-18 -33 -16 -48 7 -7 12 -6 21 3 32 18 22 38 20 51 -3z m670 -11 c0 -11 -7
-20 -15 -20 -15 0 -21 21 -8 33 12 13 23 7 23 -13z m3798 -42 c4 -33 -31 -49
-55 -25 -24 24 -8 59 25 55 21 -2 28 -9 30 -30z m1262 11 c15 -27 -5 -51 -39
-47 -26 3 -38 26 -27 54 8 22 54 17 66 -7z m950 -3 c0 -15 -24 -28 -34 -19
-13 14 -5 33 14 33 11 0 20 -6 20 -14z m-2655 -46 c3 -6 -1 -13 -10 -16 -19
-8 -30 0 -20 15 8 14 22 14 30 1z m2147 -22 c-6 -6 -15 -9 -18 -5 -4 3 -4 14
0 23 5 13 9 15 18 6 9 -9 9 -15 0 -24z m-4035 -12 c-4 -9 -11 -16 -17 -16 -17
0 -24 31 -9 41 18 11 34 -5 26 -25z m2221 11 c4 -20 -25 -34 -40 -19 -15 15
-1 44 19 40 10 -2 19 -11 21 -21z m-7563 4 c7 -12 -12 -24 -25 -16 -11 7 -4
25 10 25 5 0 11 -4 15 -9z m4105 -6 c10 -12 10 -18 0 -30 -25 -30 -61 -7 -46
30 3 8 12 15 19 15 8 0 20 -7 27 -15z m-3477 -19 c8 -20 -20 -43 -35 -28 -14
14 -3 42 16 42 7 0 16 -6 19 -14z m3378 -17 c9 -18 7 -25 -9 -41 -16 -16 -23
-18 -41 -9 -23 13 -28 40 -9 59 19 19 46 14 59 -9z m5124 -14 c0 -25 -4 -30
-24 -30 -32 0 -49 28 -31 50 7 9 23 15 34 13 16 -2 21 -10 21 -33z m-498 -21
c8 -20 -8 -36 -26 -25 -15 10 -8 41 9 41 6 0 13 -7 17 -16z m-1979 -25 c4 -19
-19 -31 -38 -19 -18 11 -4 42 17 38 10 -2 19 -10 21 -19z m962 -13 c0 -20 -19
-31 -32 -18 -6 6 -7 15 -4 21 10 16 36 13 36 -3z m-4780 -11 c0 -8 -7 -15 -15
-15 -8 0 -15 7 -15 15 0 8 7 15 15 15 8 0 15 -7 15 -15z m5138 -18 c2 -10 -3
-17 -12 -17 -18 0 -29 16 -21 31 9 14 29 6 33 -14z m-5464 -3 c21 -21 20 -30
-5 -48 -36 -25 -70 5 -49 45 13 23 33 24 54 3z m1777 -15 c9 -18 7 -25 -9 -41
-16 -16 -23 -18 -41 -9 -20 11 -29 50 -14 64 14 15 53 6 64 -14z m-2400 -10
c9 -18 7 -25 -9 -41 -16 -16 -23 -18 -41 -9 -23 13 -28 40 -9 59 19 19 46 14
59 -9z m747 -13 c5 -24 -10 -38 -31 -30 -17 6 -23 35 -10 48 12 12 38 1 41
-18z m4917 -17 c0 -17 -6 -24 -20 -24 -23 0 -33 34 -13 46 20 13 33 5 33 -22z
m-5557 -6 c5 -17 -26 -29 -40 -15 -6 6 -7 15 -3 22 9 14 37 9 43 -7z m1750 1
c38 -26 23 -84 -22 -84 -23 0 -56 27 -56 47 0 14 35 53 48 53 4 0 18 -7 30
-16z m366 10 c24 -9 21 -61 -4 -69 -39 -12 -66 35 -38 63 14 14 20 14 42 6z
m2660 -16 c8 -14 7 -21 -6 -34 -30 -30 -75 9 -48 42 16 18 39 15 54 -8z m2980
-10 c8 -14 7 -21 -6 -34 -30 -30 -75 9 -48 42 16 18 39 15 54 -8z m-3370 -11
c9 -15 7 -21 -8 -32 -35 -26 -74 13 -44 43 16 16 38 12 52 -11z m-2209 -17
c-5 -8 -11 -8 -17 -2 -6 6 -7 16 -3 22 5 8 11 8 17 2 6 -6 7 -16 3 -22z
m-3699 9 c3 -6 0 -17 -7 -25 -18 -17 -44 -2 -36 20 7 18 33 21 43 5z m6031 -5
c7 -20 -17 -37 -34 -23 -15 13 -6 39 13 39 8 0 17 -7 21 -16z m1746 -6 c7 -21
-4 -38 -23 -38 -23 0 -34 16 -26 35 7 18 43 20 49 3z m-2608 -26 c8 -20 -19
-47 -39 -39 -26 10 -32 38 -12 53 21 15 42 9 51 -14z m-2093 1 c23 -21 23 -45
-1 -67 -41 -37 -97 14 -66 60 18 28 41 31 67 7z m2896 -5 c17 -17 15 -43 -4
-59 -31 -26 -70 25 -44 56 15 18 32 19 48 3z m-2631 -72 c-4 -9 -16 -16 -27
-16 -29 0 -38 30 -15 47 16 11 21 11 33 -1 8 -8 12 -22 9 -30z m1241 15 c8 -4
12 -19 10 -32 -2 -18 -9 -24 -28 -24 -28 0 -39 27 -20 50 14 17 20 18 38 6z
m280 -3 c18 -18 14 -46 -8 -58 -15 -8 -24 -6 -40 10 -16 16 -18 25 -10 40 12
22 40 26 58 8z m2043 -4 c17 -21 0 -49 -31 -49 -31 0 -48 28 -31 49 8 9 21 16
31 16 10 0 23 -7 31 -16z m-3751 -39 c22 -27 4 -45 -45 -45 -47 0 -63 14 -51
45 7 20 79 20 96 0z m1301 -35 c25 -14 24 -46 -2 -60 -37 -20 -67 28 -37 58
15 15 15 15 39 2z m-1762 -18 c20 -38 -31 -71 -59 -37 -6 8 -9 23 -5 35 8 25
51 27 64 2z m1286 -12 c-5 -8 -11 -8 -17 -2 -6 6 -7 16 -3 22 5 8 11 8 17 2 6
-6 7 -16 3 -22z m3030 0 c0 -29 -32 -41 -41 -16 -9 24 4 48 23 44 12 -2 18
-12 18 -28z m-3067 -9 c21 -13 11 -55 -15 -59 -30 -4 -49 31 -27 52 18 18 24
19 42 7z m2060 -3 c6 -6 28 -12 48 -12 44 -1 62 -31 38 -65 -18 -26 -47 -27
-70 -4 -9 10 -28 16 -41 15 -43 -6 -70 37 -41 66 15 15 51 15 66 0z m-584 -27
c19 -21 13 -47 -14 -61 -25 -14 -49 -2 -56 26 -12 47 37 72 70 35z m2326 -1
c0 -11 -6 -20 -14 -20 -18 0 -29 16 -21 30 11 18 35 11 35 -10z m-2030 -20 c0
-42 -53 -57 -66 -18 -9 28 20 52 47 37 11 -5 19 -14 19 -19z m1648 -27 c5 -17
-26 -29 -40 -15 -6 6 -7 15 -3 22 9 14 37 9 43 -7z m-3260 -15 c7 -7 12 -21
12 -33 0 -44 -60 -63 -80 -26 -14 27 -13 37 6 55 18 19 45 21 62 4z m2616 -10
c14 -23 -3 -52 -32 -56 -30 -5 -45 29 -26 57 18 25 42 24 58 -1z m1030 6 c19
-18 19 -20 6 -45 -17 -31 -70 -18 -70 17 0 14 27 44 40 44 5 0 16 -7 24 -16z
m-4246 -17 c2 -12 -3 -17 -17 -17 -12 0 -21 6 -21 13 0 31 32 34 38 4z m1992
-2 c18 -22 4 -47 -24 -43 -13 1 -31 -3 -40 -11 -12 -10 -19 -11 -30 -1 -21 17
-8 43 20 37 16 -3 24 2 27 15 6 22 30 24 47 3z m3528 6 c19 -11 11 -45 -11
-49 -19 -4 -32 20 -23 43 6 17 15 19 34 6z m-294 -36 c8 -8 21 -13 29 -10 18
7 41 -20 33 -40 -6 -16 -46 -21 -46 -6 0 6 -12 9 -26 8 -34 -3 -53 25 -35 47
17 20 26 20 45 1z m-509 -5 c4 -6 1 -18 -6 -26 -11 -13 -14 -13 -27 0 -8 8
-11 19 -8 25 9 14 33 14 41 1z m-4936 -14 c17 -20 2 -46 -25 -46 -26 0 -40 20
-30 45 7 19 40 20 55 1z m2886 4 c9 -15 -14 -40 -31 -33 -22 8 -18 43 5 43 11
0 23 -5 26 -10z m-5560 -30 c7 -23 -10 -50 -30 -50 -20 0 -37 27 -30 50 4 13
15 20 30 20 15 0 26 -7 30 -20z m7269 14 c18 -7 22 -49 6 -59 -33 -20 -65 26
-38 53 14 14 12 14 32 6z m-2914 -29 c0 -19 -20 -29 -32 -17 -15 15 -2 43 17
36 8 -3 15 -12 15 -19z m748 13 c26 -26 7 -78 -28 -78 -9 0 -25 9 -35 20 -37
41 24 97 63 58z m1590 0 c19 -19 14 -55 -10 -72 -12 -9 -26 -16 -30 -16 -13 0
-48 39 -48 54 0 37 61 61 88 34z m-1300 -21 c4 -20 -25 -34 -40 -19 -15 15 -1
44 19 40 10 -2 19 -11 21 -21z m-903 -22 c0 -27 -3 -30 -30 -30 -21 0 -31 5
-33 18 -5 25 17 49 42 45 16 -2 21 -10 21 -33z m405 -21 c0 -9 -5 -14 -12 -12
-18 6 -21 28 -4 28 9 0 16 -7 16 -16z m378 -12 c4 -28 -24 -41 -44 -20 -20 20
-7 50 20 46 13 -2 22 -12 24 -26z m3329 6 c15 -20 9 -96 -9 -114 -13 -13 -20
-14 -37 -4 -19 10 -21 17 -16 58 9 66 12 72 33 72 11 0 24 -6 29 -12z m-4052
-18 c0 -8 -8 -16 -17 -18 -13 -2 -18 3 -18 18 0 15 5 20 18 18 9 -2 17 -10 17
-18z m-275 -5 c10 -12 10 -18 0 -30 -26 -32 -68 -8 -54 30 4 8 14 15 24 15 10
0 23 -7 30 -15z m695 -15 c0 -18 -6 -26 -23 -28 -24 -4 -38 18 -28 44 3 9 15
14 28 12 17 -2 23 -10 23 -28z m1503 21 c8 -4 12 -19 10 -32 -4 -29 -45 -34
-61 -7 -19 30 19 60 51 39z m153 -17 c17 -21 0 -49 -32 -49 -27 0 -37 28 -19
50 16 19 34 19 51 -1z m1724 -12 c8 -20 -19 -47 -39 -39 -26 10 -32 38 -12 53
21 15 42 9 51 -14z m-3545 3 c0 -8 -7 -15 -15 -15 -8 0 -15 7 -15 15 0 8 7 15
15 15 8 0 15 -7 15 -15z m1438 -8 c2 -10 -3 -17 -12 -17 -18 0 -29 16 -21 31
9 14 29 6 33 -14z m-5150 1 c27 -27 -5 -76 -38 -58 -25 14 -32 37 -14 55 19
18 36 19 52 3z m6759 -24 c9 -24 -10 -49 -37 -49 -27 0 -46 25 -37 49 4 10 18
16 37 16 19 0 33 -6 37 -16z m-4327 -9 c0 -8 -4 -15 -9 -15 -13 0 -22 16 -14
24 11 11 23 6 23 -9z m-4082 -28 c4 -20 -25 -34 -40 -19 -15 15 -1 44 19 40
10 -2 19 -11 21 -21z m6877 -27 c0 -29 -32 -41 -41 -16 -9 24 4 48 23 44 12
-2 18 -12 18 -28z m-2495 -25 c0 -29 -25 -39 -45 -19 -8 9 -15 17 -15 19 0 2
7 10 15 19 20 20 45 10 45 -19z m3878 1 c5 -24 -10 -38 -31 -30 -17 6 -23 35
-10 48 12 12 38 1 41 -18z m-5397 4 c34 -19 18 -70 -23 -70 -15 0 -38 27 -38
44 0 6 30 36 36 36 3 0 14 -5 25 -10z m2726 -11 c14 -14 6 -39 -12 -39 -18 0
-28 17 -21 35 6 18 18 19 33 4z m432 -15 c24 -12 31 -22 29 -38 -2 -13 -9 -19
-18 -17 -8 2 -28 4 -44 5 -32 1 -52 25 -43 50 8 20 35 20 76 0z m-2934 -35
c14 -43 -45 -66 -61 -24 -8 19 13 45 37 45 10 0 21 -10 24 -21z m3645 5 c0 -9
-5 -14 -12 -12 -18 6 -21 28 -4 28 9 0 16 -7 16 -16z m-403 -20 c3 -8 -2 -23
-11 -32 -15 -15 -17 -15 -32 0 -21 21 -11 48 16 48 11 0 23 -7 27 -16z m-3770
-5 c14 -14 6 -39 -12 -39 -18 0 -28 17 -21 35 6 18 18 19 33 4z m2643 -3 c0
-20 -19 -31 -32 -18 -6 6 -7 15 -4 21 10 16 36 13 36 -3z m1078 -47 c3 -28
-16 -43 -43 -33 -15 6 -21 45 -8 58 16 16 48 1 51 -25z m860 12 c21 -13 10
-46 -16 -49 -27 -4 -40 22 -22 43 14 17 20 18 38 6z m-6727 -21 c21 -12 25
-40 7 -58 -18 -18 -46 -14 -58 9 -9 16 -8 25 6 40 20 22 20 22 45 9z m8638 -4
c17 -20 2 -46 -25 -46 -29 0 -41 24 -24 45 16 19 34 19 49 1z m-1259 -22 c0
-8 -9 -14 -20 -14 -22 0 -28 26 -7 33 16 6 27 -1 27 -19z m-2760 -5 c9 -15 8
-24 -1 -35 -18 -21 -57 -18 -64 6 -14 44 44 69 65 29z m-842 -1 c17 -17 15
-75 -3 -82 -27 -10 -45 5 -45 38 0 29 15 56 30 56 3 0 11 -5 18 -12z m4389 -4
c7 -18 -17 -38 -31 -24 -11 11 -1 40 14 40 6 0 13 -7 17 -16z m-2199 -6 c18
-18 15 -46 -6 -57 -39 -21 -73 36 -34 58 22 13 26 13 40 -1z m446 -4 c8 -21
-1 -34 -24 -34 -22 0 -33 23 -17 39 16 16 34 14 41 -5z m-2104 -29 c0 -8 -4
-15 -9 -15 -13 0 -22 16 -14 24 11 11 23 6 23 -9z m-1856 -26 c-8 -14 -34 -11
-34 4 0 8 3 17 7 20 9 9 34 -13 27 -24z m-1070 -13 c9 -13 7 -20 -8 -31 -32
-24 -62 15 -34 43 15 15 28 11 42 -12z m-866 -3 c-2 -10 -10 -18 -18 -18 -8 0
-16 8 -18 18 -2 12 3 17 18 17 15 0 20 -5 18 -17z m5972 -18 c10 -12 10 -18 0
-30 -25 -30 -67 -7 -49 27 12 22 32 23 49 3z m-2779 -5 c24 -13 25 -46 1 -59
-37 -20 -70 27 -40 57 15 15 15 15 39 2z m-193 -37 c3 -19 -1 -21 -43 -21 -38
0 -46 3 -43 16 2 10 11 17 20 17 9 0 20 4 24 8 14 14 39 2 42 -20z m-1548 2
c15 -18 10 -45 -12 -59 -33 -20 -69 20 -54 60 7 18 50 18 66 -1z m4670 -10 c0
-31 -26 -43 -47 -22 -21 21 -9 47 22 47 20 0 25 -5 25 -25z m-3032 -17 c-6
-18 -28 -21 -28 -4 0 9 7 16 16 16 9 0 14 -5 12 -12z m-568 -28 c0 -21 -24
-28 -35 -10 -8 14 3 30 21 30 8 0 14 -9 14 -20z m133 -5 c21 -20 20 -85 0 -85
-16 0 -63 45 -63 60 0 11 29 40 40 40 5 0 15 -7 23 -15z m1897 -1 c0 -9 -7
-14 -17 -12 -25 5 -28 28 -4 28 12 0 21 -6 21 -16z m-1490 -8 c0 -8 3 -21 6
-30 4 -11 1 -16 -10 -16 -9 0 -16 3 -16 8 0 4 -3 17 -6 30 -5 16 -2 22 10 22
9 0 16 -6 16 -14z m-1323 -12 c9 -24 -10 -49 -38 -49 -24 0 -36 23 -25 51 7
19 55 18 63 -2z m5993 5 c0 -20 -21 -49 -36 -49 -24 0 -30 31 -9 46 22 17 45
18 45 3z m-4287 -33 c8 -20 -8 -38 -29 -34 -22 4 -31 37 -13 48 15 10 36 3 42
-14z m1054 -2 c8 -22 -10 -49 -32 -49 -10 0 -22 7 -28 16 -15 24 -1 49 28 49
15 0 28 -7 32 -16z m2953 -7 c0 -8 -3 -17 -7 -20 -9 -9 -34 13 -27 24 8 14 34
11 34 -4z m-5016 -3 c20 -8 21 -38 2 -53 -7 -6 -21 -9 -30 -5 -19 7 -22 50 -3
57 6 3 13 6 14 6 1 1 8 -2 17 -5z m5724 -48 c-2 -15 -10 -21 -28 -21 -31 0
-40 33 -14 52 22 16 46 -1 42 -31z m-5184 25 c3 -5 -1 -14 -8 -20 -16 -13 -32
2 -21 19 8 12 22 13 29 1z m3246 -11 c0 -13 -7 -20 -20 -20 -13 0 -20 7 -20
20 0 13 7 20 20 20 13 0 20 -7 20 -20z m-2464 -5 c4 -8 1 -22 -6 -30 -7 -9
-10 -18 -7 -22 10 -9 -12 -43 -29 -43 -20 0 -29 27 -16 53 5 12 13 30 16 40 7
21 35 23 42 2z m1662 -18 c4 -20 -25 -34 -40 -19 -15 15 -1 44 19 40 10 -2 19
-11 21 -21z m2332 -2 c15 -18 7 -43 -16 -52 -24 -9 -46 24 -33 48 12 23 32 24
49 4z m-4892 -23 c4 -28 -14 -52 -38 -52 -26 0 -43 26 -36 55 6 22 11 26 39
23 25 -2 33 -8 35 -26z m-730 -6 c4 -21 -14 -37 -35 -29 -14 5 -18 35 -6 47
12 12 38 1 41 -18z m5727 -6 c0 -20 -6 -26 -26 -28 -30 -4 -46 22 -28 45 20
23 54 12 54 -17z m-8461 4 c18 -18 18 -17 10 -38 -10 -27 -74 -14 -74 15 0 10
30 39 40 39 5 0 16 -7 24 -16z m5531 -10 c12 -12 13 -19 4 -30 -6 -8 -18 -14
-26 -14 -19 0 -28 27 -13 45 15 19 15 19 35 -1z m-2395 -38 c0 -13 -7 -26 -15
-30 -13 -5 -13 -9 -3 -26 10 -16 10 -22 -4 -36 -9 -9 -24 -14 -32 -11 -19 7
-21 53 -3 60 10 4 10 7 0 18 -17 18 -16 34 3 53 21 21 54 4 54 -28z m694 28
c22 -21 3 -56 -27 -52 -28 4 -35 38 -11 55 22 16 19 16 38 -3z m-824 -35 c0
-5 -7 -9 -15 -9 -15 0 -20 12 -9 23 8 8 24 -1 24 -14z m1724 2 c37 -41 -14
-97 -60 -66 -28 18 -31 46 -8 69 21 21 47 20 68 -3z m1300 3 c30 -30 13 -74
-29 -74 -12 0 -26 5 -33 12 -7 7 -12 21 -12 33 0 42 44 59 74 29z m2711 -38
c0 -37 -21 -51 -57 -37 -52 20 -26 74 32 68 20 -2 25 -7 25 -31z m-5907 -8 c4
-37 -31 -57 -59 -32 -33 30 -15 67 31 62 19 -2 26 -10 28 -30z m892 7 c0 -8
-4 -15 -9 -15 -13 0 -22 16 -14 24 11 11 23 6 23 -9z m4335 -1 c19 -20 16 -43
-7 -58 -38 -23 -78 35 -42 61 23 17 29 16 49 -3z m-8421 -10 c8 -21 -1 -34
-24 -34 -25 0 -35 17 -20 35 16 20 36 19 44 -1z m2231 -9 c0 -22 -31 -33 -47
-17 -17 17 -1 44 24 40 15 -2 23 -10 23 -23z m-1035 -15 c0 -13 -7 -20 -20
-20 -13 0 -20 7 -20 20 0 13 7 20 20 20 13 0 20 -7 20 -20z m5787 4 c3 -8 -2
-23 -11 -32 -15 -15 -17 -15 -32 0 -21 21 -11 48 16 48 11 0 23 -7 27 -16z
m-2579 -21 c3 -22 -28 -40 -48 -28 -12 7 -13 38 -3 49 15 14 48 1 51 -21z
m-1565 3 c8 -20 -20 -43 -35 -28 -14 14 -3 42 16 42 7 0 16 -6 19 -14z m1775
-4 c2 -7 -6 -12 -17 -12 -21 0 -27 11 -14 24 9 9 26 2 31 -12z m1947 -15 c13
-10 16 -21 11 -40 -5 -22 -12 -27 -36 -27 -24 0 -31 5 -36 27 -5 19 -2 30 11
40 11 7 22 13 25 13 3 0 14 -6 25 -13z m-2485 -17 c0 -13 -7 -20 -19 -20 -22
0 -35 15 -26 30 12 19 45 11 45 -10z m-1195 -15 c0 -30 -39 -27 -43 3 -3 20 0
23 20 20 15 -2 23 -10 23 -23z m1305 10 c16 -19 6 -45 -18 -45 -28 0 -43 20
-31 42 12 22 32 23 49 3z m-2070 -10 c0 -8 -7 -15 -15 -15 -8 0 -15 7 -15 15
0 8 7 15 15 15 8 0 15 -7 15 -15z m940 -10 c17 -20 5 -62 -20 -70 -44 -14 -80
41 -48 73 17 17 53 15 68 -3z m4298 -11 c3 -22 -21 -39 -39 -28 -11 6 -12 38
-2 48 13 13 38 1 41 -20z m-4859 -18 c17 -20 2 -48 -23 -44 -24 3 -34 37 -14
49 18 12 24 11 37 -5z m171 -1 c0 -8 -4 -15 -9 -15 -13 0 -22 16 -14 24 11 11
23 6 23 -9z m900 -21 c0 -8 -4 -14 -10 -14 -5 0 -10 -11 -10 -24 0 -26 -20
-39 -45 -30 -25 10 -18 53 9 64 13 5 27 14 31 20 8 13 25 3 25 -16z m-920 -18
c0 -8 -7 -19 -15 -26 -28 -23 -60 21 -33 48 14 14 48 -2 48 -22z m1395 14 c13
-41 -43 -70 -64 -33 -13 25 5 53 34 53 15 0 26 -7 30 -20z m-1255 -25 c26 -32
-13 -81 -47 -59 -35 22 -23 74 17 74 10 0 23 -7 30 -15z m2764 2 c38 -27 -2
-95 -41 -71 -25 16 -29 55 -7 71 10 7 21 13 24 13 3 0 14 -6 24 -13z m2414
-10 c2 -12 -3 -17 -17 -17 -12 0 -21 6 -21 13 0 31 32 34 38 4z m-4508 -22 c0
-21 -19 -28 -36 -15 -10 9 -11 16 -3 26 12 15 39 8 39 -11z m2290 6 c18 -35
-18 -79 -54 -65 -22 8 -31 51 -16 69 18 21 57 19 70 -4z m1085 -11 c0 -18 -6
-26 -23 -28 -27 -4 -40 22 -22 44 19 22 45 13 45 -16z m-6485 5 c14 -17 5 -51
-16 -59 -22 -8 -54 11 -54 32 0 38 46 56 70 27z m4920 -11 c0 -19 -28 -30 -42
-16 -8 8 -8 15 1 26 14 17 41 10 41 -10z m1104 11 c9 -25 -5 -45 -30 -45 -14
0 -27 7 -30 15 -10 25 4 45 30 45 13 0 26 -7 30 -15z m1904 -7 c16 -16 15 -23
-4 -42 -12 -12 -20 -13 -35 -6 -10 6 -19 16 -19 23 0 16 20 37 35 37 6 0 16
-5 23 -12z m1059 -4 c7 -18 -6 -45 -24 -51 -6 -2 -18 3 -27 12 -12 12 -13 21
-6 36 13 23 48 25 57 3z m-5372 -34 c0 -18 -6 -26 -23 -28 -24 -4 -38 18 -28
44 3 9 15 14 28 12 17 -2 23 -10 23 -28z m3313 18 c35 -35 -14 -102 -57 -79
-11 6 -23 20 -26 32 -13 41 52 78 83 47z m-4679 -22 c9 -10 8 -16 -4 -26 -19
-16 -41 1 -32 24 8 20 21 20 36 2z m-1239 -22 c0 -21 -4 -25 -22 -22 -15 2
-24 11 -26 26 -3 18 1 22 22 22 21 0 26 -5 26 -26z m1070 -4 c0 -24 -26 -38
-42 -22 -16 16 -2 42 22 42 13 0 20 -7 20 -20z m-954 -5 c9 -21 -11 -42 -48
-49 -29 -6 -58 6 -58 25 0 31 95 53 106 24z m7334 2 c0 -8 -3 -17 -7 -20 -9
-9 -34 13 -27 24 8 14 34 11 34 -4z m-8212 -43 c4 -26 -26 -40 -45 -21 -8 7
-11 21 -7 31 9 24 48 17 52 -10z m1791 -3 c15 -27 -9 -56 -37 -47 -21 7 -31
44 -15 59 13 13 42 7 52 -12z m4702 -1 c21 -12 25 -40 7 -58 -18 -18 -56 -14
-68 7 -13 25 -13 27 6 45 18 19 28 20 55 6z m-840 -25 c-1 -15 -24 -12 -29 3
-3 9 2 13 12 10 10 -1 17 -7 17 -13z m-1987 -27 c13 -19 14 -25 2 -43 -26 -39
-76 -26 -76 19 0 46 48 62 74 24z m-1404 -18 c0 -11 -6 -20 -14 -20 -18 0 -29
16 -21 30 11 18 35 11 35 -10z m2320 -20 c0 -11 -6 -20 -14 -20 -18 0 -29 16
-21 30 11 18 35 11 35 -10z m-855 -20 c0 -8 -8 -16 -17 -18 -13 -2 -18 3 -18
18 0 15 5 20 18 18 9 -2 17 -10 17 -18z m-3917 -22 c2 -19 -2 -28 -18 -33 -37
-12 -64 27 -38 53 21 21 53 10 56 -20z m4260 3 c6 -40 -39 -56 -58 -20 -9 15
-8 24 1 35 18 22 53 13 57 -15z m-2902 8 c10 -17 -13 -36 -27 -22 -12 12 -4
33 11 33 5 0 12 -5 16 -11z m1490 0 c8 -14 -21 -43 -35 -35 -19 12 -13 46 8
46 11 0 23 -5 27 -11z m5342 -21 c30 -30 -11 -85 -44 -57 -25 21 -11 69 21 69
6 0 16 -5 23 -12z m-8992 -19 c10 -17 -13 -36 -27 -22 -12 12 -4 33 11 33 5 0
12 -5 16 -11z m5008 -11 c16 -26 -5 -53 -42 -54 -17 0 -37 -6 -45 -12 -19 -16
-47 -5 -47 18 0 20 25 44 38 36 5 -3 16 4 26 15 20 24 54 22 70 -3z m-915 -2
c6 -7 9 -20 5 -29 -15 -39 -72 -19 -60 21 8 25 38 29 55 8z m1995 1 c36 -26
-4 -84 -41 -61 -24 15 -27 38 -8 58 20 19 26 20 49 3z m3084 -16 c21 -13 10
-46 -16 -49 -24 -4 -38 18 -28 43 6 17 24 19 44 6z m-3874 -27 c7 -19 -10 -44
-31 -44 -17 0 -27 24 -19 45 7 20 42 19 50 -1z m1604 -12 c3 -16 -2 -22 -17
-22 -26 0 -36 17 -20 36 16 19 33 13 37 -14z m1737 -12 c0 -8 -8 -16 -17 -18
-13 -2 -18 3 -18 18 0 15 5 20 18 18 9 -2 17 -10 17 -18z m-2950 -30 c0 -18
-6 -26 -23 -28 -24 -4 -38 18 -28 44 3 9 15 14 28 12 17 -2 23 -10 23 -28z
m-3137 -8 c3 -16 -2 -22 -17 -22 -24 0 -35 15 -27 36 9 23 40 13 44 -14z m122
7 c0 -5 -7 -9 -15 -9 -15 0 -20 12 -9 23 8 8 24 -1 24 -14z m4614 5 c7 -19 -1
-34 -19 -34 -18 0 -28 17 -21 35 7 20 32 19 40 -1z m-4964 -19 c28 -34 -24
-80 -55 -48 -18 18 -19 35 -3 51 16 16 43 15 58 -3z m4598 -9 c4 -21 -14 -37
-35 -29 -14 5 -18 35 -6 47 12 12 38 1 41 -18z m-5619 -20 c15 -18 4 -46 -19
-46 -28 0 -45 27 -30 45 16 19 34 19 49 1z m286 -26 c0 -18 -6 -26 -21 -28
-23 -3 -37 18 -27 44 10 25 48 13 48 -16z m4849 5 c3 -8 -2 -21 -10 -29 -16
-17 -40 -12 -48 9 -3 8 2 21 10 29 16 17 40 12 48 -9z m2864 2 c2 -12 -3 -17
-17 -17 -12 0 -21 6 -21 13 0 31 32 34 38 4z m-7467 -17 c21 -12 25 -40 7 -58
-18 -18 -46 -14 -58 9 -9 16 -8 25 6 40 20 22 20 22 45 9z m3074 -20 c0 -18
-6 -26 -23 -28 -13 -2 -25 3 -28 12 -10 26 4 48 28 44 17 -2 23 -10 23 -28z
m-2964 10 c15 0 10 -37 -7 -54 -19 -20 -54 -5 -54 22 0 24 21 44 38 37 8 -3
18 -5 23 -5z m2610 -6 c19 -23 -1 -49 -37 -49 -20 0 -30 6 -32 18 -8 40 43 63
69 31z m1227 4 c30 -30 -11 -85 -44 -57 -14 12 -19 51 -7 62 10 11 38 8 51 -5z
m-3478 -23 c17 -20 5 -62 -21 -70 -24 -8 -59 19 -59 45 0 37 55 55 80 25z
m1340 -24 c0 -28 -28 -47 -48 -34 -24 15 -27 44 -7 59 22 17 55 1 55 -25z
m1140 19 c0 -13 -7 -20 -19 -20 -22 0 -35 15 -26 30 12 19 45 11 45 -10z
m-1754 -11 c3 -5 -7 -14 -22 -19 -33 -13 -54 1 -35 24 12 14 47 11 57 -5z
m6432 12 c21 -13 10 -46 -16 -49 -27 -4 -40 22 -22 43 14 17 20 18 38 6z
m-4317 -11 c21 -12 25 -40 7 -58 -18 -18 -46 -14 -58 9 -9 16 -8 25 6 40 20
22 20 22 45 9z m823 -6 c31 -30 8 -69 -36 -62 -30 4 -38 46 -12 65 23 17 29
16 48 -3z m-4256 -42 c4 -28 -24 -40 -45 -19 -21 21 -9 49 19 45 15 -2 24 -11
26 -26z m2665 6 c7 -21 -4 -38 -23 -38 -23 0 -34 16 -26 35 7 18 43 20 49 3z
m5035 -9 c3 -17 -23 -33 -39 -23 -5 3 -9 14 -9 25 0 15 6 20 22 17 13 -2 24
-10 26 -19z m-4128 -30 c0 -24 -27 -36 -48 -22 -23 14 -25 29 -7 47 21 20 55
5 55 -25z m340 16 c0 -19 -20 -29 -32 -17 -15 15 -2 43 17 36 8 -3 15 -12 15
-19z m-1624 -16 c3 -6 0 -17 -7 -25 -18 -17 -44 -2 -36 20 7 18 33 21 43 5z
m4722 -27 c4 -28 -24 -40 -45 -19 -14 13 -14 19 -3 32 18 22 44 15 48 -13z
m-8358 -12 c0 -11 -6 -20 -14 -20 -18 0 -29 16 -21 30 11 18 35 11 35 -10z
m-330 -5 c0 -8 -7 -15 -15 -15 -8 0 -15 7 -15 15 0 8 7 15 15 15 8 0 15 -7 15
-15z m4828 -11 c2 -12 -4 -24 -12 -27 -20 -8 -47 19 -39 39 8 22 47 13 51 -12z
m-1774 10 c21 -8 21 -43 0 -51 -8 -3 -23 1 -31 10 -13 13 -14 19 -3 31 14 18
13 18 34 10z m704 -6 c28 -28 1 -75 -37 -63 -25 8 -34 31 -21 56 12 21 40 25
58 7z m-1668 -23 c0 -19 -20 -29 -32 -17 -15 15 -2 43 17 36 8 -3 15 -12 15
-19z m686 10 c7 -18 -13 -45 -33 -45 -17 0 -27 24 -19 45 7 20 45 19 52 0z
m-1678 -7 c19 -19 14 -56 -8 -63 -41 -13 -69 43 -32 64 22 13 26 13 40 -1z
m7432 -3 c18 -22 8 -50 -19 -50 -32 0 -49 28 -32 49 17 20 35 20 51 1z m-4485
-16 c0 -7 -8 -15 -17 -17 -18 -3 -25 18 -11 32 10 10 28 1 28 -15z m3571 10
c3 -6 0 -17 -7 -25 -18 -17 -44 -2 -36 20 7 18 33 21 43 5z m-3188 -11 c-6
-18 -28 -21 -28 -4 0 9 7 16 16 16 9 0 14 -5 12 -12z m1637 -38 c0 -18 -6 -26
-21 -28 -26 -4 -40 24 -23 45 18 21 44 11 44 -17z m1060 -10 c0 -8 -8 -16 -17
-18 -13 -2 -18 3 -18 18 0 15 5 20 18 18 9 -2 17 -10 17 -18z m-3431 -9 c25
-28 5 -63 -32 -59 -34 4 -44 45 -16 65 23 17 28 17 48 -6z m3004 -4 c4 -20
-25 -34 -40 -19 -15 15 -1 44 19 40 10 -2 19 -11 21 -21z m-1870 -9 c7 -7 12
-22 12 -35 0 -31 -47 -44 -67 -18 -17 24 -16 30 3 49 19 19 36 20 52 4z m3631
-2 c15 -18 3 -46 -20 -46 -22 0 -34 22 -25 45 7 19 30 19 45 1z m1111 -26 c0
-29 -35 -44 -54 -24 -9 8 -16 19 -16 24 0 5 7 16 16 24 19 20 54 5 54 -24z
m-4844 19 c10 -17 -13 -36 -27 -22 -12 12 -4 33 11 33 5 0 12 -5 16 -11z
m-3772 -22 c9 -15 7 -21 -8 -32 -35 -26 -74 13 -44 43 16 16 38 12 52 -11z
m2616 8 c0 -8 -6 -15 -14 -15 -17 0 -28 14 -19 24 12 12 33 6 33 -9z m558 -23
c4 -28 -24 -40 -45 -19 -14 13 -14 19 -3 32 18 22 44 15 48 -13z m-880 -5 c4
-20 -25 -34 -40 -19 -15 15 -1 44 19 40 10 -2 19 -11 21 -21z m-902 2 c10 -17
-13 -36 -27 -22 -12 12 -4 33 11 33 5 0 12 -5 16 -11z m-590 -14 c8 -20 -13
-45 -32 -38 -14 5 -19 34 -7 46 11 12 33 7 39 -8z m3279 -1 c18 -18 16 -33 -7
-47 -35 -22 -66 21 -36 51 16 16 23 15 43 -4z m1723 4 c-6 -18 -28 -21 -28 -4
0 9 7 16 16 16 9 0 14 -5 12 -12z m1022 -3 c0 -8 -4 -15 -9 -15 -13 0 -22 16
-14 24 11 11 23 6 23 -9z m1938 -8 c2 -12 -3 -17 -17 -17 -12 0 -21 6 -21 13
0 31 32 34 38 4z m-8901 -3 c8 -21 -13 -42 -28 -27 -13 13 -5 43 11 43 6 0 13
-7 17 -16z m4801 -7 c4 -20 -25 -34 -40 -19 -15 15 -1 44 19 40 10 -2 19 -11
21 -21z m2640 -20 c-4 -32 -54 -36 -63 -6 -5 16 -2 26 10 35 25 18 57 0 53
-29z m-6013 -27 c-5 -8 -11 -8 -17 -2 -6 6 -7 16 -3 22 5 8 11 8 17 2 6 -6 7
-16 3 -22z m-960 -16 c19 -20 16 -43 -7 -58 -38 -23 -78 35 -42 61 23 17 29
16 49 -3z m5134 -13 c13 -24 -8 -55 -34 -50 -23 5 -40 32 -32 53 9 22 54 20
66 -3z m1114 5 c7 -17 -18 -40 -33 -31 -5 3 -10 15 -10 26 0 23 35 27 43 5z
m87 -6 c25 -25 25 -42 0 -65 -26 -24 -68 -13 -76 21 -4 17 -1 31 11 44 23 25
40 25 65 0z m1754 -5 c3 -8 -2 -21 -10 -29 -16 -17 -40 -12 -48 9 -3 8 2 21
10 29 16 17 40 12 48 -9z m-6389 -20 c0 -27 -4 -30 -44 -37 -75 -13 -99 32
-31 57 55 20 75 15 75 -20z m165 26 c0 -14 -18 -23 -30 -16 -6 4 -8 11 -5 16
8 12 35 12 35 0z m1015 -31 c0 -18 -6 -26 -23 -28 -24 -4 -38 18 -28 44 3 9
15 14 28 12 17 -2 23 -10 23 -28z m883 7 c4 -21 -25 -34 -40 -19 -8 8 -8 16 2
27 16 19 34 15 38 -8z m1272 -18 c0 -5 -7 -9 -15 -9 -15 0 -20 12 -9 23 8 8
24 -1 24 -14z m2916 -10 c3 -6 0 -17 -7 -25 -18 -17 -44 -2 -36 20 7 18 33 21
43 5z m-8632 -17 c9 -14 -12 -35 -28 -29 -23 9 -20 37 3 37 11 0 22 -4 25 -8z
m8026 -21 c7 -15 6 -24 -6 -36 -19 -18 -33 -16 -48 7 -7 12 -6 21 3 32 18 22
38 20 51 -3z m-3712 -20 c-2 -9 -13 -17 -26 -19 -16 -3 -22 2 -22 16 0 11 6
22 13 25 20 7 38 -4 35 -22z m1962 0 c0 -26 -17 -36 -35 -21 -18 15 -8 40 16
40 12 0 19 -7 19 -19z m2328 -9 c3 -16 -2 -22 -17 -22 -24 0 -35 15 -27 36 9
23 40 13 44 -14z m-8338 -2 c6 -11 8 -25 5 -30 -10 -16 -74 -40 -90 -34 -25
10 -17 48 13 66 37 22 59 22 72 -2z m2520 -15 c15 -18 5 -35 -20 -35 -10 0
-22 5 -25 10 -7 11 12 40 25 40 4 0 13 -7 20 -15z m2888 -16 c3 -28 -16 -43
-43 -33 -15 6 -21 45 -8 58 16 16 48 1 51 -25z m-5790 -13 c-4 -25 -36 -34
-44 -12 -8 21 13 46 32 39 8 -3 14 -15 12 -27z m3899 18 c5 -15 7 -15 15 0 13
23 41 20 68 -9 18 -19 20 -27 11 -38 -14 -18 -61 -11 -80 12 -10 12 -15 13
-18 4 -7 -18 -50 -16 -57 2 -9 25 5 45 30 45 14 0 27 -7 31 -16z m-1326 -10
c17 -21 0 -49 -32 -49 -24 0 -36 23 -25 51 7 19 40 18 57 -2z m4324 -19 c0
-22 -31 -33 -47 -17 -17 17 -1 44 24 40 15 -2 23 -10 23 -23z m-312 0 c1 -5
-6 -11 -15 -13 -11 -2 -18 3 -18 13 0 17 30 18 33 0z m1365 -2 c-2 -10 -10
-18 -18 -18 -8 0 -16 8 -18 18 -2 12 3 17 18 17 15 0 20 -5 18 -17z m388 -18
c-5 -14 -9 -15 -21 -5 -12 10 -13 16 -4 27 15 18 34 1 25 -22z m-3240 11 c15
-12 17 -18 8 -33 -14 -23 -43 -23 -57 -1 -8 12 -7 21 2 32 16 20 22 20 47 2z
m-3988 -19 c4 -20 -25 -34 -40 -19 -15 15 -1 44 19 40 10 -2 19 -11 21 -21z
m387 -12 c0 -25 -4 -30 -24 -30 -28 0 -47 25 -38 49 5 12 16 16 34 14 24 -3
28 -8 28 -33z m-1502 3 c7 -21 -4 -38 -23 -38 -23 0 -34 16 -26 35 7 18 43 20
49 3z m244 -4 c8 -21 -13 -42 -28 -27 -13 13 -5 43 11 43 6 0 13 -7 17 -16z
m6318 -29 c0 -30 -39 -27 -43 3 -3 20 0 23 20 20 15 -2 23 -10 23 -23z m-4357
3 c28 -28 1 -75 -37 -63 -25 8 -34 31 -21 56 12 21 40 25 58 7z m6852 -18 c0
-23 -13 -32 -34 -24 -19 7 -21 25 -5 41 16 16 39 5 39 -17z m-5425 -5 c0 -13
-8 -21 -22 -23 -17 -3 -23 2 -23 16 0 10 3 22 7 26 13 13 38 1 38 -19z m1503
13 c28 -28 1 -75 -37 -63 -27 8 -34 35 -15 56 20 22 35 24 52 7z m4002 -3 c0
-8 -6 -15 -14 -15 -17 0 -28 14 -19 24 12 12 33 6 33 -9z m-7282 -19 c4 -21
-14 -37 -35 -29 -14 5 -18 35 -6 47 12 12 38 1 41 -18z m2704 -1 c8 -19 8 -28
-2 -40 -32 -38 -94 1 -70 45 16 29 58 26 72 -5z m1501 18 c4 -3 2 -12 -4 -20
-9 -10 -15 -10 -25 -2 -8 6 -11 15 -8 20 6 11 28 12 37 2z m-1603 -23 c0 -13
-7 -20 -20 -20 -19 0 -27 20 -13 33 13 14 33 6 33 -13z m2500 -5 c17 -21 -2
-65 -28 -65 -22 0 -42 19 -42 40 0 37 47 53 70 25z m949 1 c17 -20 2 -46 -25
-46 -26 0 -40 20 -30 45 7 19 40 20 55 1z m-2948 -3 c5 -46 2 -77 -8 -80 -7
-3 -13 3 -13 13 0 9 -7 22 -17 29 -21 16 -10 45 17 45 11 0 20 -3 21 -7z
m1359 -42 c0 -28 -28 -47 -48 -34 -24 15 -27 44 -7 59 22 17 55 1 55 -25z
m-4944 -6 c11 -28 -17 -76 -47 -82 -16 -3 -34 -12 -40 -19 -17 -21 -47 -17
-59 7 -9 16 -8 25 6 40 10 11 24 17 32 14 7 -3 25 8 39 25 27 32 60 39 69 15z
m3689 -15 c0 -18 -6 -26 -23 -28 -13 -2 -25 3 -28 12 -10 26 4 48 28 44 17 -2
23 -10 23 -28z m245 5 c20 -25 8 -50 -25 -50 -21 0 -31 5 -33 18 -4 21 14 47
33 47 7 0 18 -7 25 -15z m174 -1 c19 -18 19 -20 6 -45 -18 -33 -70 -18 -70 21
0 19 19 40 36 40 7 0 20 -7 28 -16z m-4506 -37 c2 -12 -3 -17 -17 -17 -12 0
-21 6 -21 13 0 31 32 34 38 4z m5133 7 c19 -23 -1 -49 -37 -49 -30 0 -42 20
-30 51 7 19 50 18 67 -2z m-3187 -27 c8 -12 7 -21 -5 -32 -21 -21 -49 -9 -49
20 0 36 34 44 54 12z m1974 17 c28 -8 28 -28 1 -55 -20 -20 -22 -20 -40 -3
-27 25 -24 64 5 64 6 0 21 -3 34 -6z m1932 -59 c0 -15 -7 -26 -20 -30 -41 -13
-70 43 -33 64 25 13 53 -5 53 -34z m-2752 11 c4 -21 -14 -37 -35 -29 -14 5
-18 35 -6 47 12 12 38 1 41 -18z m3879 8 c4 -11 -1 -22 -12 -31 -16 -11 -21
-11 -33 1 -8 8 -12 22 -9 30 8 21 46 21 54 0z m-2499 -6 c22 -22 14 -67 -13
-80 -46 -21 -86 40 -49 76 18 19 45 21 62 4z m-5270 -31 c4 -22 -27 -35 -38
-16 -10 15 7 42 24 36 6 -2 12 -11 14 -20z m4262 1 c0 -16 -6 -19 -37 -16 -26
2 -39 8 -41 20 -3 14 5 17 37 16 34 0 41 -4 41 -20z m-2715 -38 c0 -18 -6 -26
-23 -28 -24 -4 -38 18 -28 44 3 9 15 14 28 12 17 -2 23 -10 23 -28z m4975 4
c11 -12 11 -18 -2 -31 -19 -18 -38 -10 -38 16 0 33 20 40 40 15z m860 1 c17
-20 5 -45 -20 -45 -23 0 -35 22 -26 45 7 19 30 19 46 0z m-252 -7 c-7 -19 -38
-22 -38 -4 0 10 9 16 21 16 12 0 19 -5 17 -12z m-5965 -13 c1 -5 -6 -11 -15
-13 -11 -2 -18 3 -18 13 0 17 30 18 33 0z m-1953 -11 c11 -12 10 -18 -3 -31
-8 -9 -23 -13 -31 -10 -19 8 -21 43 -3 50 20 9 24 8 37 -9z m3157 0 c8 -22
-10 -49 -32 -49 -10 0 -22 7 -28 16 -15 24 -1 49 28 49 15 0 28 -7 32 -16z
m110 0 c9 -23 -13 -40 -32 -24 -12 10 -13 16 -4 26 15 18 28 18 36 -2z m-437
-9 c0 -8 -7 -15 -15 -15 -8 0 -15 7 -15 15 0 8 7 15 15 15 8 0 15 -7 15 -15z
m5160 0 c0 -8 -7 -15 -15 -15 -8 0 -15 7 -15 15 0 8 7 15 15 15 8 0 15 -7 15
-15z m-5026 -27 c23 -38 -35 -78 -61 -42 -17 23 -16 29 3 49 20 19 43 16 58
-7z m731 2 c9 -27 -1 -40 -30 -40 -29 0 -39 13 -30 40 4 13 15 20 30 20 15 0
26 -7 30 -20z m1725 5 c0 -8 -7 -15 -15 -15 -8 0 -15 7 -15 15 0 8 7 15 15 15
8 0 15 -7 15 -15z m-4930 -34 c0 -28 -28 -47 -48 -34 -24 15 -27 44 -7 59 22
17 55 1 55 -25z m3658 22 c5 -17 -26 -29 -40 -15 -6 6 -7 15 -3 22 9 14 37 9
43 -7z m996 1 c7 -19 -10 -44 -29 -44 -19 0 -36 25 -29 44 3 9 16 16 29 16 13
0 26 -7 29 -16z m2424 -12 c3 -16 -2 -22 -16 -22 -24 0 -35 23 -19 39 16 16
31 8 35 -17z m1850 5 c2 -10 -3 -17 -12 -17 -18 0 -29 16 -21 31 9 14 29 6 33
-14z m-7810 -15 c3 -16 -2 -22 -16 -22 -24 0 -35 23 -19 39 16 16 31 8 35 -17z
m565 21 c9 -9 -13 -34 -24 -27 -14 8 -11 34 4 34 8 0 17 -3 20 -7z m-1490 -27
c8 -20 -20 -43 -35 -28 -14 14 -3 42 16 42 7 0 16 -6 19 -14z m5565 -4 c2 -7
-3 -12 -12 -12 -9 0 -16 7 -16 16 0 17 22 14 28 -4z m986 -5 c16 -25 -16 -56
-38 -37 -19 15 -21 46 -3 53 18 8 29 3 41 -16z m2634 -4 c5 -18 -28 -29 -38
-12 -5 7 -6 17 -3 22 7 12 35 5 41 -10z m-1896 -18 c9 -21 8 -28 -7 -45 -10
-11 -26 -20 -35 -20 -9 0 -25 9 -35 20 -15 17 -16 24 -7 45 16 35 68 35 84 0z
m-4308 2 c28 -21 12 -59 -22 -55 -30 3 -41 30 -22 53 15 18 21 19 44 2z m1119
-11 c7 -19 -18 -40 -38 -32 -15 6 -20 28 -8 39 12 12 41 7 46 -7z m3051 -8
c23 -38 -35 -78 -61 -42 -17 23 -16 29 3 49 20 19 43 16 58 -7z m-5896 -16 c4
-27 -22 -40 -43 -22 -12 10 -15 9 -15 -3 0 -19 -29 -37 -58 -37 -26 0 -45 25
-37 49 7 23 30 30 68 20 21 -6 30 -4 34 7 9 23 47 13 51 -14z m1900 16 c18
-18 14 -46 -7 -58 -15 -7 -23 -6 -35 6 -20 19 -20 29 0 48 19 19 26 20 42 4z
m-2300 -10 c-6 -18 -28 -21 -28 -4 0 9 7 16 16 16 9 0 14 -5 12 -12z m5278
-27 c-10 -16 -36 -13 -43 5 -8 22 18 37 36 20 7 -8 10 -19 7 -25z m-6072 20
c10 -16 -5 -41 -24 -41 -23 0 -34 16 -26 35 6 16 42 20 50 6z m686 -6 c26 -32
-13 -81 -47 -59 -35 22 -23 74 17 74 10 0 23 -7 30 -15z m-969 -11 c17 -21 0
-49 -31 -49 -31 0 -48 28 -31 49 8 9 21 16 31 16 10 0 23 -7 31 -16z m2377 4
c19 -19 14 -56 -8 -63 -24 -8 -50 10 -50 34 0 19 19 41 35 41 6 0 16 -5 23
-12z m4195 -10 c7 -21 -4 -38 -23 -38 -23 0 -34 16 -26 35 7 18 43 20 49 3z
m-3720 -20 c8 -12 7 -21 -2 -32 -19 -23 -58 -20 -66 4 -14 43 44 67 68 28z
m-1773 -8 c21 -38 -15 -56 -38 -20 -7 12 -10 25 -7 30 10 17 34 11 45 -10z
m3310 5 c14 -16 5 -51 -14 -58 -15 -6 -56 19 -56 33 0 13 30 40 44 40 8 0 19
-7 26 -15z m-212 -12 c-4 -22 -22 -20 -26 1 -2 10 3 16 13 16 10 0 15 -7 13
-17z m1380 5 c-6 -18 -28 -21 -28 -4 0 9 7 16 16 16 9 0 14 -5 12 -12z m1486
6 c33 -13 4 -79 -31 -72 -24 5 -28 35 -7 59 20 22 17 21 38 13z m-4899 -34
c-5 -8 -11 -8 -17 -2 -6 6 -7 16 -3 22 5 8 11 8 17 2 6 -6 7 -16 3 -22z m6643
18 c18 -18 14 -46 -9 -58 -26 -14 -49 3 -49 35 0 32 35 46 58 23z m268 -3 c7
-18 -13 -45 -33 -45 -17 0 -27 24 -19 45 7 20 45 19 52 0z m-4198 -19 c2 -11
13 -27 25 -36 22 -18 18 -46 -8 -56 -20 -8 -47 14 -43 35 2 9 -5 23 -16 32
-12 10 -17 22 -13 33 9 23 51 17 55 -8z m1802 4 c0 -13 -7 -20 -20 -20 -13 0
-20 7 -20 20 0 13 7 20 20 20 13 0 20 -7 20 -20z m187 4 c8 -21 -13 -42 -28
-27 -13 13 -5 43 11 43 6 0 13 -7 17 -16z m2570 -10 c3 -8 -2 -23 -11 -32 -15
-15 -17 -15 -32 0 -21 21 -11 48 16 48 11 0 23 -7 27 -16z m-9802 -29 c0 -27
-3 -30 -30 -30 -21 0 -31 5 -33 18 -6 33 6 49 35 45 24 -3 28 -8 28 -33z
m8133 12 c2 -12 -3 -17 -17 -17 -15 0 -21 6 -21 21 0 25 33 22 38 -4z m-6898
-2 c20 -24 3 -57 -28 -53 -27 3 -39 26 -28 54 7 18 40 18 56 -1z m848 -13 c3
-17 -2 -22 -18 -22 -25 0 -38 29 -19 41 20 13 34 6 37 -19z m3658 13 c7 -18
-13 -45 -33 -45 -17 0 -27 24 -19 45 7 20 45 19 52 0z m382 3 c30 -30 -11 -85
-44 -57 -25 21 -11 69 21 69 6 0 16 -5 23 -12z m-4200 -29 c3 -28 -16 -43 -43
-33 -15 6 -21 45 -8 58 16 16 48 1 51 -25z m5590 -13 c4 -21 -14 -37 -35 -29
-14 5 -18 35 -6 47 12 12 38 1 41 -18z m-3181 -2 c8 -22 -10 -49 -32 -49 -10
0 -22 7 -28 16 -15 24 -1 49 28 49 15 0 28 -7 32 -16z m3503 -16 c0 -15 -32
-21 -40 -7 -13 20 9 43 26 28 8 -6 14 -16 14 -21z m-5262 -24 c4 -27 -21 -47
-48 -39 -20 6 -28 44 -13 59 15 15 58 1 61 -20z m7156 20 c21 -8 21 -48 0 -65
-31 -26 -70 25 -44 56 14 17 21 18 44 9z m-5969 -34 c0 -18 -6 -26 -23 -28
-13 -2 -25 3 -28 12 -10 26 4 48 28 44 17 -2 23 -10 23 -28z m910 10 c14 -43
-44 -67 -68 -28 -8 12 -7 21 2 32 19 23 58 20 66 -4z m250 -10 c0 -8 -10 -16
-22 -18 -18 -3 -23 2 -23 18 0 16 5 21 23 18 12 -2 22 -10 22 -18z m2715 -1
c14 -26 -4 -51 -34 -47 -24 4 -33 33 -16 53 17 21 37 19 50 -6z m-3607 -4 c1
-5 -6 -11 -15 -13 -11 -2 -18 3 -18 13 0 17 30 18 33 0z m-4068 -40 c0 -27 -3
-30 -30 -30 -21 0 -31 5 -33 18 -6 33 6 49 35 45 24 -3 28 -8 28 -33z m835 20
c16 -19 6 -45 -19 -45 -23 0 -35 28 -20 46 15 18 24 18 39 -1z m5289 -49 c23
-28 -17 -68 -45 -45 -15 12 -19 41 -7 52 11 12 40 8 52 -7z m-4491 -8 c18 -18
15 -36 -7 -48 -28 -14 -55 13 -41 41 12 22 30 25 48 7z m4926 -4 c20 -19 20
-29 0 -48 -12 -12 -20 -13 -35 -6 -21 12 -25 40 -7 58 16 16 23 15 42 -4z
m1727 1 c-1 -15 -24 -12 -29 3 -3 9 2 13 12 10 10 -1 17 -7 17 -13z m1339 -11
c0 -16 -16 -19 -25 -4 -8 13 4 32 16 25 5 -4 9 -13 9 -21z m-3350 1 c0 -8 -7
-15 -15 -15 -8 0 -15 7 -15 15 0 8 7 15 15 15 8 0 15 -7 15 -15z m194 6 c8
-12 -31 -44 -44 -36 -8 5 -6 13 6 26 19 21 30 24 38 10z m-454 -37 c0 -8 -7
-14 -15 -14 -15 0 -21 21 -9 33 10 9 24 -2 24 -19z m216 15 c10 -17 -13 -36
-27 -22 -12 12 -4 33 11 33 5 0 12 -5 16 -11z m625 -9 c28 -16 25 -58 -5 -66
-14 -3 -30 -3 -35 1 -15 8 -14 48 1 63 15 15 15 15 39 2z m-5406 -20 c8 -25
-1 -40 -24 -40 -28 0 -46 26 -31 45 18 21 48 19 55 -5z m2233 -13 c4 -20 -25
-34 -40 -19 -15 15 -1 44 19 40 10 -2 19 -11 21 -21z m3492 -22 c20 -25 8 -50
-25 -50 -31 0 -43 20 -31 51 7 18 40 18 56 -1z m-6510 -10 c0 -8 -7 -15 -15
-15 -16 0 -20 12 -8 23 11 12 23 8 23 -8z m6915 -1 c19 -20 16 -43 -7 -58 -21
-13 -51 2 -56 26 -3 16 23 48 38 48 5 0 16 -7 25 -16z m-3178 -10 c8 -22 -10
-49 -32 -49 -10 0 -22 7 -28 16 -15 24 -1 49 28 49 15 0 28 -7 32 -16z m2017
0 c19 -19 4 -57 -21 -52 -26 5 -39 34 -24 52 17 20 26 20 45 0z m-3546 -21
c-2 -10 -10 -18 -18 -18 -8 0 -16 8 -18 18 -2 12 3 17 18 17 15 0 20 -5 18
-17z m-141 -9 c9 -24 -10 -49 -38 -49 -24 0 -36 23 -25 51 7 19 55 18 63 -2z
m1938 -5 c10 -15 -1 -23 -20 -15 -9 3 -13 10 -10 16 8 13 22 13 30 -1z m4463
-11 c-2 -13 -10 -23 -18 -23 -8 0 -16 10 -18 23 -3 17 2 22 18 22 16 0 21 -5
18 -22z m-7491 -4 c8 -21 -13 -42 -28 -27 -13 13 -5 43 11 43 6 0 13 -7 17
-16z m1457 0 c19 -18 19 -20 6 -45 -18 -33 -70 -18 -70 21 0 19 19 40 36 40 7
0 20 -7 28 -16z m-2986 -11 c-5 -26 -38 -29 -38 -4 0 15 6 21 21 21 14 0 19
-5 17 -17z m3993 1 c9 -11 10 -20 2 -32 -15 -24 -44 -27 -59 -7 -28 38 27 75
57 39z m-1521 -9 c0 -8 -4 -15 -9 -15 -13 0 -22 16 -14 24 11 11 23 6 23 -9z
m230 -1 c0 -9 -5 -14 -12 -12 -18 6 -21 28 -4 28 9 0 16 -7 16 -16z m4574 -6
c13 -19 14 -25 2 -43 -26 -39 -76 -26 -76 19 0 46 48 62 74 24z m-5639 -38 c0
-16 -6 -26 -18 -28 -19 -4 -32 20 -23 44 9 25 41 13 41 -16z m3230 -25 c0 -27
-3 -30 -30 -30 -21 0 -31 5 -33 18 -6 33 6 49 35 45 24 -3 28 -8 28 -33z
m-4857 2 c2 -11 -3 -17 -16 -17 -24 0 -32 8 -25 26 7 20 37 13 41 -9z m730 6
c-5 -26 -38 -29 -38 -4 0 15 6 21 21 21 14 0 19 -5 17 -17z m7902 -19 c0 -19
-28 -30 -42 -16 -8 8 -8 15 1 26 14 17 41 10 41 -10z m-3673 4 c56 -25 52 -58
-8 -58 -47 0 -69 28 -43 54 19 19 16 19 51 4z m539 1 c3 -6 -1 -18 -9 -27 -13
-12 -19 -13 -31 -3 -8 7 -12 19 -9 27 6 17 39 19 49 3z m-5358 -35 c5 -32 -19
-46 -64 -36 -71 15 -41 64 36 59 17 -1 26 -9 28 -23z m2467 -4 c18 -15 20 -51
3 -68 -16 -16 -53 -15 -67 2 -6 8 -32 17 -56 21 -51 7 -61 32 -22 51 28 14
122 10 142 -6z m4575 -18 c0 -41 -51 -57 -70 -22 -15 28 22 65 50 50 11 -6 20
-19 20 -28z m-2910 -7 c10 -12 10 -18 0 -30 -25 -30 -61 -7 -46 30 3 8 12 15
19 15 8 0 20 -7 27 -15z m566 4 c3 -6 -1 -18 -9 -27 -13 -12 -19 -13 -31 -3
-8 7 -12 19 -9 27 6 17 39 19 49 3z m1402 -17 c3 -16 -2 -22 -17 -22 -24 0
-35 15 -27 36 9 23 40 13 44 -14z m-4458 3 c0 -8 -4 -15 -9 -15 -13 0 -22 16
-14 24 11 11 23 6 23 -9z m5267 -1 c3 -8 1 -20 -5 -26 -15 -15 -43 8 -35 28 7
19 32 18 40 -2z m-427 -18 c0 -8 -4 -17 -9 -21 -12 -7 -24 12 -16 25 9 15 25
12 25 -4z m-1592 -19 c2 -10 -3 -17 -12 -17 -18 0 -29 16 -21 31 9 14 29 6 33
-14z m-2164 -3 c9 -8 16 -22 16 -29 0 -16 -27 -45 -42 -45 -15 0 -48 30 -48
43 0 15 31 47 46 47 7 0 20 -7 28 -16z m3456 1 c0 -8 -6 -15 -14 -15 -17 0
-28 14 -19 24 12 12 33 6 33 -9z m108 3 c18 -18 15 -46 -6 -57 -39 -21 -73 36
-34 58 22 13 26 13 40 -1z m-2838 -13 c17 -20 5 -45 -20 -45 -11 0 -23 7 -26
15 -6 15 11 45 26 45 4 0 13 -7 20 -15z m-1195 -20 c0 -28 -29 -25 -33 3 -3
19 0 23 15 20 10 -2 18 -12 18 -23z m4519 3 c16 -26 -4 -53 -40 -53 -23 0 -30
5 -32 23 -2 13 -1 30 2 38 8 20 56 14 70 -8z m-6877 -24 c8 -21 -13 -42 -28
-27 -13 13 -5 43 11 43 6 0 13 -7 17 -16z m4060 -10 c3 -8 1 -20 -6 -27 -14
-14 -47 15 -37 32 10 16 36 13 43 -5z m2578 -19 c0 -27 -3 -30 -30 -30 -21 0
-31 5 -33 18 -6 33 6 49 35 45 24 -3 28 -8 28 -33z m-310 -20 c0 -22 -31 -33
-47 -17 -17 17 -1 44 24 40 15 -2 23 -10 23 -23z m-365 -10 c17 -20 5 -45 -20
-45 -23 0 -35 22 -26 45 7 19 30 19 46 0z m-3120 -30 c10 -12 10 -18 0 -30 -7
-8 -18 -15 -25 -15 -7 0 -18 7 -25 15 -10 12 -10 18 0 30 7 8 18 15 25 15 7 0
18 -7 25 -15z m2054 -8 c9 -15 7 -21 -9 -33 -22 -16 -34 -14 -49 8 -7 12 -6
21 4 33 16 19 39 16 54 -8z m-4344 -10 c0 -8 -3 -17 -7 -20 -9 -9 -34 13 -27
24 8 14 34 11 34 -4z m5620 -8 c0 -5 -7 -9 -15 -9 -15 0 -20 12 -9 23 8 8 24
-1 24 -14z m-6330 -18 c14 -28 -13 -55 -41 -41 -22 12 -25 30 -7 48 18 18 36
15 48 -7z m9318 -19 c3 -16 -2 -22 -17 -22 -24 0 -35 15 -27 36 9 23 40 13 44
-14z m-5993 -18 c19 -20 16 -43 -7 -58 -21 -13 -51 2 -56 26 -3 16 23 48 38
48 5 0 16 -7 25 -16z m-1407 -20 c4 -29 -23 -51 -43 -34 -16 13 -20 42 -8 54
14 14 48 1 51 -20z m5590 -5 c6 -49 -58 -65 -73 -18 -9 27 13 51 44 47 20 -2
27 -9 29 -29z m-5360 -8 c5 -32 -23 -54 -49 -40 -19 10 -26 49 -12 63 4 4 19
6 33 4 18 -2 26 -10 28 -27z m690 3 c4 -25 -20 -47 -42 -38 -16 6 -22 45 -9
58 14 14 48 1 51 -20z m-588 -19 c4 -24 10 -30 30 -30 18 0 25 -6 25 -20 0
-12 -7 -20 -16 -20 -9 0 -24 -8 -33 -18 -22 -22 -39 -22 -58 1 -17 20 -21 91
-5 110 19 23 51 10 57 -23z m3058 11 c5 -25 -12 -39 -37 -31 -20 6 -28 34 -14
49 13 13 48 1 51 -18z m-1150 -19 c2 -12 -3 -17 -17 -17 -12 0 -21 6 -21 13 0
31 32 34 38 4z m-915 -1 c7 -19 -18 -40 -38 -32 -15 6 -20 28 -8 39 12 12 41
7 46 -7z m2884 -2 c3 -8 -2 -23 -11 -32 -15 -15 -17 -15 -32 0 -21 21 -11 48
16 48 11 0 23 -7 27 -16z m451 -52 c-2 -21 -9 -28 -30 -30 -39 -5 -56 30 -28
58 28 28 63 11 58 -28z m-644 12 c20 -19 5 -54 -24 -54 -29 0 -44 35 -24 54 8
9 19 16 24 16 5 0 16 -7 24 -16z m2990 1 c7 -19 -20 -46 -39 -39 -15 6 -20 35
-8 47 12 12 41 7 47 -8z m-3377 -11 c8 -21 -13 -42 -28 -27 -13 13 -5 43 11
43 6 0 13 -7 17 -16z m1268 -19 c0 -25 -4 -30 -24 -30 -32 0 -49 28 -31 50 7
9 23 15 34 13 16 -2 21 -10 21 -33z m943 -3 c3 -16 -2 -22 -17 -22 -26 0 -36
17 -20 36 16 19 33 13 37 -14z m2110 -5 c2 -12 -3 -17 -17 -17 -12 0 -21 6
-21 13 0 31 32 34 38 4z m-7153 -15 c0 -18 -20 -15 -23 4 -3 10 1 15 10 12 7
-3 13 -10 13 -16z m5719 2 c27 -27 12 -64 -26 -64 -15 0 -38 27 -38 44 0 8 31
36 40 36 5 0 16 -7 24 -16z m-920 -26 c15 -24 -13 -53 -43 -43 -21 6 -29 43
-14 59 12 12 45 2 57 -16z m-5094 -3 c0 -8 -6 -15 -14 -15 -17 0 -28 14 -19
24 12 12 33 6 33 -9z m7328 -3 c2 -7 -3 -12 -12 -12 -9 0 -16 7 -16 16 0 17
22 14 28 -4z m-2940 -34 c4 -33 -31 -49 -55 -25 -24 24 -8 59 25 55 21 -2 28
-9 30 -30z m-1924 -13 c2 -7 -2 -19 -10 -26 -12 -10 -18 -9 -31 4 -13 13 -14
19 -4 31 14 16 37 12 45 -9z m-2617 -1 c3 -8 -1 -22 -9 -30 -12 -12 -17 -12
-33 -1 -23 17 -14 47 15 47 11 0 23 -7 27 -16z m5419 -15 c10 -17 -13 -36 -27
-22 -12 12 -4 33 11 33 5 0 12 -5 16 -11z m-7618 -46 c5 -17 -26 -29 -40 -15
-6 6 -7 15 -3 22 9 14 37 9 43 -7z m1287 -11 c8 -20 -19 -47 -39 -39 -26 10
-32 38 -12 53 21 15 42 9 51 -14z m3556 12 c17 -21 0 -49 -31 -49 -31 0 -48
28 -31 49 8 9 21 16 31 16 10 0 23 -7 31 -16z m291 -9 c10 -22 9 -29 -10 -47
-18 -19 -25 -20 -47 -10 -16 8 -25 20 -25 35 0 50 62 66 82 22z m2698 10 c0
-8 -7 -15 -15 -15 -8 0 -15 7 -15 15 0 8 7 15 15 15 8 0 15 -7 15 -15z m-7522
-18 c4 -20 -25 -34 -40 -19 -15 15 -1 44 19 40 10 -2 19 -11 21 -21z m2186 17
c21 -8 21 -43 0 -51 -8 -3 -23 1 -31 10 -13 13 -14 19 -3 31 14 18 13 18 34
10z m1966 -39 c18 -21 5 -47 -22 -43 -26 3 -37 36 -16 49 18 12 24 11 38 -6z
m3573 -22 c9 -9 -13 -34 -24 -27 -14 8 -11 34 4 34 8 0 17 -3 20 -7z m1522
-28 c0 -24 -5 -31 -24 -33 -32 -5 -54 23 -40 50 7 13 19 18 37 16 23 -2 27 -8
27 -33z m-7225 -10 c0 -23 -22 -64 -38 -70 -25 -9 -44 15 -37 49 9 40 32 59
56 45 11 -5 19 -16 19 -24z m6927 19 c3 -8 -2 -23 -11 -32 -15 -15 -17 -15
-32 0 -21 21 -11 48 16 48 11 0 23 -7 27 -16z m-9057 -9 c0 -8 -7 -15 -15 -15
-8 0 -15 7 -15 15 0 8 7 15 15 15 8 0 15 -7 15 -15z m491 -5 c21 -12 25 -40 7
-58 -34 -34 -79 7 -52 46 17 25 19 26 45 12z m3839 -25 c0 -20 -5 -25 -25 -25
-18 0 -25 5 -25 18 0 10 3 22 7 25 3 4 15 7 25 7 13 0 18 -7 18 -25z m4805 -5
c0 -18 -6 -26 -23 -28 -13 -2 -25 3 -28 12 -10 26 4 48 28 44 17 -2 23 -10 23
-28z m-3272 -4 c8 -20 -20 -43 -35 -28 -14 14 -3 42 16 42 7 0 16 -6 19 -14z
m-295 -8 c32 -32 -4 -87 -48 -73 -25 8 -37 50 -20 70 15 18 51 20 68 3z m3002
-31 c-1 -39 -43 -48 -64 -14 -9 15 -7 21 8 32 21 16 56 4 56 -18z m-7665 3 c0
-8 -10 -16 -22 -18 -18 -3 -23 2 -23 18 0 16 5 21 23 18 12 -2 22 -10 22 -18z
m3029 11 c3 -5 15 -7 26 -4 16 4 20 0 20 -17 0 -17 -5 -21 -19 -17 -10 2 -25
1 -33 -4 -19 -11 -43 14 -34 36 6 16 32 20 40 6z m4475 -9 c20 -38 -31 -71
-59 -37 -6 8 -9 23 -5 35 8 25 51 27 64 2z m909 -6 c5 -24 -10 -38 -31 -30
-17 6 -23 35 -10 48 12 12 38 1 41 -18z m178 -4 c6 -4 13 -15 17 -25 4 -9 10
-17 14 -16 29 5 50 -21 36 -44 -5 -7 -8 -21 -8 -31 0 -35 -24 -28 -42 13 -9
22 -25 42 -35 44 -24 7 -33 34 -18 52 14 17 20 18 36 7z m-8928 -45 c2 -12 -3
-17 -17 -17 -15 0 -21 6 -21 21 0 25 33 22 38 -4z m6838 2 c3 -6 0 -17 -7 -25
-18 -17 -44 -2 -36 20 7 18 33 21 43 5z m-1219 -25 c8 -22 -18 -37 -36 -20 -7
8 -10 19 -7 25 10 16 36 13 43 -5z m-1207 -9 c13 -16 6 -35 -15 -35 -18 0 -28
17 -21 35 7 19 20 19 36 0z m4007 -1 c8 -21 -19 -46 -40 -38 -17 6 -23 35 -10
47 12 13 44 7 50 -9z m138 -24 c0 -18 -6 -26 -23 -28 -13 -2 -25 3 -28 12 -10
26 4 48 28 44 17 -2 23 -10 23 -28z m-8390 -10 c0 -18 -6 -26 -23 -28 -27 -4
-40 22 -22 44 19 22 45 13 45 -16z m5545 0 c0 -21 -24 -28 -35 -10 -8 14 3 30
21 30 8 0 14 -9 14 -20z m2396 9 c8 -14 -21 -43 -35 -35 -6 4 -11 16 -11 27 0
21 34 27 46 8z m-8453 -20 c15 -24 1 -49 -27 -49 -29 0 -44 33 -25 56 15 18
38 15 52 -7z m72 -9 c-5 -8 -11 -8 -17 -2 -6 6 -7 16 -3 22 5 8 11 8 17 2 6
-6 7 -16 3 -22z m1845 -16 c0 -19 -5 -24 -24 -24 -29 0 -40 24 -20 44 20 20
44 9 44 -20z m554 4 c21 -30 4 -60 -32 -56 -30 3 -42 39 -22 64 17 20 36 17
54 -8z m6530 5 c4 -4 14 -8 23 -8 22 0 41 -31 27 -45 -15 -15 -84 -2 -91 16
-12 31 19 58 41 37z m214 -19 c4 -26 -26 -40 -45 -21 -8 7 -11 21 -7 31 9 24
48 17 52 -10z m-9360 -20 c4 -29 -28 -41 -45 -18 -10 13 -10 21 -1 31 16 19
42 12 46 -13z m4842 11 c10 -12 10 -18 0 -30 -16 -19 -39 -19 -46 0 -6 15 11
45 26 45 4 0 13 -7 20 -15z m-830 -18 c0 -19 -10 -27 -26 -20 -21 8 -17 33 6
33 11 0 20 -6 20 -13z m4068 -30 c4 -21 -27 -35 -38 -17 -12 19 0 42 19 38 9
-2 17 -11 19 -21z m317 -7 c0 -18 -6 -26 -23 -28 -13 -2 -25 3 -28 12 -10 26
4 48 28 44 17 -2 23 -10 23 -28z m-7567 -2 c15 -15 16 -55 1 -63 -21 -14 -59
5 -59 28 0 24 17 47 35 47 6 0 16 -5 23 -12z m1336 -10 c8 -14 7 -21 -6 -34
-30 -30 -75 9 -48 42 16 18 39 15 54 -8z m-554 -2 c0 -8 -4 -17 -9 -21 -12 -7
-24 12 -16 25 9 15 25 12 25 -4z m1688 -9 c2 -12 -3 -17 -17 -17 -12 0 -21 6
-21 13 0 31 32 34 38 4z m552 8 c19 -23 8 -50 -20 -50 -16 0 -26 6 -28 18 -4
18 14 47 28 47 4 0 13 -7 20 -15z m2153 -6 c14 -23 1 -67 -23 -74 -46 -15 -82
49 -48 83 17 17 58 11 71 -9z m1587 1 c0 -21 -24 -28 -35 -10 -8 14 3 30 21
30 8 0 14 -9 14 -20z m1888 -46 c-4 -25 -36 -30 -45 -8 -4 11 1 22 12 30 22
16 39 5 33 -22z m-7540 -2 c2 -7 -3 -12 -12 -12 -9 0 -16 7 -16 16 0 17 22 14
28 -4z m806 -7 c2 -7 -2 -21 -9 -32 -11 -14 -18 -16 -31 -7 -25 15 -27 29 -9
47 17 17 40 13 49 -8z m2255 -9 c5 -27 -26 -48 -50 -35 -19 10 -25 39 -12 53
14 14 58 1 62 -18z m-4671 -38 c-4 -26 -30 -43 -52 -35 -21 8 -21 53 1 66 25
13 55 -5 51 -31z m-368 2 c0 -11 -6 -20 -14 -20 -18 0 -29 16 -21 30 11 18 35
11 35 -10z m588 -3 c4 -20 -25 -34 -40 -19 -15 15 -1 44 19 40 10 -2 19 -11
21 -21z m2646 -21 c9 -13 7 -20 -8 -31 -23 -17 -46 -4 -46 25 0 32 36 36 54 6z
m1914 -2 c4 -27 -23 -38 -43 -18 -12 13 -13 19 -4 30 17 20 43 13 47 -12z
m236 7 c10 -16 -5 -41 -24 -41 -19 0 -34 25 -24 41 3 5 14 9 24 9 10 0 21 -4
24 -9z m1176 -27 c0 -13 -3 -24 -7 -25 -5 0 -24 -2 -44 -5 -28 -3 -38 0 -43
13 -8 20 3 32 34 38 12 2 25 6 27 9 12 11 33 -8 33 -30z m-5145 1 c0 -22 -31
-33 -47 -17 -17 17 -1 44 24 40 15 -2 23 -10 23 -23z m-998 -1 c8 -21 -13 -42
-28 -27 -13 13 -5 43 11 43 6 0 13 -7 17 -16z m2123 -34 c0 -24 -25 -33 -40
-14 -10 11 -10 17 0 28 15 19 40 10 40 -14z m1068 2 c4 -28 -24 -40 -45 -19
-21 21 -9 49 19 45 15 -2 24 -11 26 -26z m-3452 7 c8 -14 -21 -43 -35 -35 -6
4 -11 16 -11 27 0 21 34 27 46 8z m942 -10 c-2 -6 -8 -10 -13 -10 -5 0 -11 4
-13 10 -2 6 4 11 13 11 9 0 15 -5 13 -11z m3717 -19 c0 -8 -8 -16 -17 -18 -13
-2 -18 3 -18 18 0 15 5 20 18 18 9 -2 17 -10 17 -18z m755 4 c11 -12 10 -18
-3 -32 -16 -15 -18 -15 -34 0 -13 14 -14 20 -3 32 7 9 16 16 20 16 4 0 13 -7
20 -16z m3004 10 c21 -8 20 -51 -1 -63 -24 -13 -53 4 -53 33 0 35 17 44 54 30z
m-1934 -23 c7 -15 6 -24 -6 -36 -19 -18 -33 -16 -48 7 -7 12 -6 21 3 32 18 22
38 20 51 -3z m-5562 -14 c2 -12 -3 -17 -17 -17 -12 0 -21 6 -21 13 0 31 32 34
38 4z m-718 -2 c10 -12 10 -18 0 -30 -27 -32 -71 -8 -56 30 3 8 14 15 24 15
11 0 25 -7 32 -15z m5462 -10 c7 -16 19 -25 34 -25 30 0 49 -33 34 -60 -19
-36 -80 -20 -80 22 0 12 -8 18 -24 18 -29 0 -44 33 -26 55 19 23 49 18 62 -10z
m-6174 -3 c2 -7 -3 -12 -12 -12 -9 0 -16 7 -16 16 0 17 22 14 28 -4z m4077
-12 c0 -18 -6 -26 -23 -28 -13 -2 -25 3 -28 12 -10 26 4 48 28 44 17 -2 23
-10 23 -28z m-2747 -11 c4 -30 -22 -46 -44 -28 -17 14 -18 46 -1 52 25 11 42
1 45 -24z m1496 -5 c7 -19 -10 -44 -31 -44 -17 0 -27 24 -19 45 7 20 42 19 50
-1z m4026 -23 c0 -27 -19 -36 -37 -18 -18 18 -9 37 18 37 12 0 19 -7 19 -19z
m-4642 -24 c4 -20 -25 -34 -40 -19 -15 15 -1 44 19 40 10 -2 19 -11 21 -21z
m3330 0 c4 -20 -25 -34 -40 -19 -15 15 -1 44 19 40 10 -2 19 -11 21 -21z
m-4659 -11 c17 -20 2 -48 -23 -44 -24 3 -34 37 -14 49 18 12 24 11 37 -5z
m3249 -24 c3 -16 -2 -22 -17 -22 -24 0 -33 13 -25 35 9 23 38 14 42 -13z m430
-5 c2 -18 -1 -27 -11 -27 -15 0 -30 37 -21 52 10 17 29 2 32 -25z m3416 25 c8
-13 -11 -35 -23 -28 -16 10 -14 36 3 36 8 0 17 -4 20 -8z m-488 -23 c10 -17
-23 -46 -37 -32 -7 7 -9 19 -6 27 7 18 33 21 43 5z m-5896 -13 c0 -8 -4 -17
-9 -21 -12 -7 -24 12 -16 25 9 15 25 12 25 -4z m5195 -51 c0 -27 -3 -30 -30
-30 -21 0 -31 5 -33 18 -6 33 6 49 35 45 24 -3 28 -8 28 -33z m-6610 -19 c0
-22 -14 -29 -34 -17 -19 12 -6 43 16 39 10 -2 18 -12 18 -22z m1172 8 c3 -8 1
-20 -5 -26 -15 -15 -43 8 -35 28 7 19 32 18 40 -2z m6343 2 c0 -8 -5 -18 -11
-22 -14 -8 -33 11 -25 25 10 16 36 13 36 -3z m2098 -4 c2 -7 -3 -12 -12 -12
-9 0 -16 7 -16 16 0 17 22 14 28 -4z m-4638 -7 c0 -8 -7 -15 -15 -15 -8 0 -15
7 -15 15 0 8 7 15 15 15 8 0 15 -7 15 -15z m-3562 -34 c21 -13 10 -46 -16 -49
-27 -4 -40 22 -22 43 14 17 20 18 38 6z m6937 -21 c0 -8 -8 -16 -17 -18 -13
-2 -18 3 -18 18 0 15 5 20 18 18 9 -2 17 -10 17 -18z m-8160 -6 c18 -18 16
-33 -7 -47 -35 -22 -66 21 -36 51 16 16 23 15 43 -4z m3499 0 c7 -19 -10 -44
-31 -44 -17 0 -27 24 -19 45 7 20 42 19 50 -1z m-3286 -5 c-2 -6 -8 -10 -13
-10 -5 0 -11 4 -13 10 -2 6 4 11 13 11 9 0 15 -5 13 -11z m501 -23 c17 -20 3
-46 -24 -46 -29 0 -38 13 -30 40 7 23 37 26 54 6z m4181 -32 c0 -28 -25 -42
-49 -27 -23 15 -26 45 -6 59 25 18 55 0 55 -32z m708 3 c-2 -17 -10 -22 -33
-22 -35 0 -47 31 -20 51 25 18 57 0 53 -29z m-2303 23 c11 -17 -5 -32 -21 -19
-7 6 -11 15 -8 20 7 12 21 11 29 -1z m-2748 -36 c9 -24 -10 -49 -38 -49 -24 0
-36 23 -25 51 7 19 55 18 63 -2z m1719 -5 c10 -17 -23 -46 -37 -32 -7 7 -9 19
-6 27 7 18 33 21 43 5z m4182 -12 c2 -10 -3 -17 -12 -17 -18 0 -29 16 -21 31
9 14 29 6 33 -14z m-6157 -13 c17 -21 0 -49 -32 -49 -24 0 -36 23 -25 51 7 19
40 18 57 -2z m4609 -19 c20 -24 3 -57 -28 -53 -30 3 -41 30 -22 53 16 19 34
19 50 0z m-4070 -11 c0 -17 -22 -14 -28 4 -2 7 3 12 12 12 9 0 16 -7 16 -16z
m1690 -33 c0 -28 -28 -47 -48 -34 -24 15 -27 44 -7 59 22 17 55 1 55 -25z
m2708 20 c8 -4 12 -19 10 -32 -4 -29 -45 -34 -61 -7 -19 30 19 60 51 39z
m2501 -25 c25 -30 -16 -67 -44 -40 -18 19 -19 26 -3 42 16 16 33 15 47 -2z
m-469 -22 c11 -12 11 -18 -2 -30 -18 -18 -48 -8 -48 15 0 33 28 42 50 15z
m-6760 -19 c0 -20 -5 -25 -25 -25 -18 0 -25 5 -25 18 0 24 8 32 32 32 13 0 18
-7 18 -25z m-856 7 c8 -13 -11 -35 -23 -28 -16 10 -14 36 3 36 8 0 17 -4 20
-8z m8198 -17 c0 -5 -5 -11 -11 -13 -6 -2 -11 4 -11 13 0 9 5 15 11 13 6 -2
11 -8 11 -13z m1306 -2 c5 -17 -26 -29 -40 -15 -6 6 -7 15 -3 22 9 14 37 9 43
-7z m-6713 -23 c-5 -8 -11 -8 -17 -2 -6 6 -7 16 -3 22 5 8 11 8 17 2 6 -6 7
-16 3 -22z m-1507 -26 c3 -22 -21 -39 -39 -28 -11 6 -12 38 -2 48 13 13 38 1
41 -20z m-890 -17 c2 -11 -3 -17 -17 -17 -23 0 -35 15 -26 31 10 15 39 6 43
-14z m5572 -12 c14 -17 5 -51 -16 -59 -22 -8 -54 11 -54 32 0 38 46 56 70 27z
m-1366 -1 c19 -7 21 -40 4 -47 -29 -10 -53 25 -31 46 8 8 8 8 27 1z m-1179
-42 c0 -18 -20 -15 -23 4 -3 10 1 15 10 12 7 -3 13 -10 13 -16z m-1301 2 c21
-8 21 -48 0 -65 -31 -26 -70 25 -44 56 14 17 21 18 44 9z m111 -25 c0 -17 -6
-24 -20 -24 -23 0 -33 34 -13 46 20 13 33 5 33 -22z m-1270 -29 c0 -8 -8 -16
-17 -18 -13 -2 -18 3 -18 18 0 15 5 20 18 18 9 -2 17 -10 17 -18z m600 -10 c0
-18 -6 -26 -23 -28 -24 -4 -38 18 -28 44 3 9 15 14 28 12 17 -2 23 -10 23 -28z
m-378 -16 c3 -8 -2 -23 -11 -32 -14 -15 -18 -15 -31 -1 -9 9 -13 23 -9 32 8
21 43 22 51 1z m2263 -24 c0 -25 -30 -41 -53 -29 -39 22 -4 79 35 58 10 -5 18
-18 18 -29z m6060 5 c17 -20 5 -45 -20 -45 -11 0 -23 7 -26 15 -6 15 11 45 26
45 4 0 13 -7 20 -15z m-7886 -10 c3 -8 -2 -21 -10 -29 -8 -8 -21 -13 -29 -10
-15 6 -20 35 -8 47 12 12 41 7 47 -8z m6976 -64 c14 -28 -13 -55 -41 -41 -22
12 -25 30 -7 48 18 18 36 15 48 -7z m-7646 -14 c28 -21 12 -59 -22 -55 -30 3
-41 30 -22 53 15 18 21 19 44 2z m2776 -13 c0 -19 -28 -30 -42 -16 -8 8 -8 15
1 26 14 17 41 10 41 -10z m5308 14 c-3 -7 -11 -13 -18 -13 -7 0 -15 6 -17 13
-3 7 4 12 17 12 13 0 20 -5 18 -12z m-5618 -38 c0 -21 -24 -28 -35 -10 -8 14
3 30 21 30 8 0 14 -9 14 -20z m390 -14 c0 -8 -5 -18 -11 -22 -14 -8 -33 11
-25 25 10 16 36 13 36 -3z m3745 -11 c0 -11 -7 -21 -16 -23 -18 -3 -33 23 -23
39 10 17 39 5 39 -16z m1943 -1 c4 -29 -28 -41 -45 -18 -10 13 -10 21 -1 31
16 19 42 12 46 -13z m-4433 6 c4 -6 1 -17 -5 -26 -10 -11 -16 -12 -26 -3 -11
9 -11 15 -3 25 14 17 25 18 34 4z m1103 -2 c-6 -18 -28 -21 -28 -4 0 9 7 16
16 16 9 0 14 -5 12 -12z m-5430 -17 c8 -4 12 -19 10 -32 -4 -29 -45 -34 -61
-7 -19 30 19 60 51 39z m720 -18 c4 -30 -31 -49 -52 -27 -19 19 -20 26 -4 42
19 19 53 10 56 -15z m997 -13 c0 -18 -6 -26 -21 -28 -26 -4 -40 24 -23 45 18
21 44 11 44 -17z m6945 -35 c20 -24 3 -57 -28 -53 -30 3 -41 30 -22 53 16 19
34 19 50 0z m-5355 -35 c0 -18 -6 -26 -23 -28 -24 -4 -38 18 -28 44 3 9 15 14
28 12 17 -2 23 -10 23 -28z m4246 4 c17 -21 0 -49 -32 -49 -27 0 -37 28 -19
50 16 19 34 19 51 -1z m-7651 -9 c19 -23 3 -57 -27 -53 -34 4 -51 31 -34 52
17 20 45 21 61 1z m585 -46 c0 -7 -8 -15 -17 -17 -18 -3 -25 18 -11 32 10 10
28 1 28 -15z m1880 -29 c0 -18 -6 -26 -23 -28 -24 -4 -38 18 -28 44 3 9 15 14
28 12 17 -2 23 -10 23 -28z m2383 -3 c4 -20 -25 -34 -40 -19 -15 15 -1 44 19
40 10 -2 19 -11 21 -21z m-2918 -2 c26 -32 -13 -81 -47 -59 -35 22 -23 74 17
74 10 0 23 -7 30 -15z m-422 -21 c4 -27 -26 -40 -46 -20 -21 20 -8 48 20 44
14 -2 24 -11 26 -24z m1889 10 c3 -8 -1 -22 -9 -30 -13 -14 -17 -14 -31 1 -9
8 -14 22 -11 30 8 20 43 19 51 -1z m5128 -14 c0 -29 -32 -41 -41 -16 -9 24 4
48 23 44 12 -2 18 -12 18 -28z m-4708 -16 c8 -22 -10 -49 -32 -49 -10 0 -22 7
-28 16 -15 24 -1 49 28 49 15 0 28 -7 32 -16z m-2059 -36 c15 -15 16 -45 2
-53 -17 -10 -50 5 -50 24 0 16 18 41 30 41 3 0 11 -5 18 -12z m-383 -28 c0
-18 -6 -26 -23 -28 -24 -4 -38 18 -28 44 3 9 15 14 28 12 17 -2 23 -10 23 -28z
m1472 9 c15 -15 5 -39 -17 -39 -22 0 -32 24 -17 39 6 6 14 11 17 11 3 0 11 -5
17 -11z m3783 -24 c17 -20 5 -45 -20 -45 -11 0 -23 7 -26 15 -6 15 11 45 26
45 4 0 13 -7 20 -15z m-2412 -67 c17 -17 15 -43 -4 -59 -31 -26 -70 25 -44 56
15 18 32 19 48 3z m307 -13 c0 -22 -31 -33 -47 -17 -17 17 -1 44 24 40 15 -2
23 -10 23 -23z m-4448 -81 c8 -22 -10 -49 -32 -49 -10 0 -22 7 -28 16 -15 24
-1 49 28 49 15 0 28 -7 32 -16z m3868 -29 c0 -25 -4 -30 -24 -30 -32 0 -49 28
-31 50 7 9 23 15 34 13 16 -2 21 -10 21 -33z m4502 24 c14 -14 6 -39 -12 -39
-18 0 -28 17 -21 35 6 18 18 19 33 4z m-3900 -15 c8 -21 -13 -42 -28 -27 -13
13 -5 43 11 43 6 0 13 -7 17 -16z m-2083 -50 c11 -11 13 -21 7 -32 -5 -10 -5
-22 2 -33 22 -36 -21 -75 -51 -45 -14 14 -14 20 -4 36 9 15 10 26 2 41 -9 15
-8 24 1 35 15 18 24 18 43 -2z m6254 -22 c3 -16 -2 -22 -17 -22 -26 0 -36 17
-20 36 16 19 33 13 37 -14z m-4794 -30 c-14 -22 -34 -22 -48 1 -9 15 -7 21 9
33 17 12 21 12 34 -1 12 -12 13 -19 5 -33z m2334 22 c4 -27 -26 -40 -46 -20
-21 20 -8 48 20 44 14 -2 24 -11 26 -24z m371 3 c15 -19 -9 -50 -32 -41 -17 6
-23 35 -10 47 10 11 30 8 42 -6z m-5449 -33 c0 -8 -7 -14 -15 -14 -15 0 -21
21 -9 33 10 9 24 -2 24 -19z m-1383 -10 c8 -21 -19 -46 -40 -38 -17 6 -23 35
-10 47 12 13 44 7 50 -9z m6637 -26 c15 -25 -17 -57 -42 -42 -22 14 -28 44
-10 55 18 12 39 7 52 -13z m-6604 -24 c0 -16 -16 -19 -25 -4 -8 13 4 32 16 25
5 -4 9 -13 9 -21z m5563 -9 c1 -5 -6 -11 -15 -13 -11 -2 -18 3 -18 13 0 17 30
18 33 0z m2405 -8 c4 -22 -27 -35 -38 -16 -10 15 7 42 24 36 6 -2 12 -11 14
-20z m-6821 -33 c8 -21 -13 -42 -28 -27 -13 13 -5 43 11 43 6 0 13 -7 17 -16z
m2412 -13 c14 -26 -8 -54 -39 -49 -25 3 -36 27 -26 54 8 20 53 17 65 -5z
m-3338 -7 c17 -21 0 -49 -32 -49 -27 0 -37 28 -19 50 16 19 34 19 51 -1z
m5197 -13 c20 -12 10 -46 -14 -49 -25 -4 -40 24 -23 44 13 16 19 17 37 5z
m2813 -6 c-1 -15 -24 -12 -29 3 -3 9 2 13 12 10 10 -1 17 -7 17 -13z m259 7
c0 -13 -12 -22 -22 -16 -10 6 -1 24 13 24 5 0 9 -4 9 -8z m-1121 -56 c15 -18
3 -46 -20 -46 -25 0 -35 26 -19 45 15 19 24 19 39 1z m-7621 -39 c4 -20 -25
-34 -40 -19 -15 15 -1 44 19 40 10 -2 19 -11 21 -21z m627 12 c10 -15 -1 -23
-20 -15 -9 3 -13 10 -10 16 8 13 22 13 30 -1z m6430 -49 c0 -16 -6 -26 -18
-28 -19 -4 -32 20 -23 44 9 25 41 13 41 -16z m-4717 -8 c4 -28 -24 -40 -45
-19 -14 13 -14 19 -3 32 18 22 44 15 48 -13z m-2512 -41 c-10 -16 -36 -13 -43
5 -8 22 18 37 36 20 7 -8 10 -19 7 -25z m4873 2 c-15 -18 -34 -1 -25 22 5 14
9 15 21 5 12 -10 13 -16 4 -27z m1836 17 c0 -8 -10 -16 -22 -18 -18 -3 -23 2
-23 18 0 16 5 21 23 18 12 -2 22 -10 22 -18z m-508 -17 c12 -18 12 -23 -2 -37
-20 -20 -29 -20 -49 0 -20 20 -20 29 0 49 19 19 33 16 51 -12z m-5566 -19 c11
-14 10 -18 -6 -30 -16 -12 -21 -12 -32 -1 -16 15 -7 47 12 47 7 0 19 -7 26
-16z m4344 -24 c0 -8 -8 -16 -17 -18 -13 -2 -18 3 -18 18 0 15 5 20 18 18 9
-2 17 -10 17 -18z m165 -15 c0 -8 -7 -15 -15 -15 -16 0 -20 12 -8 23 11 12 23
8 23 -8z m1640 -19 c0 -8 -5 -18 -11 -22 -14 -8 -33 11 -25 25 10 16 36 13 36
-3z m2920 -15 c0 -14 -18 -23 -30 -16 -6 4 -8 11 -5 16 8 12 35 12 35 0z
m-5649 -14 c-1 -12 -15 -9 -19 4 -3 6 1 10 8 8 6 -3 11 -8 11 -12z m-3547 -23
c9 -8 16 -19 16 -24 0 -13 -30 -40 -44 -40 -17 0 -36 21 -36 40 0 19 19 40 36
40 7 0 20 -7 28 -16z m334 -42 c-4 -22 -46 -28 -54 -8 -4 9 -1 23 6 31 16 19
53 1 48 -23z m5627 -2 c0 -18 -6 -26 -23 -28 -13 -2 -25 3 -28 12 -10 26 4 48
28 44 17 -2 23 -10 23 -28z m-2557 -22 c16 -16 15 -23 -4 -42 -12 -12 -20 -13
-35 -6 -10 6 -19 16 -19 23 0 16 20 37 35 37 6 0 16 -5 23 -12z m4093 -29 c9
-18 7 -25 -9 -41 -16 -16 -23 -18 -41 -9 -23 13 -28 40 -9 59 19 19 46 14 59
-9z m57 9 c-3 -7 -11 -13 -18 -13 -7 0 -15 6 -17 13 -3 7 4 12 17 12 13 0 20
-5 18 -12z m-4095 -23 c8 -18 -11 -31 -25 -17 -11 11 -3 32 12 32 4 0 10 -7
13 -15z m-424 -14 c13 -23 -10 -47 -34 -37 -18 7 -20 42 -2 49 21 9 26 7 36
-12z m4969 -5 c4 -21 -14 -37 -35 -29 -14 5 -18 35 -6 47 12 12 38 1 41 -18z
m-284 -8 c19 -30 -5 -54 -50 -50 -60 5 -65 28 -12 57 29 17 48 15 62 -7z
m-3720 -10 c8 -14 7 -21 -6 -34 -30 -30 -75 9 -48 42 16 18 39 15 54 -8z
m-4325 -13 c8 -8 10 -21 6 -34 -8 -26 -53 -29 -62 -3 -4 9 -13 22 -21 28 -8 6
-12 16 -8 22 8 14 65 5 85 -13z m5307 4 c3 -6 -1 -18 -9 -27 -13 -12 -19 -13
-31 -3 -8 7 -12 19 -9 27 6 17 39 19 49 3z m-818 -30 c-2 -6 -8 -10 -13 -10
-5 0 -11 4 -13 10 -2 6 4 11 13 11 9 0 15 -5 13 -11z m2652 -34 c18 -21 5 -45
-25 -45 -20 0 -25 5 -25 23 0 39 26 50 50 22z m1268 -2 c5 -17 -26 -29 -40
-15 -6 6 -7 15 -3 22 9 14 37 9 43 -7z m-4400 -5 c17 -17 15 -43 -4 -59 -31
-26 -70 25 -44 56 15 18 32 19 48 3z m1937 -63 c0 -30 -39 -27 -43 3 -3 20 0
23 20 20 15 -2 23 -10 23 -23z m-6067 4 c-2 -6 -8 -10 -13 -10 -5 0 -11 4 -13
10 -2 6 4 11 13 11 9 0 15 -5 13 -11z m7016 -35 c9 -8 16 -19 16 -24 0 -10
-28 -40 -37 -40 -10 0 -43 32 -43 41 0 10 29 39 40 39 5 0 16 -7 24 -16z
m-1095 -33 c8 -14 7 -22 -4 -31 -19 -16 -45 -6 -45 18 0 36 33 45 49 13z
m1636 -2 c0 -7 -8 -15 -17 -17 -18 -3 -25 18 -11 32 10 10 28 1 28 -15z
m-1917 -52 c2 -12 -3 -17 -17 -17 -12 0 -21 6 -21 13 0 31 32 34 38 4z m-4432
-8 c10 -17 -13 -36 -27 -22 -12 12 -4 33 11 33 5 0 12 -5 16 -11z m6114 -4
c13 -16 6 -35 -15 -35 -18 0 -28 17 -21 35 7 19 20 19 36 0z m-3616 -8 c36
-26 -4 -84 -41 -61 -24 15 -27 38 -8 58 20 19 26 20 49 3z m-2735 -6 c17 -11
7 -41 -13 -41 -19 0 -29 17 -22 35 6 17 15 18 35 6z m6171 -6 c18 -21 5 -47
-22 -43 -26 3 -37 36 -16 49 18 12 24 11 38 -6z m2290 -40 c18 -21 5 -47 -22
-43 -26 3 -37 36 -16 49 18 12 24 11 38 -6z m-3252 -18 c2 -12 -3 -17 -17 -17
-12 0 -21 6 -21 13 0 31 32 34 38 4z m2557 3 c11 -17 -5 -50 -24 -50 -28 0
-46 26 -31 45 14 17 46 20 55 5z m-6395 -35 c20 -24 3 -57 -28 -53 -30 3 -41
30 -22 53 16 19 34 19 50 0z m1688 -12 c4 -30 -31 -49 -52 -27 -19 19 -20 26
-4 42 19 19 53 10 56 -15z m-3378 -3 c0 -11 -7 -20 -15 -20 -8 0 -15 9 -15 20
0 11 7 20 15 20 8 0 15 -9 15 -20z m2088 -22 c-3 -7 -11 -13 -18 -13 -7 0 -15
6 -17 13 -3 7 4 12 17 12 13 0 20 -5 18 -12z m4927 -13 c0 -11 -7 -21 -16 -23
-18 -3 -33 23 -23 39 10 17 39 5 39 -16z m75 -15 c0 -13 -7 -20 -20 -20 -13 0
-20 7 -20 20 0 13 7 20 20 20 13 0 20 -7 20 -20z m-2342 -54 c-2 -13 -10 -21
-23 -21 -23 0 -33 34 -14 45 20 13 40 -1 37 -24z m4181 0 c9 -11 10 -20 1 -36
-13 -25 -47 -24 -63 2 -22 34 36 66 62 34z m-268 -22 c17 -21 0 -49 -32 -49
-27 0 -37 28 -19 50 16 19 34 19 51 -1z m-4756 -44 c0 -18 -6 -26 -23 -28 -13
-2 -25 3 -28 12 -10 26 4 48 28 44 17 -2 23 -10 23 -28z m1130 -30 c0 -18 -6
-26 -23 -28 -27 -4 -40 22 -22 44 19 22 45 13 45 -16z m-5085 0 c0 -5 -5 -12
-11 -16 -14 -8 -33 11 -25 25 7 11 36 4 36 -9z m6348 -9 c19 -11 11 -45 -11
-49 -19 -4 -32 20 -23 43 6 17 15 19 34 6z m121 -5 c15 -18 -2 -56 -24 -56
-14 0 -45 26 -45 39 0 28 50 40 69 17z m356 -21 c0 -27 -3 -30 -30 -30 -21 0
-31 5 -33 18 -5 25 17 49 42 45 16 -2 21 -10 21 -33z m-5452 -37 c7 -21 -4
-38 -23 -38 -23 0 -34 16 -26 35 7 18 43 20 49 3z m217 -18 c0 -11 -6 -20 -14
-20 -18 0 -29 16 -21 30 11 18 35 11 35 -10z m7068 -3 c2 -10 -3 -17 -12 -17
-18 0 -29 16 -21 31 9 14 29 6 33 -14z m122 -6 c0 -14 -18 -23 -30 -16 -6 4
-8 11 -5 16 8 12 35 12 35 0z m-4581 -15 c6 -7 9 -21 5 -30 -8 -21 -50 -21
-58 0 -7 19 10 44 29 44 7 0 18 -6 24 -14z m-3639 -11 c0 -8 -4 -15 -9 -15
-13 0 -22 16 -14 24 11 11 23 6 23 -9z m4129 -18 c15 -19 -9 -50 -32 -41 -17
6 -23 35 -10 47 10 11 30 8 42 -6z m-5374 -27 c0 -29 -32 -41 -41 -16 -9 24 4
48 23 44 12 -2 18 -12 18 -28z m4313 2 c4 -28 -24 -40 -45 -19 -14 13 -14 19
-3 32 18 22 44 15 48 -13z m4092 13 c0 -8 -7 -15 -15 -15 -8 0 -15 7 -15 15 0
8 7 15 15 15 8 0 15 -7 15 -15z m-6620 -40 c15 -18 5 -35 -21 -35 -12 0 -19 7
-19 18 0 33 20 42 40 17z m1240 -4 c0 -27 -19 -36 -37 -18 -18 18 -9 37 18 37
12 0 19 -7 19 -19z m-80 -6 c6 -8 9 -23 5 -35 -10 -31 -59 -24 -63 9 -6 37 34
55 58 26z m1960 -10 c6 -8 10 -22 8 -32 -4 -24 -47 -24 -62 0 -9 15 -7 21 8
33 25 18 31 18 46 -1z m-4632 -20 c5 -22 -18 -37 -35 -23 -17 13 -17 35 0 41
19 8 32 2 35 -18z"/>
</g>
</svg>
