<?xml version="1.0" encoding="utf-8"?>
<!-- Generator: Adobe Illustrator 24.3.0, SVG Export Plug-In . SVG Version: 6.00 Build 0)  -->
<svg version="1.1" id="Layer_1" xmlns="http://www.w3.org/2000/svg" xmlns:xlink="http://www.w3.org/1999/xlink" x="0px" y="0px"
	 viewBox="0 0 348 117" style="enable-background:new 0 0 348 117;" xml:space="preserve">
<style type="text/css">
	.st0{fill-rule:evenodd;clip-rule:evenodd;fill:#FFFFFF;}
</style>
<path id="GENERATOR" class="st0" d="M75.6,66.4h26.5l3.2-11.1H78.8V32.7h23.3l3.2-11.1H75.6l-8,8v28.9L75.6,66.4z M118.4,66.4h24.1
	c3.1-3.1,4.9-4.9,8-8V29.5c-3.1-3.1-4.9-4.9-8-8h-24.1l-8,8v28.9L118.4,66.4z M121.6,32.7h17.7v22.5h-17.7V32.7z M195.7,55.2h-26.5
	V21.5h-11.1v44.8h34.4L195.7,55.2z M207.8,66.4h24.1l8-8V29.5l-8-8h-24.1l-8,8v28.9L207.8,66.4z M211,32.7h17.7v22.5H211V32.7
	L211,32.7z M258.7,52.9h17.7v13.5h11.1V49.7l-2.4-2.4l2.4-2.4V29.5l-8-8h-32v44.8h11.1V52.9L258.7,52.9z M258.7,32.7h17.7v9.1h-17.7
	V32.7L258.7,32.7z M69.5,75.8v15.5l4.2,4.3h12.6l4.2-4.3V80.5H80v6h4.7v3h-9.3v-12h15.2l1.7-6H73.6L69.5,75.8
	C69.5,75.8,69.5,75.8,69.5,75.8z M115.1,89.5h-13.9v-3h9.7v-6h-9.7v-3h12.2l1.7-6H95.3v24h18.1L115.1,89.5z M133.4,79.6l-11.3-8.1
	h-3.9v24h5.9V80.2l9.3,6.6v8.6h5.9v-24h-5.9L133.4,79.6L133.4,79.6z M163.4,89.5h-13.9v-3h9.7v-6h-9.7v-3h12.2l1.7-6h-19.8v24h18.1
	L163.4,89.5z M172.4,88.3h9.3v7.2h5.9v-8.9l-1.3-1.3l1.3-1.3v-8.2l-4.2-4.3h-16.8v24h5.9V88.3z M172.4,77.5h9.3v4.8h-9.3V77.5z
	 M197.3,86.5h9.3v9h5.9V75.8c-1.6-1.7-2.5-2.6-4.2-4.3h-12.6l-4.2,4.3v19.7h5.9L197.3,86.5L197.3,86.5z M206.6,77.5v3h-9.3v-3H206.6
	L206.6,77.5z M215.9,77.5h7.2v18h5.9v-18h7.2l1.7-6h-23.5L215.9,77.5z M243.7,95.5h12.6l4.2-4.3V75.8l-4.2-4.3h-12.6l-4.2,4.3v15.5
	L243.7,95.5z M245.4,77.5h9.3v12h-9.3L245.4,77.5L245.4,77.5z M270.4,88.3h9.3v7.2h5.9v-8.9l-1.3-1.3l1.3-1.3v-8.2l-4.2-4.3h-16.8
	v24h5.9L270.4,88.3L270.4,88.3z M270.4,77.5h9.3v4.8h-9.3L270.4,77.5L270.4,77.5z"/>
</svg>
