<svg xmlns="http://www.w3.org/2000/svg" viewBox="0 0 50000 50000"><path d="M48000 29900v100l100-100v100l-100 100 100 100 200-100v100l-200 300-100 200v100-100l100-100v100h100l-100 100v-100l100 100-100 200 200-100a700 700 0 01-100 100h200-100v100a5400 5400 0 00-500 600 100 100 0 00 100-100h100l-200 200h100l100-100 200-100v100l100-100v100-100 200h100l100-200v100l-100 200h100l100-200h100l-100 200h100v-100l100-100-100 200h100l100 100v100-100l100-200v200h100l100-100h100v-200h100v-100 100h100l100 200h100v-100l-100-100h100v-200l100 100v-100l100-100h-100 100v-100h-100l100-100v-200l-100-100h100l100-100v2400l-100-100-100 100v100l100 100h-100 100l100-200v400-100 100l-100 100h100v600c0-100 0 0 0 0v200s0 100 0 0v2600l-100 200v-100l-100 100h-100l300 100v200h-100 100v200l-400 100h100-100l200-100v-100l-300 100h100l-100-100h100-100 200v-100h200-400l100-100h-100l100-100h-100v-100 100l100-200-100 100v-100l-100 200v-300l-100 100a400 400 0 01 100 100h-100v100l-100-100 100 100h-100v-200 200l-100-200v300-300l-200 300a900 900 0 01 100-100l-100-100v100l100-400-100 300v-200l-200 200 100-100h-100l200-200-200 100-200 400h-100l100-100-100 200-100 100 100-200 300-300-200 200h-100l100-100v-100l200-200-300 200-200 100-100 100 100-100h-100l200-100v-100l-200 200-100-100v100-100h-100l200-100h-200 100v-100h100l100-100-200 100v-100h-300 100v-100h-100 100v-100l200 100v-100h-200 200v-100h-100 100-100v-100h100-100l100-100-100 100 100-100h-100l200-100h-300l200-100h-100l-200 100 200-100h-200l100-100h-100l100-100h-100 100v-100l-100 100v-100h-100v100-100l-200 200h-100v100-100l-100 100v-100 100l-100-100v100-100h-100v100-200l-100 100v-100h100-100v100-200h-100l-100 100 100-100-200 200 100-100-100-100v200h-100v-100h-200v-200l-200 200h100v200h-200v100l100-100v100h-200l100 100h-100 100v100l-100-100h-100v200l-100 100h100v100h100v-100l100-100h-100 400-100 100l-100 100-100 100h-100 100v200l100-100h100v-100l100 100 100-100-100 100v100h100l-100 100h-100v100h-100l100 100-200 100h200l100-100v100h100v100h-100a700 700 0 00-100 0l100 100h-100l-100-100v100h-100l100 100h-200v100l-100-100 100 100v100h100-100l-100 200h100-100v100h-100 200v200l100-100v-100l100-100-100 300 100-200c100 100-100 200 100 300v-100l100 100v-200h100l-100 100h100v100a500 500 0 00 100-100l100 100-100 100 200-100h100-100 100v-100 100l100-100 100 100h100l-100-100h100v-100l-100-100h-100v-100l-100-100h-100 300-100v-200 100h100a600 600 0 00 0 100l100-100 100 200v-200h-100 100v200l100-200 100 100-100 200 400-500v100a500 500 0 00 0 100v100l-100 200 100-100v100-100l-100 300 400-300h-100 200l-100-100 100 100 300 300-100-200-100-100v-100a1200 1200 0 01 0 100l100-100v-100l100 100v100-100a600 600 0 01 0-100 600 600 0 01 100 100v-100 100-100h100v100l100-100c-300 500-200 400-100 400v100l100-300v100l100-100-100 400 200-300-100 200 200-200-100 300v-200h100l-100 200 200-200-200 400 300-300c0 200-300 300-300 500l100-100 300-100-200 100 200-100-100 100 200-100-200 100-100 100a400 400 0 00 0 100v100h-100l100 100v-100l-100 100h200-200v100l100-100-100 100a800 800 0 01 200 0l100-100-100 200h100v100l100-100v-100h100v-100h100l-100-100v-100h100-200l300-100v-100 100l100-100h100v-100 200l-100 100h100v200l-100-100 100 100v10800H0v-9000l100-100H0v-500h100v-100l-100 100v-400h200l-200-100h100H0h100H0v-100c100 100 100 0 0 0v-400h100l100 100v-100H0v-200l100 100 100-100-100 100h100v-100H0h100v-100H0v-100h200v100h100a500 500 0 00 0-100l-300-100v-200l200 100v-100H100v-100h200v100l-200-100 200 100v-100l-100-100-200-100 300 100v-100H200l100-100H200l-100-100-100-100v-100h200l100 100v-100H100h100l-200-100 300 100v-100H200l100-100v-100l-100 100v-100h100l-300-100 100-100v100h100l-200-100h200l-100-100H0v-100l100 100 100-100H100l100-100H100v-100h200-100v-100H100h100l-100-100h100v100-100h100l-100-100v-200h100-100v-100l100 100v-200 100h100v-100 100h100l-100 100h100v100h100l-100 100v100H400h100-100v100h200l-100-100h300l-100-100-100-100 100 100v-100H600v-100l100 100h100l100 100v-100l100 100 100-100v100l100-100-100-100v-100l-100 100a1200 1200 0 00-100-100h100a900 900 0 00 100 0l100 100v-200l-200 100 200-100h-200v-100H900l100-100H900h200l-100 100h200v-200h-100v-100h-100l-100-100 100 100 100-100v100h100l100 100v-200l-100 100v-100l-100-100h200v-100h-100l100-100h-200l-100-100h100v-100l100 100h100-100v-100h200l-100-100-100-100 100-100h-100l100-100v-100h100v-100 100h200-100v100-100 100h100-100l100 100v100h100-100l100 100-100 100h100-100v100h100v200h-100 200v100h-100v100l-100-100v100a500 500 0 00-100 0h200v100h200-200v100l100 100 100-100h100v100-100l100-100v200h100v200h100l-100 100v100h100-100l-100 100 100 100 100-100v100l-100 100h100l-100 100 100 100v-100h100l-200 100 100 100h-100l-100 100 200-100v100-100h200v100h-100l-100 100 100-100-100 100h-100l200 100v200h-100 100v100l100 200a400 400 0 01 0 100v100l100 100v100h100-100v100l-100 100h200l-200 100h100v100l100-100h100a500 500 0 00-100 100l100-100h100v200h-200v100l100 100h-100v100l100-100h100v100h-100 100v100h-100v100h100-100v100h-100 100-100l100 100-100 100 100 100h100v100l100-100h100l-100 100h100l-100 100h-100 200l-100 100h-100v200h100l-100 100h-100 200v100h-100v100l200-100-100 100h100l-100 100h100v100h-100 100v100h-200l100 100 100 100v-100h200v100h-100v100l100 200h-100v100h100-200l100 100h200l400 100h-100 300l-200-100h-100v-100h-100l-100-100h400l200-100-100-100v-100h100-100l-100 100h-200l200-100v-100h100v-100h-100v100h-100l-100-100 100-100h-100 300v100h200-100l100-100h100-200 100v-100l-100 100v-100l-100 100v-100h-200l100-100h-200 200l200-100h-200v-100h-200v-100l200 100 200 100v-200h-100 100v-100h-100l-100-100h300-200l-100-100h100l100 100v-100l100-100-200-100h100v100h100l-100-100h100v-100h-100 100v-100a1100 1100 0 00-100 0l-100-100h100l100 100v-100h-100l100-100h-100 100v-100l-100-100 100 100v-300 300h100v100h-100 200-100l-100 100 100-100-100 100h100v100l100 100-200 100h200v100h-200 300l-100 100h100v100h-200l200 100h-100 100l-100 100h100a600 600 0 01 100 0l-100 100h200l-100 100h-100v100h200-100v100h100-100 100l100 100h-400l200 100h100v200h-300 100l100 100v-100h300l-100 100h100l-100 100v-100l-100 100h-100a100 100 0 00 100 0l100 100 200-100-100 100 100 100-100 100h-100l100 100h-400l100 100h100-100 100v100h-100l100 100 100-100h200-200l100 100h-100l100 100h-200 400l-200 100v100h-200 100v100h300v-100h100l-100 100-200 100h100-100l100 100-100 100v-100h-100l100 100h300v100-100l100 100h-300v100h200l-100 100h-100 100v100h200-200 300l-300 100 100 200h-100l100 100 100-100v100h-100 100-100v100c0-100 0-100 0 0h-100 200v100h300l-100 100v-100l-100 100h100-100v100-100h-100v100h-100l100 100h-100l100 100h200-100 200v-200a900 900 0 01 0-100h100v-100h100l100 100v100-100 200h100v300h100v100l200-100v100h100l100-100-100-100v100-100h-200l200-100h-200 100v-100h-300 200l-100-100h100v-100 100-100l-100 100v-100h-200a200 200 0 00 100 0h100l-100-100h100l-100-100h100v100l100-100v100h100v-100h-100v-100h-100v-100l-100-100v-100 100l100-100 100 100h100v-100h-100v-200l100 100v-100l100 100v-100l100 100h300a400 400 0 00 0 100h200v-100l-100 100v-100l-100-100v-100l200 100v-100 100-200l-100 100h100-400a100 100 0 01 0-100h-100l-100 100v-200l-100 100v-100h100-100v-100h-100v-100h-100l100 100h100v-100l100 100h100a100 100 0 00 0 100v-100h200l100-100 100 100h-100l300 100v-200h-100a600 600 0 01 0-100v-100h-100v100h-300l-100-100h-100l100-100a1000 1000 0 00-100 0v-100l100-100v-100l100 100h100v100-100h100l-100 100h100v-100l200 100h-100 300v-100l100 100v-100h-300l200-100h-200 100v-100l-200 200 100-100v-100l-100 100v-100l-100 100 100-100-100 100-100-100v100h-100l100-100v-100l-100 200v-200l-100 100-200-100 100-100v100l-100-300 200 100-100 100h200l-100-100h400l-100 100h200v-100h100-100l100-100h-200v-100l-100 100v-100l100-100-300 100v-100h-100a700 700 0 01-200-100h200-100 100l-200-200 100 100 100-100v100h100v-100h-100v-100l200 100 100-100v100-100l200 100v-100h100v100h100l100-100h200v-100h-100v100h-400l100-100 100 100v-100l100 100 100-100h-100c100 0 100 0 0 0h-300 100l-100 100h-100v-100h-200l-100-100h-100v-100h-100 100l-100-100v-100h100s100 200 300 100v100-100h100l100-100h-100v100l-200-100h-100v-100l-100-100h200l100 100v-100h100v100h300l100-200h-100l-100 100v-100 100-100l-100 100v-100h-100v-100h200-100v-100h-100v-100h-200 100l-100-100h-100l-100-200 100 100h200v100h200l100-100h-300v-100h200l100 100 100-100h-100l-200-100h100l-200-100h100-100l100-100h100-100v-200h100v100l100 100 100-100a200 200 0 00 100 100v-100h-100v-100h-100a700 700 0 01-200-100h200v100-100h300v-100h-100v100-100l-200 100v-100 100l-100-100h100-100v-100h-100l-100-100 100 100h200v-100h-200v-100l-100-100h100-100v-100h100v100h300l-100-100v-100l100 100v-100l100-100h-200l100-100-100 100v-100l-100-100v-100h-100 200l-100 100 100-100h100l-200-100h200-100l100-100v100-100h100l-200-100h100-100v-200h-100 200-100v-100h-100v-100h100v100h300v-100h-100v-100l-100-100 100-100h-100 100l-100-100h100v-300h100v-300l100 100v100h100-100a400 400 0 00 100 0l100 100-100-100h100v-300l100 100v200h100l-100 100v100h100v200l100-100-100 100v100h100l-100 100h100-100 100l-100 100v100-100 100h100l-100 100h100l-100 100v100h200l-100-200 100 100v-600l100 100v-100l-100-200h100v-200l100-100-100 100h100a100 100 0 00 0 100h-100l100 100h100l-100 200v100l100-100v200h100v100h-200a400 400 0 00 100 0h100l-100 100-100 100h100-100 100l100-100v200-100h-100v100h100l-100 100v100l100-100-100 100v100h100l-100 100 200 100h-100 300-100l-100 100h-100l200 100h-100v100h100l100-100v100h-200v100h-100 200-100l100 100 200-100v300h-200v100a1800 1800 0 00-100 0h200l-100 200h100l-100 100h100v-100 100h100-100l100 100v-100 100h100a500 500 0 00 0 100 800 800 0 00-100 100v100l100 100h-100l100-100 100 100v-100h100l-100-100 100-100h-100 100l-100-100h100v-100h-100v-100l100 100v-200h-100l100-100v-100l100 200-100 100h100-100 100v200l-100 100 100-100 100 100v100h-100l100 100h-100l300 100v-100l-200-100h200l-100-100h100v-100h100l-100-200-100-100h200l100 100h100-100v-100h-100v-100h-100l-100-100h200l-100 100h100v-100h100l100-100h-100v-100l100-100h-100 100l-100-100h100v-300h100v300l100-100v200h100-100l-100 100h100v100h-100l100 100v100h100v100h-100 100v100h-100 100v100h-100v100l100-100v100l100 100h100l-100-200h100v-100h-100 100l-100-100h100v-100l100-100h-100v-200h100-100 100v300h100l-100 100h200-100v100h100-100l100 100h-100l100 100v-100l100 100h-100v100h100-200v100h300v100h-200v100h100l-100 100 100-100v200h100l-100-100h100v-100h-100v-100h200-100l100-100h100-100v-400l100-200h-100v-100l100 100v-100 100l100 100v-200l-100-100 100-100v300l100 100-100 100h200-100v100h100v100l-100 100h100l-100 100h100v-100l100 100h-200l100 100 100 100h100l-100 100 100 100v-400h100-100 100v-100a100 100 0 01 0-100v-200l-100-100 200 200h100l-100-100v-200h100l-200-200 200 200v-300h100v-200h-100v-100l100 100-100-100h100v-100h100l-100-100h100v100-400h200-100v100h100v300l100 200v400h100v100a900 900 0 00 100-100v100h-100v200-100l100 100-100 100 100-100-100 100v100a200 200 0 01 0 100h-100 300-100l100-100v100l-100 200 100-100v100h-100v100l100-100v100l100-100v100h100v100l-100 100h100v100-200h100a400 400 0 00 100 0l-100 100h100v100l100-100a600 600 0 00-100 200h200l-100 100v100h100v100h-100l100 100h-200l100 100h-300l100 100h100v100l100-200h100v-100l200-100-100 100v200h-100 100v100h-200l100 100-100 100 100-100-100 100v100l100-200h100v-100h100v-100h100v-100 300h-100v200h-100v100l100-100v100l100-100-100 200-100 100v100h-100l100 100-100-100 100 100-100 100h100v200l100-100v-100h100v-100h100l-100 100h100-100 100v-100h100l-100 100v400h-100l100 100-100-100-100 100h200v-200h100v-100h100l-100-100 100 100c-100-100 0-200 100-200l-100 100v300h-100l100 100 100-100a300 300 0 00 0 100l-100 100a100 100 0 00 0-100v100h-200 100-100l100 100h-100 100-300 100l100 200h-200l-100-100 100 200v-100h-100v100l100 100h-100l-100-100-100 100h-100 100v100h-100l100 100h-100 200v100-200h100v200l-100 100h100v200l-100 100h100v-100h100v-100 100h100v-100h100l100-100 200-100-100 100h100v100h200l-100-100v-100l-100-200 200 100v100h100-100 100v-100h-100v-100l100 100v-100h-100l-100-100a100 100 0 00 0-100h-100 100-100v-100c100 100 200 200 300 100h-100l-100-200h100v-100l100 100h100v100h100v-100h-100v-100l-200-100h100-100 100l100-100v100l100 100-100-100h100l-100-100v-100 100-100h-100l-100-100 300 100h100l-200-100-100-200v100h200l100 100-100-200-100-100-100-100 100 100v-100h100l-100-100-100-100h100l100 100-100-200a800 800 0 01 100 100v-100l-100-200 100 100h100l-100-100-100-100h100l100 100-100-100h100l-100-100 100 100-100-200 100 100v-100l100-100-100-100h100l-100-100h100l-100-100h100v-100h-100l100-100v-100h-100 100v-200h100v200h100l-100 100 100 100h-100 100l-100 100h100-100 100v300h-100l200 100v100-200h100v-100a600 600 0 00 100 0l-100-100h-100a200 200 0 00 200 0l-100-100-100-100h100v-300h100v100l100 100h-100v100h100v200-100 200l100 100h-100 100l-100 100h100l-100 100h100v200l100-100-100 200 100-100v200-100 100a400 400 0 01 0 100v100h100-100v200h100l-100 100 100-100v100h100-100l100 100h-100v100l-100 100h200-100 100l-100 100h100v100-100l100 100v-200 100l100 100v-100h100l-100-100h100v-100l-100 100v-100h200l-100-100h100l-100-100v-100l100 100v-100h200-100l-100-100v-100h100l-100-100h100l-100-100h100-100v-100h-100 100l-100-100h100-100l100-100v-100 100l100-100v100l-100-100h100-100v-100h-100 200l-100-100h100-100l100-100-200-100h100v-100h100l100 100v-100a500 500 0 01-100-100v-200h100-100 100l-100-100v-100l100 100-100-100h200-100v-100h-100l100-100v100l100-100v100l-100 100h100v200h100v100l-100 100h100v100h100-100l-100 200h200v100h-100l100 100h100l-100 100h-100 100l-100 100 100 100 100-100v100l-100 100v100h-100 100v100-100h100l-100 200 100-100v200h-100 100v100l100-100v200h-100v100h100l-100 100h100l-100 100h100l-100 100h100v-100h100l-100 100h100l-100 100h100v-100h100v200l100-200v100l100 100v-200l100 200a500 500 0 01 100-100l-100 200v100l-100-100v200h100l-100 100h100v-200a1000 1000 0 00 100-100v200l100-100v-100h100l-100 100 100 100-100-100v100h100l-100 100a1000 1000 0 01 0 100l100-100 100-100v100l-100 100h100v-100h100v-100h-100 100v-100h-100l100-100h-100v-100h100l-100-100h100v-300h100-100v-100l100 100v-100h100v-100h-100 100l-200-100v-100l100 100v-100l-100-100h200l-100-200h100-100l100-100v-200h100a500 500 0 00 0-100v100-100l100-100v300h100l-100 100h100v100l-100 100h100-100l100 100v100l100-100v100h-100l-100 100 100-100v100-100h200l-100 200h-100 100l-100 100h-100 400-200v100h100l-100 100-100-100 100 100h-100l100 100v-100 100h200-200l100 100h-100 100l100 100h-100l100 100h100l-200 100h100-100 100v100l100-100v100h-100v100h100-100v100h-100l-100 100h200v100l100-100v100l-100 100h-100 200v100s-100 0 0 0h-100l100 100h-100l200 100-100 100h100v100l-100-100v100h100-100 100a800 800 0 01 0 100v300h100a500 500 0 01 0 100h100l-100-200h200v100h100v100h-200l100-100v100-100a300 300 0 00-100 0l100 200-100 100h300v100l-200 100v100h200l-100 100h100v100l100-100h100a900 900 0 01-100 100l100 100h-100v100h-100l-100 100h100-100v100h200-100 100l100 100v300l100 200h100v-100l100 100h-100v100l-100-100v100a500 500 0 00 200 0v100h-100v200h-100v100h100v100l100-100v100-100l100 100h100-200v100l100 100h-100 100a300 300 0 00 0 100v-100h200l-100-100h100-100 100v-100h-100v-100a900 900 0 00 100 100v-200 100l100-100 100 200v100l100-100-100 200v100-100 100l100-100c-100 100-200 100-100 200v-100 100h100v-200l100 100v-200l100 100-100 100h100l-100 100 100 100v200l100 100h100l100 100v200h100-100v100h100l-100-200c100 0 0 0 0 0h100l-100-100h100l200-100 100-100v-100h100-100 100v-100l100-100v100h100v200l100 100h200v-300l100-200v-100 100h100v200a400 400 0 01 100 200h-100v100l100-100h100v-300l100 100v-100l100 100v200l100 200h200v-100 200l100-100v-100l100-100v300h100v-200l100-300v100-200l100 100v-200h100-100v-100h100v-300h100l-100-100h100v-100h-100v-100h200l-100-100h100v-200 100-100h100l100 100h100v-200l100 100v300h100v100h100l-100-100h100-100v-100h100l-100-100h100v-100h100v200h100l-100 100 100-100-100 100v100l100-100-100 100h100v100h-100 100v100h-100l100 100v100a500 500 0 01 100 100l-100-100h100l-100-200 100 100h100l-100-100v-100h100l-100-100h100l-100-100 100 100v-100h100l-100-100v-200l100 100-100-100v-100h100v-500l100 100h-100l100 100h-100 100v300h100-100v100-100 200h100v200l-100 100h100a600 600 0 01 0-100v100h100l-100 100h100l-100 100h100-100l100 100v-100 200h100v-100l100-100v-500 400h100v300h100l-100-100h100l100 300v-200h100-100l100-200v100-100l100-100v-200h100v300h100-100l100 100v400h100v100l100-100h-100v-100h100v-300l100 100-100 200h100l-100 100h100v100-100 100h100-100v100h200v-200l100 100v-100l100-100-100-100v100l100-100v-100l-100-100 100-100h-100v-200l100-100h-100v-100l-100-100 100-100h-100l100-100h-100l100-100h-100l100-100v-200 200h100v100l100 100h-100l100 100v100l100 200a1000 1000 0 01 0 100v100h100l100-200a500 500 0 00-100 100 400 400 0 00 100-100h-100v-100l-100 100v-100h100l-100-100h100v-300h100v-200 300h100l-100 100h100-100v100h100l-100 100v100h200l-100 100h100v100h-100 100l-100 100 100 100-100 100 100 100v-100 200h100v100l-100-300h100a1200 1200 0 01 100 100h100-100v-100h100l-100-100h100-100l100-100h-100v100l-100-100v-100h100v100-100l100 100v-200l100 300v100h100v-200h-100v-100h100-100l100-100-100-100h100v-100h-100 100v-100a400 400 0 01 0 100l100-100v100l-100 100h100v200l100-100-100 100v100h100a400 400 0 00-100 100h100-100v100h100v-100l100 100-100-100h100v-100l-100-100 100 100v-100l-100-100h100v-200l100-100v400l100-100-100 100v100l100-100v200h100l-100 200 100-100-100 200 100-100v200-100h100l-100-100 200-200h-100 100v100-300 100l100 100h100v-200h100-100 100v-100l-100-100a600 600 0 01 100 0v-200l100-100v-100 200l100-100v300h-100 100v-200h100-100l100 100v-300h100v-100h-100l100-100h-100l100-200v300h100-100v200a300 300 0 01 100 0v200l100-100h-100l100-100v-100 100l100 100h-100 100l-100 100h100l-100 100 100 100 100-100v100l-100-200 100-100v-100h-100 100l-100-100v-100l100 100h100-100v-200h-100v-100h200-100 100l-100-100v-100l100 100v-300h100v-100l-100-100 100-100v-500l100 100v-100a600 600 0 00 100 100l-100-100v-100l100 100-100-100v-100l300 100-200-200h100-100v-100l100 100 100-100h-100v-100l-100 100v-100h-100 100v-200l100 100v-100h100v-100l-100 100v-100h-100l100-100v100h100v-100h-100v-100l100 100-100-100 100-100v-100l100 100-100-200h100v100-200 100l100-100v-100l100 100v-100 200h100v100l-100 100 200-200v100l-100 100h100a900 900 0 01-200 100h100l200-100c0 100-200 100-100 200h-100v-100l-100 100h200v100l100-100v100l-100 100h200-200v100h100-100l100 100h100l-100 100h100v100h-100 100v200l-100-100v100h200v100l100-100v100a1200 1200 0 00-100 0l-100 100h-100v100l100-100v200h100l100-100-200 200h100-100 100v200-100l100 100 100-100h100-100v100h-100 200l-100 100v100h100-100v400l100-100v200h100v-200h100-100v-100h100l-100-100 100-100v-100h100-100v-100l100-100a200 200 0 01-100-100v-100h100l-100-200 100-100h-100 100v-400l100-200v500h100l-100 100v-100 200l100-100v100h-100v100h100a600 600 0 00-100 100l100-100v100l-100 100h200l-100 100c0-100-100 0 0 0h-100l100 100a500 500 0 01 100 0h-100v100a200 200 0 00 100 0h-100 100v100h-100v100h200l-100 100a500 500 0 00 100 0v100-100l100 100v400h100v-100h100v100-100h100l-100-100h100v-100h100l-100-100h100v-100l100 100v100h100-100v200-100h100v-100 100h100v100h100v-200a800 800 0 01-100-100h100v-200h100-100v-200h100l-100-100a300 300 0 00 100-100v300-100 200l100 100a800 800 0 00-100 0h100v200a100 100 0 01 100 100v200-100l100 100v300h100v-100 100h100l-100 200h200l-100 100h100v100-100h100-100l100-100h-100l100-200-100-100 100 100v-200 300h100v-500l100 100h-100 100v500h100l-100 100h100v100-100l-100 100h100v100l100-100-100 100v100h100v-100h100l-100-100h100v-200a1000 1000 0 01 0-100v-100l100-100h-100 100v-300 100l100 200v-100l100-100v-200l100 400h100-100l100-100h-100v-100h100l-100-100h100v-100l-100-100v-100l100 100v-100h100l-100-100a500 500 0 00 0-100v-200h100c-100 100 0 200 100 200l-100-100h100v-100l-100-100 100 100h100l-100-100v-100h200l-100 100 100 100v-100 100a100 100 0 00 100-100v100h-100l100 100h-100 100v100h100l-100 100 100-100v200h-100 100l-100 100 200-100-100 100v200l-100 100 300-200-100 100v300-100c100 0 100 0 0 0h100l100-100v100h100-100v-100l100-100 100-100h-100v-300h100l-100-100h100l-100-200 100-200v100-200h100v-100 300h100v-300h200l-100 100 100-100h100-100l-100-100v-200h-100a200 200 0 01 0-100v100-500h100v-500h100v-100 100l-100-100h100v-100h100l-100-100 100-100-100-100 100 100v100l100-100v100-100h-100v-200l100 100h-100l100 100v-300h200l-100-100v-100h100v100l100-100v100l100-100v-100l-100 100v-100l100-100h-100 100v-100 100h100v200l100 100v-100 200l100-100v200h100l-100 100 100 100h-100l100 100-100 100h200l-100 100h100l100 100h-100l100 100h-100l100 100h-100 100v200l100 100v100a800 800 0 00 100 100v-100h200l-100-200v-200l100 200h100v100l100 100h100l-100-100 100 100v-100 200h200l-100-100 100-100v-100 100-100l100 100h200a900 900 0 00-100 100h100l100 100v100l100-100-100-100 200 100v-100h-100v-200l100 100-100-200 100 100v-200h100l-100-100 100-100h100l-100-100 100 100v-100 300h100a600 600 0 00 0 100l-100 100 100-100v100l100-100v400-100 100h100v-200 400l100-100v100l200 100h100-100a400 400 0 00-100 0h-100c-100 0 0 0 0 0l-100 200h100v300l200-200-100 200h100l-100 100 200-100v100h100v-100h-100l-100-100h100l-100-100h100l100-100h-100 100-300l200-100h-200 200l100-100h100c0 200 0 0 100 0h-200 100v-100h-100v-100h-200 300l-100 100h100v-100h100l100-100h-200l100-100-100 100v-100l-100 100 100-100a100 100 0 00-100 0h-100 100-100l100-100h-100l100-100 100 100 100-100h-100l-100-100h400-200l100-100h-100 100l-100-100h200l-100-100h-300 200l100-100h-200l200-100h-300 100l100-100h-300l-100-200 100 100h300-100v-100l-100 100v-100h100v-100h-100l-100-100h100l200 100 100-100-100-100 100 100h200l-200-100a700 700 0 01 100 0h100l100-100-100 100v-100h-100v-100h-100 100l100 100a300 300 0 01 100 0v-100h-100l-200-100h200l-100-100 100 100v-100h100l-100-100h200-100v-100 100h-100l-200-200 100 100 100-100v-100h100-100 200v-100l-100 100v-100l-100-100h100v-100h100-100 100l-100-100h100-100 100v-200h100l-100 200h200l-100 100v-100 200l100-100v100h100v-100l-100 200h-100v100h100v200l100-100h100l-100 100-100 100h100a200 200 0 01-100 0l-100 100v-100 100h200-100 100v100l100-100v100a700 700 0 01 100 0v100h-100l100 100-200 100h100l100-100 100-100h300l-100-100 100 100h100v-100a1500 1500 0 00-100 0l-100-100h100-100l-100-100h400-200l100-100a700 700 0 00-100 0h-100v-100h100-100l-100-100 300 100h100l200-100h-200 100-200v-100h100v-100h-100l-100-100 200 100v-100h-100v-100l-100-100 200 100h100v-100h-100v-300 100h100l100 100h200v-100a400 400 0 00-100 100l-100-100h-100 100l-100-100h100a1000 1000 0 00 100 0h-100l100-100-100 100-100-100h100l100-100h-100a400 400 0 01-100 0l-100-100h100l-100-100h300l-100-100-100-100h300-100v-100h-100 100v-100h-100v-100h-100 200l-100-100 200 100v-100h100l-100-100h-100v-100c0 100 0 0 0 0h200-200l100-100h-100l-100-100h100l100 100v-200l-100-200h100l-100-100 100-100 100 100v-100h-100v-100a600 600 0 01-100-100l100 100v-100h100l-100 100c200 0 100-100 100-100v-200h-100 100v-200 100-200h100v200-100 400l100 100h-100 100v100h-100 100v100h100a700 700 0 00-100 100v100h-100 200v100h-100 100l-100 100v100l100-100-100 100h100v100-100l-100 200h-100l100 100h-100 100l-100 100h100v100-100h100-100l100-100 100 100v100a300 300 0 00-100 0v100l100-100v100l-100 200 100-100a800 800 0 01-100 100h100l-200 100h100l200-100v100h-100 200l-100 100-100 100h100l-100 100 200-100-100 100v100l-100 100h100v100h-100 100l100-100h200v-100h200l-100-100h200v-100h100-200l200-100-100 100-100-100-100 100v-100h100l100-100h-100l-200 100v-100l-100 100v-100l200-100h200l100-100h-100 100l-200 100 100-100h-100l-100 100a300 300 0 01-100-100h-100 100-100v-100l100-100h-200v-100h-100l200-100-100 100h-100v-100l-100-100h100l100 100v-100 100l100-100v100-100h200-100 100-200l100-100-100 100v-100h-100v-100h-100v-100l300-100h100v-100h100l100-100a600 600 0 01 100 0v-100l-100 100h-400v-100h-100l100-100h200a800 800 0 01 100-100l-100 100h200v-100h-200l200-100-100-100v100l-100-100-100-100h400v100-100h100l-100-100v-100h-100l200-200 100-100h400l100-100v-100h-100 100-100l-100-100-100 100-100 100 100-100h-100l100-100-100 100v-100h-100l-100 100h-300l100-100h-200l300-100h-100l300-100h200-300v-100h100l100-100h100l100-100v-100l-100 100v-100l-100 100h-100l100-100-100-100-200 200 200-200h-200l-100 100-100-100-100 100v-100l100-100h-200v-100h-100 100l-100-100v-100l100 100v-100h300v100-100h100l100-100v-100h100-200l100-100-100-100h200v100h100v-100 100h100l100-100h-200v-100h-200v-100h300-100l-100-100h-100v100l-100-100v-100h-100v-100l100 100h400v-100l100-100v-100h-400v-100h-100 100l-100-100h100l-100-100h-200v-100h100l100-100h100v100s0-100 0 0h100l-100-100h300l100-100h100-100l-100-100h100-100l100-100-100 100-100-100 100-100h-100v-100h-100 100v-100l-100-100 100 100v-100l-100-100h100l-100-100 100 100v-100l100 100v-100h100l-100-100 200-100-100-100-100-100h200l-200-100h200-100l100-100-100-100h200v-300l100 400 200-200-100-100h100-100v-100h-100 300l100-100h-100l100-100h-100 100v-200 100h100l-100-100h100v100h100v600h100l100-100 100-100 100-100v200l-100 100-100 100h100l100-100-200 200v100l100-100h200-100v200h-100 100v100l100-100v300l-200 200v100h200-100l100 100h100v100a200 200 0 00 100 0v100-300h-100l-100-200 200 100v100-300h100v300h100v-300 100l100 200 100-300-100 300 100-100v-200h100l-100 200h100a300 300 0 01 100-100l-200 200h100l200-200-100 100h100l-200 200v100l100 100v-100l100 100v-200 100-100a600 600 0 00 0 200h100v-100 100-200l100 100v-100 100-100h200v-100h-100 200l-100-100v-100l100 100h200-100v-200h100v-100l100 100-100-100h-200l100-100h-300 100-100a600 600 0 01 100-100h-100 100l-100-100h200v-100h-100l-200 100v-100h100l100-100h-100 100v-100h-200 100-100l200-100h-200l200-100v-100l-100 100 100-100h-200 100l-100-100h200l-800-200h300-100 100l-100-100h-200 100l-100-100h200l-100-100h100v-100l100 100v-200h-100 100l100 100v-100l100-100h100l-100-200v-200h200v-100l100-100a1000 1000 0 00 0 200h100v100-200c0 200 0 100 100 100h100v-200h-100 100l-100-100h100l-100-100h100l-100-100 100-100v-100l100 100v-300 200h100l100 100 100-100v-100l-100-100v-100h-100 200l-100-100 100 100-100-100a200 200 0 01 0-100l100 100-100-100h100v-100l100 200v-200l100 200h100v-100 100-100 100h100v-100l100-200v100-100l100 200 100-300m0 400s0-100 0 0m-1000 600h100-100m800 100h100-100m0 300 100-100-100 100m-100 200 100-200-100 200m100-100v100-100m-1000 100v100-100m-400 0a100 100 0 00 100 100l-100-100m1300 100h100-100m300 100v200l100-100v-100h-100m-1000 100c-100 0-100 100 0 0m-600 0v100-100m1700 0v100a600 600 0 00 0 100h100l-100-100v-100m200 100v100-100m-1200 0v100l100-100h-100m2700 0-100 100 100-100m-200 100v100-100m-1500 100s100 0 0 0m-200 0s100 0 0 0m200 0h100-100m500 0v400h100l-100-400m-200 100h100-100m600 0h100a100 100 0 00-100 0m-2900 0c100 0 0 0 0 0m-100 0v100h100l-100-100m2100 100 100-100-100 100m-1800 100s0 100 0 0c100 0 0 0 0 0m2200 200 100 100v-200l-100 100m-200 0c-100 0-100 0 0 0m1300 0h100-100m200 0 100 100v-100h-100m-1400 0v100-100m-1800 100h100-100m-2000 100v100-100m3600 100v100l100-200-100 100m100 0h100-100m500 0h100-100m-100 100h100l-100-100v100m600 0h100v-100l-100 100m-4600 0h100-100m3700 0h100-100m-3700 100h100-100m2200 0 100-100-100 100m2000 0h100-100m-4600 0c-100 0 0 0 0 0m5500 0h100-100m-1700 0h100-100m1500 100 100-100-100 100m-300-100v100a200 200 0 00 100-100h-100m-5300 0v100h100v-100h-100m4800 0 100 100h100l-200-100m-4100 100h100v-100a100 100 0 00-100 100m3300 0h100-100m1100 0h100-100m300 0v100-100m-2500 100v100-100m-2100 100h100v-100l-100 100m4200 0h100-100m-400 0h100-100m300 0s0 100 0 0m-1100 0v100h100l-100-100m1000 100h100-100m-3900 0h100-100m4200 0h-100 100m100 0c-100 0 0 0 0 0m100 0v100l100-100h-100m100 0h100-100m-600 0v100h100l-100-100m-1700 0v100-100m-2100 100v-100 100m4400 0c-100 0 0 0 0 0s0-100 0 0m-4600 0h100-100m2100 0h100-100m2400 0c100 0 0 0 0 0m-1700 0h100-100m1800 0h100-100m400 0h100-100m-200 0v100-100m-200 0v100h-100 100v-100m300 100 100-100-100 100m-5800 0c100 0 0-100 0 0m100 0c100 0 0 0 0 0m4700 0c100 0 0-100 0 0m-1100 0h100-100m-700 0 100 100v-100h-100m1000 100 100-100-100 100m200 0 100-100-100 100m1100 0v-100 100m-1400 0c-100 0 0 100 0 0m400 100v-100 100m200 0h-100 100v-100 100m1200-100v100l100-100h-100m200 100h100-100m-1400 0v100a300 300 0 00 100-100h-100m-600 100 100-100-100 100m200 0 200-100-200 100m1000 0v-100 100m400-100v100l100-100h-100m-300 100c0 100 0 0 0 0m-4200 0v100l100-100h-100m2900 0v100-100m500 100c-100 0 0 0 0 0s0-100 0 0m-700 0h100-100m-2600 0h100-100m3200 0v100-100m1400 0h100-100m-3000 0h100-100m2300 0h100-100m0 100 200-100-200 100m-300 0c100 0 100 0 0 0m-1000 0s0 100 0 0m200 0v100h100l-100-100m1600 100h100-100m-4000 0h100-100m200 0h100-100m2800 100v-100 100m1000-100c-100 0 0 100 0 0m-2000 0v100-100m0 0v100-100m700 0v100-100m-700 100h100-100m-2400 100h100v-100l-100 100m1100-100v100-100m1300 100h100-100m-3400 0c100 0 100 0 0 0m3900 0h-100 100m500 0v100-100m300 0v100-100m-600 0v100l100-100h-100m600 0v100-100m-600 100c0-100 0 0 0 0m400 0h100-100m1000 0c-100 0 0 0 0 0s0-100 0 0m-2000 0h100-100m200 0h100-100m-3700 0h100-100m4400 0h100-100m0 100v-100 100m400-100 100 200v-100h-100v-100m700 100v-100 100m-1500-100v100-100m200 0v100-100m300 0v100-100m-1000 100 100-100-100 100m400-100-100 100h100a100 100 0 00 0-100m1100 0v100-100m-400 100 100 100v100l200-100h-200v-100h-100m-4900 0-100 100 100-100 100 100v-100h-100m4000 0v100-100m300 100a100 100 0 00 0-100v100m300-100a300 300 0 00 0 100v-100m-1000 100v-100 100m700 0h100v-100l-100 100m-200-100v100-100m1100 100h100v-100l-100 100m-700 0s0-100 0 0m900 0c-100 0 0 0 0 0m200 0h100-100m-5600 0v100h100v-100h-100m6000 0v100h100v-100h-100m-1600 0 100 100-100-100m400 100s0-100 0 0m-3100 0h100-100m2500 0c-100 0-100 0 0 0 0 0 0-100 0 0m-4100 100h200-100v-100l-100 100m0-100s0 100 0 0m400 0v100-100m3400 0v100-100m500 0v100-100m400 0v100-100m-4500 100h100-100m4900 0s0-100 0 0m-900 0v100-100m-3900 0v100-100m-500 0s-100 100 0 0m4300 100a300 300 0 01 0 100h100l-100-100m300 0v100h100l-100-100m-46800 100a100 100 0 00 100 0h-100m43500 0 100 100v-100h-100m3000 0s0 100 0 0m1300 0 100 100-100-100m-4200 100h100v-100l-100 100m2900 0h100-100m-2900 100h100-100m100 0h100-100m3000 0 100 100v-100h-100m-46600 0s0 100 0 0m47300 0 100 100h-100 100l-100-100m200 0v100-100m-5200 100s100 0 0 0m-42200 0c100 0 100 0 0 0m0 0v100-100m44400 100v100-100h100-100m-600 0h100-100m800 100h100-100m400 0c0 100 0 0 0 0m900 0h100-100m-2000 100-100 100 200-100v-100l-100 100m300-100h-100l-100 200v100l100-200v100l100-200m500 0v100-100m400 0v100-100m-1500 100h100v100h-100l100-100v-100a400 400 0 00-100 100m200 0 100-100-100 100m1000-100v100a500 500 0 01 100 0l-100-100m-500 100h-100 100m2000 0s100 0 0 0m-1200 0h-100v100l100-100m600 0h100-100m1500 0s-100 0 0 0m-2600 0v100l-100 100 200-200h-100m-1600 0v100-100m2500 0v100-100m700 0 100 100v-100h-100m-3300 0v100h100l-100-100m1100 100v-100 100m400 0v200h100l-100-100a700 700 0 00 100 0v-100a100 100 0 01 0-100l-100 100m-100 0c-100 0 0 0 0 0s0-100 0 0m1000 0 100-100-100 100m700 0c-100 0 0 0 0 0s0-100 0 0m-100 0s0-100 0 0m-1100 0h100-100m300 100v-100 100m300-100c100 100 100 0 0 0m1500 0 100 100v-100h-100m-47200 0h100-100m47400 100 100-100-100 100m300-100v100-100m-5100 0v200l100-100-100 100h100v-100l-100-100m4900 0v100-100m-3800 100s0-100 0 0m4300 0c-100 0 0 0 0 0s0-100 0 0m-700 0s0 100 0 0c100 0 0 0 0 0m200 100 100-100-100 100m-3600 0 100-100-100 100m3700-100a200 200 0 00 0 100v-100m-3400 100-100 100h100-100l200-100v-100l-100 100m200-100v100-100m0 100h100-100m2100-100v100-100m-2900 100h100-100m400 0h100-100m-43900 0h100-100m47800 0-100 100h100v-100m-5400 0v100l100-100h-100m5400 0v100-100m-5100 100v-100 100m1100 0v-100 100m600 0c100-100 0-100 0 0m-44500 0h100-100m47600 0a600 600 0 00-100 0 600 600 0 00 100 0m-3600 0h100-100m3700 0h100-100m-47700 0c-100 0 0 100 0 0m600 100h100v-100l-100 100m41800-100c0 100 100 0 0 0m-42300 100h100v-100l-100 100m47200-100v100-100m500 100 100-100-100 100m-3100-100v100-100m2100 0 100 100-100-100m1800 0v100h100-100 100l-100-100m-42400 100 100 100 100-100-100-100-100 100m-5600 0h100-100m42000 0v100l100-100h-100m4900 0h100-100m-47400 0h100-100m42200 100 100-100-100 100m600-100 100 100v-100h-100m4900 0s-100 0 0 0m700 0h100-100m-48600 0c-100 100 0 100 0 0m46900 0-100 100h100a300 300 0 01 0-100m-46400 100h-100 400v-100a3700 3700 0 00-200 0v100-100l-100 100m41700-100v100h100l-100-100m5100 100c-100 0 0 0 0 0s0-100 0 0m-3500 0h100-100m3600 0c-100 0-100 0 0 0 0 0 0-100 0 0m0 0h100-100m-47200 0h100-100m44000 0a500 500 0 00 0 100h100l100-100h-200m200 0v100l-100 100h-100v100h-100v-100 100h100v100-100h200v-100h100l-100-100 100 100v-100h100-100v-100h-100m3400 0h100-100m200 100v-100 100m-4800-100 100 100-100-100m700 100h100-100m4200-100v100h100-100l100-100h-100m300 0-100 100v-100l-100 100h300v-100 100a500 500 0 01 0-100h-100m-48400 0v100h100l-100-100m100 100h100-100m43200 0h100-100m700 0h100-100m3400 0h-100l100 100-100-100h100m200 0s0-100 0 0m-48500 0 100 100-100-100m42900 0h100-100m5800 0a500 500 0 00 100 0h-100m200 0h100-100m-47400 0v100h200l-100-100h-100m5500 0v100l100-100h-100m41600 0v100-100m200 0 100 100-100-100m-47700 0v100-100m400 0v100-100m300 0v100-100m-400 100h100-100m43400 0v100h100-200 200v100h100l-100-200h-100m3400 0h100-100m-41200 0c0 100 100 0 0 0m37300 100 100-100h-100v100m4200-100 100 100-100-100m500 100v-100 100m500-100h100-100m-48500 100h100-100m200 0h100-100m48200 0h100v-100l-100 100m-42100 0s100-100 0 0m38000 0h100-100m2500 0c100 0 100 0 0 0m-100 0h100-100m1300 0s0 100 0 0m-4500 0v100h100v-100h-100m3300 100v-100 100m700-100v100-100m-46900 100s0-100 0 0m46100 0h100-100m-47700 0h100-100m1600 0h100-100m43900 0s-100 0 0 0m2800 0s100 0 0 0m-3300 0v100-100m3400 0h100-100m1200 0h100-100m-49100 0h100-100m1100 0v100-100m43200 0v100-100m3600 0v100-100m800 100v-100 100m100-100v100-100m-3700 100c100-100 0-100 0 0m2600 0h100v-100l-100 100m-48200 0h100-100m1500 0h100l100 100-200-100m42500 0h100-100m1500 0h100-100m100 0 100 100v-100h-100m3000 0c-100 0 0 0 0 0m400 100h-100 100v-100 100m600 0v-100 100m-42300-100c0 100 100 0 0 0m36200 0h100-100m-42600 0v100-100m44800 0v100h100-100 100l-100-100m3500 100c0-100 0 0 0 0m300-100v100-100M300 37000c100 0 0-100 0 0m700 0h100-100m6600 0v100h100v-200l-100 100m36600 0h100v-100l-100 100m2000 0c100 0 0-100 0 0m100 0v-100 100m-600 0h-100l100 100 100-100h-100m-43900 0 100 100-100-100m300 0h100-100m41900 0h-100 100m-42900 0v100l100-100h-100m44200 0c0 100 0 0 0 0m3300 0h-100v100l100-100m1200 100 100-100-100 100M900 37000s0 100 0 0c100 0 0 0 0 0m800 0v100l100-100h-100m46600 0v100-100m1400 100v-100 100M600 37000v100l-100 100v100h100l100 100H600a400 400 0 00 200 0H700l-100 100 100 100H600v100h200v-100h100l-100-100 100 100v-100 100h100l-200-100h100l-100-100h100l-100-100h100l-100-100H700v-200H600m44800 100h200l-100-100v100l-100-100a200 200 0 00 0 100m2800 0v-100 100m1000-100v100-100m200 100 200-100-200 100m200 0 100-100-100 100m-3700 0c100 0 0-100 0 0m3500 0s0-100 0 0m-47600 0c100 0 0 0 0 0m44400 0h100-100m3100 0c100 100 100-100 0 0m-47700 0h100-100m43500 0v100-100l-100 100h100-100 200v-100h-100m600 0h100-100m3500 0v100-100m-3900 0-100 100h100v-100m700 0c-100 0 0 100 0 0m2300 0s0 100 0 0c100 0 0 0 0 0m-41000 0 100 100-100-100m41100 0-100 200 100-200m1200 0v100-100m0 100v200l100-300-100 100m-5600 0h100v-100l-100 100m2100 0 100-100-100 100m-400 0h100-100m200 0c0-100 0 0 0 0m-37500 0c-100 0 0 100 0 0m35700 0v100l100-100h-100m1100 0c0 100 100 0 0 0m300 0v100l100-100h-100m-45300 0v100-100m800 0v100-100m6600 0c0 100 100 0 0 0m37300 0 100 100v-100h-100m-43100 100v-100 100m43300 0h100v-100l-100 100m-1100 0h100-100m1300-100v100-100m-44200 100v100-100m0 0h100-100m100 100h100v-100l-100 100m6100-100s100 0 0 0m37700 0 100 100h-100v100-100h200l-100-100a700 700 0 00-100 0m800 0 100 100-100-100m300 0v100-100M900 37400h200-100v-100l-100 100m1000-100v100h100v-100h-100m300 100v-100 100m5500 0c100-100 0-100 0 0m42000 0v-100 100m-5500 0s0-100 0 0m5500 0 200 100-200-100m-42300 0h100-100m38100 0a1300 1300 0 01 100 100v-100h-100m-37200 0v100-100m37600 0h100-100m200 0v100-100 100-100m-44900 0v100a200 200 0 00 100-100h-100m43300 100c100 0 200 0 100-100l-100 100m-42300-100-100 100h100v-100m43700 0v100-100m-44600 100c0-100 0 0 0 0m100 0h100v-100l-100 100m-400 0h100a100 100 0 00-100 0m200 0h100-100m44800 0h100-100m3600 0 100 100v-100h-100m-48400 0s0 100 0 0m44500 0h100-100m-37700 0 100 100-100 100 100-100v-100h-100m36400 0v100h100l-100-100m100 0 100 100-100-100m100 0v100h100a900 900 0 00-100-100m-42900 100h100-100m48100 0c-100 0 0 0 0 0s0-100 0 0m-48900 0 100 100a200 200 0 00 0-100H900m42700 0v100l100-100h-100m300 0v100l100-100h-100m700 0 100 100-100-100m1400 0 100 100-100-100m-1600 100h100v-100l-100 100m100 0 100-100v100h-100m-37000 0h100v-100l-100 100m37500 0s0-100 0 0m-43700 0h100-100m-100 0h100-100m-600 0H500v100l-100-100v200h200l-100-100h300l-100-100H600m44400 0 100 100-100-100m100 0v100h100-100v-100m-700 0v100h100l-100-100m-900 100h100-100m600 0h100-100m1400 100 100-100-100 100m-38100-100h100-100m4800 0h100-100m-4900 100-100-100 100 100m600-100 100 100v-100h-100m-7200 0v100-100m49000 0v100-100m-5000 0v100-100m-36900 100h100-100m36300 0h100-100m400 0v100l-100 100 200-100h100v-100 100h-100v-100h-100m700 0h100-100m-44900 0h100-100m43400 100 100-100-100 100m600-100v100h-100 100l-200-100 100 100h-100 300v-100h-100m700 100h100l100-100-200 100m-44600 0h200v-100l-200 100m800 0v-100 100m200-100v100h-100 100v-100m900 100v-100 100m7600-100v100-100m33600 100c100 0 0-100 0 0m-42900 0h100-100m43200 0h100-100M600 38100H500h200v-100l-100 100m800 0v-100h100l-100 100m46300 0v100l100-200-100 100m-39800-100v100-100m-7100 100s0-100 0 0m46300-100v100-100m300 0v100-100m-2900 100h200-200m3900 0 100 100v-100h-100m-41000 0h100-100m5000 0v100-100m31900 0 100 100v-100h-100m-800 100v-100 100m900-100v100-100m3100 200h100v100-300l-100 200m600-200v100-100m400 0v100-100m-3800 100c0-100-100 0 0 0m-44000 0H500h300l100 100-100-100H700m-200 0c-100 0 0 100 0 0m7400 0s0 100 0 0c100 0 0 0 0 0m4100 0v100-100m33800 0c-100 0 0 0 0 0m2100 100 200-100h-100l-100 100m-40300-100v100l100-100h-100m800 0v100h100v-100h-100m35600 0v100-100m700 0v100l100-100h-100m-700 100h100v-100l-100 100m4100-100-100 100-200 200v-100l-100 100h100l-100 100 200-200 200-100h100l-200 200h100v-100h100l100 100-100-100h100l100 100v-100l-300-200m-4700 100h-100 100m-35800 0h100-100m38300 0h-100v100h100v-100h100-100m-45100 0v100h100l-100-100m1400 0a200 200 0 00 100 0h-100m5200 0h100-100m40300 100-100 100 100-200v100m-4100 0 100-100-100 100m-36500 0v-100 100m36200-100v100h100v-100h-100m600 0v100-100m-36800 100h300-100v-100l-200 100m41700 100h100l-200 100a700 700 0 00 0 100v100l100 100s100 0 0 0a200 200 0 01 0-100h100v-300l100-200-200 200m-5500 0 200-100-200 100m500-100-100 100h100v-100m2300 0h-100 100m-45700 0c100 0 100 0 0 0m43200 0s100 0 0 0m-43100 0h100-100m47900 0s0 100 0 0m-41000 0 100 100-100-100m36100 0v100l100-100h-100m4700 100v100-200 100m-47800 0s100 0 0 0m100 0h100-100m9500 0c-100 0 0 0 0 0s0-100 0 0m-100 0c100 0 0 0 0 0m33600 0h100-100m-35000 0v100l100-100h-100m39600 0s-100 0 0 0m-45700 0v100-100m5000 100v-100 100m2400-100 100 100-100-100m2200 100h100v-100h-100v100m34900-100 100 100-100-100m900 0c0 100 0 0 0 0m-5500 0v100-100m4200 0v100-100m1500 0-100 100 100-100m300 0v100h100l-100-100M500 38600h100-100m400 0c0-100 0-100 0 0m7200 0h-100l100 100v-100m39900 0h100-100m-40900 0h100-100m36400 0h200-200m200 0v100l100-100h-100m2900 0h-100v100h100-100l100 200v-200 100l100-100 100-100h-200m1200 0v100l100-100h-100m1100 0v200-200m100 0s0-100 0 0m-48600 0v100h100-100 100c0 100 0 100 0 0h100-100c0-100 0-100 0 0l-100-100m6900 0c100 0 0 0 0 0m400 0h100-100m700 0h100-100m33900 0h100-100m1600 100v-100 100m3200-100h100-100m1100 0c-100 0 0 0 0 0m-39900 0c-100 0 0 0 0 0m36400 0h100-100m3000 0v200-100h100-100v-100m-47100 0v100h100l-100-100m46700 100 100-100v100-100l-100 100m700 0h100v-100l-100 100m-39600 0v-100 100m39900 0 200-100h-200v100m-36000 0h100v-100l-100 100m31600 0h-100v200-100h-100l100 100h100v-100h100l-100 100 100-100a400 400 0 01 100 0h100-100v-100h-100l100-100-200 100m600 0h100v-100l-100 100m-42100 0h100-100m44600 0h-100l100 100 100-100h-100m200 0h100-100m-3800 0c100 0 0 0 0 0m3400 0h100-100m-46200 0v100h200l-100-100H600m9400 0v100-100m36700 0-100 200 100-100v-100m400 0s100 100 0 0m900 0h100-100m-1100 100v-100 100m500 0-100 100h100v-100h100l-100-100v100m1100-100v100l100 100v-100l100 100-100-100v-100a3100 3100 0 00-100 0m-1300 100h-100l200-100-100 100m-39300 0c100 0 0-100 0 0m1800 0s100 0 0 0m33700 0h100v-100l-100 100m4900 100 100-100 100-100h-100l-100 200m800 0 100-100-100 100m-37900-100v100-100m32100 0h100-100m3700 0h100-100m200 0h100-100m500 100v-100 100m1000-100c-100 0 0 100 0 0m-5100 100h100l-100-100-100 100v100h100l100-100v-100a400 400 0 00-100 100m2900-100v100-100m400 100v-100 100m-45500-100v100h-100v-100l-100 100 200 100 100-100v-100h-100m41800 100h100v-100l-100 100m3200-100v100-100m-38000 100h100-100c0-100 0 0 0 0m100 0h100-100m1300 0h100-100m34600-100v100l100-100h-100m1600 100h-100 100m1100 0h100-100m-45400 0c-100 0 0 0 0 0s0-100 0 0m7000 0h100-100m100 0s0-100 0 0m34600 0h-100a400 400 0 00 0 100h100l100-100h-100m3300 0s0-100 0 0m100 100 100-100-100 100m400-100h-100 100m-3000 0a500 500 0 00 0 100v-100m2000 0 200 100v-100h-200m200 0h100-100m2000 0h100-100m700 0-100 300 200-300h-100m-41400 0v100l100-100h-100m1900 0 100 100v-100h-100m500 0h100-100m33900 0c-100 0 0 100 0 0m2600 0h100-100m600 0h100-100m1300 0c100 0 0 0 0 0m500 0v200l100-200h-100m-40400 0v100-100m35500 0-100 100 100-100m4500 0s0 100 0 0m-4400 100 100-100-100 100m1200 0v-100 100m3500 0h-100l100 100v-100 200h100l-100-300v100m-39100 0h100-100m400 0c0-100 0-100 0 0m38500 0s0-100 0 0m-38800 0c100 0 0-100 0 0m33900 0-100 100 100-100m100 0s100 0 0 0m2200 0 100 100v-100h-100m1400 0c-100 0 0 0 0 0s0-100 0 0m900 0a200 200 0 00 100 0h100-200m1300 0h100-100m-39600 0h-100 100m33700 100 100-100-100 100m3100-100v100-100h100-100m-39500 0-100 100h100v-100h100-100m34800 0c100 0 0 0 0 0m1400 0-100 100h100l100-100h-100m-33400 100h100v-100l-100 100m33900-100-200 200 100 100h100-100a400 400 0 00 100 100v-100h200v-100h100-300 100a700 700 0 01 0-100h100v-100l-100 100-100-100m1100 0c-100 0 0 100 0 0m1800 0h100-100m100 0v100h100-100l100-100h-100m1500 0v100l100-100h-100m1200 0v100l100-100h-100m-41600 0v100h100l-100-100m38500 0v100-100m2000 100-100 100 100-100v100h100l-100-100 200 100v100-100l-100-200-100 100m-6600 0h100l-100-100v100m200 0h100-100m3100 0v-100 100m1800-100c0 100 100 0 0 0m100 100h100v-100l-100 100m2400-100v100-100m-6800 100h100-100m900 100 100-100-100 100m1400-100v100-100m4400 0h100-100m-2800 0a100 100 0 00 100 0h-100m-46700 0v100h100l100-100v100-100H100m48400 100-100 100 100-100-100 100h100l100-200-100 100m-40800-100 100 100v-100h-100m400 0h100-100m400 100v-100 100m1300-100h100-100m33300 100v-100 100m4200 0v-100 100m-4900-100v100-100m4400 100h100l100-100-100 100v-100l-100 100m-46400 0c0-100 0 0 0 0m7500 0c0-100 0-100 0 0m900-100v100h100l-100-100m3800 100s0-100 0 0m30700-100v100h100l-100-100m400 100h100-100m1400-100 100 100-100-100m200 100h200-200m1700 0 200-100-200 100m400-100 100 100-100-100m200 0v100a600 600 0 00 0-100m1400 100 100-100-100 100m-40600 0h100-100m37100 0h200a1100 1100 0 00-200 0m4200 0h100-100m-47100 0 100 100v-100h-100m5400 0h100-100m35400 100v-100 100m100-100s-100 0 0 0m300 0-100 100a500 500 0 00-100 100h100l-100 100h100l100-100v-100h100v-100h-100m1200 0h100l-100 100a400 400 0 00 100 0v100h200v-100h-100v100l-100-100-100-100m200 0c100 0 0 0 0 0m2500 0a200 200 0 00 100 0h-100m-39100 0v100-100m37100 0h100-100m1700 0v100h100l-100-100m-37200 0h200-200m800 0v100-100m32500 100a800 800 0 01-100 100l200-100v-100l-100 100m3800-100v100-100m1400 0v100-100m-5500 100v-100 100m3700 0 200-100h-200v100m1700-100-100 100 100-100m1100 0v100-100m-40400 100h100v100l-100 100h100v200h-100a200 200 0 00 0 100v-100h300v-100l-100-100h100l-100-100h100a200 200 0 00 0-100h-200v-100l-100 100m39400 0h100-100m-41000 0h100-100m1300 0v100h-100 200l-100-100h100-100m36200 0c100 0 0-100 0 0m1500 0-100 100h200-100l100-100h-100m300 0h100v100-100l100 100 100-100h-100 100a600 600 0 00-300 0m1600 0v100h-100 200-100l100-100h-100m-41300 100 100-100-100 100m36600-100v100h100a200 200 0 00 0-100v100h-100l100-100h-100m5900 0c-100 0 0 0 0 0m-39500 0h100-100m1100 100-100-100 100 100v-100 100m36200-100h100-100m1400 0h100-100m-48800 0h100-100m8300 0h100-100m100 0c100 0 0 0 0 0m700 0s0 100 0 0m800 0v100-100m0 0c100 0 0 0 0 0m33100 0v100h100v-100h-100m2100 0h100-100m1500 100v-100 100m900-100v100h100v-100h-100m1900 0 100 100-100-100m-37100 100 100-100-100 100m36400 0v-100 100m200-100v100l100 100-100-200m600 0v100-100m-39900 0v100-100m400 0-100 100a500 500 0 00 100 0v-100m300 100h100-100m32800 0h100v-100l-100 100m4000-100v100h-100v100h100v-100h100v-100h-100m1100 100c0-100 0-100 0 0m800-100v100a100 100 0 01 100 0v100-100l-100-100M600 39400h100-100m9700 0v100l100-100h-100m39200 0h100-100m-6400 0h100-100m4100 0s-100 0 0 0m600 0 100 100v-100h-100m1000 0v100l-100-100 100 100h-200 300v100-100l-100-100m-39100 0v100a200 200 0 00 0-100m2800 0 100 100-100-100m31600 0v100a300 300 0 00 100-100h-100m3300 0c100 100 100 0 0 0m-40100 0v100l100-100h-100m100 0v100-100m1700 0 100 100-100-100m700 0 100 100-100-100m2900 0v100-100m30600 100v-100 100m-43000 0c-100 0 0 0 0 0s0-100 0 0m6900 0h100-100m42600 0s100-100 0 0m-39200 0h100-100m-3300 0h100-100m700 0v100-100m1000 0v100l100 100a100 100 0 01 0-100h100-100l-100-100m800 0h100-100m500 0v200h100l-100-100 100-100h-100m33700 0v100h100l-100-100h100-100m3000 0 100 100h100l-100-100h-100m-36000 0v100h100l-100-100m400 0 100 100v-100h-100m-4300 0 100 100-100-100m600 0v100h100l-100-100m2400 0 100 100v-100h-100m33800 0v100-100m600 0a400 400 0 01-100 100h100v-100m4300 0-100 100 100-100m800 0a500 500 0 01 0 200h100v-100l-100-100m-5400 0-100 100h100l-100 100h100v-200m-41600 100c100 0 0-100 0 0m8100 0h100-100m400 0s0-100 0 0m-3000 0h100v100-100h-100m1500 0h100-100m-1700 0h100-100m2900 0h100-100m31500 0h100-100m1500 100h100v-100h-100v100m100-100h100-100m400 0-100 100h100l100-100h-100m400 0v100h100l-100-100m100 0v100h100v-100a3500 3500 0 00-100 0M600 39700h100-100m8600-100v100-100m37700 0v100l100 100 100-100-100-100v100l-100-100M800 39700v-100 100m8500-100v100-100m500 100h100v-100l-100 100m3000-100v100-100m200 0v100-100m31000 0v100l100-100h-100m2800 0 100 100-100-100m-39700 100c-100 0 0 0 0 0 0-100 0-100 0 0m36100 0h100v-100l-100 100m1300 0h100-100m-2100 0h100-100m1300 0-100 100-100 100 200-100h100v-100h-100m700 0h-100v100l100-100m-37200 0h100-100m2700 0h100-100m32100 0h100-100m-34500 0h100-100m400 0v100-100m36000 0v100h100l-100-100m2600 0 100 100v100l100-100h-100l-100-100h100-100m-46400 0a100 100 0 00 0 100 300 300 0 00 100 0v-100H100m6900 0c0 100 0 0 0 0m300 100h-100 100v-100 100m36500 0v-100 100m200-100v100l100-100v100-100h-100m600 0v100l100-100v100-100h-100m200 0v100-100m2100 0 100 100-100-100m-36600 0h100-100m2500 100h100l-100-100v100m200-100v100-100m0 100h100v-100l-100 100m31500 0h-200a200 200 0 00 100 0l-100 100h-100 100l-100 100-200 100h300l100-100h100a100 100 0 00 100-100h-200 100v-100l100-100-100 100M200 39700v100h100l-100-100m7300 100h100-100m37700 0v100l100-100v-100l-100 100m2200-100v100l-100 100h200l100-100-100 100v-200h-100m-39500 100h100-100m1200 0c-100 0 0 0 0 0m1600 0v100h100v-100h100-200m31700 0s100 0 0 0m1100 0h100-100m5300 0h100-100m-41400 0v100-100m0 0h100-100m600 0h100-100m36200 0h100-100m500 0-100 100h100l100-100h-100m600 0h100-100m1700 100 200-100-200 100m-37600-100v100l100-100h-100m400 0s0 100 0 0c100 0 100 0 0 0m300 0h100-100m36400 0 100 100-100 100 100-100-100-100m-38800 100 100-100-100 100m2700-100-100 100 100-100m1200 100 100-100-100 100m1500-100v100-100m36300 0v100a100 100 0 00 100-100h-100m-49200 0 100 100-100-100m8200 100h100v-100l-100 100m6400-100v100-100m1500 0 100 100-100-100m27200 0v100-100m-100 0-100 100a100 100 0 00 100 0v-100m500 0v100l100-100h-100m300 0v100-100m2500 100h100-100m-38900 0s0-100 0 0m8400 0s100-100 0 0m27900 0h100-100m1700 0h100-100m3500 0h100-100m-46600 0 100 100v-100h-100m6800 0c-100 0 0 0 0 0m37700 0c100 0 0 0 0 0m-36900 0h100-100m300 0v100l100-100h-100m2100 0h100-100m31900 0v100l100-100h-100m4800 0h100-100m-39900 0v100h100v-100h-100m37000 0s0 100 0 0m-38000 0v100h100l-100-100m1700 0v100-100m2800 0v200-100l100-100h-100m3500 0-100 100 100-100m30500 100v-100 100m-37100 0c0-100 0 0 0 0m32200 0c100 0 0-100 0 0m-31700 0h100-100m31800 0s100 100 0 0m7200 0h100-100m-41900 100 100-100h-100v100m1600-100v100-100h100-100m1000 0h100-100m-2800 100-100 100h100l200-100h-100v-100l-100 100m34800-100-100 100h200l-100-100m1900 0v100h-100 100l100-100h-100m700 0v100-100m-36700 100h100-100v-100 100m1600-100v100-100m3500 0 100 100-100-100m3300 0v100-100m28200 0v100a400 400 0 01 0-100m-100 100v100-200 100m-35100 0h100-100m33200 0c-100 0 0 0 0 0m-32200 0h100-100m2500 0v100-100m30900 0s0 100 0 0c100 0 0 0 0 0m-30800 100h100v-100l-100 100m3200-100v100-100m27900 0v100a300 300 0 00 100-100h-100m-41300 0 100 100v-100h-100m7900 0v100-100m33900 100v-100 100m2400-100v100-100m-36900 100h100-100m400 0h200-200m300 0h100-100m31500 0s100 0 0 0m4800 0h100-100m-2700 0 100 100v-100h-100m-41600 0h100-100m6700 0h100-100m34100 0 100 100v-100h-100m700 0-100 100a300 300 0 01 100 0l100-100h-100m2700 0v100h100v-100h-100m-37000 0a100 100 0 00 0 100l100-100h-100m6400 100h100v-100l-100 100m26100-100v100-100m0 0 100 100-100-100m-39800 100 100-100-100 100m10200 0v-100 100m34100-100-100 200h100v-200m-4700 100h100-100m1800 0v100-100m-34800 0h200-200m1400 0h100a100 100 0 00-100 0m31800 0h100-100m-39700 0h100-100m4300 0v100h-200v100l100-100h100v-100m100 0h100-100m100 0 100 100a100 100 0 00-100-100m40600 0h100-100m-3900 0h100-100m100 200h300l-100-100h-100v-100l-100 200m3000-200 100 100-100-100m-36900 0 100 100-100-100m33000 100 100-100-100 100m700-100v100h100v-100h-100m800 0-200 100h200v-100m100 0v100-100m700 0v100l100-100a200 200 0 00-100 0m2300 100v-100 100m-45800 0 100-100-100 100m8300 0 100-100-100 100m100-100v100-100m32200 0v100h100l-100-100m4400 0v100h100l-100-100m-36900 100h100-100m33900 0v100h-100 100l100-100h-100m-42900 0h100-100m8900 0c100 0 100 0 0 0m3000 0v100-100m3500 0c-100 0 0 0 0 0m-1700 100h100l100 100v-100h100l-200-100-100 100m30000-100h100-100m2100 0c100 0 0 0 0 0m600 0h-100 100m-40200 100 100-100-100 100m200-100v100-100m1800 0h100-100m1000 0 100 100v-100h-100m200 0v100h100l-100-100m2400 0v100-100m300 0v100-100m3300 100h-100 100v-100 100m25700 0v-100 100m200-100c-100 0 0 0 0 0m0 0s0 100 0 0c100 0 0 0 0 0m1500 0v100-100m-28600 0v100-100m31600 100h100v-100l-100 100m-44600 0h100-100m14000 0c-100 0 0 0 0 0s0-100 0 0m28100-100h100-100m200 0v200-100h-100l-100 100h100l-100 100v-100 100l-100 100 100 100-100-100h100l200-100h100-100v-100l100-100v-100h-100m1700 100s100 0 0 0m-1500 0h100-100m-40400 0s100 0 0 0m2500 0h100-100m38000 0v100l100-100h-100m-37800 0 100 100v-100h-100m36900 0s0 100 0 0c100 0 0 0 0 0m-36100 0v100-100m7000 0v100l100 100v-100l-100-100m200 0v100-100m1100 0 100 100-100-100m300 0v100-100m26300 100-100 100h-100l100 100h-100c-100 0 0 0 0 0h100v100h100-100v100l-100 100h100l100-100-100 100v-100h100l100-100h100l-100 100h100-100v100l-100 100v100h-100 100-100v100l-100 100a600 600 0 01 100 0v-100h200l-100 100v100h100-100 100l-200 100h300l-100 100h200l100-100 100 100v-100l100 100v-100h-200 100l-100-100h300v-100l-100 100v-100l200-200-100 100a1500 1500 0 00-100 100l-100-100 300-200-300 100 200-100-100 100v-100h-100v-100a600 600 0 00-100 0h100v-100h-100 100v-100l100-100-100 100h-200v-100l200-100h-200v-100l-100 100h-200l100-100h-100m200 0 100-100-100 100m1000-100v100-100m2000 0v100-100m900 100 100-100-100 100m100-100v100-100m-42800 100h100-100m37600 0s0-100 0 0m-40100 0h100-100m8600 0h100-100m34400 0v100h200l100-100h-300m700 0v100-100m0 0h100-100m200 0 100 100h-100 200l-100-100h-100m-32300 0h100-100m29300 0h-100 100m500 0 100 100v-100h-100m2400 0v100-100l-100 100h100l100-100a300 300 0 00-100 0m-41000 100h100l-200-100 100 100m5700-100v100h200v-100h-100l-100 100v-100m500 0v100-100m2000 0s0 100 0 0c100 0 0 0 0 0m30500 0v100l100-100h-100m2600 0v100a200 200 0 00 100 0v-100h-100m-27800 100h100v-100l-100 100m28000 0h100l-100-100a100 100 0 00 0 100m2200-100 100 100-100-100m-41400 0v100h100l-100-100m3700 100h100l-100-100v100m2700-100v100-100m100 100c100 0 0-100 0 0m3100 0h100v-100l-100 100m25500-100v100h100l-100-100m2300 100v100h-100 200l-100-100h100v100-100h-100m-33600 0c100 0 0 0 0 0m100 0c-100 0 0 0 0 0m33400 0h100-100m-34700 0v100-100m6700 0c0 100 100 0 0 0m25900 0v100h100v-100h-100m2800 0v200h100v-200l-100 100v-100m-34500 100v-100 100m34400 0-100 100v-100h100l100 100h-100v-100l100 100-100-100m-29800 0h100-100m1200 0h100-100m26300 100 100-100-100 100m-29100-100h100-100m28500 0 100 100v-100h-100m3100 0v100h100v-100h-100m-29900 100h100v-100l-100 100m-12200 0h100-100m1100-100 100 100-100-100m40400 100c-100 0 0 0 0 0m-2300 0h100-100m-31700 0v100h100l-100-100m3000 0h100-100m30800 0c-100 0 0 100 0 0m-1500 0v100-100m-35200 100v-100 100m7600 0v-100 100m-12100 0h100-100m15100-100v100-100m-11400 100h100v100h100l100-100-100 100v-100h-100 100a900 900 0 01-100 0h-100m35300 0h-200a500 500 0 00 100 0v100l100-100h100-100 100-100m-34700 0h100-100m33400 0c-100 0 0 0 0 0m-26100 0 100 100v-100h-100M0 41000l100 100v-100H0m7100 0v100-100m300 0v100l100-100h-100m7300 0v100-100m100 100v-100 100m-10500 0h100v-100h-100v100m2600 0 100 100-100-100 100-100-100 100m6400-100v100h-100v100h100l100-200h-100m3000 0v100-100m300 0v100-100m-13400 100c100 0 0-100 0 0m38800 0h100-100m-39200 0h100-100m7700 0h100-100m-6400 100h200l-100-100-100 100m3000 0h200-100v-100l-100 100m36200-100h100-100m4200 0h100-100m200 100 100-100-100 100m200-100h100-100M0 41200h200v-100l-200 100m16500-100 100 100-100-100m29000 100h100-100m600 0c-100 0-100 0 0 0m-35600 0v100h100v-100h-100m2700 0v100l100-100h-100m29500 0s100 0 0 0m1900 100 100-100-100 100m2900 0 200-100-200 100m-33000-100v100-100m500 0 100 100v-100h-100m-10500 0v100h100l-100-100m100 100c0-100 0-100 0 0m3000 0 100-100-100 100m9000-100v100-100m25900 0v100l100-100-100 100v-100m3000 100c-100 0 0 0 0 0 0-100 0-100 0 0m-38600 0h100-100m200 0c-100 0-100 0 0 0 0 0 0-100 0 0m3400 0h100-100m33600 0h100a300 300 0 00-100 0m800 0v100l100-100v100-100h-100m-40800 100h-100 300-100 100v-100l-100 100v-100l-100 100m400-100v100-100m3100 0 100 100v-100h-100m40200 0v100-100m-6000 100h-100 300v-100l-100 100v-100l-100 100m-1300-100v100-100m-36200 100h200-100a200 200 0 01-100 0m10200 0s0-100 0 0m100 0h100-100m29400 0h200-200m-33800 0h100-100m2500 0c-100 0 0 0 0 0m29900 0h-100 100m-42400 0h100-100m14300 0h100-100m25900 0c100 0 100 0 0 0m-33300 100 100-100-100 100m6000-100 100 100-100-100m31800 100 100-100-100 100M200 41400v100-100m3700 0c0 100 0 100 0 0m-800 100h100v-100l-100 100m10200 0h-100v200l100-200h100-100m3500 0h-100 100m27400 0c-100 0 0 0 0 0m-34200 0c100 0 0 0 0 0m33800 0h100-100m100 0 100 100 200-100h-300m-25800 0v100-100m100 0c-100 0 0 100 0 0m26700 0v100h-100v100h300l-100-100h100-100v-100h-100m-40100 0s0 100 0 0m40900 100h-100v100l100-100 100 100-100-100 100-100-100 100m-41100-100 100 100-100-100m100 0v100-100m8500 0v100-100m32200 0v100-100m-29900 0 100 100-100-100m28200 100h100-100m200 0h-100 100m1900 0h100-100m-31300 0h100-100m27000 0c100 0 0 0 0 0m100 0h100-100m700 0h100-100m3100 0v100-100c-100 0-100 0 0 0m-42300 0 100 100v-100h-100m3800 0 100 100-100-100m33600 0v100l100-100h-100m-24300 0v100-100m1700 0v100h200a600 600 0 01-100-100v100a300 300 0 00-100-100m24100 0-100 100 100-100m3500 0 100 100-100-100m700 0v100-100m-42800 100h-100v100h-100v-100h-100v100h300l-100 100-100 100a300 300 0 00-100 0l100 100h-100l-100-100 100 100h-100v100a1000 1000 0 01 200 0h-100v100h100-100 300-100 100v-100h100v100h-100l200 100v-300l-100 100a200 200 0 01 100-100v-200h100v100l300-100h-100 100l100-100-300 100 100-100h-400l100-100h-200m3400 0h100-100m700 0 100 100v-200l-100 100m34000-100v100-100m1800 100c100-100 0-100 0 0m2700-100v100-100m500 100h100-100m1300-100 100 100-100-100M100 41700h100-100m13700 0c-100 0 0 0 0 0s0-100 0 0m27000 0h100-100m2700 0h100-100m100 0h100-100m-36600 0h100-100m-4000 0c-100 0 0 100 0 0m10000 0v100l100-100h-100m5300 0-100 100h100v-100m22100 0h100-100m5100 100h100-100m2400-100 100 100-100-100m-7000 100a100 100 0 00-100 0h200-100m1700 0v-100 100m-28000 0s100 0 0 0m-10300 0c100 0 100-100 0 0m2500 0h100-100m7700 0h100-100c0-100 0 0 0 0m26200 0 100 100-100-100m-36600 0s0 100 0 0m9700 0v100-100m27100 0v100h100l-100-100m2700 0h100-100m300 0v100l100-100a300 300 0 00-100 0m-25900 0v100-100m23200 100h100l-100 100h-100 200-200v100h100l-100 100h-100v100h-100l-100 100h200l100-100 100-100 100-100v100l100 100v-100l100 100h200l-100-100h-200 200l100-100h-200 100v-100h-200v-100h100l100 100v-100 100l-100-100-100-100-200 100m700-100-100 100 100-100m100 0v100-100m100 0v100-100m900 100h100-100m500 0v-100 100m-36300 0h100-100m5500 0c-100 0-100 0 0 0m30200 0h-100 100m0 0h100-100m2100 0h100-100v100h-100c100 100 300 100 200-100h-100m500 0h100-100m-31000 0h100-100m100 0h100-100m1100 100v-100 100m-11300-100h100-100m11600 0h100-100m700 0h100-100m24100 0v100-100m4100 0 100 100-100-100m-31600 0 100 100-100-100m-700 100h100-100m3100-100v100h100l-100-100m2700 0 100 100-100-100m24500 100h100-100v100l100-100h100v-100l-200 100m1900-100 100 100-100-100m-30400 100c0-100-100 0 0 0m26300 0h100-100m4900 0h-100 200-100m-41900 0c-100 0 0 0 0 0m400 0h100-100m12100 0v100l100-100h-100m-2800 0c-100 0 0 0 0 0m1100 0 100 100-100-100m2500 100v-100 100m200-100-100 100h100a900 900 0 00 100 0h-100v-100m23200 0h100-100m-3500 0c-100 0 0 100 0 0m4000 100h100v-100l-100 100m800-100h100-100m3100 0v100-100m-41100 0v100-100m300 0v100-100m9500 100h200-100v-100l-100 100m-9500-100v100h100l-100-100m500 0 100 100h100l-200-100m2000 100v-100 100m10800 0v-100 100m23500 0h100v-100a300 300 0 00-100 100m-37100 0h100-100m40900 0h100-100m800 0h100-100m800 0s0-100 0 0m-30500 0 100 100-100-100m27400 0c-100 0 0 0 0 0m-28600 0a300 300 0 00 100 0h-100m-11500 0v100-100m1500 100v-100 100m32000-100h100-100m6500 0v100-100m-39100 0v100-100m900 0v100h100v-100h-100m38500 0 100 100-100-100m1700 0v100-100m0 0v100h100v-100h-100m-38000 100v-100 100m29500-100v100-100m3800 0-100 100a600 600 0 01 100 0v-100m700 0v100-100m-37300 100h100-100m9600 0h100-100m900 0h100a2400 2400 0 00-100 0m2000 0h100-100m23800 0 100 100 100-100h-200m4800 0h100-100m-30500 0v100h100l100 100v-100h-100v-100h-100m28300 0h100-100m-37800 0h100-100m12200 0v100l100-100h-100m23500 0c0 100 0 0 0 0m-3900 100h100l-100-100v100m400-100v100l100-100h-100m9200 0c0 100 0 100 0 0 0 0-100 0 0 0m100 0v100h-100 200-100l100-100h-100m-42700 0 100 100c-100 0-100 0 0 0l-100-100m100 100h200v-100l-200 100m7000-100 100 100-100-100m3800 100h100v-100l-100 100m25700-100v100h-100 100l100-100h-100m-27000 100v-100 100m27700-100v100-100m200 100v100l100-100-100 100h100-100l100 100h-200l100 100v-100l100 100h-100v100h-100v-100h-100v100h700-200l100-100-100 100v-100h-100 100v-100h100v-100h-100v-100h-200 100-200m-24000 100v-100 100m19900-100h-100l100 100v-100m9200 0c-100 0 0 0 0 0m-2800 0h100-100m-41400 0h-100 100m12500 0 100 100v-100h-100m28700 0v100-100m-39900 0v100h100v-100h-100m800 0v100h100v-100h-100m300 0v100h100v-100h-100m35800 0 100 100c0-100 100-100-100-100m1300 0v100-100m4400 0 100 100-100-100m-42800 0v100-100m1600 100h100-100m2300 0h100v-100 100l-100-100v100m33300 0 100-100-100 100m-26000 0h200-200m3100 0h100-100m24300 0s100 0 0 0m3800 0h100-100m-42500 0h-100 100m42600 0 100 100 100-100-200 100v-100m-8700 100 100-100-100 100m3200-100h-100v100l100-100m-36600 0-100 100h100-100l-100 100h100-100 300-100v100l-100-100v100l100 100h-100v100l100-100h500l-100-100h-100v100l-100-100h100l-100-100h200-400v-100h100l200-100-200 100v-100h-100m600 100h100-100m13100-100v100-100m0 0 100 100v-100h-100m500 0v100-100m23300 100h100l-100-100v100m4800-100v100-100m-28400 100v-100 100m22800 0s-100 0 0 0c0 0 0-100 0 0m2900 0v100-100l100-100-100 100m2400 0h100l-100-100v100m-41700 0s0-100 0 0m3300 0h100-100m10400 0h100-100m400 0c-100 0 0 0 0 0m19100 0s-100 0 0 0m3400 0v100l100-100h-100m1400 0s-100 0 0 0m-34600 0 100 100-100-100m29600 0v100a400 400 0 00 100 0v-100h-100m3500 0-100 100 100-100m400 0s0 100 0 0m2500 0h100-100m-25600 0v100-100m12900 0 100 100-100-100m15100 100h200l-100 100h100v-100h100-100v-100l-200 100m-40800-100v100h-200l100 100v-100c100 100 200 0 200-100v100-100h-100m12300 0 100 100h100v-100l-100 100-100-100m400 0v100-100m300 100 100-100-100 100m25400 0 100-100-100 100m300 0v100l-100 100h200l-100-100v-100h100-100m2000 0 100 100v-100h-100m-4100 0h100-100m300 0h100-100m-11300 0v100-100m6000 0a200 200 0 01-100 100s0 100 0 0h100v-100m5400 100 100-100h-100 100l-100 100m-37300-100 100 100-100-100m12700 0v100-100m100 0a500 500 0 00 0 100l100-100h-100m28400 0v100a100 100 0 00 0-100m-28200 100 100-100-100 100m22800-100v100h100l-100-100m2900 100h200-200m-6100 0c100 0 0-100 0 0m6300 0s100 0 0 0c0-100 0 0 0 0m-29100 0h100-100m26400 0 100 100 100-100h-200m-500 0v100-100m900 100h100v-100l-100 100m600-100-100 100h100v-100h100-100m-24500 100v-100 100m19200-100v100-100m5500 100-100-100v100h100v-100 100m4400 0h100l-100-100v100m-29000-100v100-100m23600 0a400 400 0 00 0 100l100-100h-100m300 0v100h-100l100 100h100l100-100h-100l-100-100m600 0-100 100 100-100m3400 0v100-100m400 100h-100 100m-42300 0h100-100m26900 0h100-100m7000 0a200 200 0 00 100 0h-100m-1100 0 100 100v-100h-100m-31300 0 100 100h100l-200-100m9100 0v100-100m300 0v100-100m2900 100 100-100-100 100m300-100v100h100l-100-100m22800 100 100-100-100 100m5000 0v-100 100m-41700 0v100h100-100v100h100l100-100h-100l100-100a300 300 0 00-100 0v-100l-100 100m33700 0-100 100h100v100l100-100h-100l100-100v-100l-100 100m-32400 0c-100 0 0 0 0 0m-1900 0h-100 200-100m1200 0h100-100m34900 0h100-100m2400 0h100c0 100 0 0 0 0h-100m-34300 0 100 100v-100h-100m6900 0v100h100l100 100-100-100-100-100m3400 100v-100 100m-13600-100v100-100m10000 100h100l100 100h100v100h100l-100-100-100-200-100 100v-100l-100 100m300 0h100-100m27200-100v200l-100-100h-100l100 100h-100l-100-100 100 100h100-100l-100 100h-100v100l300-100h100v-100 100h100v-100h-100l100-100h-100v-100m-37600 100h100-100m9900 0c100 0 0-100 0 0m3600 0v100s100 0 0 0v-100m31500 0c0-100-100 0 0 0m-31200 0v100l100-100h-100m22800 100 100-100h100l-200 100m3600-100c-100 0-100 0 0 0m-39500 0h100-100m26200 0 100 100v-100h-100m5600 0v100l100-100h-100m2800 0 100 100v-100h-100m1500 0v100-100m7800 0c0 100 100 0 0 0m-34400 0v100h-100l100 100h-100v-100 100h-100l100 100v100h-200l-100 100 100 100h-200v100-100l100 100v-100 100h100v-100h100a200 200 0 01 100-100v100l100-100v-200 100l-100-100a1200 1200 0 01 100-100v100h200v-100h-100v-200h-100m30000 0v100-100m-30500 100h100-100m-8500 0-100 100h100l100-100h-100m25400 0v100l100-100h-100m300 0h100-100m-25500 0v100-100m33800 0 100 100v-100h-100m-38400 0h100-100m3200 0v100h-100v100h-100 200l100-100 100-100h-200m900 0 100 100a500 500 0 00 0-100h-100m25900 100v200l100-200h-100m10900 0-100 100h200a200 200 0 00 100-100h-200m6700 0 100 100h-100 200v-100h-200m300 0h100-100m-44600 100 200-100v100-100l-100 100v-100l-100 100m-400-100v100h100v-100h-100m26800 100 100-100-100 100m10500-100 100 100-100-100m-1500 0v100-100m-32800 100 100 100-100-100m23700 0h100-100m600 0h-100 100m-24000 0 100 100v-100h-100 100-100m29500 0h100-100m1000 0c-100-100 0 0 0 0m11100 0s100 0 0 0m0 100h100v-100l-100 100m-44400-100-100 100h200l100-100h-200m2700 0c100 0 0 0 0 0m7100 0h100-100m23600 0h100-100m2800 0h-100 100m8600 0c-100 0 0 100 0 0m-12600 0 100 100v100h100v-100h-100 100v-100l-100 100v-100h-100m4000 100h100v-100l-100 100m200 0 100-100-100 100m-36600 0h-100 200-100c0-100-100-100 0 0m2600 0h100l-100-100v100m300-100v100-100m30500 0v100-100m2000 0v100-100m1600 100h100-100m200-100v100-100m7600 0-100 100h200l-100-100m-43500 100h100-100m36200 0h100-100m-36200 0h-100 100m31900 0c-100 0-100 0 0 0m11300 0h100-100m-44200 0-100 100h100-100v-100l-100 100h100c200 0 100 0 100-100v100l200-100h-200m44400 0 100 100-100-100m-44600 0v100-100m10300 100v-100 100m16100-100c-100 100 0 100 100 100v-100l-100 100 100-100h-100m7700 0v100-100m8200 0v100-100m-8600 100h-100 200-100m11000 0h100-100m-10600 0h100-100m3200 0h100-100m-22400 100a400 400 0 00 0-100v100h100l-100-100v100m22200-100h100-100m-36200 0h100-100m100 0v100h100l-100-100m34400 0h100-100m1700 0c-100 0 0 100 0 0m-36800 0-100 100h100v-100m34100 100h-100v100a900 900 0 00 0 100v-100l100 100v-100l100-100h-100l100-100-100 100m-31800 0h200-200m29700 0c0-100 0 0 0 0m1200-100 100 100h-100 200-100l-100-100m200 100v100l100-100h-100m3100 0h-100v100l100-100m100 0h200-200m-37400 0v100l100-100h-100m600 0 100 100v-100h-100m500 0 100 100h-100 200-200v-100m100 0c-100 0 0 100 0 0m35600 100v-100 100h100v-100h-100v100m1300-100h100-100m-3800 100v-100 100m-34200 0 100 100h200l-100-100-100-100-100 100m900-100v100-100m900 100h-100 200l-100-100v100m8700-100v100-100m16400 0v100l100-100h-100m100 0v100-100m7600 0v100l100-100h-100m-900 100h-100 100m2300 0h100-100m9000 0c100 0 0-100 0 0m-35100 0c100 0 0 0 0 0m25000 0v100-100m3400 0c100 0 0 0 0 0m-11700 0h100v100l100-100h-200m7300 100 100-100c-100 0-200 0-100 100m-32600-100 100 100v-100h-100m9300 0v100-100m22100 0s0 100 0 0c100 0 0 0 0 0m1500 100h100v-100l-100 100m-6700-100v100h100l-100-100m6000 100 100-100-100 100m300-100v100-100m-31900 100h100-100m800 0h100-100m7200 0h100-100m17000 0h-100 100m500 0h100-100m-17600 0h100-100m-6700 0v100-100m6700 0v100-100m5700 0v100-100m18300 0v100-100m3500 100 200-100-200 100m-35500-100v100-100m8300 0c0 200 200 100 0 0m300 0v100-100m-9000 0v100-100m25900 0v100-100m7200 0v100-100m-1000 100 100 100v-100h-100m4100 0 100 100 100-100h-200m-11100 0h100v100l100 100h100v-100h-100v-100h-200m700 0v100l100-100h-100m6400 0v100l100-100h-100m-800 100h100l-100-100v100m5200-100 100 100a100 100 0 00 0-100h-100m-35100 0c0 100 0 0 0 0m12300 100h100v-100l-100 100m11300-100c0 100 0 0 0 0m800 0a100 100 0 00 0 100l100-100h-100m-27000 100 100 100v-100h-100c0-100 0-100 0 0m100 0 100-100-100 100m1400 0c-100 0 0 0 0 0s0-100 0 0m1700-100v100-100m11900 100h100-100l100-100a300 300 0 00-100 100m18800 0 100-100-100 100m-31200 0h100-100m100 0h100-100m31500 0h100-100m-31400 0s0 100 0 0c100 0 0 0 0 0m23900 0 100 100v-100h-100m7900 0h100v100-100h-100m-34500 0v100l100-100h-100m33100 0v100-100m-33300 100c-100 0 0 0 0 0s0-100 0 0m15200-100a600 600 0 00 0 100 100 100 0 00 100 0h100a5000 5000 0 01-200-100m11000 100h100v-100l-100 100m-25900 0 100 100h-100a200 200 0 00 0-100l-100 100 100 100 100-100v-100h-100m1900 100 100-100-100 100m34000-100h100-100m-8400 0h100-100m8500 0h-100l100 100v-100m900 0s0 100 0 0c100 0 0 0 0 0m-37200 0v100l100 100v-100l100 100v-100h-100v-100 100h-100a500 500 0 00 0-100m0 0h100-100m1600 0 100 100v-100h-100m13600 0 100 100-100-100m300 100v-100 100m19200-100v100-100m-32900 0v100h100l-100-100m13500 100s0-100 0 0m10900-100v100l100-100-100 100v-100m6100 100c0-100 0 0 0 0m4800 0c-100 0 0 0 0 0l-100 100h100v-100h100-100m100 0c-100 0 0 0 0 0s0-100 0 0m-37600 0h100-100m2100 0h100-100m30700 0s100 0 0 0m4400 0v100l100-100s0 100 0 0h-100m1100 0h100-100m-36300 0h-100l100 100v-100 100l-100 100h200v-200h-100m25300 0 100 100v-100h-100m7800 100h100v-100l-100 100m-600 0h100v-100l-100 100m-32700-100v100-100m24800 0v100h100v-100h-100m6100 100 100 100-100-200v100m1200 0h100-100m-7300 0 100 100-100-100m-24800 0 100 100-100-100m32600 0h100-100m2800 100h100v-100l-100 100m-4400 0c100 0 0-100 0 0m-32600 0v100h100v-100h-100m10200 0h100-100m5200 0 100 100v-100h-100m200 0h-100v100l100 100h100v-200l-100 100v-100m20800 0v100h100l100-100-100 100v-100h-100m-21000 0v100l-100-100 100 100v-100m21900 0 100 100v-100h-100m-37100 0-100 100-100 100 100-100c0 100 0 100 0 0l100 100v-200m2400 100h100l-100-100v100m30000-100v100-100m-16900 0 100 200v-100l-100-100m-5600 0v100-100m0 0v100h100l-100-100m16400 0 100 100-100-100m11000 100h100-100m-37200 0c100 0 0-100 0 0m33900 0h100-100m2400 0h100-100m-21200 0v100-100m21300 100 100-100-100 100m-36400-100a200 200 0 01 100 100v-100h-100m200 100v100l100-100h-100l100-100-100 100m15400-100h100-100m10700 0 100 100-100-100m1100 100c-100 0-100 0 0 0 0 0 0-100 0 0m-27500 0h-100l100 100h100v-100h-100m36600 0v100h-100c0-100 0-100 0 0h100a100 100 0 00 100 0l100 100 100-100h100v-100h-100v100-100h-100a400 400 0 00-100 0 9300 9300 0 00-100 0m-9900 0v100h100v-100h-100m2500 0 100 100-100-100m5400 0v100-100m-7800 0 100 100-100-100m-25100 100h100-100m-300 0c-100 0 0 0 0 0m14100 0v100-100m11100 0h-100 100m9400 100h100l-100-100v100m-34700 0 100-100-100 100m1300 0h200-100v-100l-100 100m30300 0h100v-100l-100 100m-32700 0c-100 0 0 0 0 0m1600 0h100-100m-1900 0h100v100-100h-100m34500 0 100 100a100 100 0 00-100-100m-34500 0c-100 100 0 100 0 0m27100 0v100-100m-26800 100h100-100m37400 0h100-100m-6500 0c100 0 100 0 0 0m-29200 0v100-100m24500 0v100h100-100v-100m-11000 100h-100l100 100v-100 200h100v100h100v-200 100l100 100h-100l100 100h100a100 100 0 00-100-100v-100c0 100 0 100 0 0l100-200h-200v-100l-200 100m20400 0c0-100 0 0 0 0m1200 0h-100l100 100a400 400 0 00 0-100m-38000 0h100-100m3000 100v-100 100m-100-100v200a300 300 0 00 0-100h100v-100h-100m24100 0v100-100m2800 100h100-100m-27000 100v-100 100m34500-100c0 100 100 0 0 0m1400 100v-100 100m-38000 100h100-100m28100 0h100-100m6000 0s-100 0 0 0m700 0h100-100m-11300 0h100-100m5800 0c100 0 0 0 0 0m5300 0v100a200 200 0 01 100 0v-100h-100m-33100 100h100v-100l-100 100m35700-100v100h100l-100-100m500 0c0 100 0 0 0 0m-34700 100h100v-100l-100 100m31200-100 100 100-100-100m200 0v100-100m400 100v-100 100m-34700 0c-100 0 0 0 0 0s0-100 0 0m23400 0h100-100m7800 0c-100 0 0 0 0 0m-31300 0v100h100-100v100h100l100-100v100h100v-100h100-100v-100h-100l-100 100v-100h-100m400 0v100l100-100h-100m100 0s0 100 0 0c100 0 0 0 0 0m-700 0a100 100 0 00 100 100l-100-100m29500 0c0 100 0 100 0 0m7900 0v100-100m-6200 100c0 100 0 0 0 0m1400 0h100-100m-32400 0c0 100 0 0 0 0m25600 100 100 100v-100h-100m-25400 0v100-100m2500 0 100 100-100-100m31900 0-100 100 100-100m-11100 0 100 100-100-100m11100 100h100-100m-4300 0 100 100-100-100m-4700 0v100-100m9200 0v100-100m-1900 100h100-100m-32900 0v100-100m20700 0v100h100l-100-100m5300 100h100-100m4400 0c-100 0-100 0 0 0 0 0 0-100 0 0m1900 0s100 0 0 0c0-100 0 0 0 0m2200 0h-100v100h100v-100 100-100m300 0v200-100l100 100h-100 100v-200h-100m-14100 0v100h100l-100-100m3600 0c0 100 100 0 0 0m10300 0c0 100 0 100 0 0m-11200 100v100-100m11200 0a400 400 0 01 100 0h-100m-300 100h100-100 100v-100l-100 100m700 0-100 100h100v-100m-12800 0 100 100-100-100m10700 0v100-100m-11300 100c-100 0 0 0 0 0m12600 0h100-100m-9700 0v100-100m800 100v-100 100m5300 0h200l-100-100a100 100 0 00-100 100m400-100v100h100v-100h-100m-6600 0 100 100-100-100m-4300 100h100-100m5100 0 100 100v-100h-100m5400 0 100 100v-100h-100m-14300 0 100 100v-100h-100m300 0 100 100-100-100m14000 100h100-100m-14200 0h-100v100h100l100-100h-100m700 0c100 0 0 0 0 0m-400 0v100-100m400 0v200-200m13000 0-100 100h100v-100m-6200 100h100-100m-7400 0v100-100m0 100 100-100-100 100m13600-100c0 100 100 0 0 0m-10300 200v100h100v-100l-100 100v-100m3000 0v100h100v100h100l-100-100h100v-100h-200m8200 0 100 100-100-100m-12200 200s100 0 0 0m-1000 0h100l-100 100h100v-100h-100m-500 100v100h100v-100h-100m300 0v200l100 100v-200 100h100v-200h-200m1600 100 100 100 100-100h-200m-1800 0-100 100 100-100" fill="#fff"/></svg>
