<?xml version="1.0" encoding="UTF-8" ?>
<!DOCTYPE svg PUBLIC "-//W3C//DTD SVG 1.1//EN" "http://www.w3.org/Graphics/SVG/1.1/DTD/svg11.dtd">
<svg width="461pt" height="466pt" viewBox="0 0 461 466" version="1.1" xmlns="http://www.w3.org/2000/svg">
<g id="#000000ff">
<path fill="#000000" opacity="1.00" d=" M 180.42 8.60 C 193.97 4.81 208.02 2.85 222.07 2.47 C 232.40 2.96 242.74 3.41 253.01 4.74 C 266.13 5.24 279.34 6.12 292.13 9.26 C 302.33 11.78 311.86 16.29 321.41 20.57 C 343.93 30.20 363.92 46.37 376.76 67.35 C 383.34 76.42 387.98 86.90 389.84 97.97 C 390.15 100.50 393.29 100.67 395.03 101.90 C 409.00 108.35 418.08 121.40 426.07 133.99 C 431.76 142.88 433.86 153.39 435.63 163.63 C 436.81 172.69 436.95 181.89 436.23 191.00 C 435.10 207.03 425.56 221.71 412.78 231.05 C 416.34 262.27 415.36 293.77 414.23 325.10 C 422.46 327.04 430.46 330.01 437.92 333.99 C 442.26 336.81 447.02 339.84 449.08 344.83 C 454.25 357.22 455.20 370.76 456.72 383.94 C 457.83 393.08 458.25 402.35 457.14 411.51 C 455.41 421.59 449.10 431.03 440.02 435.91 C 436.46 437.86 432.60 439.16 429.04 441.09 C 420.72 445.48 411.49 447.65 402.50 450.16 C 392.37 451.38 382.17 452.09 371.96 452.31 C 354.69 454.28 337.40 456.54 320.00 456.77 C 310.32 457.02 300.66 457.75 290.99 458.29 C 278.65 458.64 266.29 458.80 253.95 458.57 C 249.87 458.42 246.10 460.20 242.19 461.08 C 227.70 464.68 212.64 462.65 198.11 460.37 C 190.55 458.56 182.73 458.87 175.11 457.51 C 163.30 456.96 151.71 454.39 139.92 453.69 C 132.15 453.27 124.72 450.78 117.24 448.82 C 114.18 447.77 111.17 449.55 108.12 449.77 C 96.80 451.28 85.38 449.79 74.01 450.27 C 60.66 449.03 46.46 449.31 34.42 442.55 C 26.22 436.85 20.38 428.12 17.06 418.77 C 10.11 404.53 9.02 388.46 6.36 373.07 C 5.04 362.75 3.50 352.42 3.32 342.00 C 3.01 330.00 2.04 317.97 3.18 305.99 C 3.35 300.65 3.82 295.32 4.14 289.99 C 4.22 275.61 4.46 261.17 6.65 246.93 C 7.91 238.33 7.95 229.61 9.16 221.00 C 9.39 211.99 9.83 202.96 11.57 194.09 C 12.64 186.33 14.86 178.20 20.48 172.46 C 24.30 169.11 28.56 166.20 33.17 164.07 C 52.08 157.33 72.02 153.30 92.11 152.81 C 92.32 137.88 96.16 123.32 99.65 108.89 C 101.38 102.11 103.60 95.46 105.88 88.84 C 111.45 74.11 116.31 58.72 126.24 46.20 C 137.14 32.91 150.66 21.38 166.59 14.61 C 171.22 12.65 175.56 9.98 180.42 8.60 M 191.69 34.79 C 174.50 38.94 158.11 47.94 146.67 61.62 C 144.53 64.09 143.38 67.24 142.74 70.40 C 140.27 72.74 139.34 76.06 138.10 79.11 C 132.82 93.15 128.19 107.45 124.40 121.96 C 120.66 144.54 118.55 167.35 115.20 190.00 C 113.03 210.60 113.52 231.37 111.78 252.01 C 111.81 262.69 111.41 273.37 111.03 284.05 C 111.80 302.03 111.18 320.05 112.13 338.03 C 113.02 362.89 111.55 387.83 113.68 412.64 C 115.28 413.73 117.13 414.38 118.91 415.12 C 132.24 420.33 145.89 425.11 160.08 427.29 C 175.09 428.85 190.08 430.62 205.15 431.43 C 214.43 431.54 223.72 431.81 233.00 431.77 C 237.09 431.76 241.46 430.40 244.21 427.24 C 251.37 417.20 254.99 405.14 256.58 393.01 C 258.06 385.36 256.16 377.66 256.05 369.97 L 254.88 370.79 C 254.91 370.09 254.98 368.70 255.01 368.00 C 252.29 360.41 248.02 352.14 239.92 349.27 C 230.88 345.86 221.59 342.75 211.92 341.83 C 198.17 339.57 184.73 335.80 171.05 333.20 C 166.81 332.06 161.42 330.69 160.44 325.67 C 159.10 319.83 157.90 312.77 161.52 307.52 L 160.91 306.83 C 162.53 306.17 164.12 305.18 165.95 305.35 C 178.90 304.82 191.36 309.04 204.22 309.75 C 223.13 312.71 241.73 317.71 259.65 324.47 C 265.22 326.55 269.84 330.40 274.06 334.48 C 276.55 339.38 280.26 343.57 282.43 348.66 C 287.78 359.31 288.40 371.38 289.56 383.02 C 290.11 399.62 287.50 416.62 280.07 431.59 C 299.71 433.75 319.33 429.99 338.99 430.28 C 342.33 429.96 346.41 430.65 349.05 428.10 C 358.40 418.97 368.29 409.81 373.80 397.70 C 378.14 390.30 378.89 381.63 381.23 373.54 C 382.76 368.18 383.88 362.67 383.64 357.07 C 383.18 346.37 389.55 336.66 388.60 325.96 C 388.50 317.30 388.49 308.64 387.77 300.02 C 387.15 291.88 387.54 283.65 386.17 275.58 C 385.26 265.68 384.82 255.64 382.30 245.99 C 377.03 247.55 372.26 250.39 367.06 252.14 C 361.86 254.20 356.47 255.70 351.09 257.21 C 348.39 257.81 345.68 258.40 343.02 259.17 C 334.41 260.93 325.70 261.95 317.03 263.22 C 307.76 264.64 298.36 264.95 288.99 264.86 C 278.35 264.74 267.51 265.12 257.14 262.30 C 250.46 260.45 243.60 259.23 237.08 256.84 C 229.52 253.95 222.29 250.04 215.96 245.00 C 209.19 238.76 202.61 232.04 198.24 223.86 C 191.00 208.46 187.58 191.64 184.83 174.96 C 183.00 161.38 183.79 147.68 183.62 134.03 C 183.41 127.82 185.05 121.78 186.74 115.86 C 188.53 112.52 189.62 108.84 191.53 105.57 C 194.99 100.87 200.75 98.88 205.50 95.81 C 219.62 92.75 233.12 87.31 247.30 84.50 C 257.42 82.38 267.77 82.17 277.98 80.62 C 288.01 80.43 298.00 78.52 308.05 79.57 C 320.01 81.21 332.18 79.11 344.08 81.52 C 339.48 75.22 334.89 68.22 327.80 64.52 C 316.82 54.31 303.76 46.30 289.65 41.25 C 278.21 36.86 266.51 31.81 254.02 32.16 C 240.70 32.15 227.39 32.10 214.07 32.17 C 206.53 32.07 199.10 33.55 191.69 34.79 M 274.90 111.00 C 259.91 114.28 244.24 116.07 230.50 123.37 C 222.86 127.60 215.80 134.78 215.16 143.92 C 213.31 160.28 212.67 177.80 219.96 193.03 C 222.66 199.19 226.19 205.19 231.68 209.27 C 242.95 219.38 256.45 227.42 271.42 230.39 C 277.25 231.05 283.13 230.68 288.98 231.13 C 304.39 231.51 319.96 232.76 335.26 230.30 C 348.74 227.48 361.97 223.27 374.41 217.34 C 384.19 212.37 392.76 205.06 399.19 196.17 C 405.04 188.61 409.29 179.20 408.09 169.45 L 408.32 169.26 C 407.35 161.16 405.46 152.93 401.01 145.99 C 391.08 134.59 378.63 125.48 364.95 119.07 C 336.72 107.03 304.84 104.78 274.90 111.00 M 57.66 184.56 C 52.17 186.60 45.83 188.81 42.83 194.24 C 40.19 196.84 38.45 200.32 38.15 204.04 C 37.44 209.60 36.31 215.10 35.70 220.67 C 34.13 225.31 34.88 230.29 34.17 235.08 C 30.43 262.87 30.19 290.96 30.53 318.96 C 30.66 325.30 30.25 331.71 31.46 337.98 C 33.25 348.10 34.92 358.24 36.27 368.43 C 37.75 379.42 38.92 390.60 42.84 401.05 C 45.65 407.07 49.88 413.10 56.35 415.49 C 65.70 418.88 75.92 420.41 85.72 418.21 C 84.62 409.80 83.80 401.35 82.71 392.93 C 82.39 385.58 81.59 378.27 80.72 370.96 C 77.85 331.70 80.59 292.33 79.34 253.03 C 79.28 243.66 79.12 234.26 80.14 224.92 C 80.93 210.12 81.38 195.20 84.90 180.74 C 75.78 181.68 66.63 182.71 57.66 184.56 M 413.74 351.33 C 414.00 375.75 408.57 400.15 398.05 422.18 C 401.56 421.68 404.99 420.72 408.17 419.11 C 413.16 416.62 418.82 415.61 423.54 412.53 C 428.94 409.34 431.50 402.98 432.28 397.02 C 433.26 382.29 432.02 366.26 422.85 354.06 C 420.92 350.95 416.82 351.77 413.74 351.33 Z" />
</g>
<g id="#ff0100ff">
<path fill="#ff0100" opacity="1.00" d=" M 191.69 34.79 C 199.10 33.55 206.53 32.07 214.07 32.17 C 227.39 32.10 240.70 32.15 254.02 32.16 C 266.51 31.81 278.21 36.86 289.65 41.25 C 303.76 46.30 316.82 54.31 327.80 64.52 C 332.56 69.48 337.60 74.22 341.71 79.78 C 334.81 79.45 327.95 78.25 321.03 78.67 C 312.01 79.23 303.06 76.93 294.04 77.87 C 288.34 78.32 282.75 79.71 277.01 79.67 C 270.27 79.65 263.69 81.24 257.00 81.77 C 241.74 83.49 227.31 89.00 212.54 92.88 C 210.07 93.54 207.70 94.51 205.50 95.81 C 200.75 98.88 194.99 100.87 191.53 105.57 C 189.62 108.84 188.53 112.52 186.74 115.86 C 185.05 121.78 183.41 127.82 183.62 134.03 C 183.79 147.68 183.00 161.38 184.83 174.96 C 187.58 191.64 191.00 208.46 198.24 223.86 C 202.61 232.04 209.19 238.76 215.96 245.00 C 222.29 250.04 229.52 253.95 237.08 256.84 C 243.60 259.23 250.46 260.45 257.14 262.30 C 267.51 265.12 278.35 264.74 288.99 264.86 C 298.36 264.95 307.76 264.64 317.03 263.22 C 325.70 261.95 334.41 260.93 343.02 259.17 C 345.68 258.40 348.39 257.81 351.09 257.21 C 356.47 255.70 361.86 254.20 367.06 252.14 C 372.26 250.39 377.03 247.55 382.30 245.99 C 384.82 255.64 385.26 265.68 386.17 275.58 C 385.87 280.64 385.16 285.68 383.94 290.61 C 381.20 301.93 378.34 313.29 373.77 324.03 C 370.12 333.32 365.47 342.17 361.66 351.39 C 359.90 355.72 356.47 359.03 353.05 362.10 C 341.21 372.72 325.35 377.34 309.92 379.60 C 303.43 380.40 296.89 380.71 290.44 381.85 C 290.26 367.93 287.38 353.66 279.95 341.72 C 278.35 339.03 276.38 336.57 274.06 334.48 C 269.84 330.40 265.22 326.55 259.65 324.47 C 241.73 317.71 223.13 312.71 204.22 309.75 C 191.36 309.04 178.90 304.82 165.95 305.35 C 164.12 305.18 162.53 306.17 160.91 306.83 C 155.55 300.91 152.56 293.34 149.60 286.04 C 145.81 276.72 144.67 266.64 141.30 257.19 C 136.75 240.16 135.79 222.47 134.54 204.97 C 134.33 186.63 134.14 168.28 134.60 149.95 C 136.59 129.57 137.61 109.07 140.76 88.81 C 142.00 82.75 142.66 76.59 142.74 70.40 C 143.38 67.24 144.53 64.09 146.67 61.62 C 158.11 47.94 174.50 38.94 191.69 34.79 Z" />
<path fill="#ff0100" opacity="1.00" d=" M 63.94 184.50 C 70.60 183.99 77.11 182.34 83.79 182.11 C 80.79 193.31 79.28 204.95 79.69 216.55 C 64.87 214.86 49.84 218.03 36.35 224.18 C 36.19 223.30 35.86 221.55 35.70 220.67 C 36.31 215.10 37.44 209.60 38.15 204.04 C 38.45 200.32 40.19 196.84 42.83 194.24 C 48.78 189.12 56.01 185.17 63.94 184.50 Z" />
<path fill="#ff0100" opacity="1.00" d=" M 175.58 336.17 C 178.32 336.26 181.08 336.39 183.77 337.00 C 195.42 339.77 207.12 342.40 218.96 344.16 C 224.73 345.07 230.26 347.00 235.77 348.87 C 239.77 350.30 243.98 351.90 246.81 355.24 C 250.64 359.73 252.92 365.28 254.88 370.79 C 255.09 371.42 255.51 372.67 255.72 373.30 C 249.72 379.90 240.61 382.60 232.04 383.73 C 223.06 385.11 214.15 381.28 207.36 375.63 C 195.01 364.01 184.83 350.31 175.58 336.17 Z" />
</g>
<g id="#701416ff">
<path fill="#701416" opacity="1.00" d=" M 327.80 64.52 C 334.89 68.22 339.48 75.22 344.08 81.52 C 332.18 79.11 320.01 81.21 308.05 79.57 C 298.00 78.52 288.01 80.43 277.98 80.62 C 267.77 82.17 257.42 82.38 247.30 84.50 C 233.12 87.31 219.62 92.75 205.50 95.81 C 207.70 94.51 210.07 93.54 212.54 92.88 C 227.31 89.00 241.74 83.49 257.00 81.77 C 263.69 81.24 270.27 79.65 277.01 79.67 C 282.75 79.71 288.34 78.32 294.04 77.87 C 303.06 76.93 312.01 79.23 321.03 78.67 C 327.95 78.25 334.81 79.45 341.71 79.78 C 337.60 74.22 332.56 69.48 327.80 64.52 Z" />
<path fill="#701416" opacity="1.00" d=" M 138.10 79.11 C 139.34 76.06 140.27 72.74 142.74 70.40 C 142.66 76.59 142.00 82.75 140.76 88.81 C 137.61 109.07 136.59 129.57 134.60 149.95 C 134.14 168.28 134.33 186.63 134.54 204.97 C 135.79 222.47 136.75 240.16 141.30 257.19 C 144.67 266.64 145.81 276.72 149.60 286.04 C 152.56 293.34 155.55 300.91 160.91 306.83 L 161.52 307.52 C 157.90 312.77 159.10 319.83 160.44 325.67 C 161.42 330.69 166.81 332.06 171.05 333.20 C 184.73 335.80 198.17 339.57 211.92 341.83 C 221.59 342.75 230.88 345.86 239.92 349.27 C 248.02 352.14 252.29 360.41 255.01 368.00 C 254.98 368.70 254.91 370.09 254.88 370.79 C 252.92 365.28 250.64 359.73 246.81 355.24 C 243.98 351.90 239.77 350.30 235.77 348.87 C 230.26 347.00 224.73 345.07 218.96 344.16 C 207.12 342.40 195.42 339.77 183.77 337.00 C 181.08 336.39 178.32 336.26 175.58 336.17 C 184.83 350.31 195.01 364.01 207.36 375.63 C 214.15 381.28 223.06 385.11 232.04 383.73 C 240.61 382.60 249.72 379.90 255.72 373.30 C 255.51 372.67 255.09 371.42 254.88 370.79 L 256.05 369.97 C 256.16 377.66 258.06 385.36 256.58 393.01 C 254.99 405.14 251.37 417.20 244.21 427.24 C 241.46 430.40 237.09 431.76 233.00 431.77 C 223.72 431.81 214.43 431.54 205.15 431.43 C 190.08 430.62 175.09 428.85 160.08 427.29 C 145.89 425.11 132.24 420.33 118.91 415.12 C 117.13 414.38 115.28 413.73 113.68 412.64 C 111.55 387.83 113.02 362.89 112.13 338.03 C 111.18 320.05 111.80 302.03 111.03 284.05 C 111.41 273.37 111.81 262.69 111.78 252.01 C 113.52 231.37 113.03 210.60 115.20 190.00 C 118.55 167.35 120.66 144.54 124.40 121.96 C 128.19 107.45 132.82 93.15 138.10 79.11 Z" />
<path fill="#701416" opacity="1.00" d=" M 57.66 184.56 C 66.63 182.71 75.78 181.68 84.90 180.74 C 81.38 195.20 80.93 210.12 80.14 224.92 C 79.12 234.26 79.28 243.66 79.34 253.03 C 80.59 292.33 77.85 331.70 80.72 370.96 C 81.59 378.27 82.39 385.58 82.71 392.93 C 83.80 401.35 84.62 409.80 85.72 418.21 C 75.92 420.41 65.70 418.88 56.35 415.49 C 49.88 413.10 45.65 407.07 42.84 401.05 C 38.92 390.60 37.75 379.42 36.27 368.43 C 34.92 358.24 33.25 348.10 31.46 337.98 C 30.25 331.71 30.66 325.30 30.53 318.96 C 30.19 290.96 30.43 262.87 34.17 235.08 C 34.88 230.29 34.13 225.31 35.70 220.67 C 35.86 221.55 36.19 223.30 36.35 224.18 C 49.84 218.03 64.87 214.86 79.69 216.55 C 79.28 204.95 80.79 193.31 83.79 182.11 C 77.11 182.34 70.60 183.99 63.94 184.50 C 56.01 185.17 48.78 189.12 42.83 194.24 C 45.83 188.81 52.17 186.60 57.66 184.56 Z" />
<path fill="#701416" opacity="1.00" d=" M 386.17 275.58 C 387.54 283.65 387.15 291.88 387.77 300.02 C 388.49 308.64 388.50 317.30 388.60 325.96 C 389.55 336.66 383.18 346.37 383.64 357.07 C 383.88 362.67 382.76 368.18 381.23 373.54 C 378.89 381.63 378.14 390.30 373.80 397.70 C 368.29 409.81 358.40 418.97 349.05 428.10 C 346.41 430.65 342.33 429.96 338.99 430.28 C 319.33 429.99 299.71 433.75 280.07 431.59 C 287.50 416.62 290.11 399.62 289.56 383.02 C 288.40 371.38 287.78 359.31 282.43 348.66 C 280.26 343.57 276.55 339.38 274.06 334.48 C 276.38 336.57 278.35 339.03 279.95 341.72 C 287.38 353.66 290.26 367.93 290.44 381.85 C 296.89 380.71 303.43 380.40 309.92 379.60 C 325.35 377.34 341.21 372.72 353.05 362.10 C 356.47 359.03 359.90 355.72 361.66 351.39 C 365.47 342.17 370.12 333.32 373.77 324.03 C 378.34 313.29 381.20 301.93 383.94 290.61 C 385.16 285.68 385.87 280.64 386.17 275.58 Z" />
<path fill="#701416" opacity="1.00" d=" M 413.74 351.33 C 416.82 351.77 420.92 350.95 422.85 354.06 C 432.02 366.26 433.26 382.29 432.28 397.02 C 431.50 402.98 428.94 409.34 423.54 412.53 C 418.82 415.61 413.16 416.62 408.17 419.11 C 404.99 420.72 401.56 421.68 398.05 422.18 C 408.57 400.15 414.00 375.75 413.74 351.33 Z" />
</g>
<g id="#95c9dcff">
<path fill="#95c9dc" opacity="1.00" d=" M 274.90 111.00 C 304.84 104.78 336.72 107.03 364.95 119.07 C 378.63 125.48 391.08 134.59 401.01 145.99 C 405.46 152.93 407.35 161.16 408.32 169.26 L 408.09 169.45 C 397.87 178.77 384.36 183.26 371.00 185.75 C 356.97 189.58 342.35 189.20 327.97 190.42 C 308.48 191.00 288.00 192.16 269.72 184.12 C 263.38 181.64 258.32 176.97 253.00 172.88 C 249.19 169.97 246.87 165.71 244.16 161.85 C 239.81 156.01 236.62 149.33 234.83 142.26 C 233.30 135.99 231.07 129.85 230.50 123.37 C 244.24 116.07 259.91 114.28 274.90 111.00 M 297.52 118.89 C 290.66 119.13 283.47 124.74 283.64 132.03 C 283.33 137.19 285.93 142.05 288.75 146.19 C 294.03 150.40 301.01 152.32 307.72 152.37 C 317.48 152.54 327.23 153.19 336.99 153.32 C 347.42 153.31 357.83 155.64 368.24 154.15 C 372.95 153.15 378.46 151.03 380.04 145.99 C 380.83 143.08 381.66 139.21 379.12 136.93 C 370.82 128.45 359.34 124.02 348.04 121.20 C 331.42 118.01 314.37 117.62 297.52 118.89 Z" />
</g>
<g id="#fefefeff">
<path fill="#fefefe" opacity="1.00" d=" M 297.52 118.89 C 314.37 117.62 331.42 118.01 348.04 121.20 C 359.34 124.02 370.82 128.45 379.12 136.93 C 381.66 139.21 380.83 143.08 380.04 145.99 C 378.46 151.03 372.95 153.15 368.24 154.15 C 357.83 155.64 347.42 153.31 336.99 153.32 C 327.23 153.19 317.48 152.54 307.72 152.37 C 301.01 152.32 294.03 150.40 288.75 146.19 C 285.93 142.05 283.33 137.19 283.64 132.03 C 283.47 124.74 290.66 119.13 297.52 118.89 Z" />
</g>
<g id="#4a646dff">
<path fill="#4a646d" opacity="1.00" d=" M 215.16 143.92 C 215.80 134.78 222.86 127.60 230.50 123.37 C 231.07 129.85 233.30 135.99 234.83 142.26 C 236.62 149.33 239.81 156.01 244.16 161.85 C 246.87 165.71 249.19 169.97 253.00 172.88 C 258.32 176.97 263.38 181.64 269.72 184.12 C 288.00 192.16 308.48 191.00 327.97 190.42 C 342.35 189.20 356.97 189.58 371.00 185.75 C 384.36 183.26 397.87 178.77 408.09 169.45 C 409.29 179.20 405.04 188.61 399.19 196.17 C 392.76 205.06 384.19 212.37 374.41 217.34 C 361.97 223.27 348.74 227.48 335.26 230.30 C 319.96 232.76 304.39 231.51 288.98 231.13 C 283.13 230.68 277.25 231.05 271.42 230.39 C 256.45 227.42 242.95 219.38 231.68 209.27 C 226.19 205.19 222.66 199.19 219.96 193.03 C 212.67 177.80 213.31 160.28 215.16 143.92 Z" />
</g>
</svg>
