<?xml version="1.0" encoding="UTF-8" ?>
<!DOCTYPE svg PUBLIC "-//W3C//DTD SVG 1.1//EN" "http://www.w3.org/Graphics/SVG/1.1/DTD/svg11.dtd">
<svg width="480pt" height="640pt" viewBox="0 0 480 640" version="1.1" xmlns="http://www.w3.org/2000/svg">
<g id="#000000ff">
<path fill="#000000" opacity="1.00" d=" M 224.18 82.30 C 234.74 81.02 245.46 80.34 256.04 81.82 C 266.90 82.02 277.80 83.08 288.37 85.67 C 300.12 88.74 310.34 95.74 319.45 103.54 C 323.31 107.52 329.08 105.37 333.93 106.23 C 342.95 107.75 351.91 110.00 360.28 113.75 C 368.38 117.41 374.75 123.86 380.43 130.52 C 384.29 134.93 388.03 139.78 389.46 145.58 C 391.26 152.23 392.57 159.13 391.91 166.05 C 390.74 176.93 387.68 187.49 385.02 198.07 C 383.94 201.63 385.60 205.16 386.39 208.60 C 389.24 218.42 391.06 228.74 396.24 237.70 C 398.73 242.18 399.69 247.27 400.76 252.23 C 404.02 267.95 406.57 283.81 409.51 299.59 C 411.45 307.24 412.39 315.10 412.96 322.95 C 412.70 330.67 414.48 338.27 413.99 346.00 C 413.52 353.04 415.11 359.97 414.99 366.99 C 415.03 377.66 414.97 388.33 415.01 399.00 C 415.32 409.57 413.35 420.63 407.75 429.72 C 401.50 437.68 394.96 445.64 391.14 455.13 C 388.20 461.59 387.35 468.72 385.37 475.47 C 379.43 486.43 372.10 496.58 363.93 505.99 C 349.03 523.33 333.84 541.14 314.06 553.08 C 311.11 555.04 307.46 555.42 304.03 555.61 C 294.21 554.65 284.64 551.90 275.42 548.48 C 269.02 546.15 263.30 541.87 259.75 535.99 C 255.48 538.94 251.68 542.50 247.42 545.45 C 240.92 549.98 233.79 553.54 226.44 556.48 C 218.49 559.53 210.42 562.57 201.95 563.85 C 193.23 564.58 184.56 563.08 175.91 562.25 C 170.87 561.49 165.21 561.35 161.16 557.85 C 156.74 553.93 152.10 549.99 149.27 544.70 C 143.37 534.03 142.72 521.12 145.47 509.41 C 149.22 491.55 159.70 476.26 168.88 460.83 C 172.48 454.48 176.45 448.14 178.10 440.95 C 165.83 445.12 154.26 452.26 141.00 452.81 C 130.68 452.25 120.45 449.53 111.34 444.62 C 105.67 441.95 100.96 437.20 98.55 431.40 C 88.65 411.50 77.58 392.12 69.66 371.30 C 65.94 361.26 60.89 351.78 55.45 342.58 C 49.55 329.92 47.83 315.82 47.01 302.02 C 47.10 294.00 46.57 285.93 47.83 277.97 C 48.35 266.82 51.57 256.00 55.66 245.68 C 59.29 236.49 65.83 228.49 74.21 223.24 C 84.23 216.79 94.85 210.07 107.00 208.97 C 108.21 208.60 110.03 209.06 110.76 207.78 C 112.67 192.88 112.43 177.67 116.05 163.00 C 120.12 149.07 129.45 137.60 135.68 124.68 C 138.87 120.24 143.11 116.60 147.78 113.79 C 157.97 107.58 168.86 102.66 179.72 97.74 C 194.03 91.27 208.77 85.54 224.18 82.30 M 217.92 109.71 C 207.22 110.30 195.84 111.50 186.83 117.87 C 179.78 123.03 172.82 128.37 166.62 134.55 C 160.11 142.40 152.84 149.71 147.64 158.56 C 144.57 163.90 142.54 169.75 140.81 175.64 C 137.93 185.84 138.85 196.54 138.72 207.01 C 139.01 213.73 136.89 220.27 137.04 226.99 C 137.10 232.24 136.04 237.49 136.34 242.70 C 135.15 252.57 136.54 262.53 138.96 272.11 C 142.50 286.08 145.66 300.15 148.81 314.21 C 151.64 323.33 153.30 332.75 156.23 341.84 C 161.02 357.36 166.85 372.52 172.28 387.83 C 173.75 392.03 175.55 396.17 178.25 399.75 C 184.31 408.67 193.37 414.71 201.71 421.27 C 202.49 433.82 201.47 446.43 199.65 458.84 C 197.61 464.82 194.91 470.57 192.51 476.42 C 188.80 485.43 182.64 493.07 176.73 500.69 C 172.69 507.55 169.56 515.14 168.31 523.03 C 168.98 527.34 171.36 531.48 174.82 534.18 C 182.09 539.93 191.48 542.66 200.69 542.44 C 206.27 541.60 211.58 539.33 216.31 536.29 C 224.44 531.18 232.30 525.65 240.21 520.22 C 251.88 511.51 259.68 498.77 265.64 485.72 C 270.49 473.20 275.35 460.68 280.10 448.13 C 281.75 443.99 281.99 439.31 284.52 435.54 C 285.37 434.32 286.26 432.71 288.01 432.89 C 293.26 432.57 298.54 433.22 303.78 432.66 C 312.68 431.58 321.30 428.92 329.54 425.46 C 334.75 423.41 340.86 421.58 346.29 423.78 C 350.13 428.77 351.73 435.65 350.90 441.89 C 350.34 446.96 345.09 449.16 341.10 451.18 C 332.46 454.83 323.40 458.08 313.97 458.75 C 312.09 459.12 308.78 457.34 308.27 460.13 C 306.12 466.94 302.77 473.28 299.58 479.64 C 294.05 490.06 288.55 500.50 282.91 510.86 C 280.82 514.73 278.39 518.47 277.05 522.70 C 285.91 527.58 296.84 530.85 306.60 526.61 C 316.00 521.82 322.81 513.49 330.44 506.44 C 336.02 501.02 342.29 496.19 346.75 489.74 C 353.90 480.29 361.16 470.67 365.42 459.51 C 366.66 456.96 364.45 454.63 363.69 452.31 C 361.85 447.84 360.94 441.58 365.18 438.15 C 368.02 435.37 373.08 435.82 374.96 431.98 C 381.32 422.02 385.14 410.71 388.41 399.43 C 389.48 383.66 392.01 367.75 389.43 351.96 C 389.19 347.96 388.06 344.07 388.07 340.05 C 387.99 333.95 388.43 327.81 387.47 321.75 C 386.61 315.87 387.35 309.85 385.99 304.03 C 380.59 281.55 378.68 258.38 372.86 236.00 C 371.17 229.14 366.41 223.62 361.07 219.24 C 348.32 232.82 331.22 241.08 314.31 248.19 C 303.10 250.85 291.58 251.95 280.16 253.26 C 267.30 254.96 254.30 253.37 241.59 251.28 C 229.01 248.26 216.84 243.74 204.71 239.27 C 198.78 236.87 192.40 234.86 187.72 230.27 C 181.90 224.07 180.21 215.25 180.06 207.02 C 180.24 193.88 178.88 180.24 183.81 167.72 C 186.27 162.39 189.53 157.48 192.24 152.27 C 195.14 147.38 197.84 141.97 202.89 138.94 C 214.76 131.02 226.61 122.34 240.56 118.48 C 250.24 115.56 260.51 115.27 270.17 112.25 C 271.22 111.95 271.87 111.25 272.13 110.15 C 262.85 108.48 253.41 107.70 243.98 107.75 C 235.24 107.11 226.49 107.98 217.92 109.71 M 295.93 126.70 C 285.53 127.47 275.00 129.09 265.39 133.33 C 255.74 137.37 245.73 141.11 237.19 147.23 C 232.85 149.76 228.95 152.95 225.09 156.14 C 220.63 159.73 217.61 164.67 214.23 169.21 C 210.82 174.43 206.64 179.60 205.92 186.01 C 204.88 191.97 204.50 198.12 205.80 204.08 C 207.90 214.53 215.69 223.86 225.97 227.08 C 235.96 230.24 246.72 230.66 257.07 229.38 C 263.82 228.66 270.65 229.54 277.38 228.47 C 282.53 227.70 287.76 228.35 292.92 227.80 C 306.07 225.69 318.99 221.83 330.91 215.84 C 338.78 211.67 346.16 206.62 353.28 201.28 C 356.85 198.54 360.84 196.17 363.56 192.50 C 371.30 182.24 375.14 168.61 371.56 156.01 C 370.61 153.14 369.94 150.16 368.61 147.43 C 359.64 141.31 350.26 135.53 339.84 132.22 C 325.88 127.08 310.75 124.36 295.93 126.70 M 87.42 246.42 C 77.43 257.82 71.71 272.85 71.96 288.04 C 71.80 299.22 72.57 310.56 75.74 321.33 C 77.99 328.57 80.45 335.77 83.36 342.77 C 92.29 358.16 102.02 373.13 109.92 389.11 C 113.88 396.89 116.56 405.21 119.73 413.32 C 121.23 417.54 125.38 419.80 128.97 422.03 C 133.83 425.12 139.95 425.60 145.48 424.40 C 148.74 423.63 150.21 420.32 151.70 417.67 C 152.45 415.93 154.09 413.96 152.81 412.07 C 149.35 405.16 144.97 398.58 143.04 391.01 C 142.06 387.02 141.39 382.95 139.89 379.11 C 135.22 366.69 130.98 354.08 127.85 341.18 C 124.99 329.66 122.58 317.88 122.83 305.96 C 123.06 301.05 120.10 296.89 118.54 292.44 C 116.46 287.60 115.94 282.33 114.68 277.27 C 113.59 269.19 114.79 260.98 113.20 252.96 C 112.09 246.46 111.89 239.79 110.09 233.43 C 102.05 236.73 93.47 239.88 87.42 246.42 Z" />
</g>
<g id="#7778ffff">
<path fill="#7778ff" opacity="1.00" d=" M 217.92 109.71 C 226.49 107.98 235.24 107.11 243.98 107.75 C 253.41 107.70 262.85 108.48 272.13 110.15 C 271.87 111.25 271.22 111.95 270.17 112.25 C 260.51 115.27 250.24 115.56 240.56 118.48 C 226.61 122.34 214.76 131.02 202.89 138.94 C 197.84 141.97 195.14 147.38 192.24 152.27 C 189.53 157.48 186.27 162.39 183.81 167.72 C 178.88 180.24 180.24 193.88 180.06 207.02 C 180.21 215.25 181.90 224.07 187.72 230.27 C 192.40 234.86 198.78 236.87 204.71 239.27 C 216.84 243.74 229.01 248.26 241.59 251.28 C 254.30 253.37 267.30 254.96 280.16 253.26 C 291.58 251.95 303.10 250.85 314.31 248.19 C 331.22 241.08 348.32 232.82 361.07 219.24 C 366.41 223.62 371.17 229.14 372.86 236.00 C 378.68 258.38 380.59 281.55 385.99 304.03 C 387.35 309.85 386.61 315.87 387.47 321.75 C 388.43 327.81 387.99 333.95 388.07 340.05 C 388.06 344.07 389.19 347.96 389.43 351.96 C 388.53 358.89 385.52 365.34 382.29 371.45 C 376.98 379.85 371.76 388.58 363.99 394.98 C 359.33 399.09 353.38 401.16 347.99 404.07 C 335.41 411.44 320.49 414.68 305.98 413.73 C 298.65 413.39 291.26 414.30 283.99 413.00 C 278.26 412.05 272.79 410.01 267.20 408.52 C 262.10 407.11 256.93 405.91 252.00 403.97 C 246.67 401.90 241.84 398.74 236.51 396.68 C 231.61 394.78 226.74 392.62 222.53 389.41 C 215.85 384.50 210.78 377.86 204.77 372.23 C 200.64 368.32 197.49 363.53 193.40 359.59 C 186.41 352.78 180.99 344.61 175.04 336.93 C 167.22 327.71 160.01 317.74 155.43 306.47 C 152.47 299.36 149.32 292.29 147.11 284.89 C 143.14 270.92 139.22 256.94 136.34 242.70 C 136.04 237.49 137.10 232.24 137.04 226.99 C 136.89 220.27 139.01 213.73 138.72 207.01 C 138.85 196.54 137.93 185.84 140.81 175.64 C 142.54 169.75 144.57 163.90 147.64 158.56 C 152.84 149.71 160.11 142.40 166.62 134.55 C 172.82 128.37 179.78 123.03 186.83 117.87 C 195.84 111.50 207.22 110.30 217.92 109.71 Z" />
<path fill="#7778ff" opacity="1.00" d=" M 87.42 246.42 C 93.47 239.88 102.05 236.73 110.09 233.43 C 111.89 239.79 112.09 246.46 113.20 252.96 C 114.79 260.98 113.59 269.19 114.68 277.27 C 114.27 275.95 113.83 274.65 113.40 273.35 C 107.09 272.88 100.76 274.07 94.68 275.66 C 86.51 278.54 79.03 283.11 71.96 288.04 C 71.71 272.85 77.43 257.82 87.42 246.42 Z" />
</g>
<g id="#92c8ddff">
<path fill="#92c8dd" opacity="1.00" d=" M 295.93 126.70 C 310.75 124.36 325.88 127.08 339.84 132.22 C 350.26 135.53 359.64 141.31 368.61 147.43 C 369.94 150.16 370.61 153.14 371.56 156.01 C 368.98 161.35 364.49 165.27 360.37 169.37 C 352.75 177.45 343.14 183.25 333.56 188.67 C 318.19 197.60 300.93 203.89 283.02 204.42 C 272.50 204.38 261.88 205.00 251.52 202.70 C 244.95 201.39 237.27 200.80 232.70 195.25 C 228.16 189.55 224.76 182.08 226.29 174.67 C 228.19 164.96 231.76 155.53 237.19 147.23 C 245.73 141.11 255.74 137.37 265.39 133.33 C 275.00 129.09 285.53 127.47 295.93 126.70 M 303.48 132.58 C 297.11 133.20 290.59 132.66 284.37 134.37 C 277.22 136.16 270.14 138.37 263.42 141.43 C 259.49 143.17 256.48 146.49 254.21 150.07 C 251.66 154.81 251.61 162.11 256.74 165.19 C 261.78 168.81 268.32 168.28 274.07 167.08 C 284.72 164.87 295.46 162.60 305.56 158.48 C 311.46 156.02 317.54 152.41 320.27 146.34 C 322.26 141.88 319.89 136.53 315.89 134.12 C 311.95 132.67 307.63 132.54 303.48 132.58 Z" />
</g>
<g id="#ffffffff">
<path fill="#ffffff" opacity="1.00" d=" M 303.48 132.58 C 307.63 132.54 311.95 132.67 315.89 134.12 C 319.89 136.53 322.26 141.88 320.27 146.34 C 317.54 152.41 311.46 156.02 305.56 158.48 C 295.46 162.60 284.72 164.87 274.07 167.08 C 268.32 168.28 261.78 168.81 256.74 165.19 C 251.61 162.11 251.66 154.81 254.21 150.07 C 256.48 146.49 259.49 143.17 263.42 141.43 C 270.14 138.37 277.22 136.16 284.37 134.37 C 290.59 132.66 297.11 133.20 303.48 132.58 Z" />
</g>
<g id="#47636cff">
<path fill="#47636c" opacity="1.00" d=" M 225.09 156.14 C 228.95 152.95 232.85 149.76 237.19 147.23 C 231.76 155.53 228.19 164.96 226.29 174.67 C 224.76 182.08 228.16 189.55 232.70 195.25 C 237.27 200.80 244.95 201.39 251.52 202.70 C 261.88 205.00 272.50 204.38 283.02 204.42 C 300.93 203.89 318.19 197.60 333.56 188.67 C 343.14 183.25 352.75 177.45 360.37 169.37 C 364.49 165.27 368.98 161.35 371.56 156.01 C 375.14 168.61 371.30 182.24 363.56 192.50 C 360.84 196.17 356.85 198.54 353.28 201.28 C 346.16 206.62 338.78 211.67 330.91 215.84 C 318.99 221.83 306.07 225.69 292.92 227.80 C 287.76 228.35 282.53 227.70 277.38 228.47 C 270.65 229.54 263.82 228.66 257.07 229.38 C 246.72 230.66 235.96 230.24 225.97 227.08 C 215.69 223.86 207.90 214.53 205.80 204.08 C 204.50 198.12 204.88 191.97 205.92 186.01 C 206.64 179.60 210.82 174.43 214.23 169.21 C 217.61 164.67 220.63 159.73 225.09 156.14 Z" />
</g>
<g id="#4d39b4ff">
<path fill="#4d39b4" opacity="1.00" d=" M 136.34 242.70 C 139.22 256.94 143.14 270.92 147.11 284.89 C 149.32 292.29 152.47 299.36 155.43 306.47 C 160.01 317.74 167.22 327.71 175.04 336.93 C 180.99 344.61 186.41 352.78 193.40 359.59 C 197.49 363.53 200.64 368.32 204.77 372.23 C 210.78 377.86 215.85 384.50 222.53 389.41 C 226.74 392.62 231.61 394.78 236.51 396.68 C 241.84 398.74 246.67 401.90 252.00 403.97 C 256.93 405.91 262.10 407.11 267.20 408.52 C 272.79 410.01 278.26 412.05 283.99 413.00 C 291.26 414.30 298.65 413.39 305.98 413.73 C 320.49 414.68 335.41 411.44 347.99 404.07 C 353.38 401.16 359.33 399.09 363.99 394.98 C 371.76 388.58 376.98 379.85 382.29 371.45 C 385.52 365.34 388.53 358.89 389.43 351.96 C 392.01 367.75 389.48 383.66 388.41 399.43 C 385.14 410.71 381.32 422.02 374.96 431.98 C 373.08 435.82 368.02 435.37 365.18 438.15 C 360.94 441.58 361.85 447.84 363.69 452.31 C 364.45 454.63 366.66 456.96 365.42 459.51 C 361.16 470.67 353.90 480.29 346.75 489.74 C 342.29 496.19 336.02 501.02 330.44 506.44 C 322.81 513.49 316.00 521.82 306.60 526.61 C 296.84 530.85 285.91 527.58 277.05 522.70 C 278.39 518.47 280.82 514.73 282.91 510.86 C 288.55 500.50 294.05 490.06 299.58 479.64 C 302.77 473.28 306.12 466.94 308.27 460.13 C 308.78 457.34 312.09 459.12 313.97 458.75 C 323.40 458.08 332.46 454.83 341.10 451.18 C 345.09 449.16 350.34 446.96 350.90 441.89 C 351.73 435.65 350.13 428.77 346.29 423.78 C 340.86 421.58 334.75 423.41 329.54 425.46 C 321.30 428.92 312.68 431.58 303.78 432.66 C 298.54 433.22 293.26 432.57 288.01 432.89 C 286.26 432.71 285.37 434.32 284.52 435.54 C 281.99 439.31 281.75 443.99 280.10 448.13 C 275.35 460.68 270.49 473.20 265.64 485.72 C 259.68 498.77 251.88 511.51 240.21 520.22 C 232.30 525.65 224.44 531.18 216.31 536.29 C 211.58 539.33 206.27 541.60 200.69 542.44 C 191.48 542.66 182.09 539.93 174.82 534.18 C 171.36 531.48 168.98 527.34 168.31 523.03 C 169.56 515.14 172.69 507.55 176.73 500.69 C 182.64 493.07 188.80 485.43 192.51 476.42 C 194.91 470.57 197.61 464.82 199.65 458.84 C 201.47 446.43 202.49 433.82 201.71 421.27 C 193.37 414.71 184.31 408.67 178.25 399.75 C 175.55 396.17 173.75 392.03 172.28 387.83 C 166.85 372.52 161.02 357.36 156.23 341.84 C 153.30 332.75 151.64 323.33 148.81 314.21 C 145.66 300.15 142.50 286.08 138.96 272.11 C 136.54 262.53 135.15 252.57 136.34 242.70 Z" />
<path fill="#4d39b4" opacity="1.00" d=" M 94.68 275.66 C 100.76 274.07 107.09 272.88 113.40 273.35 C 113.83 274.65 114.27 275.95 114.68 277.27 C 115.94 282.33 116.46 287.60 118.54 292.44 C 120.10 296.89 123.06 301.05 122.83 305.96 C 122.58 317.88 124.99 329.66 127.85 341.18 C 130.98 354.08 135.22 366.69 139.89 379.11 C 141.39 382.95 142.06 387.02 143.04 391.01 C 144.97 398.58 149.35 405.16 152.81 412.07 C 154.09 413.96 152.45 415.93 151.70 417.67 C 150.21 420.32 148.74 423.63 145.48 424.40 C 139.95 425.60 133.83 425.12 128.97 422.03 C 125.38 419.80 121.23 417.54 119.73 413.32 C 116.56 405.21 113.88 396.89 109.92 389.11 C 102.02 373.13 92.29 358.16 83.36 342.77 C 80.45 335.77 77.99 328.57 75.74 321.33 C 72.57 310.56 71.80 299.22 71.96 288.04 C 79.03 283.11 86.51 278.54 94.68 275.66 Z" />
</g>
</svg>
