<?xml version="1.0" encoding="UTF-8" ?>
<!DOCTYPE svg PUBLIC "-//W3C//DTD SVG 1.1//EN" "http://www.w3.org/Graphics/SVG/1.1/DTD/svg11.dtd">
<svg width="480pt" height="640pt" viewBox="0 0 480 640" version="1.1" xmlns="http://www.w3.org/2000/svg">
<g id="#000000ff">
<path fill="#000000" opacity="1.00" d=" M 222.57 82.59 C 232.56 81.13 242.77 80.54 252.89 81.38 C 256.55 82.21 260.30 82.01 264.02 82.01 C 277.38 83.34 291.40 84.62 303.12 91.85 C 310.28 95.38 315.88 101.18 322.44 105.59 C 326.17 106.67 330.25 105.47 334.08 106.24 C 343.78 107.97 353.47 110.34 362.34 114.74 C 371.03 119.38 377.58 126.96 383.72 134.49 C 385.64 136.93 387.14 139.67 388.53 142.45 C 390.72 149.76 392.51 157.36 391.98 165.05 C 391.10 174.90 388.44 184.47 386.09 194.04 C 385.43 196.91 384.03 199.84 384.88 202.82 C 387.27 211.78 389.45 220.82 392.43 229.61 C 394.14 234.97 397.99 239.43 399.09 245.02 C 403.45 263.28 406.11 281.90 409.64 300.32 C 411.67 307.73 412.26 315.43 413.00 323.03 C 412.43 329.40 414.28 335.61 413.98 341.98 C 414.15 346.65 413.68 351.35 414.23 356.01 C 415.17 360.60 414.86 365.31 414.99 369.97 C 415.01 381.31 414.99 392.66 414.99 404.01 C 415.01 410.86 412.96 417.45 410.88 423.91 C 407.79 431.55 401.21 436.92 397.10 443.96 C 390.73 453.17 387.73 464.10 385.65 474.97 C 381.66 482.06 377.44 489.09 372.42 495.51 C 363.26 507.22 353.44 518.40 343.19 529.16 C 333.96 538.81 323.63 547.47 312.15 554.28 C 309.50 555.01 306.76 555.43 304.03 555.70 C 294.22 554.52 284.62 551.94 275.38 548.48 C 269.06 546.03 262.98 541.93 259.79 535.79 C 253.98 540.32 248.44 545.26 242.02 548.93 C 231.36 555.09 219.74 559.46 207.88 562.68 C 202.04 564.39 195.91 564.13 189.91 563.79 C 181.17 562.31 171.92 562.92 163.58 559.53 C 157.04 554.79 150.81 548.97 147.62 541.38 C 143.55 531.81 142.98 520.99 145.19 510.89 C 148.68 492.20 159.72 476.29 169.23 460.24 C 172.69 454.06 176.57 447.90 178.11 440.90 C 165.87 445.22 154.24 452.11 140.99 452.89 C 130.93 452.09 120.86 449.78 111.95 444.90 C 106.05 442.31 101.00 437.47 98.61 431.43 C 88.50 411.33 77.35 391.68 69.39 370.58 C 65.63 360.55 60.54 351.08 55.04 341.91 C 47.98 325.25 46.62 306.88 47.02 288.99 C 46.63 283.92 48.14 279.00 48.10 273.95 C 49.16 264.45 51.92 255.22 55.39 246.35 C 58.83 237.37 64.94 229.36 73.01 224.08 C 81.70 218.28 90.78 212.60 100.98 209.94 C 104.24 208.92 107.74 209.25 110.98 208.19 C 110.67 203.07 112.49 198.12 112.02 192.99 C 113.22 182.42 113.54 171.63 116.53 161.32 C 119.79 151.72 125.27 143.09 130.39 134.40 C 132.10 131.42 134.37 128.65 134.97 125.17 C 138.22 121.64 141.33 117.90 145.42 115.30 C 154.77 109.25 164.88 104.49 175.00 99.90 C 190.31 92.76 206.06 86.39 222.57 82.59 M 212.01 110.01 C 204.20 110.90 196.13 112.17 189.28 116.28 C 181.13 121.57 173.57 127.76 166.61 134.55 C 159.67 142.73 152.03 150.50 146.84 159.98 C 143.15 167.22 140.55 175.03 139.20 183.05 C 138.02 195.07 140.02 207.29 137.60 219.21 C 136.30 225.10 137.33 231.19 136.61 237.14 C 136.36 239.00 135.52 240.91 136.22 242.78 C 135.22 252.94 136.56 263.15 139.21 272.96 C 142.79 287.40 146.23 301.88 149.19 316.45 C 150.68 319.10 151.05 322.15 151.78 325.06 C 155.87 343.21 162.56 360.62 168.83 378.10 C 171.65 385.11 173.26 392.77 177.81 398.96 C 183.86 408.35 193.28 414.58 201.94 421.29 C 201.86 427.54 202.19 433.81 201.78 440.05 C 200.03 448.11 201.77 457.01 197.52 464.40 C 194.61 471.66 191.84 479.04 187.75 485.74 C 184.39 490.95 180.67 495.92 176.78 500.74 C 172.56 507.74 169.65 515.54 168.11 523.56 C 169.73 526.42 170.24 529.96 172.73 532.27 C 180.29 539.44 190.90 542.78 201.20 542.35 C 210.78 540.81 218.57 534.74 226.45 529.54 C 233.63 524.46 241.54 520.18 247.44 513.51 C 255.40 505.95 260.49 496.06 265.33 486.36 C 270.73 472.10 276.65 458.03 281.52 443.58 C 282.03 439.46 283.89 435.68 286.72 432.66 C 301.60 434.57 316.56 431.01 330.20 425.17 C 335.02 422.83 340.44 422.66 345.68 423.21 C 350.50 428.26 351.70 436.03 350.78 442.77 C 350.09 446.86 345.89 448.77 342.63 450.58 C 333.87 454.52 324.63 457.48 315.10 458.88 C 313.02 459.22 310.94 458.79 308.96 458.18 C 307.88 461.26 307.05 464.45 305.66 467.43 C 296.73 486.22 286.23 504.20 276.74 522.69 C 282.91 525.60 289.24 528.22 296.12 528.79 C 300.59 527.99 305.34 527.97 309.19 525.18 C 320.30 517.87 328.58 507.21 338.67 498.66 C 343.56 494.79 346.79 489.38 350.59 484.52 C 356.81 476.06 362.92 467.14 366.10 457.07 C 363.22 453.05 361.81 447.99 362.21 443.08 C 363.11 437.99 368.28 435.58 372.85 434.68 C 380.59 424.55 384.50 412.04 388.26 399.98 C 389.76 395.46 388.53 390.65 389.38 386.04 C 390.77 380.10 389.38 373.89 391.03 367.97 C 389.96 363.45 390.15 358.81 389.85 354.21 C 389.06 351.87 389.10 349.39 388.95 346.96 C 386.93 339.20 388.88 331.07 387.67 323.22 C 386.50 318.31 387.52 313.23 386.79 308.28 C 385.34 300.14 383.18 292.14 381.93 283.96 C 379.23 267.96 376.94 251.86 372.91 236.13 C 371.28 229.16 366.44 223.58 361.12 219.05 C 351.49 229.65 338.81 236.90 325.98 242.95 C 321.63 244.43 317.85 247.20 313.43 248.43 C 306.39 250.03 299.22 250.93 292.08 251.91 C 281.41 253.04 270.71 254.81 259.94 253.68 C 256.06 252.51 251.95 253.35 248.06 252.23 C 239.24 251.41 230.90 248.23 222.49 245.68 C 212.79 242.13 202.92 239.00 193.60 234.52 C 187.22 231.29 182.85 224.78 181.40 217.88 C 178.99 207.42 180.41 196.63 180.04 186.01 C 181.10 178.47 181.66 170.44 185.81 163.81 C 189.52 157.52 192.72 150.93 196.83 144.88 C 199.72 140.65 204.28 138.11 208.38 135.23 C 218.88 128.29 229.68 121.20 242.04 118.09 C 249.97 115.82 258.27 115.40 266.25 113.35 C 268.80 113.08 271.08 111.94 273.17 110.52 C 267.61 108.79 261.75 108.97 256.05 108.00 C 246.33 108.04 236.58 107.17 226.87 108.13 C 221.92 108.86 217.05 110.35 212.01 110.01 M 296.96 126.60 C 286.48 127.41 275.80 128.80 266.07 133.05 C 256.23 137.12 246.15 141.01 237.33 147.04 C 232.52 149.81 228.33 153.52 224.08 157.05 C 220.30 160.00 218.12 164.38 215.05 167.97 C 211.08 174.18 205.79 180.30 205.68 188.08 C 203.96 197.35 205.18 207.51 210.60 215.42 C 216.09 223.95 226.20 228.46 236.05 229.25 C 242.94 230.34 250.01 230.40 256.91 229.31 C 263.90 228.58 271.01 229.77 277.95 228.38 C 283.94 227.46 290.10 228.84 296.01 227.26 C 308.80 224.94 321.31 220.93 332.82 214.85 C 342.89 209.24 352.15 202.30 361.21 195.21 C 367.54 188.28 371.58 179.25 372.75 169.95 C 373.84 165.28 371.83 160.71 371.89 156.03 L 371.52 156.59 C 370.90 153.43 369.74 150.42 368.77 147.36 C 362.06 143.33 355.68 138.70 348.46 135.58 C 332.31 128.74 314.57 123.88 296.96 126.60 M 85.17 249.10 C 79.46 256.74 74.99 265.47 73.13 274.87 C 72.96 279.36 71.50 283.71 71.96 288.24 C 72.13 293.49 71.45 298.82 72.69 303.98 C 73.14 316.51 78.10 328.23 82.16 339.92 C 83.13 343.00 85.17 345.55 86.73 348.33 C 95.30 362.87 104.40 377.14 111.58 392.44 C 114.89 399.66 117.34 407.24 120.28 414.60 C 122.28 417.93 125.77 419.92 128.96 421.94 C 133.55 424.94 139.32 425.74 144.65 424.72 C 149.64 423.30 151.69 417.75 153.37 413.40 C 148.56 404.09 142.78 394.94 141.57 384.28 C 134.38 364.30 127.32 344.10 124.09 323.03 C 123.28 318.05 122.76 313.04 123.08 307.99 C 123.71 302.36 120.29 297.56 118.52 292.47 C 115.62 285.67 115.22 278.24 114.06 271.04 C 114.00 266.68 114.14 262.31 114.00 257.95 C 112.52 249.76 112.02 241.39 110.23 233.27 C 101.24 237.27 90.99 240.62 85.17 249.10 Z" />
</g>
<g id="#78f8ffff">
<path fill="#78f8ff" opacity="1.00" d=" M 212.01 110.01 C 217.05 110.35 221.92 108.86 226.87 108.13 C 236.58 107.17 246.33 108.04 256.05 108.00 C 261.75 108.97 267.61 108.79 273.17 110.52 C 271.08 111.94 268.80 113.08 266.25 113.35 C 258.27 115.40 249.97 115.82 242.04 118.09 C 229.68 121.20 218.88 128.29 208.38 135.23 C 204.28 138.11 199.72 140.65 196.83 144.88 C 192.72 150.93 189.52 157.52 185.81 163.81 C 181.66 170.44 181.10 178.47 180.04 186.01 C 180.41 196.63 178.99 207.42 181.40 217.88 C 182.85 224.78 187.22 231.29 193.60 234.52 C 202.92 239.00 212.79 242.13 222.49 245.68 C 230.90 248.23 239.24 251.41 248.06 252.23 C 251.95 253.35 256.06 252.51 259.94 253.68 C 270.71 254.81 281.41 253.04 292.08 251.91 C 299.22 250.93 306.39 250.03 313.43 248.43 C 317.85 247.20 321.63 244.43 325.98 242.95 C 338.81 236.90 351.49 229.65 361.12 219.05 C 366.44 223.58 371.28 229.16 372.91 236.13 C 376.94 251.86 379.23 267.96 381.93 283.96 C 383.18 292.14 385.34 300.14 386.79 308.28 C 387.52 313.23 386.50 318.31 387.67 323.22 C 388.88 331.07 386.93 339.20 388.95 346.96 C 389.10 349.39 389.06 351.87 389.85 354.21 C 387.07 359.62 385.87 365.69 382.88 371.00 C 376.42 381.47 369.49 392.22 358.92 399.00 C 355.59 401.73 351.10 402.09 347.56 404.43 C 340.94 408.65 333.31 411.03 325.65 412.54 C 315.61 415.01 305.20 413.32 294.99 413.83 C 282.97 414.46 271.73 409.64 260.29 406.80 C 252.34 404.80 245.05 400.98 237.75 397.38 C 231.95 395.12 226.16 392.57 221.19 388.77 C 219.11 386.52 217.19 384.08 214.38 382.69 C 209.49 375.91 202.30 371.24 197.56 364.33 C 191.14 357.75 184.85 350.97 179.63 343.36 C 174.99 336.49 169.03 330.62 164.52 323.65 C 161.88 319.43 159.02 315.31 157.14 310.69 C 152.34 299.79 147.71 288.77 144.78 277.20 C 142.40 267.47 138.93 257.97 137.63 248.00 C 137.32 246.22 136.73 244.51 136.22 242.78 C 135.52 240.91 136.36 239.00 136.61 237.14 C 137.33 231.19 136.30 225.10 137.60 219.21 C 140.02 207.29 138.02 195.07 139.20 183.05 C 140.55 175.03 143.15 167.22 146.84 159.98 C 152.03 150.50 159.67 142.73 166.61 134.55 C 173.57 127.76 181.13 121.57 189.28 116.28 C 196.13 112.17 204.20 110.90 212.01 110.01 Z" />
<path fill="#78f8ff" opacity="1.00" d=" M 85.17 249.10 C 90.99 240.62 101.24 237.27 110.23 233.27 C 112.02 241.39 112.52 249.76 114.00 257.95 C 114.14 262.31 114.00 266.68 114.06 271.04 C 114.05 271.67 114.05 272.94 114.04 273.58 C 108.06 272.68 102.03 274.20 96.17 275.30 C 87.45 278.19 79.52 283.11 71.96 288.24 C 71.50 283.71 72.96 279.36 73.13 274.87 C 74.99 265.47 79.46 256.74 85.17 249.10 Z" />
</g>
<g id="#92c8ddff">
<path fill="#92c8dd" opacity="1.00" d=" M 296.96 126.60 C 314.57 123.88 332.31 128.74 348.46 135.58 C 355.68 138.70 362.06 143.33 368.77 147.36 C 369.74 150.42 370.90 153.43 371.52 156.59 C 367.61 163.15 361.48 167.86 356.33 173.36 C 347.56 181.01 337.30 186.66 327.16 192.27 C 316.35 197.51 305.04 202.17 293.00 203.49 C 284.76 205.17 276.35 204.20 268.01 204.48 C 262.42 204.80 256.93 203.53 251.42 202.77 C 245.27 201.45 238.28 201.00 233.59 196.28 C 229.23 191.23 225.87 184.90 225.78 178.10 C 227.13 167.03 231.24 156.37 237.33 147.04 C 246.15 141.01 256.23 137.12 266.07 133.05 C 275.80 128.80 286.48 127.41 296.96 126.60 M 288.41 133.51 C 278.89 135.57 269.37 138.30 260.70 142.81 C 255.88 146.64 251.51 152.42 252.70 158.96 C 253.10 164.21 258.52 166.84 263.06 167.78 C 271.20 168.52 279.14 165.95 286.99 164.20 C 296.93 161.67 307.42 159.21 315.56 152.63 C 319.85 149.21 323.05 142.60 319.33 137.65 C 316.42 132.02 309.30 133.11 304.03 132.48 C 298.85 133.32 293.59 132.87 288.41 133.51 Z" />
</g>
<g id="#ffffffff">
<path fill="#ffffff" opacity="1.00" d=" M 288.41 133.51 C 293.59 132.87 298.85 133.32 304.03 132.48 C 309.30 133.11 316.42 132.02 319.33 137.65 C 323.05 142.60 319.85 149.21 315.56 152.63 C 307.42 159.21 296.93 161.67 286.99 164.20 C 279.14 165.95 271.20 168.52 263.06 167.78 C 258.52 166.84 253.10 164.21 252.70 158.96 C 251.51 152.42 255.88 146.64 260.70 142.81 C 269.37 138.30 278.89 135.57 288.41 133.51 Z" />
</g>
<g id="#47636cff">
<path fill="#47636c" opacity="1.00" d=" M 224.08 157.05 C 228.33 153.52 232.52 149.81 237.33 147.04 C 231.24 156.37 227.13 167.03 225.78 178.10 C 225.87 184.90 229.23 191.23 233.59 196.28 C 238.28 201.00 245.27 201.45 251.42 202.77 C 256.93 203.53 262.42 204.80 268.01 204.48 C 276.35 204.20 284.76 205.17 293.00 203.49 C 305.04 202.17 316.35 197.51 327.16 192.27 C 337.30 186.66 347.56 181.01 356.33 173.36 C 361.48 167.86 367.61 163.15 371.52 156.59 L 371.89 156.03 C 371.83 160.71 373.84 165.28 372.75 169.95 C 371.58 179.25 367.54 188.28 361.21 195.21 C 352.15 202.30 342.89 209.24 332.82 214.85 C 321.31 220.93 308.80 224.94 296.01 227.26 C 290.10 228.84 283.94 227.46 277.95 228.38 C 271.01 229.77 263.90 228.58 256.91 229.31 C 250.01 230.40 242.94 230.34 236.05 229.25 C 226.20 228.46 216.09 223.95 210.60 215.42 C 205.18 207.51 203.96 197.35 205.68 188.08 C 205.79 180.30 211.08 174.18 215.05 167.97 C 218.12 164.38 220.30 160.00 224.08 157.05 Z" />
</g>
<g id="#4dc9b4ff">
<path fill="#4dc9b4" opacity="1.00" d=" M 136.22 242.78 C 136.73 244.51 137.32 246.22 137.63 248.00 C 138.93 257.97 142.40 267.47 144.78 277.20 C 147.71 288.77 152.34 299.79 157.14 310.69 C 159.02 315.31 161.88 319.43 164.52 323.65 C 169.03 330.62 174.99 336.49 179.63 343.36 C 184.85 350.97 191.14 357.75 197.56 364.33 C 202.30 371.24 209.49 375.91 214.38 382.69 C 217.19 384.08 219.11 386.52 221.19 388.77 C 226.16 392.57 231.95 395.12 237.75 397.38 C 245.05 400.98 252.34 404.80 260.29 406.80 C 271.73 409.64 282.97 414.46 294.99 413.83 C 305.20 413.32 315.61 415.01 325.65 412.54 C 333.31 411.03 340.94 408.65 347.56 404.43 C 351.10 402.09 355.59 401.73 358.92 399.00 C 369.49 392.22 376.42 381.47 382.88 371.00 C 385.87 365.69 387.07 359.62 389.85 354.21 C 390.15 358.81 389.96 363.45 391.03 367.97 C 389.38 373.89 390.77 380.10 389.38 386.04 C 388.53 390.65 389.76 395.46 388.26 399.98 C 384.50 412.04 380.59 424.55 372.85 434.68 C 368.28 435.58 363.11 437.99 362.21 443.08 C 361.81 447.99 363.22 453.05 366.10 457.07 C 362.92 467.14 356.81 476.06 350.59 484.52 C 346.79 489.38 343.56 494.79 338.67 498.66 C 328.58 507.21 320.30 517.87 309.19 525.18 C 305.34 527.97 300.59 527.99 296.12 528.79 C 289.24 528.22 282.91 525.60 276.74 522.69 C 286.23 504.20 296.73 486.22 305.66 467.43 C 307.05 464.45 307.88 461.26 308.96 458.18 C 310.94 458.79 313.02 459.22 315.10 458.88 C 324.63 457.48 333.87 454.52 342.63 450.58 C 345.89 448.77 350.09 446.86 350.78 442.77 C 351.70 436.03 350.50 428.26 345.68 423.21 C 340.44 422.66 335.02 422.83 330.20 425.17 C 316.56 431.01 301.60 434.57 286.72 432.66 C 283.89 435.68 282.03 439.46 281.52 443.58 C 276.65 458.03 270.73 472.10 265.33 486.36 C 260.49 496.06 255.40 505.95 247.44 513.51 C 241.54 520.18 233.63 524.46 226.45 529.54 C 218.57 534.74 210.78 540.81 201.20 542.35 C 190.90 542.78 180.29 539.44 172.73 532.27 C 170.24 529.96 169.73 526.42 168.11 523.56 C 169.65 515.54 172.56 507.74 176.78 500.74 C 180.67 495.92 184.39 490.95 187.75 485.74 C 191.84 479.04 194.61 471.66 197.52 464.40 C 201.77 457.01 200.03 448.11 201.78 440.05 C 202.19 433.81 201.86 427.54 201.94 421.29 C 193.28 414.58 183.86 408.35 177.81 398.96 C 173.26 392.77 171.65 385.11 168.83 378.10 C 162.56 360.62 155.87 343.21 151.78 325.06 C 151.05 322.15 150.68 319.10 149.19 316.45 C 146.23 301.88 142.79 287.40 139.21 272.96 C 136.56 263.15 135.22 252.94 136.22 242.78 Z" />
<path fill="#4dc9b4" opacity="1.00" d=" M 114.06 271.04 C 115.22 278.24 115.62 285.67 118.52 292.47 C 120.29 297.56 123.71 302.36 123.08 307.99 C 122.76 313.04 123.28 318.05 124.09 323.03 C 127.32 344.10 134.38 364.30 141.57 384.28 C 142.78 394.94 148.56 404.09 153.37 413.40 C 151.69 417.75 149.64 423.30 144.65 424.72 C 139.32 425.74 133.55 424.94 128.96 421.94 C 125.77 419.92 122.28 417.93 120.28 414.60 C 117.34 407.24 114.89 399.66 111.58 392.44 C 104.40 377.14 95.30 362.87 86.73 348.33 C 85.17 345.55 83.13 343.00 82.16 339.92 C 78.10 328.23 73.14 316.51 72.69 303.98 C 71.45 298.82 72.13 293.49 71.96 288.24 C 79.52 283.11 87.45 278.19 96.17 275.30 C 102.03 274.20 108.06 272.68 114.04 273.58 C 114.05 272.94 114.05 271.67 114.06 271.04 Z" />
</g>
</svg>
