<?xml version="1.0" encoding="UTF-8" ?>
<!DOCTYPE svg PUBLIC "-//W3C//DTD SVG 1.1//EN" "http://www.w3.org/Graphics/SVG/1.1/DTD/svg11.dtd">
<svg width="480pt" height="640pt" viewBox="0 0 480 640" version="1.1" xmlns="http://www.w3.org/2000/svg">
<g id="#000000ff">
<path fill="#000000" opacity="1.00" d=" M 219.40 83.45 C 224.09 81.72 229.12 82.12 233.97 81.27 C 241.62 80.82 249.35 80.82 256.95 81.93 C 266.09 81.85 275.19 83.05 284.18 84.69 C 293.55 86.41 302.21 90.76 310.02 96.10 C 314.11 98.95 317.70 102.46 321.85 105.23 C 323.31 106.37 325.28 105.90 327.00 106.02 C 334.13 105.56 341.06 107.62 347.91 109.30 C 354.85 111.40 361.95 113.72 367.77 118.21 C 373.35 122.24 377.87 127.49 382.28 132.72 C 384.91 135.81 387.17 139.26 388.70 143.03 C 390.79 150.14 392.51 157.52 391.97 164.98 C 390.96 176.61 387.49 187.83 384.81 199.14 C 384.28 200.96 384.91 202.81 385.31 204.59 C 387.62 212.96 389.61 221.42 392.44 229.64 C 394.19 234.98 397.97 239.46 399.10 245.04 C 403.45 263.28 406.09 281.86 409.64 300.25 C 412.03 309.98 413.09 320.03 413.06 330.03 C 414.38 337.63 413.89 345.37 414.00 353.04 C 415.70 366.28 414.75 379.68 415.00 393.00 C 414.98 401.28 415.52 409.78 412.75 417.74 C 411.53 422.64 409.75 427.50 406.50 431.46 C 400.29 438.89 394.43 446.81 390.83 455.88 C 388.11 462.16 387.20 469.01 385.39 475.56 C 381.35 482.41 377.32 489.32 372.37 495.57 C 363.53 506.89 354.02 517.69 344.18 528.14 C 334.63 538.13 324.10 547.35 312.07 554.23 C 309.49 555.10 306.72 555.47 304.01 555.64 C 294.42 554.62 285.06 552.01 276.02 548.72 C 269.43 546.31 263.14 542.12 259.76 535.81 C 253.95 540.35 248.40 545.29 241.97 548.96 C 231.54 554.99 220.18 559.27 208.60 562.50 C 202.55 564.31 196.15 564.26 189.92 563.75 C 181.16 562.38 171.90 562.89 163.57 559.52 C 157.22 554.92 151.15 549.30 147.90 542.01 C 142.95 531.05 142.99 518.46 146.04 506.99 C 150.79 487.65 163.08 471.56 172.53 454.40 C 174.88 450.10 177.06 445.65 178.17 440.85 C 165.92 445.21 154.27 452.13 141.00 452.85 C 130.72 452.16 120.48 449.61 111.41 444.64 C 105.72 442.02 100.93 437.25 98.59 431.41 C 88.52 411.34 77.37 391.72 69.42 370.66 C 65.73 360.83 60.80 351.53 55.40 342.54 C 49.70 330.17 47.97 316.47 47.02 303.02 C 46.82 289.09 47.02 274.98 50.44 261.39 C 53.30 251.45 56.32 241.11 63.11 233.05 C 67.32 227.57 73.23 223.81 78.99 220.16 C 85.91 215.97 93.08 211.90 100.99 209.94 C 104.25 209.05 107.67 209.05 110.95 208.27 C 110.88 202.79 112.38 197.45 112.08 191.96 C 113.44 181.03 113.56 169.77 117.24 159.26 C 121.37 148.67 127.66 139.13 133.42 129.38 C 134.18 128.06 134.58 126.58 135.03 125.14 C 138.36 121.40 141.71 117.56 146.01 114.90 C 154.56 109.48 163.68 105.05 172.89 100.87 C 187.93 93.94 203.22 87.22 219.40 83.45 M 218.04 109.72 C 207.07 110.20 195.41 111.57 186.27 118.22 C 177.98 124.45 169.48 130.70 162.95 138.86 C 155.79 146.98 148.32 155.26 144.28 165.47 C 141.81 171.74 139.70 178.23 139.01 184.96 C 138.72 192.65 138.80 200.36 138.83 208.06 C 138.89 213.08 137.57 217.98 137.03 222.96 C 136.74 227.61 137.13 232.29 136.62 236.93 C 136.43 238.87 135.61 240.85 136.26 242.79 C 135.27 252.59 136.41 262.50 138.92 272.00 C 142.69 286.73 145.97 301.57 149.25 316.41 C 151.35 321.53 152.02 327.08 153.53 332.38 C 158.70 351.71 166.12 370.32 172.76 389.17 C 177.19 401.86 187.70 411.08 198.41 418.56 C 199.76 419.81 202.20 420.68 201.93 422.90 C 201.92 429.92 202.38 437.00 201.14 443.95 C 200.94 449.22 200.41 454.48 199.58 459.67 C 195.30 468.98 192.33 478.99 186.51 487.53 C 184.49 490.47 182.48 493.43 180.28 496.24 C 173.55 503.75 170.29 513.64 168.06 523.30 C 169.57 526.54 170.36 530.35 173.19 532.78 C 180.77 539.60 191.16 542.85 201.27 542.38 C 205.85 541.43 210.38 539.94 214.37 537.44 C 222.40 532.54 230.08 527.08 237.90 521.85 C 242.67 518.76 246.56 514.58 250.40 510.45 C 256.71 503.65 260.87 495.26 265.03 487.06 C 269.15 477.07 272.83 466.90 276.81 456.86 C 278.73 451.59 281.02 446.42 282.19 440.91 C 282.80 438.00 284.36 435.34 286.37 433.17 C 288.54 432.65 290.81 433.07 293.03 433.03 C 306.36 433.83 319.39 429.76 331.56 424.70 C 336.03 422.57 341.03 423.00 345.84 423.05 C 350.50 429.28 352.96 438.37 349.55 445.66 C 343.74 451.37 335.48 453.38 328.01 456.01 C 321.82 457.46 315.28 460.12 308.94 458.13 C 307.81 461.56 306.74 465.03 305.18 468.30 C 296.38 486.80 285.97 504.48 276.69 522.73 C 282.85 525.63 289.20 528.21 296.06 528.79 C 300.05 527.98 304.37 528.19 307.95 525.95 C 317.25 520.54 324.15 512.09 331.98 504.90 C 336.63 500.27 342.10 496.40 345.86 490.95 C 353.65 480.41 362.16 469.81 366.07 457.14 C 363.48 452.97 361.72 448.06 362.25 443.11 C 363.19 438.05 368.39 435.39 373.08 434.81 C 380.52 424.15 384.82 411.77 388.46 399.40 C 389.67 394.83 388.47 390.02 389.53 385.42 C 390.42 381.32 389.81 377.11 390.27 372.97 C 391.72 366.84 389.59 360.69 389.80 354.49 C 388.92 350.99 389.20 347.33 388.34 343.84 C 387.44 337.25 388.59 330.56 387.77 323.97 C 387.18 321.01 386.99 317.99 387.06 314.98 C 387.45 307.31 384.87 299.97 383.49 292.52 C 379.80 273.38 377.67 253.91 372.57 235.06 C 370.86 228.48 365.99 223.47 361.10 219.04 C 350.24 230.93 335.77 238.81 321.12 245.08 C 318.21 246.58 315.29 248.19 312.03 248.76 C 301.76 250.73 291.38 252.17 280.97 253.05 C 272.73 254.34 264.22 254.48 255.99 253.04 C 245.02 252.77 234.43 249.62 224.10 246.17 C 213.61 242.51 202.98 239.07 192.98 234.20 C 183.26 229.02 180.12 217.26 180.02 207.01 C 180.27 196.29 179.15 185.43 181.70 174.90 C 182.94 166.74 188.24 160.17 191.84 152.98 C 194.78 148.03 197.47 142.54 202.46 139.31 C 211.61 132.98 220.85 126.64 230.99 121.97 C 240.05 117.79 249.99 116.19 259.78 114.74 C 264.35 113.60 269.33 113.34 273.26 110.47 C 264.01 108.40 254.47 107.81 245.01 107.87 C 235.98 107.26 226.87 107.73 218.04 109.72 M 296.10 126.70 C 285.67 127.42 275.11 129.06 265.47 133.30 C 255.85 137.27 245.99 141.12 237.36 147.01 C 232.74 149.70 228.69 153.22 224.58 156.60 C 220.47 159.86 217.87 164.50 214.66 168.56 C 210.99 174.30 206.16 179.94 205.79 187.06 C 204.20 195.97 204.71 205.74 209.53 213.63 C 213.67 221.29 221.53 226.36 229.90 228.26 C 238.48 230.06 247.41 230.66 256.12 229.43 C 263.08 228.52 270.15 229.71 277.08 228.53 C 283.35 227.40 289.81 228.83 296.03 227.27 C 309.02 224.86 321.77 220.83 333.40 214.51 C 343.23 208.95 352.34 202.20 361.17 195.19 C 368.26 187.62 372.33 177.37 373.05 167.06 C 373.02 163.35 371.95 159.73 371.90 156.01 L 371.52 156.61 C 370.85 153.45 369.78 150.40 368.76 147.34 C 362.06 143.34 355.69 138.71 348.49 135.60 C 332.08 128.61 314.00 123.78 296.10 126.70 M 86.41 247.51 C 80.26 255.33 75.36 264.36 73.27 274.15 C 72.84 278.81 71.73 283.41 71.94 288.11 C 72.01 293.73 71.67 299.39 72.73 304.95 C 73.32 316.84 77.94 327.96 81.81 339.06 C 83.22 343.59 86.25 347.31 88.53 351.41 C 98.52 368.47 109.47 385.19 116.20 403.90 C 118.04 408.07 118.81 412.80 121.58 416.49 C 127.59 422.41 136.12 426.74 144.74 424.72 C 149.90 423.34 151.48 417.59 153.61 413.36 C 150.27 407.34 146.71 401.39 144.25 394.93 C 142.41 390.30 142.26 385.22 140.39 380.61 C 132.64 359.69 125.76 338.25 123.15 316.02 C 122.46 310.79 124.15 305.21 121.82 300.27 C 119.78 295.43 117.65 290.61 116.24 285.54 C 114.19 276.84 113.82 267.90 114.02 259.01 C 112.79 250.41 111.98 241.72 110.21 233.22 C 101.82 237.05 92.44 240.11 86.41 247.51 Z" />
</g>
<g id="#75f69aff">
<path fill="#75f69a" opacity="1.00" d=" M 218.04 109.72 C 226.87 107.73 235.98 107.26 245.01 107.87 C 254.47 107.81 264.01 108.40 273.26 110.47 C 269.33 113.34 264.35 113.60 259.78 114.74 C 249.99 116.19 240.05 117.79 230.99 121.97 C 220.85 126.64 211.61 132.98 202.46 139.31 C 197.47 142.54 194.78 148.03 191.84 152.98 C 188.24 160.17 182.94 166.74 181.70 174.90 C 179.15 185.43 180.27 196.29 180.02 207.01 C 180.12 217.26 183.26 229.02 192.98 234.20 C 202.98 239.07 213.61 242.51 224.10 246.17 C 234.43 249.62 245.02 252.77 255.99 253.04 C 264.22 254.48 272.73 254.34 280.97 253.05 C 291.38 252.17 301.76 250.73 312.03 248.76 C 315.29 248.19 318.21 246.58 321.12 245.08 C 335.77 238.81 350.24 230.93 361.10 219.04 C 365.99 223.47 370.86 228.48 372.57 235.06 C 377.67 253.91 379.80 273.38 383.49 292.52 C 384.87 299.97 387.45 307.31 387.06 314.98 C 386.99 317.99 387.18 321.01 387.77 323.97 C 388.59 330.56 387.44 337.25 388.34 343.84 C 389.20 347.33 388.92 350.99 389.80 354.49 C 386.54 361.13 384.90 368.56 380.50 374.62 C 374.96 383.13 369.06 391.72 360.67 397.67 C 356.22 400.85 350.83 402.24 346.19 405.09 C 338.21 409.92 328.98 411.98 319.88 413.50 C 311.95 414.21 303.97 413.41 296.01 413.72 C 282.87 414.46 270.45 409.45 258.01 406.00 C 249.78 403.90 242.61 399.18 234.74 396.17 C 229.18 393.77 223.56 391.05 219.27 386.67 C 216.89 384.37 214.11 382.49 212.06 379.86 C 207.91 374.64 202.40 370.67 198.46 365.27 C 194.25 360.25 189.34 355.86 185.35 350.63 C 181.52 346.11 178.34 341.09 174.63 336.47 C 166.69 327.26 159.52 317.14 155.06 305.76 C 151.50 297.12 147.75 288.53 145.50 279.43 C 142.85 268.97 139.30 258.71 137.64 248.02 C 137.29 246.24 136.74 244.52 136.26 242.79 C 135.61 240.85 136.43 238.87 136.62 236.93 C 137.13 232.29 136.74 227.61 137.03 222.96 C 137.57 217.98 138.89 213.08 138.83 208.06 C 138.80 200.36 138.72 192.65 139.01 184.96 C 139.70 178.23 141.81 171.74 144.28 165.47 C 148.32 155.26 155.79 146.98 162.95 138.86 C 169.48 130.70 177.98 124.45 186.27 118.22 C 195.41 111.57 207.07 110.20 218.04 109.72 Z" />
<path fill="#75f69a" opacity="1.00" d=" M 86.41 247.51 C 92.44 240.11 101.82 237.05 110.21 233.22 C 111.98 241.72 112.79 250.41 114.02 259.01 C 113.82 267.90 114.19 276.84 116.24 285.54 C 115.04 281.59 114.38 277.51 113.76 273.44 C 107.86 272.87 101.94 274.03 96.19 275.26 C 87.41 278.01 79.49 282.95 71.94 288.11 C 71.73 283.41 72.84 278.81 73.27 274.15 C 75.36 264.36 80.26 255.33 86.41 247.51 Z" />
</g>
<g id="#92c8ddff">
<path fill="#92c8dd" opacity="1.00" d=" M 296.10 126.70 C 314.00 123.78 332.08 128.61 348.49 135.60 C 355.69 138.71 362.06 143.34 368.76 147.34 C 369.78 150.40 370.85 153.45 371.52 156.61 C 368.76 161.32 364.72 165.03 360.86 168.82 C 353.03 177.35 343.00 183.43 332.97 189.00 C 316.64 198.48 298.05 204.92 278.98 204.48 C 271.92 204.23 264.80 205.03 257.80 203.76 C 251.61 202.73 245.29 202.01 239.34 199.93 C 233.09 197.73 229.60 191.50 227.20 185.73 C 224.04 177.88 227.26 169.56 229.80 162.03 C 231.42 156.61 234.46 151.81 237.36 147.01 C 245.99 141.12 255.85 137.27 265.47 133.30 C 275.11 129.06 285.67 127.42 296.10 126.70 M 288.36 133.52 C 279.31 135.40 270.37 138.13 262.00 142.09 C 255.13 146.06 249.70 155.28 254.12 162.94 C 258.00 167.43 264.43 168.64 270.10 167.72 C 279.08 166.35 287.90 164.04 296.67 161.65 C 304.95 158.96 314.24 155.97 319.25 148.31 C 322.82 143.51 320.40 136.10 315.10 133.77 C 306.32 131.51 297.25 133.20 288.36 133.52 Z" />
</g>
<g id="#ffffffff">
<path fill="#ffffff" opacity="1.00" d=" M 288.36 133.52 C 297.25 133.20 306.32 131.51 315.10 133.77 C 320.40 136.10 322.82 143.51 319.25 148.31 C 314.24 155.97 304.95 158.96 296.67 161.65 C 287.90 164.04 279.08 166.35 270.10 167.72 C 264.43 168.64 258.00 167.43 254.12 162.94 C 249.70 155.28 255.13 146.06 262.00 142.09 C 270.37 138.13 279.31 135.40 288.36 133.52 Z" />
</g>
<g id="#47636cff">
<path fill="#47636c" opacity="1.00" d=" M 224.58 156.60 C 228.69 153.22 232.74 149.70 237.36 147.01 C 234.46 151.81 231.42 156.61 229.80 162.03 C 227.26 169.56 224.04 177.88 227.20 185.73 C 229.60 191.50 233.09 197.73 239.34 199.93 C 245.29 202.01 251.61 202.73 257.80 203.76 C 264.80 205.03 271.92 204.23 278.98 204.48 C 298.05 204.92 316.64 198.48 332.97 189.00 C 343.00 183.43 353.03 177.35 360.86 168.82 C 364.72 165.03 368.76 161.32 371.52 156.61 L 371.90 156.01 C 371.95 159.73 373.02 163.35 373.05 167.06 C 372.33 177.37 368.26 187.62 361.17 195.19 C 352.34 202.20 343.23 208.95 333.40 214.51 C 321.77 220.83 309.02 224.86 296.03 227.27 C 289.81 228.83 283.35 227.40 277.08 228.53 C 270.15 229.71 263.08 228.52 256.12 229.43 C 247.41 230.66 238.48 230.06 229.90 228.26 C 221.53 226.36 213.67 221.29 209.53 213.63 C 204.71 205.74 204.20 195.97 205.79 187.06 C 206.16 179.94 210.99 174.30 214.66 168.56 C 217.87 164.50 220.47 159.86 224.58 156.60 Z" />
</g>
<g id="#70a639ff">
<path fill="#70a639" opacity="1.00" d=" M 136.26 242.79 C 136.74 244.52 137.29 246.24 137.64 248.02 C 139.30 258.71 142.85 268.97 145.50 279.43 C 147.75 288.53 151.50 297.12 155.06 305.76 C 159.52 317.14 166.69 327.26 174.63 336.47 C 178.34 341.09 181.52 346.11 185.35 350.63 C 189.34 355.86 194.25 360.25 198.46 365.27 C 202.40 370.67 207.91 374.64 212.06 379.86 C 214.11 382.49 216.89 384.37 219.27 386.67 C 223.56 391.05 229.18 393.77 234.74 396.17 C 242.61 399.18 249.78 403.90 258.01 406.00 C 270.45 409.45 282.87 414.46 296.01 413.72 C 303.97 413.41 311.95 414.21 319.88 413.50 C 328.98 411.98 338.21 409.92 346.19 405.09 C 350.83 402.24 356.22 400.85 360.67 397.67 C 369.06 391.72 374.96 383.13 380.50 374.62 C 384.90 368.56 386.54 361.13 389.80 354.49 C 389.59 360.69 391.72 366.84 390.27 372.97 C 389.81 377.11 390.42 381.32 389.53 385.42 C 388.47 390.02 389.67 394.83 388.46 399.40 C 384.82 411.77 380.52 424.15 373.08 434.81 C 368.39 435.39 363.19 438.05 362.25 443.11 C 361.72 448.06 363.48 452.97 366.07 457.14 C 362.16 469.81 353.65 480.41 345.86 490.95 C 342.10 496.40 336.63 500.27 331.98 504.90 C 324.15 512.09 317.25 520.54 307.95 525.95 C 304.37 528.19 300.05 527.98 296.06 528.79 C 289.20 528.21 282.85 525.63 276.69 522.73 C 285.97 504.48 296.38 486.80 305.18 468.30 C 306.74 465.03 307.81 461.56 308.94 458.13 C 315.28 460.12 321.82 457.46 328.01 456.01 C 335.48 453.38 343.74 451.37 349.55 445.66 C 352.96 438.37 350.50 429.28 345.84 423.05 C 341.03 423.00 336.03 422.57 331.56 424.70 C 319.39 429.76 306.36 433.83 293.03 433.03 C 290.81 433.07 288.54 432.65 286.37 433.17 C 284.36 435.34 282.80 438.00 282.19 440.91 C 281.02 446.42 278.73 451.59 276.81 456.86 C 272.83 466.90 269.15 477.07 265.03 487.06 C 260.87 495.26 256.71 503.65 250.40 510.45 C 246.56 514.58 242.67 518.76 237.90 521.85 C 230.08 527.08 222.40 532.54 214.37 537.44 C 210.38 539.94 205.85 541.43 201.27 542.38 C 191.16 542.85 180.77 539.60 173.19 532.78 C 170.36 530.35 169.57 526.54 168.06 523.30 C 170.29 513.64 173.55 503.75 180.28 496.24 C 182.48 493.43 184.49 490.47 186.51 487.53 C 192.33 478.99 195.30 468.98 199.58 459.67 C 200.41 454.48 200.94 449.22 201.14 443.95 C 202.38 437.00 201.92 429.92 201.93 422.90 C 202.20 420.68 199.76 419.81 198.41 418.56 C 187.70 411.08 177.19 401.86 172.76 389.17 C 166.12 370.32 158.70 351.71 153.53 332.38 C 152.02 327.08 151.35 321.53 149.25 316.41 C 145.97 301.57 142.69 286.73 138.92 272.00 C 136.41 262.50 135.27 252.59 136.26 242.79 Z" />
<path fill="#70a639" opacity="1.00" d=" M 96.19 275.26 C 101.94 274.03 107.86 272.87 113.76 273.44 C 114.38 277.51 115.04 281.59 116.24 285.54 C 117.65 290.61 119.78 295.43 121.82 300.27 C 124.15 305.21 122.46 310.79 123.15 316.02 C 125.76 338.25 132.64 359.69 140.39 380.61 C 142.26 385.22 142.41 390.30 144.25 394.93 C 146.71 401.39 150.27 407.34 153.61 413.36 C 151.48 417.59 149.90 423.34 144.74 424.72 C 136.12 426.74 127.59 422.41 121.58 416.49 C 118.81 412.80 118.04 408.07 116.20 403.90 C 109.47 385.19 98.52 368.47 88.53 351.41 C 86.25 347.31 83.22 343.59 81.81 339.06 C 77.94 327.96 73.32 316.84 72.73 304.95 C 71.67 299.39 72.01 293.73 71.94 288.11 C 79.49 282.95 87.41 278.01 96.19 275.26 Z" />
</g>
</svg>
