<?xml version="1.0" encoding="UTF-8" ?>
<!DOCTYPE svg PUBLIC "-//W3C//DTD SVG 1.1//EN" "http://www.w3.org/Graphics/SVG/1.1/DTD/svg11.dtd">
<svg width="480pt" height="640pt" viewBox="0 0 480 640" version="1.1" xmlns="http://www.w3.org/2000/svg">
<g id="#000000ff">
<path fill="#000000" opacity="1.00" d=" M 213.92 84.89 C 228.13 80.51 243.32 80.29 258.00 81.96 C 266.54 81.88 275.04 83.09 283.44 84.54 C 293.73 86.35 303.25 91.17 311.64 97.28 C 315.49 100.05 318.81 103.60 323.03 105.83 C 327.43 106.31 331.93 105.58 336.28 106.64 C 349.25 109.21 362.94 112.71 372.68 122.26 C 378.67 128.34 384.92 134.58 388.48 142.47 C 390.67 149.41 392.36 156.67 392.01 164.00 C 391.30 176.58 386.94 188.56 384.60 200.84 C 386.50 210.05 389.16 219.13 391.93 228.12 C 393.68 234.32 398.09 239.41 399.29 245.80 C 403.50 263.78 406.15 282.08 409.63 300.21 C 412.20 310.30 413.00 320.74 413.19 331.11 C 414.85 340.65 413.13 350.39 414.73 359.93 C 415.23 375.30 414.98 390.70 414.91 406.09 C 413.88 415.86 411.52 426.22 404.69 433.68 C 397.46 442.42 391.17 452.25 388.33 463.34 C 386.65 468.65 386.73 474.66 383.23 479.25 C 373.75 495.81 360.74 509.93 348.03 524.01 C 337.64 535.41 326.14 546.01 312.79 553.83 C 310.09 555.16 306.99 555.42 304.03 555.62 C 294.46 554.67 285.12 552.01 276.10 548.75 C 269.46 546.35 263.21 542.12 259.73 535.83 C 253.76 540.52 248.02 545.60 241.36 549.32 C 230.61 555.38 218.96 559.78 207.04 562.88 C 197.81 565.36 188.30 563.26 178.98 562.66 C 174.51 561.98 169.94 561.72 165.60 560.37 C 161.64 559.10 158.96 555.71 155.92 553.08 C 148.06 546.02 144.43 535.34 143.97 525.01 C 143.35 507.54 150.79 491.09 159.54 476.40 C 165.99 464.68 174.57 453.86 178.23 440.81 C 167.24 444.70 156.90 450.72 145.21 452.38 C 140.77 453.42 136.28 452.28 131.86 451.74 C 124.50 450.43 117.35 447.90 110.78 444.33 C 106.49 442.28 102.88 438.88 100.33 434.90 C 89.94 413.82 78.08 393.40 69.70 371.38 C 66.46 362.70 62.32 354.40 57.68 346.40 C 53.08 339.35 51.10 330.98 49.32 322.86 C 46.66 307.42 46.18 291.57 47.99 276.01 C 48.63 266.04 51.58 256.38 55.09 247.09 C 57.72 240.01 61.93 233.51 67.47 228.38 C 71.43 224.91 75.88 222.07 80.36 219.33 C 86.86 215.47 93.60 211.74 101.00 209.95 C 104.25 209.11 107.61 208.94 110.90 208.33 C 112.15 194.88 112.60 181.33 114.95 168.00 C 116.66 157.35 122.43 148.01 127.75 138.83 C 130.24 134.30 133.63 130.18 135.07 125.14 C 142.34 115.49 153.52 110.31 164.02 105.02 C 180.27 97.44 196.56 89.60 213.92 84.89 M 220.87 109.21 C 216.33 110.31 211.61 109.67 207.06 110.66 C 199.71 111.68 192.32 113.77 186.28 118.22 C 179.26 123.42 172.28 128.76 166.20 135.05 C 158.69 143.94 150.22 152.37 145.31 163.08 C 142.31 170.06 139.81 177.36 139.03 184.95 C 138.64 192.63 138.80 200.32 138.80 208.01 C 138.90 213.05 137.56 217.97 137.06 222.96 C 136.71 228.15 137.15 233.39 136.36 238.55 C 135.81 242.01 136.53 245.50 136.28 248.98 C 135.67 259.04 138.33 268.88 140.67 278.56 C 143.22 290.19 146.11 301.74 148.55 313.40 C 151.59 323.29 153.42 333.51 156.69 343.33 C 161.16 357.84 166.66 371.99 171.71 386.30 C 173.39 391.26 175.43 396.18 178.68 400.34 C 184.75 408.99 193.57 414.99 201.89 421.27 C 202.23 434.08 201.51 446.92 199.52 459.57 C 196.41 466.79 193.75 474.23 190.18 481.25 C 186.47 488.54 181.14 494.81 176.31 501.36 C 172.53 508.06 169.47 515.37 168.30 523.02 C 168.97 527.06 171.01 531.13 174.27 533.75 C 181.58 539.80 191.17 542.64 200.59 542.45 C 206.24 541.66 211.59 539.39 216.34 536.28 C 224.44 531.11 232.36 525.67 240.25 520.19 C 254.48 509.25 263.32 492.93 269.31 476.32 C 273.85 463.86 279.48 451.77 282.81 438.91 C 283.64 436.60 285.22 434.69 286.65 432.74 C 301.79 434.61 317.00 430.97 330.85 424.98 C 335.58 422.73 340.86 422.98 345.95 423.09 C 350.09 428.89 351.99 436.33 350.54 443.35 C 349.67 446.86 346.08 448.50 343.22 450.17 C 334.81 454.12 325.87 457.08 316.68 458.57 C 314.07 459.07 311.42 458.71 308.84 458.27 C 307.53 462.62 305.96 466.91 303.88 470.96 C 295.32 488.38 285.77 505.28 276.66 522.41 C 284.01 526.48 292.49 529.78 301.02 528.19 C 305.72 527.76 309.82 525.15 313.43 522.30 C 320.46 516.74 326.46 510.04 333.03 503.98 C 336.88 500.17 341.27 496.88 344.63 492.60 C 352.97 481.53 361.74 470.40 366.31 457.13 C 363.38 453.12 361.80 448.07 362.26 443.11 C 363.26 437.79 368.75 435.62 373.42 434.52 C 380.53 423.81 384.96 411.66 388.46 399.37 C 389.55 394.85 388.99 390.15 389.36 385.55 C 390.05 381.72 389.60 377.82 390.01 373.97 C 390.26 371.15 390.85 368.31 390.42 365.49 C 389.35 359.03 389.84 352.45 388.71 346.00 C 387.12 338.26 388.86 330.29 387.54 322.52 C 387.09 319.69 387.06 316.82 387.06 313.97 C 387.23 306.60 384.79 299.55 383.46 292.38 C 379.82 273.33 377.63 253.97 372.62 235.19 C 370.91 228.56 366.05 223.48 361.09 219.04 C 351.82 229.31 339.67 236.43 327.32 242.37 C 322.33 244.17 317.89 247.31 312.71 248.60 C 299.93 251.27 286.91 252.48 273.96 253.91 C 265.50 254.46 257.12 253.32 248.74 252.39 C 239.70 251.41 231.07 248.44 222.48 245.64 C 213.69 242.53 204.83 239.55 196.29 235.81 C 192.32 234.10 188.48 231.67 186.02 228.05 C 181.56 222.39 180.49 214.99 180.04 208.02 C 180.20 194.54 178.82 180.55 183.82 167.69 C 186.17 162.61 189.29 157.94 191.86 152.98 C 194.88 147.83 197.71 142.14 203.00 138.92 C 214.11 131.39 225.26 123.44 238.14 119.22 C 248.14 115.86 258.81 115.51 268.95 112.69 C 270.50 112.17 271.87 111.26 273.27 110.45 C 264.00 108.47 254.49 107.78 245.02 107.84 C 236.96 107.39 228.80 107.51 220.87 109.21 M 296.89 126.58 C 286.45 127.43 275.84 128.82 266.15 133.02 C 256.31 137.10 246.20 140.97 237.38 147.01 C 231.48 150.71 225.91 155.05 221.05 160.04 C 215.85 166.97 210.26 173.84 206.83 181.86 C 205.21 188.68 204.26 195.89 205.62 202.85 C 207.26 213.81 215.29 223.69 225.93 227.05 C 235.87 230.29 246.62 230.65 256.95 229.36 C 263.67 228.62 270.48 229.61 277.18 228.52 C 283.43 227.48 289.85 228.76 296.05 227.28 C 309.05 224.85 321.83 220.81 333.47 214.47 C 341.46 210.03 348.84 204.61 356.14 199.15 C 365.73 192.98 370.87 181.71 372.64 170.78 C 373.70 165.85 372.09 160.94 371.92 156.02 L 371.53 156.60 C 370.82 153.46 369.78 150.42 368.79 147.37 C 360.60 142.33 352.63 136.74 343.48 133.53 C 328.72 127.85 312.73 124.19 296.89 126.58 M 87.85 245.88 C 83.61 250.54 80.35 256.01 77.58 261.64 C 73.38 269.81 72.19 279.10 71.91 288.16 C 71.88 293.76 71.75 299.38 72.64 304.92 C 73.58 317.87 78.50 330.02 82.98 342.05 C 94.63 362.60 108.43 382.21 116.45 404.61 C 118.13 408.58 118.94 413.03 121.58 416.52 C 127.58 422.38 136.15 426.81 144.72 424.69 C 149.96 423.47 151.42 417.57 153.68 413.42 C 149.21 405.27 144.03 397.20 142.36 387.90 C 141.11 380.99 138.01 374.62 135.86 367.98 C 130.14 351.11 125.14 333.83 123.26 316.07 C 122.67 311.53 123.37 306.91 122.57 302.42 C 120.62 296.79 117.92 291.44 116.26 285.71 C 114.02 276.97 113.96 267.92 114.00 258.97 C 112.89 250.37 111.78 241.76 110.34 233.21 C 102.50 236.71 93.99 239.61 87.85 245.88 Z" />
</g>
<g id="#fca86eff">
<path fill="#fca86e" opacity="1.00" d=" M 220.87 109.21 C 228.80 107.51 236.96 107.39 245.02 107.84 C 254.49 107.78 264.00 108.47 273.27 110.45 C 271.87 111.26 270.50 112.17 268.95 112.69 C 258.81 115.51 248.14 115.86 238.14 119.22 C 225.26 123.44 214.11 131.39 203.00 138.92 C 197.71 142.14 194.88 147.83 191.86 152.98 C 189.29 157.94 186.17 162.61 183.82 167.69 C 178.82 180.55 180.20 194.54 180.04 208.02 C 180.49 214.99 181.56 222.39 186.02 228.05 C 188.48 231.67 192.32 234.10 196.29 235.81 C 204.83 239.55 213.69 242.53 222.48 245.64 C 231.07 248.44 239.70 251.41 248.74 252.39 C 257.12 253.32 265.50 254.46 273.96 253.91 C 286.91 252.48 299.93 251.27 312.71 248.60 C 317.89 247.31 322.33 244.17 327.32 242.37 C 339.67 236.43 351.82 229.31 361.09 219.04 C 366.05 223.48 370.91 228.56 372.62 235.19 C 377.63 253.97 379.82 273.33 383.46 292.38 C 384.79 299.55 387.23 306.60 387.06 313.97 C 387.06 316.82 387.09 319.69 387.54 322.52 C 388.86 330.29 387.12 338.26 388.71 346.00 C 389.84 352.45 389.35 359.03 390.42 365.49 C 390.85 368.31 390.26 371.15 390.01 373.97 C 389.60 377.82 390.05 381.72 389.36 385.55 C 389.07 376.05 391.24 366.43 388.76 357.06 C 387.14 360.52 385.83 364.11 384.31 367.62 C 382.31 372.27 379.16 376.28 376.42 380.51 C 370.79 389.30 363.29 397.45 353.46 401.47 C 350.28 402.82 347.23 404.43 344.23 406.12 C 336.73 410.28 328.20 412.06 319.82 413.45 C 311.56 414.29 303.24 413.36 294.95 413.74 C 283.52 414.26 272.67 410.10 261.83 407.09 C 256.09 405.48 250.37 403.67 245.10 400.83 C 237.51 396.60 228.75 394.56 221.92 388.98 C 218.16 385.79 214.45 382.50 211.19 378.80 C 207.34 374.36 202.68 370.68 199.09 366.00 C 195.33 361.09 190.55 357.10 186.71 352.26 C 182.40 347.21 178.72 341.66 174.58 336.47 C 166.94 327.34 159.82 317.54 155.35 306.43 C 152.43 299.31 149.28 292.25 147.08 284.87 C 143.58 271.73 139.21 258.76 137.17 245.28 C 135.11 256.54 138.84 267.57 140.67 278.56 C 138.33 268.88 135.67 259.04 136.28 248.98 C 136.53 245.50 135.81 242.01 136.36 238.55 C 137.15 233.39 136.71 228.15 137.06 222.96 C 137.56 217.97 138.90 213.05 138.80 208.01 C 138.80 200.32 138.64 192.63 139.03 184.95 C 139.81 177.36 142.31 170.06 145.31 163.08 C 150.22 152.37 158.69 143.94 166.20 135.05 C 172.28 128.76 179.26 123.42 186.28 118.22 C 192.32 113.77 199.71 111.68 207.06 110.66 C 211.61 109.67 216.33 110.31 220.87 109.21 Z" />
<path fill="#fca86e" opacity="1.00" d=" M 87.85 245.88 C 93.99 239.61 102.50 236.71 110.34 233.21 C 111.78 241.76 112.89 250.37 114.00 258.97 C 113.96 267.92 114.02 276.97 116.26 285.71 C 114.89 281.78 114.26 277.66 113.77 273.56 C 107.34 272.81 100.85 274.03 94.66 275.71 C 86.50 278.66 78.97 283.17 71.91 288.16 C 72.19 279.10 73.38 269.81 77.58 261.64 C 80.35 256.01 83.61 250.54 87.85 245.88 Z" />
</g>
<g id="#92c8ddff">
<path fill="#92c8dd" opacity="1.00" d=" M 296.89 126.58 C 312.73 124.19 328.72 127.85 343.48 133.53 C 352.63 136.74 360.60 142.33 368.79 147.37 C 369.78 150.42 370.82 153.46 371.53 156.60 C 369.50 159.79 367.12 162.76 364.38 165.36 C 360.27 169.27 356.56 173.64 351.92 176.95 C 340.29 185.49 327.60 192.65 314.20 198.02 C 302.11 202.77 289.02 204.93 276.04 204.47 C 268.38 204.59 260.67 204.61 253.13 203.04 C 246.48 201.66 238.84 201.36 233.70 196.34 C 228.34 190.39 224.44 182.09 226.36 173.96 C 228.35 164.41 231.89 155.12 237.38 147.01 C 246.20 140.97 256.31 137.10 266.15 133.02 C 275.84 128.82 286.45 127.43 296.89 126.58 M 288.42 133.51 C 279.12 135.48 269.84 138.19 261.32 142.47 C 256.80 145.60 252.82 150.46 252.57 156.18 C 252.32 159.63 253.49 163.58 256.78 165.25 C 263.38 169.84 271.76 167.55 278.98 166.06 C 290.47 163.30 302.50 161.13 312.67 154.78 C 317.46 151.70 322.28 146.35 320.65 140.20 C 319.48 137.24 317.32 134.01 313.95 133.45 C 305.51 131.76 296.91 133.16 288.42 133.51 Z" />
</g>
<g id="#ffffffff">
<path fill="#ffffff" opacity="1.00" d=" M 288.42 133.51 C 296.91 133.16 305.51 131.76 313.95 133.45 C 317.32 134.01 319.48 137.24 320.65 140.20 C 322.28 146.35 317.46 151.70 312.67 154.78 C 302.50 161.13 290.47 163.30 278.98 166.06 C 271.76 167.55 263.38 169.84 256.78 165.25 C 253.49 163.58 252.32 159.63 252.57 156.18 C 252.82 150.46 256.80 145.60 261.32 142.47 C 269.84 138.19 279.12 135.48 288.42 133.51 Z" />
</g>
<g id="#47636cff">
<path fill="#47636c" opacity="1.00" d=" M 221.05 160.04 C 225.91 155.05 231.48 150.71 237.38 147.01 C 231.89 155.12 228.35 164.41 226.36 173.96 C 224.44 182.09 228.34 190.39 233.70 196.34 C 238.84 201.36 246.48 201.66 253.13 203.04 C 260.67 204.61 268.38 204.59 276.04 204.47 C 289.02 204.93 302.11 202.77 314.20 198.02 C 327.60 192.65 340.29 185.49 351.92 176.95 C 356.56 173.64 360.27 169.27 364.38 165.36 C 367.12 162.76 369.50 159.79 371.53 156.60 L 371.92 156.02 C 372.09 160.94 373.70 165.85 372.64 170.78 C 370.87 181.71 365.73 192.98 356.14 199.15 C 348.84 204.61 341.46 210.03 333.47 214.47 C 321.83 220.81 309.05 224.85 296.05 227.28 C 289.85 228.76 283.43 227.48 277.18 228.52 C 270.48 229.61 263.67 228.62 256.95 229.36 C 246.62 230.65 235.87 230.29 225.93 227.05 C 215.29 223.69 207.26 213.81 205.62 202.85 C 204.26 195.89 205.21 188.68 206.83 181.86 C 210.26 173.84 215.85 166.97 221.05 160.04 Z" />
</g>
<g id="#be5433ff">
<path fill="#be5433" opacity="1.00" d=" M 137.17 245.28 C 139.21 258.76 143.58 271.73 147.08 284.87 C 149.28 292.25 152.43 299.31 155.35 306.43 C 159.82 317.54 166.94 327.34 174.58 336.47 C 178.72 341.66 182.40 347.21 186.71 352.26 C 190.55 357.10 195.33 361.09 199.09 366.00 C 202.68 370.68 207.34 374.36 211.19 378.80 C 214.45 382.50 218.16 385.79 221.92 388.98 C 228.75 394.56 237.51 396.60 245.10 400.83 C 250.37 403.67 256.09 405.48 261.83 407.09 C 272.67 410.10 283.52 414.26 294.95 413.74 C 303.24 413.36 311.56 414.29 319.82 413.45 C 328.20 412.06 336.73 410.28 344.23 406.12 C 347.23 404.43 350.28 402.82 353.46 401.47 C 363.29 397.45 370.79 389.30 376.42 380.51 C 379.16 376.28 382.31 372.27 384.31 367.62 C 385.83 364.11 387.14 360.52 388.76 357.06 C 391.24 366.43 389.07 376.05 389.36 385.55 C 388.99 390.15 389.55 394.85 388.46 399.37 C 384.96 411.66 380.53 423.81 373.42 434.52 C 368.75 435.62 363.26 437.79 362.26 443.11 C 361.80 448.07 363.38 453.12 366.31 457.13 C 361.74 470.40 352.97 481.53 344.63 492.60 C 341.27 496.88 336.88 500.17 333.03 503.98 C 326.46 510.04 320.46 516.74 313.43 522.30 C 309.82 525.15 305.72 527.76 301.02 528.19 C 292.49 529.78 284.01 526.48 276.66 522.41 C 285.77 505.28 295.32 488.38 303.88 470.96 C 305.96 466.91 307.53 462.62 308.84 458.27 C 311.42 458.71 314.07 459.07 316.68 458.57 C 325.87 457.08 334.81 454.12 343.22 450.17 C 346.08 448.50 349.67 446.86 350.54 443.35 C 351.99 436.33 350.09 428.89 345.95 423.09 C 340.86 422.98 335.58 422.73 330.85 424.98 C 317.00 430.97 301.79 434.61 286.65 432.74 C 285.22 434.69 283.64 436.60 282.81 438.91 C 279.48 451.77 273.85 463.86 269.31 476.32 C 263.32 492.93 254.48 509.25 240.25 520.19 C 232.36 525.67 224.44 531.11 216.34 536.28 C 211.59 539.39 206.24 541.66 200.59 542.45 C 191.17 542.64 181.58 539.80 174.27 533.75 C 171.01 531.13 168.97 527.06 168.30 523.02 C 169.47 515.37 172.53 508.06 176.31 501.36 C 181.14 494.81 186.47 488.54 190.18 481.25 C 193.75 474.23 196.41 466.79 199.52 459.57 C 201.51 446.92 202.23 434.08 201.89 421.27 C 193.57 414.99 184.75 408.99 178.68 400.34 C 175.43 396.18 173.39 391.26 171.71 386.30 C 166.66 371.99 161.16 357.84 156.69 343.33 C 153.42 333.51 151.59 323.29 148.55 313.40 C 146.11 301.74 143.22 290.19 140.67 278.56 C 138.84 267.57 135.11 256.54 137.17 245.28 Z" />
<path fill="#be5433" opacity="1.00" d=" M 94.66 275.71 C 100.85 274.03 107.34 272.81 113.77 273.56 C 114.26 277.66 114.89 281.78 116.26 285.71 C 117.92 291.44 120.62 296.79 122.57 302.42 C 123.37 306.91 122.67 311.53 123.26 316.07 C 125.14 333.83 130.14 351.11 135.86 367.98 C 138.01 374.62 141.11 380.99 142.36 387.90 C 144.03 397.20 149.21 405.27 153.68 413.42 C 151.42 417.57 149.96 423.47 144.72 424.69 C 136.15 426.81 127.58 422.38 121.58 416.52 C 118.94 413.03 118.13 408.58 116.45 404.61 C 108.43 382.21 94.63 362.60 82.98 342.05 C 78.50 330.02 73.58 317.87 72.64 304.92 C 71.75 299.38 71.88 293.76 71.91 288.16 C 78.97 283.17 86.50 278.66 94.66 275.71 Z" />
</g>
</svg>
