<?xml version="1.0" encoding="UTF-8" ?>
<!DOCTYPE svg PUBLIC "-//W3C//DTD SVG 1.1//EN" "http://www.w3.org/Graphics/SVG/1.1/DTD/svg11.dtd">
<svg width="480pt" height="640pt" viewBox="0 0 480 640" version="1.1" xmlns="http://www.w3.org/2000/svg">
<g id="#000000ff">
<path fill="#000000" opacity="1.00" d=" M 219.41 83.42 C 224.13 81.81 229.16 82.01 234.03 81.29 C 244.40 80.17 254.71 82.10 265.07 82.09 C 273.13 83.00 281.28 83.70 289.13 85.88 C 296.65 87.91 303.54 91.75 309.98 96.06 C 314.53 99.09 318.24 103.36 323.15 105.84 C 327.01 106.29 330.93 105.66 334.78 106.35 C 344.22 108.09 353.68 110.43 362.31 114.75 C 370.56 119.11 376.87 126.20 382.75 133.28 C 385.67 136.94 388.37 140.97 389.46 145.58 C 390.91 151.28 392.29 157.10 392.03 163.03 C 391.58 175.95 386.98 188.25 384.59 200.83 C 386.43 209.78 389.06 218.58 391.67 227.34 C 393.38 233.83 397.94 239.14 399.29 245.76 C 403.50 263.82 406.17 282.20 409.68 300.41 C 412.18 310.39 413.04 320.70 413.17 330.97 C 414.48 338.60 413.75 346.35 414.07 354.04 C 414.58 358.34 415.06 362.65 414.98 366.99 C 414.93 380.34 415.18 393.70 414.86 407.05 C 413.67 416.25 411.49 425.98 405.15 433.11 C 397.55 442.22 390.93 452.51 388.13 464.17 C 386.61 469.47 386.46 475.35 382.85 479.82 C 376.88 490.46 369.16 499.96 361.22 509.18 C 349.47 522.74 337.51 536.37 323.02 547.09 C 317.32 551.11 311.43 555.96 304.02 555.62 C 294.22 554.63 284.64 551.91 275.43 548.48 C 269.05 546.13 263.22 541.92 259.79 535.96 C 254.55 539.63 249.91 544.10 244.43 547.44 C 233.15 554.50 220.54 559.22 207.75 562.71 C 198.38 565.43 188.66 563.31 179.17 562.70 C 173.52 561.69 167.32 561.91 162.31 558.76 C 157.05 554.33 151.62 549.69 148.56 543.39 C 142.66 531.67 142.89 517.81 146.45 505.43 C 151.59 486.00 164.29 469.97 173.55 452.46 C 175.49 448.82 177.22 445.03 178.06 440.98 C 169.19 443.82 161.03 448.57 151.99 450.94 C 147.00 452.16 141.80 453.45 136.65 452.41 C 127.81 451.50 119.17 448.81 111.34 444.62 C 105.68 441.95 100.95 437.20 98.55 431.39 C 88.87 411.96 78.08 393.01 70.22 372.72 C 66.36 362.19 61.18 352.21 55.45 342.59 C 49.68 330.23 47.97 316.50 47.03 303.04 C 46.68 285.93 47.26 268.40 53.24 252.16 C 56.60 241.27 62.78 230.84 72.45 224.46 C 82.19 217.96 92.46 211.36 104.19 209.30 C 106.33 208.74 109.11 209.40 110.81 207.82 C 112.60 192.89 112.46 177.68 116.05 163.00 C 120.10 149.06 129.49 137.61 135.65 124.66 C 138.64 120.68 142.35 117.20 146.58 114.54 C 156.25 108.50 166.63 103.70 176.99 98.97 C 190.71 92.75 204.71 86.89 219.41 83.42 M 222.90 108.85 C 215.61 110.47 208.04 109.78 200.80 111.84 C 193.41 113.32 186.80 117.28 181.14 122.15 C 175.96 125.86 171.18 130.10 166.63 134.54 C 160.03 142.36 152.78 149.75 147.60 158.64 C 144.55 163.95 142.57 169.79 140.80 175.63 C 136.88 189.73 140.38 204.55 137.66 218.80 C 136.60 225.05 137.25 231.45 136.48 237.74 C 136.28 239.39 135.81 241.09 136.30 242.74 C 135.33 252.31 136.38 261.95 138.77 271.24 C 142.39 285.49 145.64 299.84 148.80 314.20 C 151.25 321.73 152.67 329.54 154.86 337.15 C 159.20 352.02 164.63 366.54 169.92 381.09 C 172.39 387.93 174.46 395.14 179.14 400.88 C 185.10 409.29 193.83 414.96 201.81 421.23 C 202.75 434.08 201.28 446.96 199.58 459.68 C 195.18 469.45 192.04 479.93 185.73 488.73 C 182.88 493.14 179.47 497.14 176.34 501.34 C 172.61 508.14 169.39 515.47 168.39 523.22 C 169.26 526.91 170.77 530.76 173.80 533.23 C 181.22 539.71 191.25 542.72 201.02 542.33 C 207.26 541.41 212.99 538.58 218.16 535.07 C 225.59 530.25 232.92 525.26 240.18 520.17 C 252.06 511.26 259.97 498.26 265.93 484.89 C 270.71 472.37 275.71 459.94 280.31 447.35 C 281.88 443.47 281.93 439.00 284.49 435.55 C 285.38 434.36 286.22 432.62 287.99 432.85 C 293.25 432.63 298.53 433.21 303.77 432.65 C 311.59 431.61 319.28 429.59 326.58 426.60 C 331.21 424.78 335.92 422.59 341.01 422.80 C 343.16 422.92 346.00 422.57 347.23 424.81 C 350.53 430.81 352.75 438.41 349.96 445.01 C 346.10 450.01 339.66 451.82 334.01 454.02 C 326.00 456.65 317.51 459.91 308.96 458.37 C 307.81 461.43 306.90 464.59 305.55 467.58 C 298.35 482.78 290.09 497.43 282.21 512.28 C 280.41 515.71 278.18 518.96 277.07 522.71 C 284.15 526.23 291.99 529.59 300.07 528.25 C 305.07 527.96 309.50 525.34 313.33 522.30 C 320.61 516.65 326.70 509.68 333.47 503.47 C 337.01 500.00 341.02 496.99 344.15 493.13 C 351.99 482.72 360.20 472.34 365.15 460.16 C 365.53 458.99 366.35 457.60 365.58 456.42 C 363.00 451.85 360.99 446.11 362.94 440.97 C 364.73 436.75 369.52 435.89 373.28 434.28 C 380.48 424.36 384.36 412.58 387.99 401.00 C 389.42 396.52 388.53 391.76 389.28 387.18 C 390.09 382.51 389.95 377.76 390.31 373.05 C 391.25 366.87 390.07 360.65 389.55 354.49 C 389.42 350.30 388.62 346.14 388.08 341.99 C 387.58 335.46 388.63 328.87 387.53 322.39 C 386.84 317.97 387.01 313.49 386.81 309.05 C 385.92 302.36 383.99 295.87 382.83 289.23 C 379.65 271.50 377.39 253.57 372.88 236.11 C 371.25 229.21 366.52 223.54 361.07 219.22 C 349.87 231.12 335.25 239.08 320.39 245.47 C 314.71 248.92 308.01 249.52 301.61 250.60 C 292.45 251.93 283.27 253.00 274.06 253.90 C 263.22 254.42 252.40 253.06 241.73 251.28 C 227.86 247.94 214.46 242.93 201.14 237.86 C 195.34 235.53 188.99 233.01 185.58 227.42 C 178.77 217.72 180.08 205.21 179.96 193.99 C 179.62 186.97 180.55 179.96 182.08 173.12 C 183.60 165.93 188.27 160.05 191.51 153.61 C 194.54 148.49 197.23 142.74 202.39 139.39 C 211.95 132.73 221.66 126.08 232.36 121.36 C 241.25 117.44 250.95 116.14 260.46 114.56 C 264.73 113.51 269.55 113.42 273.05 110.40 C 264.16 108.60 255.07 107.75 246.00 107.84 C 238.30 107.56 230.50 107.30 222.90 108.85 M 266.11 133.04 C 256.23 137.19 245.94 140.96 237.19 147.24 C 231.35 150.83 225.82 155.06 221.10 160.04 C 215.84 166.92 210.28 173.81 206.85 181.83 C 204.26 192.23 203.75 204.08 209.48 213.58 C 213.49 220.99 220.98 226.08 229.08 228.03 C 238.20 230.24 247.76 230.58 257.06 229.36 C 263.82 228.59 270.66 229.64 277.39 228.48 C 282.53 227.61 287.77 228.40 292.94 227.82 C 306.30 225.65 319.43 221.72 331.50 215.51 C 340.27 210.95 348.22 205.03 356.14 199.16 C 365.52 193.11 370.70 182.16 372.52 171.44 C 373.67 166.28 372.42 161.04 371.55 155.95 C 370.58 153.10 369.93 150.13 368.61 147.42 C 360.04 141.63 351.17 136.02 341.29 132.73 C 329.05 128.20 316.09 125.17 302.96 125.97 C 290.53 127.12 277.72 127.97 266.11 133.04 M 85.57 248.55 C 79.89 256.17 75.19 264.79 73.34 274.20 C 72.79 278.82 71.72 283.42 72.04 288.11 C 71.77 296.79 72.40 305.47 73.94 314.01 C 75.87 323.15 79.29 331.86 82.43 340.63 C 84.09 344.70 86.80 348.22 88.94 352.03 C 98.67 368.64 109.31 384.93 115.93 403.12 C 117.60 407.15 118.66 411.45 120.73 415.31 C 126.89 422.69 137.47 427.37 146.90 423.84 C 150.22 421.35 152.44 417.01 153.16 413.04 C 150.61 407.33 147.01 402.13 144.74 396.29 C 142.42 391.05 142.25 385.20 140.12 379.91 C 135.89 368.49 131.91 356.98 128.82 345.20 C 125.57 332.37 122.47 319.27 122.88 305.95 C 123.10 301.84 120.77 298.28 119.38 294.57 C 117.37 290.20 116.45 285.45 115.05 280.88 C 114.00 272.99 114.14 265.04 113.85 257.13 C 112.35 249.25 112.18 241.11 110.08 233.36 C 101.30 237.17 91.49 240.54 85.57 248.55 Z" />
</g>
<g id="#ff77e5ff">
<path fill="#ff77e5" opacity="1.00" d=" M 222.90 108.85 C 230.50 107.30 238.30 107.56 246.00 107.84 C 255.07 107.75 264.16 108.60 273.05 110.40 C 269.55 113.42 264.73 113.51 260.46 114.56 C 250.95 116.14 241.25 117.44 232.36 121.36 C 221.66 126.08 211.95 132.73 202.39 139.39 C 197.23 142.74 194.54 148.49 191.51 153.61 C 188.27 160.05 183.60 165.93 182.08 173.12 C 180.55 179.96 179.62 186.97 179.96 193.99 C 180.08 205.21 178.77 217.72 185.58 227.42 C 188.99 233.01 195.34 235.53 201.14 237.86 C 214.46 242.93 227.86 247.94 241.73 251.28 C 252.40 253.06 263.22 254.42 274.06 253.90 C 283.27 253.00 292.45 251.93 301.61 250.60 C 308.01 249.52 314.71 248.92 320.39 245.47 C 335.25 239.08 349.87 231.12 361.07 219.22 C 366.52 223.54 371.25 229.21 372.88 236.11 C 377.39 253.57 379.65 271.50 382.83 289.23 C 383.99 295.87 385.92 302.36 386.81 309.05 C 387.01 313.49 386.84 317.97 387.53 322.39 C 388.63 328.87 387.58 335.46 388.08 341.99 C 388.62 346.14 389.42 350.30 389.55 354.49 C 386.74 361.37 384.72 368.71 380.25 374.76 C 375.31 382.71 369.98 390.66 362.49 396.45 C 357.73 399.97 352.02 401.82 346.94 404.80 C 339.13 409.39 330.25 411.64 321.42 413.30 C 317.98 413.94 314.47 414.00 310.99 413.92 C 299.51 413.48 287.75 414.90 276.61 411.34 C 266.63 407.87 255.92 406.46 246.48 401.50 C 238.24 396.97 228.76 394.65 221.40 388.58 C 218.05 385.59 214.53 382.76 211.64 379.30 C 207.91 374.78 203.06 371.30 199.54 366.58 C 197.56 363.89 195.22 361.50 192.82 359.18 C 184.42 350.74 178.26 340.47 170.47 331.51 C 164.70 323.98 159.21 316.06 155.71 307.19 C 152.37 299.09 148.73 291.08 146.40 282.61 C 144.35 275.30 142.46 267.94 140.34 260.64 C 138.61 254.76 137.98 248.63 136.30 242.74 C 135.81 241.09 136.28 239.39 136.48 237.74 C 137.25 231.45 136.60 225.05 137.66 218.80 C 140.38 204.55 136.88 189.73 140.80 175.63 C 142.57 169.79 144.55 163.95 147.60 158.64 C 152.78 149.75 160.03 142.36 166.63 134.54 C 171.18 130.10 175.96 125.86 181.14 122.15 C 186.80 117.28 193.41 113.32 200.80 111.84 C 208.04 109.78 215.61 110.47 222.90 108.85 Z" />
<path fill="#ff77e5" opacity="1.00" d=" M 85.57 248.55 C 91.49 240.54 101.30 237.17 110.08 233.36 C 112.18 241.11 112.35 249.25 113.85 257.13 C 114.14 265.04 114.00 272.99 115.05 280.88 C 114.48 278.73 114.26 276.51 113.71 274.36 C 113.22 272.82 111.26 273.19 110.03 273.16 C 103.38 273.86 96.52 274.43 90.40 277.37 C 83.98 280.38 77.77 283.90 72.04 288.11 C 71.72 283.42 72.79 278.82 73.34 274.20 C 75.19 264.79 79.89 256.17 85.57 248.55 Z" />
</g>
<g id="#92c8ddff">
<path fill="#92c8dd" opacity="1.00" d=" M 266.11 133.04 C 277.72 127.97 290.53 127.12 302.96 125.97 C 316.09 125.17 329.05 128.20 341.29 132.73 C 351.17 136.02 360.04 141.63 368.61 147.42 C 369.93 150.13 370.58 153.10 371.55 155.95 C 369.23 161.18 364.81 164.90 360.86 168.86 C 353.17 177.20 343.36 183.15 333.54 188.64 C 315.93 199.02 295.61 205.51 275.00 204.38 C 263.46 204.97 251.93 203.28 240.79 200.37 C 233.47 198.55 229.34 191.43 226.97 184.82 C 224.35 177.46 227.32 169.82 229.59 162.79 C 231.27 157.23 234.18 152.17 237.19 147.24 C 245.94 140.96 256.23 137.19 266.11 133.04 M 303.47 132.54 C 297.39 133.37 291.15 132.54 285.18 134.19 C 277.03 136.21 268.89 138.64 261.39 142.47 C 257.32 145.46 253.27 149.55 252.71 154.83 C 251.96 158.65 253.21 163.16 256.74 165.19 C 261.77 168.81 268.33 168.31 274.08 167.08 C 284.71 164.81 295.46 162.63 305.56 158.49 C 311.24 156.09 317.08 152.74 319.94 147.01 C 321.64 143.87 321.25 139.80 318.94 137.08 C 315.66 132.00 308.72 132.90 303.47 132.54 Z" />
</g>
<g id="#ffffffff">
<path fill="#ffffff" opacity="1.00" d=" M 303.47 132.54 C 308.72 132.90 315.66 132.00 318.94 137.08 C 321.25 139.80 321.64 143.87 319.94 147.01 C 317.08 152.74 311.24 156.09 305.56 158.49 C 295.46 162.63 284.71 164.81 274.08 167.08 C 268.33 168.31 261.77 168.81 256.74 165.19 C 253.21 163.16 251.96 158.65 252.71 154.83 C 253.27 149.55 257.32 145.46 261.39 142.47 C 268.89 138.64 277.03 136.21 285.18 134.19 C 291.15 132.54 297.39 133.37 303.47 132.54 Z" />
</g>
<g id="#47636cff">
<path fill="#47636c" opacity="1.00" d=" M 221.10 160.04 C 225.82 155.06 231.35 150.83 237.19 147.24 C 234.18 152.17 231.27 157.23 229.59 162.79 C 227.32 169.82 224.35 177.46 226.97 184.82 C 229.34 191.43 233.47 198.55 240.79 200.37 C 251.93 203.28 263.46 204.97 275.00 204.38 C 295.61 205.51 315.93 199.02 333.54 188.64 C 343.36 183.15 353.17 177.20 360.86 168.86 C 364.81 164.90 369.23 161.18 371.55 155.95 C 372.42 161.04 373.67 166.28 372.52 171.44 C 370.70 182.16 365.52 193.11 356.14 199.16 C 348.22 205.03 340.27 210.95 331.50 215.51 C 319.43 221.72 306.30 225.65 292.94 227.82 C 287.77 228.40 282.53 227.61 277.39 228.48 C 270.66 229.64 263.82 228.59 257.06 229.36 C 247.76 230.58 238.20 230.24 229.08 228.03 C 220.98 226.08 213.49 220.99 209.48 213.58 C 203.75 204.08 204.26 192.23 206.85 181.83 C 210.28 173.81 215.84 166.92 221.10 160.04 Z" />
</g>
<g id="#e53995ff">
<path fill="#e53995" opacity="1.00" d=" M 136.30 242.74 C 137.98 248.63 138.61 254.76 140.34 260.64 C 142.46 267.94 144.35 275.30 146.40 282.61 C 148.73 291.08 152.37 299.09 155.71 307.19 C 159.21 316.06 164.70 323.98 170.47 331.51 C 178.26 340.47 184.42 350.74 192.82 359.18 C 195.22 361.50 197.56 363.89 199.54 366.58 C 203.06 371.30 207.91 374.78 211.64 379.30 C 214.53 382.76 218.05 385.59 221.40 388.58 C 228.76 394.65 238.24 396.97 246.48 401.50 C 255.92 406.46 266.63 407.87 276.61 411.34 C 287.75 414.90 299.51 413.48 310.99 413.92 C 314.47 414.00 317.98 413.94 321.42 413.30 C 330.25 411.64 339.13 409.39 346.94 404.80 C 352.02 401.82 357.73 399.97 362.49 396.45 C 369.98 390.66 375.31 382.71 380.25 374.76 C 384.72 368.71 386.74 361.37 389.55 354.49 C 390.07 360.65 391.25 366.87 390.31 373.05 C 389.95 377.76 390.09 382.51 389.28 387.18 C 388.53 391.76 389.42 396.52 387.99 401.00 C 384.36 412.58 380.48 424.36 373.28 434.28 C 369.52 435.89 364.73 436.75 362.94 440.97 C 360.99 446.11 363.00 451.85 365.58 456.42 C 366.35 457.60 365.53 458.99 365.15 460.16 C 360.20 472.34 351.99 482.72 344.15 493.13 C 341.02 496.99 337.01 500.00 333.47 503.47 C 326.70 509.68 320.61 516.65 313.33 522.30 C 309.50 525.34 305.07 527.96 300.07 528.25 C 291.99 529.59 284.15 526.23 277.07 522.71 C 278.18 518.96 280.41 515.71 282.21 512.28 C 290.09 497.43 298.35 482.78 305.55 467.58 C 306.90 464.59 307.81 461.43 308.96 458.37 C 317.51 459.91 326.00 456.65 334.01 454.02 C 339.66 451.82 346.10 450.01 349.96 445.01 C 352.75 438.41 350.53 430.81 347.23 424.81 C 346.00 422.57 343.16 422.92 341.01 422.80 C 335.92 422.59 331.21 424.78 326.58 426.60 C 319.28 429.59 311.59 431.61 303.77 432.65 C 298.53 433.21 293.25 432.63 287.99 432.85 C 286.22 432.62 285.38 434.36 284.49 435.55 C 281.93 439.00 281.88 443.47 280.31 447.35 C 275.71 459.94 270.71 472.37 265.93 484.89 C 259.97 498.26 252.06 511.26 240.18 520.17 C 232.92 525.26 225.59 530.25 218.16 535.07 C 212.99 538.58 207.26 541.41 201.02 542.33 C 191.25 542.72 181.22 539.71 173.80 533.23 C 170.77 530.76 169.26 526.91 168.39 523.22 C 169.39 515.47 172.61 508.14 176.34 501.34 C 179.47 497.14 182.88 493.14 185.73 488.73 C 192.04 479.93 195.18 469.45 199.58 459.68 C 201.28 446.96 202.75 434.08 201.81 421.23 C 193.83 414.96 185.10 409.29 179.14 400.88 C 174.46 395.14 172.39 387.93 169.92 381.09 C 164.63 366.54 159.20 352.02 154.86 337.15 C 152.67 329.54 151.25 321.73 148.80 314.20 C 145.64 299.84 142.39 285.49 138.77 271.24 C 136.38 261.95 135.33 252.31 136.30 242.74 Z" />
<path fill="#e53995" opacity="1.00" d=" M 90.40 277.37 C 96.52 274.43 103.38 273.86 110.03 273.16 C 111.26 273.19 113.22 272.82 113.71 274.36 C 114.26 276.51 114.48 278.73 115.05 280.88 C 116.45 285.45 117.37 290.20 119.38 294.57 C 120.77 298.28 123.10 301.84 122.88 305.95 C 122.47 319.27 125.57 332.37 128.82 345.20 C 131.91 356.98 135.89 368.49 140.12 379.91 C 142.25 385.20 142.42 391.05 144.74 396.29 C 147.01 402.13 150.61 407.33 153.16 413.04 C 152.44 417.01 150.22 421.35 146.90 423.84 C 137.47 427.37 126.89 422.69 120.73 415.31 C 118.66 411.45 117.60 407.15 115.93 403.12 C 109.31 384.93 98.67 368.64 88.94 352.03 C 86.80 348.22 84.09 344.70 82.43 340.63 C 79.29 331.86 75.87 323.15 73.94 314.01 C 72.40 305.47 71.77 296.79 72.04 288.11 C 77.77 283.90 83.98 280.38 90.40 277.37 Z" />
</g>
</svg>
