<?xml version="1.0" encoding="UTF-8" ?>
<!DOCTYPE svg PUBLIC "-//W3C//DTD SVG 1.1//EN" "http://www.w3.org/Graphics/SVG/1.1/DTD/svg11.dtd">
<svg width="480pt" height="640pt" viewBox="0 0 480 640" version="1.1" xmlns="http://www.w3.org/2000/svg">
<g id="#000000ff">
<path fill="#000000" opacity="1.00" d=" M 222.59 82.58 C 232.84 81.13 243.30 80.43 253.64 81.51 C 257.71 82.39 261.87 81.79 265.98 82.12 C 274.03 83.25 282.22 83.73 290.03 86.16 C 296.76 88.02 302.88 91.51 308.74 95.22 C 313.75 98.42 317.84 102.90 323.00 105.86 C 326.68 106.31 330.42 105.65 334.10 106.25 C 343.56 107.92 353.00 110.25 361.70 114.42 C 369.12 118.20 375.10 124.21 380.41 130.52 C 384.42 135.10 388.36 140.17 389.62 146.26 C 391.37 152.68 392.50 159.32 391.92 165.99 C 390.68 177.23 387.49 188.12 384.81 199.07 C 384.27 200.99 384.91 202.93 385.37 204.79 C 387.64 213.09 389.64 221.48 392.44 229.63 C 394.15 234.96 397.96 239.40 399.08 244.96 C 404.04 265.45 406.57 286.43 411.11 307.00 C 412.29 314.60 413.23 322.26 413.04 329.97 C 414.47 337.89 413.82 345.96 414.03 353.97 C 415.66 364.87 414.76 375.95 415.00 386.94 C 414.75 396.03 415.77 405.25 413.78 414.21 C 412.07 420.00 410.79 426.13 406.91 430.96 C 400.92 438.16 395.14 445.72 391.46 454.40 C 388.47 460.92 387.24 468.03 385.64 474.97 C 376.99 491.42 364.64 505.52 352.32 519.32 C 341.14 531.81 329.16 543.94 314.70 552.62 C 311.76 555.15 307.70 555.22 304.05 555.68 C 294.25 554.56 284.68 551.94 275.46 548.51 C 269.10 546.07 263.00 541.96 259.78 535.79 C 253.77 540.50 248.01 545.62 241.30 549.35 C 230.59 555.39 218.98 559.76 207.10 562.87 C 197.84 565.40 188.30 563.21 178.95 562.69 C 173.19 561.51 166.66 562.00 161.73 558.33 C 156.93 554.09 151.81 549.88 148.92 544.03 C 142.49 531.92 142.89 517.37 146.70 504.51 C 152.11 485.26 164.71 469.32 173.88 451.84 C 175.70 448.36 177.26 444.73 178.17 440.91 C 165.89 445.15 154.28 452.13 141.02 452.88 C 130.95 452.11 120.88 449.77 111.96 444.91 C 106.05 442.30 101.01 437.47 98.61 431.44 C 88.97 412.23 78.33 393.46 70.49 373.41 C 66.54 362.63 61.37 352.33 55.39 342.54 C 49.60 329.84 47.80 315.78 47.01 301.98 C 47.22 294.01 46.44 285.96 47.88 278.07 C 48.23 267.37 51.35 256.98 55.12 247.04 C 58.53 237.82 64.69 229.53 72.95 224.12 C 81.36 218.48 90.14 213.03 99.93 210.21 C 103.52 209.01 107.36 209.23 110.98 208.22 C 110.63 203.75 112.17 199.45 112.02 195.00 C 111.76 190.29 113.27 185.73 113.10 181.01 C 114.21 172.73 114.88 164.18 118.36 156.46 C 121.57 149.23 125.56 142.39 129.66 135.64 C 131.53 132.20 134.22 129.10 134.99 125.16 C 138.23 121.61 141.37 117.88 145.46 115.28 C 151.38 111.42 157.66 108.13 164.01 105.02 C 182.91 96.06 202.10 87.25 222.59 82.58 M 218.05 109.71 C 209.91 110.13 201.61 110.86 193.97 113.97 C 188.95 115.90 184.70 119.27 180.56 122.61 C 175.65 125.95 171.43 130.14 167.02 134.07 C 158.96 143.76 149.53 152.77 144.63 164.62 C 141.50 172.37 138.84 180.53 138.84 188.98 C 138.67 195.30 138.74 201.63 138.77 207.96 C 138.91 214.71 136.53 221.25 136.86 228.01 C 137.13 234.37 135.68 240.63 136.24 246.98 C 135.69 253.50 136.62 259.95 137.79 266.35 C 140.82 280.95 144.87 295.37 147.82 310.02 C 148.59 314.68 150.41 319.07 151.44 323.68 C 156.35 345.97 165.02 367.17 172.58 388.64 C 175.78 398.32 182.72 406.28 190.53 412.61 C 194.10 415.63 198.16 418.05 201.59 421.23 C 202.68 433.99 201.31 446.92 199.58 459.60 C 196.70 466.04 194.30 472.69 191.27 479.07 C 188.41 485.29 184.30 490.80 180.25 496.28 C 174.75 502.13 171.94 509.85 169.52 517.36 C 169.03 519.89 167.56 522.64 168.78 525.18 C 169.91 527.87 170.86 530.82 173.20 532.74 C 180.73 539.58 191.17 542.93 201.27 542.36 C 205.87 541.44 210.44 539.95 214.43 537.42 C 222.84 532.28 230.89 526.58 239.06 521.06 C 251.78 511.87 260.28 498.13 266.35 483.90 C 271.39 470.45 277.06 457.23 281.54 443.58 C 282.16 439.50 283.97 435.75 286.75 432.71 C 294.16 432.74 301.68 433.40 309.00 431.84 C 316.09 430.53 322.95 428.21 329.60 425.46 C 334.40 423.41 339.79 422.33 344.98 423.08 C 348.66 424.91 349.28 429.63 350.47 433.16 C 350.94 437.27 351.60 441.90 349.53 445.68 C 344.13 450.98 336.57 453.02 329.63 455.50 C 322.92 457.33 315.89 459.83 308.87 458.24 C 307.62 462.30 306.24 466.32 304.30 470.11 C 296.15 486.80 287.07 503.02 278.28 519.38 C 277.94 520.42 276.84 521.50 277.34 522.64 C 286.62 528.32 299.38 531.27 309.24 525.22 C 318.23 519.44 325.18 511.17 333.00 504.00 C 336.98 499.95 341.70 496.62 345.07 492.01 C 351.66 483.15 358.64 474.42 363.29 464.34 C 364.48 461.80 365.89 459.26 365.92 456.38 C 362.98 452.44 361.70 447.23 362.43 442.39 C 363.75 437.47 368.98 435.57 373.42 434.52 C 380.43 424.00 384.78 412.05 388.29 399.99 C 389.40 395.44 388.24 390.68 389.42 386.13 C 390.47 381.82 389.99 377.37 390.33 372.99 C 391.17 366.88 390.19 360.71 389.63 354.61 C 389.47 351.72 388.97 348.85 388.67 345.98 C 387.22 338.34 388.84 330.51 387.62 322.85 C 387.20 320.23 387.03 317.59 387.06 314.94 C 387.42 306.08 384.15 297.65 382.83 288.98 C 379.93 272.64 377.66 256.18 373.89 240.01 C 372.88 235.78 371.70 231.49 369.23 227.86 C 367.03 224.47 363.95 221.82 361.07 219.04 C 351.83 229.29 339.71 236.40 327.40 242.34 C 322.61 243.99 318.38 246.97 313.52 248.40 C 300.52 251.22 287.24 252.38 274.05 253.90 C 265.56 254.42 257.18 253.29 248.78 252.39 C 239.66 251.43 230.97 248.39 222.30 245.58 C 213.35 242.39 204.31 239.39 195.64 235.50 C 191.46 233.65 187.55 230.83 185.19 226.84 C 181.49 221.68 180.70 215.17 180.09 209.03 C 180.24 195.29 178.78 181.06 183.73 167.92 C 186.35 162.31 189.77 157.11 192.63 151.62 C 195.35 147.14 197.85 142.16 202.45 139.31 C 212.05 132.73 221.68 126.01 232.39 121.34 C 241.62 117.34 251.66 116.11 261.47 114.38 C 265.42 113.34 269.94 113.31 273.03 110.29 C 267.11 108.98 261.04 108.66 255.03 107.98 C 242.69 107.78 230.18 106.73 218.05 109.71 M 265.46 133.31 C 255.80 137.28 245.94 141.16 237.28 147.06 C 231.41 150.70 225.97 155.12 221.04 159.97 C 215.77 167.21 209.86 174.24 206.54 182.65 C 204.42 192.85 203.76 204.31 209.48 213.52 C 214.58 223.23 225.49 228.45 236.08 229.26 C 242.69 230.22 249.46 230.45 256.08 229.44 C 263.33 228.50 270.71 229.78 277.91 228.39 C 283.65 227.48 289.54 228.77 295.23 227.44 C 304.81 225.60 314.33 223.18 323.31 219.31 C 337.30 213.65 349.39 204.36 361.23 195.19 C 368.46 187.28 372.69 176.65 373.07 165.94 C 372.78 162.61 371.90 159.34 371.94 155.98 L 371.50 156.66 C 370.90 153.47 369.78 150.43 368.77 147.36 C 360.36 142.12 352.09 136.45 342.64 133.21 C 329.98 128.45 316.59 125.13 302.98 125.94 C 290.32 127.15 277.24 128.00 265.46 133.31 M 87.38 246.39 C 77.49 257.90 71.46 272.94 72.04 288.21 C 72.09 293.28 71.45 298.39 72.47 303.42 C 73.26 316.90 78.35 329.55 82.98 342.07 C 94.80 362.82 108.74 382.66 116.74 405.35 C 118.32 409.08 119.09 413.26 121.57 416.53 C 127.23 422.02 134.88 426.12 143.00 424.80 C 149.31 425.01 151.18 418.08 153.66 413.63 C 150.12 406.63 145.72 399.99 143.42 392.44 C 142.26 388.81 142.08 384.94 140.67 381.39 C 132.98 360.51 125.89 339.15 123.34 316.95 C 122.72 312.17 123.78 307.26 122.68 302.55 C 120.52 296.88 117.86 291.40 116.21 285.55 C 114.03 276.86 113.98 267.86 114.04 258.96 C 112.90 250.38 111.77 241.80 110.43 233.25 C 102.30 236.68 93.53 239.76 87.38 246.39 Z" />
</g>
<g id="#ff7777ff">
<path fill="#ff7777" opacity="1.00" d=" M 218.05 109.71 C 230.18 106.73 242.69 107.78 255.03 107.98 C 261.04 108.66 267.11 108.98 273.03 110.29 C 269.94 113.31 265.42 113.34 261.47 114.38 C 251.66 116.11 241.62 117.34 232.39 121.34 C 221.68 126.01 212.05 132.73 202.45 139.31 C 197.85 142.16 195.35 147.14 192.63 151.62 C 189.77 157.11 186.35 162.31 183.73 167.92 C 178.78 181.06 180.24 195.29 180.09 209.03 C 180.70 215.17 181.49 221.68 185.19 226.84 C 187.55 230.83 191.46 233.65 195.64 235.50 C 204.31 239.39 213.35 242.39 222.30 245.58 C 230.97 248.39 239.66 251.43 248.78 252.39 C 257.18 253.29 265.56 254.42 274.05 253.90 C 287.24 252.38 300.52 251.22 313.52 248.40 C 318.38 246.97 322.61 243.99 327.40 242.34 C 339.71 236.40 351.83 229.29 361.07 219.04 C 363.95 221.82 367.03 224.47 369.23 227.86 C 371.70 231.49 372.88 235.78 373.89 240.01 C 377.66 256.18 379.93 272.64 382.83 288.98 C 384.15 297.65 387.42 306.08 387.06 314.94 C 387.03 317.59 387.20 320.23 387.62 322.85 C 388.84 330.51 387.22 338.34 388.67 345.98 C 388.97 348.85 389.47 351.72 389.63 354.61 C 386.31 361.63 384.53 369.44 379.67 375.66 C 373.06 386.01 365.30 396.78 353.43 401.40 C 348.04 403.37 343.54 407.14 338.08 408.91 C 329.08 412.02 319.55 414.30 309.97 413.72 C 302.69 413.42 295.41 413.92 288.14 413.50 C 277.26 412.21 266.89 408.40 256.39 405.47 C 250.02 403.74 244.43 400.17 238.44 397.55 C 231.60 394.90 224.63 391.87 219.32 386.66 C 217.09 384.54 214.48 382.82 212.56 380.39 C 207.76 374.23 201.33 369.55 196.78 363.17 C 190.68 356.92 184.86 350.39 179.75 343.29 C 174.52 335.61 167.80 329.04 163.08 320.99 C 157.53 313.13 154.41 303.96 150.73 295.16 C 146.46 285.08 144.37 274.29 141.29 263.83 C 139.51 257.77 138.09 251.63 137.25 245.37 C 135.07 252.29 137.61 259.36 137.79 266.35 C 136.62 259.95 135.69 253.50 136.24 246.98 C 135.68 240.63 137.13 234.37 136.86 228.01 C 136.53 221.25 138.91 214.71 138.77 207.96 C 138.74 201.63 138.67 195.30 138.84 188.98 C 138.84 180.53 141.50 172.37 144.63 164.62 C 149.53 152.77 158.96 143.76 167.02 134.07 C 171.43 130.14 175.65 125.95 180.56 122.61 C 184.70 119.27 188.95 115.90 193.97 113.97 C 201.61 110.86 209.91 110.13 218.05 109.71 Z" />
<path fill="#ff7777" opacity="1.00" d=" M 87.38 246.39 C 93.53 239.76 102.30 236.68 110.43 233.25 C 111.77 241.80 112.90 250.38 114.04 258.96 C 113.98 267.86 114.03 276.86 116.21 285.55 C 114.71 281.75 114.40 277.65 113.37 273.74 C 110.85 272.09 107.76 273.61 105.01 273.74 C 92.69 274.47 81.76 281.13 72.04 288.21 C 71.46 272.94 77.49 257.90 87.38 246.39 Z" />
</g>
<g id="#92c8ddff">
<path fill="#92c8dd" opacity="1.00" d=" M 265.46 133.31 C 277.24 128.00 290.32 127.15 302.98 125.94 C 316.59 125.13 329.98 128.45 342.64 133.21 C 352.09 136.45 360.36 142.12 368.77 147.36 C 369.78 150.43 370.90 153.47 371.50 156.66 C 368.14 162.39 362.85 166.53 358.38 171.33 C 354.51 175.62 349.48 178.55 344.88 181.96 C 332.34 189.86 319.16 197.09 304.83 201.15 C 294.80 203.83 284.38 204.95 274.01 204.44 C 262.79 205.06 251.61 203.17 240.76 200.46 C 233.51 198.52 229.35 191.51 226.93 184.92 C 224.21 177.28 227.37 169.33 229.80 162.06 C 231.33 156.63 234.49 151.90 237.28 147.06 C 245.94 141.16 255.80 137.28 265.46 133.31 M 288.43 133.49 C 279.13 135.47 269.91 138.23 261.36 142.43 C 254.87 146.59 249.84 155.45 254.08 162.90 C 257.71 167.09 263.66 168.58 269.04 167.83 C 277.60 166.76 285.94 164.45 294.29 162.32 C 301.33 160.32 308.48 157.95 314.42 153.53 C 318.46 150.50 322.06 145.61 320.71 140.28 C 319.64 137.68 317.93 135.03 315.34 133.77 C 306.48 131.63 297.39 133.14 288.43 133.49 Z" />
</g>
<g id="#ffffffff">
<path fill="#ffffff" opacity="1.00" d=" M 288.43 133.49 C 297.39 133.14 306.48 131.63 315.34 133.77 C 317.93 135.03 319.64 137.68 320.71 140.28 C 322.06 145.61 318.46 150.50 314.42 153.53 C 308.48 157.95 301.33 160.32 294.29 162.32 C 285.94 164.45 277.60 166.76 269.04 167.83 C 263.66 168.58 257.71 167.09 254.08 162.90 C 249.84 155.45 254.87 146.59 261.36 142.43 C 269.91 138.23 279.13 135.47 288.43 133.49 Z" />
</g>
<g id="#47636cff">
<path fill="#47636c" opacity="1.00" d=" M 221.04 159.97 C 225.97 155.12 231.41 150.70 237.28 147.06 C 234.49 151.90 231.33 156.63 229.80 162.06 C 227.37 169.33 224.21 177.28 226.93 184.92 C 229.35 191.51 233.51 198.52 240.76 200.46 C 251.61 203.17 262.79 205.06 274.01 204.44 C 284.38 204.95 294.80 203.83 304.83 201.15 C 319.16 197.09 332.34 189.86 344.88 181.96 C 349.48 178.55 354.51 175.62 358.38 171.33 C 362.85 166.53 368.14 162.39 371.50 156.66 L 371.94 155.98 C 371.90 159.34 372.78 162.61 373.07 165.94 C 372.69 176.65 368.46 187.28 361.23 195.19 C 349.39 204.36 337.30 213.65 323.31 219.31 C 314.33 223.18 304.81 225.60 295.23 227.44 C 289.54 228.77 283.65 227.48 277.91 228.39 C 270.71 229.78 263.33 228.50 256.08 229.44 C 249.46 230.45 242.69 230.22 236.08 229.26 C 225.49 228.45 214.58 223.23 209.48 213.52 C 203.76 204.31 204.42 192.85 206.54 182.65 C 209.86 174.24 215.77 167.21 221.04 159.97 Z" />
</g>
<g id="#e5381cff">
<path fill="#e5381c" opacity="1.00" d=" M 137.79 266.35 C 137.61 259.36 135.07 252.29 137.25 245.37 C 138.09 251.63 139.51 257.77 141.29 263.83 C 144.37 274.29 146.46 285.08 150.73 295.16 C 154.41 303.96 157.53 313.13 163.08 320.99 C 167.80 329.04 174.52 335.61 179.75 343.29 C 184.86 350.39 190.68 356.92 196.78 363.17 C 201.33 369.55 207.76 374.23 212.56 380.39 C 214.48 382.82 217.09 384.54 219.32 386.66 C 224.63 391.87 231.60 394.90 238.44 397.55 C 244.43 400.17 250.02 403.74 256.39 405.47 C 266.89 408.40 277.26 412.21 288.14 413.50 C 295.41 413.92 302.69 413.42 309.97 413.72 C 319.55 414.30 329.08 412.02 338.08 408.91 C 343.54 407.14 348.04 403.37 353.43 401.40 C 365.30 396.78 373.06 386.01 379.67 375.66 C 384.53 369.44 386.31 361.63 389.63 354.61 C 390.19 360.71 391.17 366.88 390.33 372.99 C 389.99 377.37 390.47 381.82 389.42 386.13 C 388.24 390.68 389.40 395.44 388.29 399.99 C 384.78 412.05 380.43 424.00 373.42 434.52 C 368.98 435.57 363.75 437.47 362.43 442.39 C 361.70 447.23 362.98 452.44 365.92 456.38 C 365.89 459.26 364.48 461.80 363.29 464.34 C 358.64 474.42 351.66 483.15 345.07 492.01 C 341.70 496.62 336.98 499.95 333.00 504.00 C 325.18 511.17 318.23 519.44 309.24 525.22 C 299.38 531.27 286.62 528.32 277.34 522.64 C 276.84 521.50 277.94 520.42 278.28 519.38 C 287.07 503.02 296.15 486.80 304.30 470.11 C 306.24 466.32 307.62 462.30 308.87 458.24 C 315.89 459.83 322.92 457.33 329.63 455.50 C 336.57 453.02 344.13 450.98 349.53 445.68 C 351.60 441.90 350.94 437.27 350.47 433.16 C 349.28 429.63 348.66 424.91 344.98 423.08 C 339.79 422.33 334.40 423.41 329.60 425.46 C 322.95 428.21 316.09 430.53 309.00 431.84 C 301.68 433.40 294.16 432.74 286.75 432.71 C 283.97 435.75 282.16 439.50 281.54 443.58 C 277.06 457.23 271.39 470.45 266.35 483.90 C 260.28 498.13 251.78 511.87 239.06 521.06 C 230.89 526.58 222.84 532.28 214.43 537.42 C 210.44 539.95 205.87 541.44 201.27 542.36 C 191.17 542.93 180.73 539.58 173.20 532.74 C 170.86 530.82 169.91 527.87 168.78 525.18 C 167.56 522.64 169.03 519.89 169.52 517.36 C 171.94 509.85 174.75 502.13 180.25 496.28 C 184.30 490.80 188.41 485.29 191.27 479.07 C 194.30 472.69 196.70 466.04 199.58 459.60 C 201.31 446.92 202.68 433.99 201.59 421.23 C 198.16 418.05 194.10 415.63 190.53 412.61 C 182.72 406.28 175.78 398.32 172.58 388.64 C 165.02 367.17 156.35 345.97 151.44 323.68 C 150.41 319.07 148.59 314.68 147.82 310.02 C 144.87 295.37 140.82 280.95 137.79 266.35 Z" />
<path fill="#e5381c" opacity="1.00" d=" M 105.01 273.74 C 107.76 273.61 110.85 272.09 113.37 273.74 C 114.40 277.65 114.71 281.75 116.21 285.55 C 117.86 291.40 120.52 296.88 122.68 302.55 C 123.78 307.26 122.72 312.17 123.34 316.95 C 125.89 339.15 132.98 360.51 140.67 381.39 C 142.08 384.94 142.26 388.81 143.42 392.44 C 145.72 399.99 150.12 406.63 153.66 413.63 C 151.18 418.08 149.31 425.01 143.00 424.80 C 134.88 426.12 127.23 422.02 121.57 416.53 C 119.09 413.26 118.32 409.08 116.74 405.35 C 108.74 382.66 94.80 362.82 82.98 342.07 C 78.35 329.55 73.26 316.90 72.47 303.42 C 71.45 298.39 72.09 293.28 72.04 288.21 C 81.76 281.13 92.69 274.47 105.01 273.74 Z" />
</g>
</svg>
