<?xml version="1.0" encoding="UTF-8" ?>
<!DOCTYPE svg PUBLIC "-//W3C//DTD SVG 1.1//EN" "http://www.w3.org/Graphics/SVG/1.1/DTD/svg11.dtd">
<svg width="480pt" height="640pt" viewBox="0 0 480 640" version="1.1" xmlns="http://www.w3.org/2000/svg">
<g id="#000000ff">
<path fill="#000000" opacity="1.00" d=" M 224.87 82.19 C 234.42 81.15 244.07 80.43 253.65 81.53 C 259.12 82.39 264.71 81.64 270.16 82.67 C 281.80 83.76 293.69 85.93 303.76 92.20 C 310.66 95.67 316.03 101.36 322.43 105.56 C 326.19 106.59 330.26 105.57 334.12 106.26 C 343.56 107.90 352.98 110.25 361.66 114.40 C 370.22 118.72 376.71 125.99 382.73 133.26 C 385.69 136.93 388.36 141.01 389.48 145.66 C 391.14 151.97 392.49 158.49 391.96 165.06 C 390.97 176.66 387.45 187.83 384.83 199.13 C 384.25 201.21 385.06 203.30 385.51 205.33 C 387.75 213.48 389.70 221.72 392.47 229.72 C 394.24 234.98 397.90 239.43 399.07 244.92 C 404.03 265.43 406.57 286.43 411.12 307.02 C 412.35 314.65 413.15 322.36 413.10 330.10 C 414.34 337.68 413.88 345.37 414.02 353.02 C 415.75 367.60 414.72 382.32 415.00 396.97 C 415.49 410.21 413.15 424.74 403.80 434.78 C 397.46 442.61 391.90 451.30 389.00 461.03 C 387.55 465.59 386.82 470.34 385.58 474.96 C 377.03 491.49 364.58 505.54 352.28 519.36 C 340.98 532.04 328.77 544.21 314.14 553.04 C 311.19 555.06 307.51 555.41 304.04 555.60 C 294.73 554.73 285.65 552.13 276.86 549.03 C 269.94 546.65 263.34 542.38 259.74 535.83 C 253.94 540.36 248.40 545.28 241.99 548.95 C 231.33 555.10 219.71 559.48 207.85 562.69 C 198.17 565.46 188.11 563.27 178.31 562.57 C 173.17 561.70 167.64 561.75 162.98 559.17 C 155.45 553.56 148.49 546.34 146.03 537.00 C 141.78 523.63 144.51 509.20 149.41 496.41 C 154.45 484.06 161.66 472.79 168.54 461.41 C 172.36 454.85 176.30 448.23 178.25 440.83 C 167.44 444.57 157.32 450.53 145.87 452.27 C 140.96 453.48 135.96 452.28 131.07 451.60 C 122.78 450.02 114.78 446.89 107.58 442.49 C 104.76 440.42 102.18 437.90 100.34 434.92 C 90.97 415.91 80.43 397.47 72.28 377.88 C 68.25 367.27 63.85 356.78 58.03 347.01 C 53.11 339.56 50.96 330.72 49.18 322.09 C 46.66 306.87 46.21 291.29 47.99 275.97 C 48.64 266.02 51.58 256.39 55.08 247.12 C 58.04 239.22 62.90 231.92 69.53 226.65 C 81.75 217.70 95.40 209.35 110.90 208.33 C 111.02 202.85 112.22 197.45 112.12 191.95 C 113.38 181.02 113.60 169.78 117.23 159.28 C 121.27 148.90 127.40 139.53 133.07 130.00 C 133.95 128.48 134.51 126.81 135.06 125.15 C 142.33 115.49 153.52 110.31 164.03 105.01 C 183.63 95.78 203.50 86.47 224.87 82.19 M 226.40 108.22 C 221.65 109.01 216.94 110.23 212.08 110.08 C 203.31 110.88 194.22 112.65 186.88 117.83 C 179.79 122.97 172.83 128.35 166.66 134.59 C 158.78 143.86 149.87 152.67 144.93 163.99 C 142.11 170.70 139.79 177.70 139.02 184.97 C 138.73 192.64 138.84 200.33 138.85 208.01 C 138.94 213.02 137.62 217.91 137.05 222.86 C 136.80 227.25 137.06 231.66 136.74 236.04 C 136.61 238.32 135.58 240.59 136.31 242.86 C 135.20 252.62 136.45 262.48 138.92 271.95 C 142.69 286.69 145.96 301.54 149.27 316.39 C 151.48 322.09 152.29 328.18 153.97 334.04 C 158.69 351.02 165.01 367.50 170.96 384.07 C 172.83 389.51 174.73 395.05 178.25 399.68 C 184.32 408.68 193.41 414.81 201.92 421.28 C 201.86 428.54 202.40 435.85 201.29 443.07 C 200.37 449.96 201.18 457.40 197.82 463.74 C 194.94 470.46 192.51 477.40 188.87 483.77 C 185.32 489.73 181.09 495.25 176.80 500.69 C 172.48 507.58 169.77 515.42 168.07 523.35 C 169.54 526.62 170.44 530.37 173.25 532.81 C 180.81 539.56 191.15 542.90 201.23 542.32 C 206.62 541.47 211.72 539.23 216.29 536.26 C 224.19 531.25 231.89 525.92 239.60 520.63 C 254.21 509.69 263.22 493.10 269.31 476.24 C 273.85 463.78 279.49 451.67 282.81 438.80 C 283.62 436.52 285.22 434.66 286.62 432.74 C 301.52 434.46 316.50 431.14 330.13 425.22 C 335.05 422.78 340.57 422.85 345.92 423.05 C 350.25 428.88 352.10 436.50 350.52 443.62 C 349.41 447.18 345.64 448.81 342.65 450.51 C 334.14 454.37 325.17 457.29 315.93 458.72 C 313.57 459.15 311.20 458.71 308.89 458.26 C 307.47 463.09 305.61 467.78 303.29 472.25 C 294.82 489.21 285.66 505.81 276.61 522.46 C 282.67 525.70 289.16 528.19 296.07 528.77 C 300.56 528.13 305.33 527.92 309.18 525.24 C 319.17 518.77 326.70 509.37 335.55 501.54 C 339.01 498.37 342.72 495.39 345.42 491.51 C 353.30 480.77 362.12 470.09 366.03 457.17 C 363.37 452.36 360.75 446.41 362.97 440.97 C 364.79 436.78 369.52 435.84 373.32 434.32 C 380.43 424.32 384.42 412.56 388.01 400.95 C 389.74 395.95 388.56 390.59 389.52 385.47 C 390.38 380.97 389.82 376.36 390.44 371.84 C 391.43 366.19 389.70 360.56 389.72 354.89 L 389.85 354.60 C 389.13 351.77 389.11 348.84 388.72 345.96 C 386.97 338.05 389.00 329.85 387.42 321.92 C 386.75 317.62 387.27 313.27 386.88 308.96 C 385.46 300.57 383.17 292.36 381.90 283.95 C 379.22 267.87 376.88 251.68 372.81 235.88 C 371.18 228.98 366.24 223.67 361.13 219.09 C 351.63 229.49 339.24 236.75 326.60 242.69 C 321.67 244.47 317.31 247.69 312.12 248.75 C 301.01 250.92 289.76 252.34 278.51 253.37 C 271.40 254.32 264.07 254.40 257.00 253.16 C 239.03 252.57 222.22 245.49 205.50 239.56 C 198.75 236.74 190.95 234.73 186.37 228.57 C 179.80 220.27 179.84 209.06 180.02 199.00 C 179.74 186.18 179.99 172.34 187.23 161.21 C 192.18 153.37 195.33 143.66 203.55 138.49 C 214.90 130.85 226.33 122.72 239.60 118.76 C 248.54 115.95 257.96 115.45 267.02 113.16 C 269.32 112.89 271.28 111.62 273.16 110.35 C 264.23 108.66 255.14 107.75 246.04 107.89 C 239.50 107.63 232.92 107.51 226.40 108.22 M 296.90 126.56 C 286.43 127.43 275.80 128.83 266.08 133.04 C 256.29 137.11 246.22 140.96 237.43 146.96 C 234.04 148.94 230.94 151.37 227.91 153.85 C 219.75 159.86 214.49 168.78 209.10 177.17 C 205.92 181.84 205.66 187.60 205.05 193.03 C 204.13 204.09 208.29 215.95 217.46 222.63 C 226.73 229.47 238.89 230.05 249.99 230.02 C 257.32 229.17 264.68 228.90 272.07 229.01 C 278.37 228.26 284.69 227.92 291.03 227.98 C 301.07 226.71 310.95 224.07 320.41 220.49 C 335.53 214.84 348.61 205.07 361.19 195.18 C 367.63 188.34 371.52 179.23 372.76 169.96 C 373.62 165.31 371.98 160.72 371.95 156.07 L 371.54 156.67 C 370.81 153.50 369.81 150.42 368.77 147.35 C 362.05 143.32 355.67 138.68 348.45 135.58 C 332.30 128.67 314.55 123.99 296.90 126.56 M 93.42 241.38 C 86.02 246.06 81.52 253.94 77.64 261.54 C 73.43 269.76 72.14 279.09 71.94 288.22 C 71.61 296.21 72.44 304.16 73.51 312.07 C 75.50 322.39 79.31 332.25 83.02 342.05 C 94.81 362.79 108.71 382.62 116.73 405.27 C 118.31 409.01 119.03 413.24 121.59 416.48 C 127.56 422.37 136.09 426.74 144.64 424.71 C 149.88 423.45 151.40 417.60 153.62 413.42 C 150.41 407.57 146.93 401.83 144.51 395.60 C 142.46 390.54 142.17 384.98 140.14 379.92 C 132.58 359.59 125.95 338.70 123.29 317.10 C 122.41 311.27 124.27 305.02 121.52 299.54 C 119.05 294.03 116.88 288.38 115.59 282.47 C 113.82 274.37 114.07 266.09 113.93 257.86 C 112.68 249.67 111.78 241.42 110.36 233.25 C 104.60 235.70 98.72 238.01 93.42 241.38 Z" />
</g>
<g id="#f7f274ff">
<path fill="#f7f274" opacity="1.00" d=" M 226.40 108.22 C 232.92 107.51 239.50 107.63 246.04 107.89 C 255.14 107.75 264.23 108.66 273.16 110.35 C 271.28 111.62 269.32 112.89 267.02 113.16 C 257.96 115.45 248.54 115.95 239.60 118.76 C 226.33 122.72 214.90 130.85 203.55 138.49 C 195.33 143.66 192.18 153.37 187.23 161.21 C 179.99 172.34 179.74 186.18 180.02 199.00 C 179.84 209.06 179.80 220.27 186.37 228.57 C 190.95 234.73 198.75 236.74 205.50 239.56 C 222.22 245.49 239.03 252.57 257.00 253.16 C 264.07 254.40 271.40 254.32 278.51 253.37 C 289.76 252.34 301.01 250.92 312.12 248.75 C 317.31 247.69 321.67 244.47 326.60 242.69 C 339.24 236.75 351.63 229.49 361.13 219.09 C 366.24 223.67 371.18 228.98 372.81 235.88 C 376.88 251.68 379.22 267.87 381.90 283.95 C 383.17 292.36 385.46 300.57 386.88 308.96 C 387.27 313.27 386.75 317.62 387.42 321.92 C 389.00 329.85 386.97 338.05 388.72 345.96 C 389.11 348.84 389.13 351.77 389.85 354.60 L 389.72 354.89 C 386.94 360.53 385.36 366.72 382.11 372.13 C 376.59 380.44 371.35 389.17 363.51 395.54 C 358.35 400.20 351.46 401.96 345.59 405.47 C 338.47 409.76 330.24 411.60 322.16 413.15 C 315.84 414.36 309.38 413.72 302.99 413.72 C 296.66 413.64 290.26 414.22 284.00 413.01 C 275.44 411.46 267.19 408.63 258.83 406.29 C 253.80 404.93 248.98 402.89 244.35 400.51 C 237.76 397.09 230.55 394.92 224.31 390.84 C 217.73 386.12 212.25 380.10 206.72 374.23 C 201.70 369.88 198.05 364.27 193.36 359.60 C 186.29 352.88 180.89 344.71 174.97 337.02 C 168.42 329.32 162.41 321.09 157.84 312.05 C 152.25 299.76 147.15 287.18 144.00 274.01 C 140.95 263.75 138.63 253.31 136.31 242.86 C 135.58 240.59 136.61 238.32 136.74 236.04 C 137.06 231.66 136.80 227.25 137.05 222.86 C 137.62 217.91 138.94 213.02 138.85 208.01 C 138.84 200.33 138.73 192.64 139.02 184.97 C 139.79 177.70 142.11 170.70 144.93 163.99 C 149.87 152.67 158.78 143.86 166.66 134.59 C 172.83 128.35 179.79 122.97 186.88 117.83 C 194.22 112.65 203.31 110.88 212.08 110.08 C 216.94 110.23 221.65 109.01 226.40 108.22 Z" />
<path fill="#f7f274" opacity="1.00" d=" M 93.42 241.38 C 98.72 238.01 104.60 235.70 110.36 233.25 C 111.78 241.42 112.68 249.67 113.93 257.86 C 114.07 266.09 113.82 274.37 115.59 282.47 C 114.88 279.53 114.29 276.56 113.65 273.61 C 107.52 272.74 101.34 274.08 95.39 275.50 C 86.95 278.42 79.20 283.07 71.94 288.22 C 72.14 279.09 73.43 269.76 77.64 261.54 C 81.52 253.94 86.02 246.06 93.42 241.38 Z" />
</g>
<g id="#92c8ddff">
<path fill="#92c8dd" opacity="1.00" d=" M 296.90 126.56 C 314.55 123.99 332.30 128.67 348.45 135.58 C 355.67 138.68 362.05 143.32 368.77 147.35 C 369.81 150.42 370.81 153.50 371.54 156.67 C 369.49 159.85 367.07 162.80 364.32 165.41 C 360.23 169.30 356.54 173.67 351.91 176.96 C 339.97 185.66 327.02 193.09 313.21 198.38 C 300.78 203.18 287.31 205.02 274.03 204.44 C 262.80 204.95 251.55 203.33 240.73 200.41 C 233.46 198.55 229.30 191.45 226.91 184.86 C 224.32 177.77 227.06 170.35 229.25 163.54 C 231.05 157.61 234.06 152.14 237.43 146.96 C 246.22 140.96 256.29 137.11 266.08 133.04 C 275.80 128.83 286.43 127.43 296.90 126.56 M 288.40 133.52 C 279.12 135.47 269.87 138.19 261.36 142.45 C 256.84 145.59 252.79 150.45 252.56 156.20 C 252.36 159.63 253.44 163.61 256.77 165.25 C 261.51 168.62 267.62 168.28 273.06 167.27 C 281.49 165.61 289.87 163.69 298.10 161.22 C 304.71 159.02 311.55 156.52 316.65 151.60 C 319.66 148.74 321.81 144.51 320.67 140.29 C 319.50 137.21 317.22 133.93 313.72 133.42 C 305.35 131.73 296.82 133.19 288.40 133.52 Z" />
</g>
<g id="#ffffffff">
<path fill="#ffffff" opacity="1.00" d=" M 288.40 133.52 C 296.82 133.19 305.35 131.73 313.72 133.42 C 317.22 133.93 319.50 137.21 320.67 140.29 C 321.81 144.51 319.66 148.74 316.65 151.60 C 311.55 156.52 304.71 159.02 298.10 161.22 C 289.87 163.69 281.49 165.61 273.06 167.27 C 267.62 168.28 261.51 168.62 256.77 165.25 C 253.44 163.61 252.36 159.63 252.56 156.20 C 252.79 150.45 256.84 145.59 261.36 142.45 C 269.87 138.19 279.12 135.47 288.40 133.52 Z" />
</g>
<g id="#47636cff">
<path fill="#47636c" opacity="1.00" d=" M 227.91 153.85 C 230.94 151.37 234.04 148.94 237.43 146.96 C 234.06 152.14 231.05 157.61 229.25 163.54 C 227.06 170.35 224.32 177.77 226.91 184.86 C 229.30 191.45 233.46 198.55 240.73 200.41 C 251.55 203.33 262.80 204.95 274.03 204.44 C 287.31 205.02 300.78 203.18 313.21 198.38 C 327.02 193.09 339.97 185.66 351.91 176.96 C 356.54 173.67 360.23 169.30 364.32 165.41 C 367.07 162.80 369.49 159.85 371.54 156.67 L 371.95 156.07 C 371.98 160.72 373.62 165.31 372.76 169.96 C 371.52 179.23 367.63 188.34 361.19 195.18 C 348.61 205.07 335.53 214.84 320.41 220.49 C 310.95 224.07 301.07 226.71 291.03 227.98 C 284.69 227.92 278.37 228.26 272.07 229.01 C 264.68 228.90 257.32 229.17 249.99 230.02 C 238.89 230.05 226.73 229.47 217.46 222.63 C 208.29 215.95 204.13 204.09 205.05 193.03 C 205.66 187.60 205.92 181.84 209.10 177.17 C 214.49 168.78 219.75 159.86 227.91 153.85 Z" />
</g>
<g id="#ba8537ff">
<path fill="#ba8537" opacity="1.00" d=" M 136.31 242.86 C 138.63 253.31 140.95 263.75 144.00 274.01 C 147.15 287.18 152.25 299.76 157.84 312.05 C 162.41 321.09 168.42 329.32 174.97 337.02 C 180.89 344.71 186.29 352.88 193.36 359.60 C 198.05 364.27 201.70 369.88 206.72 374.23 C 212.25 380.10 217.73 386.12 224.31 390.84 C 230.55 394.92 237.76 397.09 244.35 400.51 C 248.98 402.89 253.80 404.93 258.83 406.29 C 267.19 408.63 275.44 411.46 284.00 413.01 C 290.26 414.22 296.66 413.64 302.99 413.72 C 309.38 413.72 315.84 414.36 322.16 413.15 C 330.24 411.60 338.47 409.76 345.59 405.47 C 351.46 401.96 358.35 400.20 363.51 395.54 C 371.35 389.17 376.59 380.44 382.11 372.13 C 385.36 366.72 386.94 360.53 389.72 354.89 C 389.70 360.56 391.43 366.19 390.44 371.84 C 389.82 376.36 390.38 380.97 389.52 385.47 C 388.56 390.59 389.74 395.95 388.01 400.95 C 384.42 412.56 380.43 424.32 373.32 434.32 C 369.52 435.84 364.79 436.78 362.97 440.97 C 360.75 446.41 363.37 452.36 366.03 457.17 C 362.12 470.09 353.30 480.77 345.42 491.51 C 342.72 495.39 339.01 498.37 335.55 501.54 C 326.70 509.37 319.17 518.77 309.18 525.24 C 305.33 527.92 300.56 528.13 296.07 528.77 C 289.16 528.19 282.67 525.70 276.61 522.46 C 285.66 505.81 294.82 489.21 303.29 472.25 C 305.61 467.78 307.47 463.09 308.89 458.26 C 311.20 458.71 313.57 459.15 315.93 458.72 C 325.17 457.29 334.14 454.37 342.65 450.51 C 345.64 448.81 349.41 447.18 350.52 443.62 C 352.10 436.50 350.25 428.88 345.92 423.05 C 340.57 422.85 335.05 422.78 330.13 425.22 C 316.50 431.14 301.52 434.46 286.62 432.74 C 285.22 434.66 283.62 436.52 282.81 438.80 C 279.49 451.67 273.85 463.78 269.31 476.24 C 263.22 493.10 254.21 509.69 239.60 520.63 C 231.89 525.92 224.19 531.25 216.29 536.26 C 211.72 539.23 206.62 541.47 201.23 542.32 C 191.15 542.90 180.81 539.56 173.25 532.81 C 170.44 530.37 169.54 526.62 168.07 523.35 C 169.77 515.42 172.48 507.58 176.80 500.69 C 181.09 495.25 185.32 489.73 188.87 483.77 C 192.51 477.40 194.94 470.46 197.82 463.74 C 201.18 457.40 200.37 449.96 201.29 443.07 C 202.40 435.85 201.86 428.54 201.92 421.28 C 193.41 414.81 184.32 408.68 178.25 399.68 C 174.73 395.05 172.83 389.51 170.96 384.07 C 165.01 367.50 158.69 351.02 153.97 334.04 C 152.29 328.18 151.48 322.09 149.27 316.39 C 145.96 301.54 142.69 286.69 138.92 271.95 C 136.45 262.48 135.20 252.62 136.31 242.86 Z" />
<path fill="#ba8537" opacity="1.00" d=" M 95.39 275.50 C 101.34 274.08 107.52 272.74 113.65 273.61 C 114.29 276.56 114.88 279.53 115.59 282.47 C 116.88 288.38 119.05 294.03 121.52 299.54 C 124.27 305.02 122.41 311.27 123.29 317.10 C 125.95 338.70 132.58 359.59 140.14 379.92 C 142.17 384.98 142.46 390.54 144.51 395.60 C 146.93 401.83 150.41 407.57 153.62 413.42 C 151.40 417.60 149.88 423.45 144.64 424.71 C 136.09 426.74 127.56 422.37 121.59 416.48 C 119.03 413.24 118.31 409.01 116.73 405.27 C 108.71 382.62 94.81 362.79 83.02 342.05 C 79.31 332.25 75.50 322.39 73.51 312.07 C 72.44 304.16 71.61 296.21 71.94 288.22 C 79.20 283.07 86.95 278.42 95.39 275.50 Z" />
</g>
</svg>
